<svg width="21" height="18" viewBox="0 0 21 18" fill="none" xmlns="http://www.w3.org/2000/svg">
<path fill-rule="evenodd" clip-rule="evenodd" d="M16.2805 0.390893C14.0031 -0.516793 11.6101 0.225859 10.0257 2.32179C8.44142 0.209355 6.04843 -0.533297 3.77097 0.390893C1.44399 1.29858 -0.651939 4.07115 0.189734 7.99895C1.60902 14.4848 9.51414 17.835 9.86071 17.9505C9.91022 18 10.0257 18 10.0918 18C10.1413 18 10.2568 18 10.3228 17.9505C10.6694 17.835 18.5085 14.4188 19.9938 7.99895C20.786 4.07115 18.624 1.34809 16.2805 0.390893ZM9.25003 4.99959H10.75V8.25031H13.9999V9.75031H10.75V12.9996H9.25003V9.75031H5.99992V8.25031H9.25003V4.99959Z" fill="#FFFFFF"/>
</svg>
