<svg width="19" height="4" viewBox="0 0 19 4" fill="none" xmlns="http://www.w3.org/2000/svg">
<path fill-rule="evenodd" clip-rule="evenodd" d="M18.5 2C18.5 3.10457 17.6046 4 16.5 4C15.3954 4 14.5 3.10457 14.5 2C14.5 0.895431 15.3954 0 16.5 0C17.6046 0 18.5 0.895431 18.5 2Z" fill="#BABFBB"/>
<path fill-rule="evenodd" clip-rule="evenodd" d="M11.5 2C11.5 3.10457 10.6046 4 9.5 4C8.39543 4 7.5 3.10457 7.5 2C7.5 0.895431 8.39543 0 9.5 0C10.6046 0 11.5 0.895431 11.5 2Z" fill="#BABFBB"/>
<path fill-rule="evenodd" clip-rule="evenodd" d="M4.5 2C4.5 3.10457 3.60457 4 2.5 4C1.39543 4 0.5 3.10457 0.5 2C0.5 0.895431 1.39543 0 2.5 0C3.60457 0 4.5 0.895431 4.5 2Z" fill="#161514"/>
</svg>
