<svg width="161" height="164" viewBox="0 0 161 164" fill="none" xmlns="http://www.w3.org/2000/svg">
<path d="M62.3876 39.8918C59.3577 39.8918 56.8911 42.3923 56.8911 45.4637C56.8911 48.538 59.3577 51.037 62.3876 51.037C65.4189 51.037 67.8841 48.538 67.8841 45.4637C67.8841 42.3923 65.4189 39.8918 62.3876 39.8918Z" fill="white"/>
<path d="M45.9398 9.09088C42.9085 9.09088 40.4434 11.5914 40.4434 14.6628C40.4434 17.7371 42.9085 20.2361 45.9398 20.2361C48.9711 20.2361 51.4363 17.7371 51.4363 14.6628C51.4363 11.5914 48.9711 9.09088 45.9398 9.09088Z" fill="white"/>
<path d="M98.3471 39.8918C95.3158 39.8918 92.8506 42.3923 92.8506 45.4637C92.8506 48.538 95.3158 51.037 98.3471 51.037C101.378 51.037 103.844 48.538 103.844 45.4637C103.844 42.3923 101.378 39.8918 98.3471 39.8918Z" fill="white"/>
<path d="M114.799 9.06641C114.769 9.06641 114.737 9.06641 114.706 9.06787C113.238 9.09276 111.867 9.69445 110.846 10.7646C109.825 11.8333 109.278 13.2431 109.301 14.732C109.324 16.2194 109.921 17.6087 110.975 18.6437C112.03 19.6802 113.421 20.2322 114.888 20.2102C116.357 20.1853 117.728 19.5836 118.749 18.5135C119.77 17.4448 120.318 16.0349 120.294 14.5461C120.245 11.5054 117.788 9.06641 114.799 9.06641Z" fill="white"/>
<path d="M80.3681 0C77.3382 0 74.8716 2.50047 74.8716 5.57336C74.8716 8.64625 77.3382 11.1453 80.3681 11.1453C83.3993 11.1453 85.8645 8.64625 85.8645 5.57336C85.8645 2.50047 83.3993 0 80.3681 0Z" fill="white"/>
<path d="M80.3681 72.8515C77.3382 72.8515 74.8716 75.352 74.8716 78.4234C74.8716 81.4978 77.3382 83.9968 80.3681 83.9968C83.3993 83.9968 85.8645 81.4978 85.8645 78.4234C85.8645 75.352 83.3993 72.8515 80.3681 72.8515Z" fill="white"/>
<path d="M5.49647 74.5945C2.46662 74.5945 0 77.0935 0 80.1664C0 83.2393 2.46662 85.7397 5.49647 85.7397C8.52776 85.7397 10.9929 83.2393 10.9929 80.1664C10.9929 77.0935 8.52776 74.5945 5.49647 74.5945Z" fill="white"/>
<path d="M118.442 139.608C115.41 139.608 112.945 142.109 112.945 145.182C112.945 148.255 115.41 150.754 118.442 150.754C121.473 150.754 123.938 148.255 123.938 145.182C123.938 142.109 121.473 139.608 118.442 139.608Z" fill="white"/>
<path d="M143.34 110.798C140.309 110.798 137.844 113.298 137.844 116.371C137.844 119.444 140.309 121.943 143.34 121.943C146.37 121.943 148.837 119.444 148.837 116.371C148.837 113.298 146.37 110.798 143.34 110.798Z" fill="white"/>
<path d="M155.24 74.5945C152.209 74.5945 149.744 77.0935 149.744 80.1664C149.744 83.2393 152.209 85.7397 155.24 85.7397C158.271 85.7397 160.737 83.2393 160.737 80.1664C160.737 77.0935 158.271 74.5945 155.24 74.5945Z" fill="white"/>
<path d="M42.2992 139.609C39.2679 139.609 36.8027 142.109 36.8027 145.181C36.8027 148.255 39.2679 150.754 42.2992 150.754C45.329 150.754 47.7957 148.255 47.7957 145.181C47.7957 142.109 45.329 139.609 42.2992 139.609Z" fill="white"/>
<path d="M17.3969 110.798C14.3656 110.798 11.9004 113.298 11.9004 116.371C11.9004 119.444 14.3656 121.943 17.3969 121.943C20.4281 121.943 22.8933 119.444 22.8933 116.371C22.8933 113.298 20.4281 110.798 17.3969 110.798Z" fill="white"/>
<path opacity="0.5" d="M40.8469 68.1824C34.8016 68.1824 29.8843 73.1673 29.8843 79.2955C29.8843 85.4237 34.8016 90.4085 40.8469 90.4085C46.8921 90.4085 51.8095 85.4237 51.8095 79.2955C51.8095 73.1673 46.8921 68.1824 40.8469 68.1824Z" fill="white"/>
<path opacity="0.5" d="M100.559 104.441C94.5135 104.441 89.5947 109.426 89.5947 115.555C89.5947 121.682 94.5135 126.667 100.559 126.667C106.604 126.667 111.521 121.682 111.521 115.555C111.521 109.426 106.604 104.441 100.559 104.441Z" fill="white"/>
<path d="M21.5134 31.5411C15.4696 31.5411 10.5522 36.526 10.5522 42.6557C10.5522 48.7824 15.4696 53.7672 21.5134 53.7672C27.5587 53.7672 32.4775 48.7824 32.4775 42.6557C32.4775 36.526 27.5587 31.5411 21.5134 31.5411Z" fill="white"/>
<path opacity="0.5" d="M80.3689 141.031C74.3251 141.031 69.4062 146.016 69.4062 152.144C69.4062 158.272 74.3251 163.257 80.3689 163.257C86.4141 163.257 91.3315 158.272 91.3315 152.144C91.3315 146.016 86.4141 141.031 80.3689 141.031Z" fill="white"/>
<path opacity="0.5" d="M60.1779 104.39C54.1327 104.39 49.2139 109.374 49.2139 115.504C49.2139 121.631 54.1327 126.616 60.1779 126.616C66.2232 126.616 71.1405 121.631 71.1405 115.504C71.1405 109.374 66.2232 104.39 60.1779 104.39Z" fill="white"/>
<path opacity="0.5" d="M119.89 68.1824C113.845 68.1824 108.926 73.1673 108.926 79.2955C108.926 85.4237 113.845 90.4085 119.89 90.4085C125.936 90.4085 130.853 85.4237 130.853 79.2955C130.853 73.1673 125.936 68.1824 119.89 68.1824Z" fill="white"/>
<path opacity="0.5" d="M139.654 31.5411C133.609 31.5411 128.691 36.526 128.691 42.6557C128.691 48.7824 133.609 53.7672 139.654 53.7672C145.699 53.7672 150.615 48.7824 150.615 42.6557C150.615 36.526 145.699 31.5411 139.654 31.5411Z" fill="white"/>
</svg>
