<svg width="23" height="31" viewBox="0 0 23 31" fill="none" xmlns="http://www.w3.org/2000/svg">
<path d="M1.00734 10.382L1.00734 10.382C0.900723 13.1569 1.95861 15.7805 3.99747 17.775C5.83783 19.5738 6.87596 21.8274 6.87596 24.129V26.6732C6.87596 28.319 8.27952 29.6943 10.0485 29.6943H12.9865C14.7554 29.6943 16.159 28.319 16.159 26.6732V24.1213C16.159 21.7884 17.1546 19.569 18.9382 17.8701L18.9383 17.8701C20.9391 15.9652 22.035 13.4406 22.035 10.7578C22.035 5.17388 17.2521 0.599689 11.3332 0.695822L1.00734 10.382ZM1.00734 10.382C1.20765 5.15414 5.8265 0.786443 11.3331 0.695823L1.00734 10.382Z" stroke="black"/>
<rect x="10" y="13.6943" width="3" height="10" stroke="black"/>
<rect x="6.75" y="23.4443" width="9.5" height="0.5" stroke="black" stroke-width="0.5"/>
<circle cx="8.5" cy="13.1943" r="1.5" stroke="black"/>
<circle cx="14.5" cy="13.1943" r="1.5" stroke="black"/>
<path d="M15.7147 24.3681C15.7147 24.551 15.5637 24.702 15.3808 24.702C15.1955 24.702 15.0469 24.551 15.0469 24.3681C15.0469 24.1828 15.1955 24.0342 15.3808 24.0342C15.5637 24.0342 15.7147 24.1828 15.7147 24.3681Z" fill="#161514"/>
<path d="M15.7147 26.0448C15.7147 26.2301 15.5637 26.3787 15.3808 26.3787C15.1955 26.3787 15.0469 26.2301 15.0469 26.0448C15.0469 25.8619 15.1955 25.7109 15.3808 25.7109C15.5637 25.7109 15.7147 25.8619 15.7147 26.0448Z" fill="#161514"/>
<path d="M15.7147 24.3681C15.7147 24.551 15.5637 24.702 15.3808 24.702C15.1955 24.702 15.0469 24.551 15.0469 24.3681C15.0469 24.1828 15.1955 24.0342 15.3808 24.0342C15.5637 24.0342 15.7147 24.1828 15.7147 24.3681Z" fill="#161514"/>
<path d="M15.7147 27.7203C15.7147 27.9055 15.5637 28.0542 15.3808 28.0542C15.1955 28.0542 15.0469 27.9055 15.0469 27.7203C15.0469 27.5373 15.1955 27.3887 15.3808 27.3887C15.5637 27.3887 15.7147 27.5373 15.7147 27.7203Z" fill="#161514"/>
<path d="M15.7147 26.0439C15.7147 26.2291 15.5637 26.3777 15.3808 26.3777C15.1955 26.3777 15.0469 26.2291 15.0469 26.0439C15.0469 25.8609 15.1955 25.71 15.3808 25.71C15.5637 25.71 15.7147 25.8609 15.7147 26.0439Z" fill="#161514"/>
<path d="M15.7147 27.7193C15.7147 27.9045 15.5637 28.0532 15.3808 28.0532C15.1955 28.0532 15.0469 27.9045 15.0469 27.7193C15.0469 27.5363 15.1955 27.3877 15.3808 27.3877C15.5637 27.3877 15.7147 27.5363 15.7147 27.7193Z" fill="#161514"/>
<path d="M14.4568 24.3671C14.4568 24.55 14.3059 24.701 14.123 24.701C13.9377 24.701 13.7891 24.55 13.7891 24.3671C13.7891 24.1819 13.9377 24.0332 14.123 24.0332C14.3059 24.0332 14.4568 24.1819 14.4568 24.3671Z" fill="#161514"/>
<path d="M11.9412 24.3671C11.9412 24.55 11.7926 24.701 11.6073 24.701C11.4221 24.701 11.2734 24.55 11.2734 24.3671C11.2734 24.1819 11.4221 24.0332 11.6073 24.0332C11.7926 24.0332 11.9412 24.1819 11.9412 24.3671Z" fill="#161514"/>
<path d="M9.42559 24.3671C9.42559 24.55 9.27695 24.701 9.09171 24.701C8.90876 24.701 8.75781 24.55 8.75781 24.3671C8.75781 24.1819 8.90876 24.0332 9.09171 24.0332C9.27695 24.0332 9.42559 24.1819 9.42559 24.3671Z" fill="#161514"/>
<path d="M13.199 23.5282C13.199 23.7135 13.0504 23.8621 12.8651 23.8621C12.6799 23.8621 12.5312 23.7135 12.5312 23.5282C12.5312 23.3453 12.6799 23.1943 12.8651 23.1943C13.0504 23.1943 13.199 23.3453 13.199 23.5282Z" fill="#161514"/>
<path d="M10.6834 23.5282C10.6834 23.7135 10.5348 23.8621 10.3495 23.8621C10.1666 23.8621 10.0156 23.7135 10.0156 23.5282C10.0156 23.3453 10.1666 23.1943 10.3495 23.1943C10.5348 23.1943 10.6834 23.3453 10.6834 23.5282Z" fill="#161514"/>
<path d="M8.16778 23.5282C8.16778 23.7135 8.01914 23.8621 7.8339 23.8621C7.65094 23.8621 7.5 23.7135 7.5 23.5282C7.5 23.3453 7.65094 23.1943 7.8339 23.1943C8.01914 23.1943 8.16778 23.3453 8.16778 23.5282Z" fill="#161514"/>
<path d="M14.4568 26.0448C14.4568 26.2301 14.3059 26.3787 14.123 26.3787C13.9377 26.3787 13.7891 26.2301 13.7891 26.0448C13.7891 25.8619 13.9377 25.7109 14.123 25.7109C14.3059 25.7109 14.4568 25.8619 14.4568 26.0448Z" fill="#161514"/>
<path d="M11.9412 26.0448C11.9412 26.2301 11.7926 26.3787 11.6073 26.3787C11.4221 26.3787 11.2734 26.2301 11.2734 26.0448C11.2734 25.8619 11.4221 25.7109 11.6073 25.7109C11.7926 25.7109 11.9412 25.8619 11.9412 26.0448Z" fill="#161514"/>
<path d="M9.42559 26.0448C9.42559 26.2301 9.27695 26.3787 9.09171 26.3787C8.90876 26.3787 8.75781 26.2301 8.75781 26.0448C8.75781 25.8619 8.90876 25.7109 9.09171 25.7109C9.27695 25.7109 9.42559 25.8619 9.42559 26.0448Z" fill="#161514"/>
<path d="M14.4568 24.3681C14.4568 24.551 14.3059 24.702 14.123 24.702C13.9377 24.702 13.7891 24.551 13.7891 24.3681C13.7891 24.1828 13.9377 24.0342 14.123 24.0342C14.3059 24.0342 14.4568 24.1828 14.4568 24.3681Z" fill="#161514"/>
<path d="M13.199 25.2069C13.199 25.3899 13.0504 25.5385 12.8651 25.5385C12.6799 25.5385 12.5312 25.3899 12.5312 25.2069C12.5312 25.0217 12.6799 24.873 12.8651 24.873C13.0504 24.873 13.199 25.0217 13.199 25.2069Z" fill="#161514"/>
<path d="M11.9412 24.3681C11.9412 24.551 11.7926 24.702 11.6073 24.702C11.4221 24.702 11.2734 24.551 11.2734 24.3681C11.2734 24.1828 11.4221 24.0342 11.6073 24.0342C11.7926 24.0342 11.9412 24.1828 11.9412 24.3681Z" fill="#161514"/>
<path d="M10.6834 25.2069C10.6834 25.3899 10.5348 25.5385 10.3495 25.5385C10.1666 25.5385 10.0156 25.3899 10.0156 25.2069C10.0156 25.0217 10.1666 24.873 10.3495 24.873C10.5348 24.873 10.6834 25.0217 10.6834 25.2069Z" fill="#161514"/>
<path d="M9.42559 24.3681C9.42559 24.551 9.27695 24.702 9.09171 24.702C8.90876 24.702 8.75781 24.551 8.75781 24.3681C8.75781 24.1828 8.90876 24.0342 9.09171 24.0342C9.27695 24.0342 9.42559 24.1828 9.42559 24.3681Z" fill="#161514"/>
<path d="M8.16778 25.2069C8.16778 25.3899 8.01914 25.5385 7.8339 25.5385C7.65094 25.5385 7.5 25.3899 7.5 25.2069C7.5 25.0217 7.65094 24.873 7.8339 24.873C8.01914 24.873 8.16778 25.0217 8.16778 25.2069Z" fill="#161514"/>
<path d="M14.4568 27.7203C14.4568 27.9055 14.3059 28.0542 14.123 28.0542C13.9377 28.0542 13.7891 27.9055 13.7891 27.7203C13.7891 27.5373 13.9377 27.3887 14.123 27.3887C14.3059 27.3887 14.4568 27.5373 14.4568 27.7203Z" fill="#161514"/>
<path d="M11.9412 27.7203C11.9412 27.9055 11.7926 28.0542 11.6073 28.0542C11.4221 28.0542 11.2734 27.9055 11.2734 27.7203C11.2734 27.5373 11.4221 27.3887 11.6073 27.3887C11.7926 27.3887 11.9412 27.5373 11.9412 27.7203Z" fill="#161514"/>
<path d="M9.42559 27.7203C9.42559 27.9055 9.27695 28.0542 9.09171 28.0542C8.90876 28.0542 8.75781 27.9055 8.75781 27.7203C8.75781 27.5373 8.90876 27.3887 9.09171 27.3887C9.27695 27.3887 9.42559 27.5373 9.42559 27.7203Z" fill="#161514"/>
<path d="M14.4568 26.0439C14.4568 26.2291 14.3059 26.3777 14.123 26.3777C13.9377 26.3777 13.7891 26.2291 13.7891 26.0439C13.7891 25.8609 13.9377 25.71 14.123 25.71C14.3059 25.71 14.4568 25.8609 14.4568 26.0439Z" fill="#161514"/>
<path d="M13.199 26.8827C13.199 27.0657 13.0504 27.2166 12.8651 27.2166C12.6799 27.2166 12.5312 27.0657 12.5312 26.8827C12.5312 26.6975 12.6799 26.5488 12.8651 26.5488C13.0504 26.5488 13.199 26.6975 13.199 26.8827Z" fill="#161514"/>
<path d="M11.9412 26.0439C11.9412 26.2291 11.7926 26.3777 11.6073 26.3777C11.4221 26.3777 11.2734 26.2291 11.2734 26.0439C11.2734 25.8609 11.4221 25.71 11.6073 25.71C11.7926 25.71 11.9412 25.8609 11.9412 26.0439Z" fill="#161514"/>
<path d="M10.6834 26.8827C10.6834 27.0657 10.5348 27.2166 10.3495 27.2166C10.1666 27.2166 10.0156 27.0657 10.0156 26.8827C10.0156 26.6975 10.1666 26.5488 10.3495 26.5488C10.5348 26.5488 10.6834 26.6975 10.6834 26.8827Z" fill="#161514"/>
<path d="M9.42559 26.0439C9.42559 26.2291 9.27695 26.3777 9.09171 26.3777C8.90876 26.3777 8.75781 26.2291 8.75781 26.0439C8.75781 25.8609 8.90876 25.71 9.09171 25.71C9.27695 25.71 9.42559 25.8609 9.42559 26.0439Z" fill="#161514"/>
<path d="M8.16778 26.8827C8.16778 27.0657 8.01914 27.2166 7.8339 27.2166C7.65094 27.2166 7.5 27.0657 7.5 26.8827C7.5 26.6975 7.65094 26.5488 7.8339 26.5488C8.01914 26.5488 8.16778 26.6975 8.16778 26.8827Z" fill="#161514"/>
<path d="M14.4568 29.3983C14.4568 29.5813 14.3059 29.7322 14.123 29.7322C13.9377 29.7322 13.7891 29.5813 13.7891 29.3983C13.7891 29.2131 13.9377 29.0645 14.123 29.0645C14.3059 29.0645 14.4568 29.2131 14.4568 29.3983Z" fill="#161514"/>
<path d="M11.9412 29.3983C11.9412 29.5813 11.7926 29.7322 11.6073 29.7322C11.4221 29.7322 11.2734 29.5813 11.2734 29.3983C11.2734 29.2131 11.4221 29.0645 11.6073 29.0645C11.7926 29.0645 11.9412 29.2131 11.9412 29.3983Z" fill="#161514"/>
<path d="M9.42559 29.3983C9.42559 29.5813 9.27695 29.7322 9.09171 29.7322C8.90876 29.7322 8.75781 29.5813 8.75781 29.3983C8.75781 29.2131 8.90876 29.0645 9.09171 29.0645C9.27695 29.0645 9.42559 29.2131 9.42559 29.3983Z" fill="#161514"/>
<path d="M14.4568 27.7193C14.4568 27.9045 14.3059 28.0532 14.123 28.0532C13.9377 28.0532 13.7891 27.9045 13.7891 27.7193C13.7891 27.5363 13.9377 27.3877 14.123 27.3877C14.3059 27.3877 14.4568 27.5363 14.4568 27.7193Z" fill="#161514"/>
<path d="M13.199 28.5585C13.199 28.7437 13.0504 28.8924 12.8651 28.8924C12.6799 28.8924 12.5312 28.7437 12.5312 28.5585C12.5312 28.3755 12.6799 28.2246 12.8651 28.2246C13.0504 28.2246 13.199 28.3755 13.199 28.5585Z" fill="#161514"/>
<path d="M11.9412 27.7193C11.9412 27.9045 11.7926 28.0532 11.6073 28.0532C11.4221 28.0532 11.2734 27.9045 11.2734 27.7193C11.2734 27.5363 11.4221 27.3877 11.6073 27.3877C11.7926 27.3877 11.9412 27.5363 11.9412 27.7193Z" fill="#161514"/>
<path d="M10.6834 28.5585C10.6834 28.7437 10.5348 28.8924 10.3495 28.8924C10.1666 28.8924 10.0156 28.7437 10.0156 28.5585C10.0156 28.3755 10.1666 28.2246 10.3495 28.2246C10.5348 28.2246 10.6834 28.3755 10.6834 28.5585Z" fill="#161514"/>
<path d="M9.42559 27.7193C9.42559 27.9045 9.27695 28.0532 9.09171 28.0532C8.90876 28.0532 8.75781 27.9045 8.75781 27.7193C8.75781 27.5363 8.90876 27.3877 9.09171 27.3877C9.27695 27.3877 9.42559 27.5363 9.42559 27.7193Z" fill="#161514"/>
<path d="M8.16778 28.5585C8.16778 28.7437 8.01914 28.8924 7.8339 28.8924C7.65094 28.8924 7.5 28.7437 7.5 28.5585C7.5 28.3755 7.65094 28.2246 7.8339 28.2246C8.01914 28.2246 8.16778 28.3755 8.16778 28.5585Z" fill="#161514"/>
<path d="M14.4568 29.3993C14.4568 29.5823 14.3059 29.7332 14.123 29.7332C13.9377 29.7332 13.7891 29.5823 13.7891 29.3993C13.7891 29.2141 13.9377 29.0654 14.123 29.0654C14.3059 29.0654 14.4568 29.2141 14.4568 29.3993Z" fill="#161514"/>
<path d="M11.9412 29.3993C11.9412 29.5823 11.7926 29.7332 11.6073 29.7332C11.4221 29.7332 11.2734 29.5823 11.2734 29.3993C11.2734 29.2141 11.4221 29.0654 11.6073 29.0654C11.7926 29.0654 11.9412 29.2141 11.9412 29.3993Z" fill="#161514"/>
<path d="M9.42559 29.3993C9.42559 29.5823 9.27695 29.7332 9.09171 29.7332C8.90876 29.7332 8.75781 29.5823 8.75781 29.3993C8.75781 29.2141 8.90876 29.0654 9.09171 29.0654C9.27695 29.0654 9.42559 29.2141 9.42559 29.3993Z" fill="#161514"/>
</svg>
