<svg width="14" height="14" viewBox="0 0 14 14" fill="none" xmlns="http://www.w3.org/2000/svg">
<path fill-rule="evenodd" clip-rule="evenodd" d="M13.9217 1.70298C14.1341 2.49586 13.9074 3.34186 13.327 3.92228L4.33238 12.9169L0 14L1.08309 9.66762L10.0777 0.673001C10.6581 0.0925724 11.5041 -0.134111 12.297 0.0783408C13.0899 0.290792 13.7092 0.910102 13.9217 1.70298ZM12.1989 2.79422C12.3763 2.61681 12.4456 2.35823 12.3807 2.11588C12.3158 1.87354 12.1265 1.68425 11.8841 1.61931C11.6418 1.55438 11.3832 1.62366 11.2058 1.80107L2.52362 10.4832L2.19257 11.8074L3.51677 11.4764L12.1989 2.79422ZM7.45993 12.106V13.7014H13.8236V12.106H7.45993Z" fill="white"/>
</svg>
