<svg width="14" height="9" viewBox="0 0 14 9" fill="none" xmlns="http://www.w3.org/2000/svg">
<path fill-rule="evenodd" clip-rule="evenodd" d="M1.53348 3.23062C0.687887 3.23062 0 2.50566 0 1.6151C0 0.724538 0.687887 -0.000150681 1.53348 -0.000150681C2.37882 -0.000150681 3.0667 0.724538 3.0667 1.6151C3.0667 2.50566 2.37882 3.23062 1.53348 3.23062ZM5.10938 6.99972C5.10938 7.89028 5.79726 8.61523 6.64285 8.61523C7.48819 8.61523 8.17608 7.89028 8.17608 6.99972C8.17608 6.10915 7.48819 5.38447 6.64285 5.38447C5.79726 5.38447 5.10938 6.10915 5.10938 6.99972ZM10.2188 1.61495C10.2188 2.50551 10.9066 3.23047 11.7522 3.23047C12.5976 3.23047 13.2855 2.50551 13.2855 1.61495C13.2855 0.724388 12.5976 -0.000300407 11.7522 -0.000300407C10.9066 -0.000300407 10.2188 0.724388 10.2188 1.61495Z" fill="white"/>
</svg>
