<svg width="27" height="25" viewBox="0 0 27 25" fill="none" xmlns="http://www.w3.org/2000/svg">
<path d="M10.1377 9.25401C10.1029 9.26791 9.98477 9.29572 9.88049 9.31658C9.60936 9.37914 9.1992 9.7615 9.05322 10.0882C8.94199 10.3316 8.92113 10.5679 8.92113 11.9444V13.5225L5.76498 13.5433L2.60883 13.5642L2.34466 13.7797C2.19867 13.8909 2.01792 14.0786 1.94145 14.1829C1.79546 14.3706 1.79546 14.4471 1.7746 19.2021L1.7607 24.0267H1.00295C0.363374 24.0267 0.238241 24.0476 0.140915 24.1519C-0.0189785 24.3257 -0.0120266 24.7428 0.147866 24.8818C0.266048 24.993 1.26017 25 13.0366 25C25.3067 25 25.8003 24.993 25.9046 24.8749C26.0644 24.7011 26.0575 24.284 25.8976 24.1449C25.7933 24.0476 25.6195 24.0267 25.0286 24.0267H24.2848V20.9332C24.2848 17.9786 24.2778 17.8187 24.1457 17.5615C23.9928 17.2556 23.673 16.9914 23.3185 16.8733C23.1586 16.8246 22.1436 16.7968 20.1067 16.7968H17.1243V13.5989C17.1243 10.1091 17.1243 10.1091 16.7211 9.68503C16.304 9.24011 16.4013 9.25401 13.1618 9.24011C11.535 9.23315 10.1794 9.24011 10.1377 9.25401ZM15.9425 10.4011C16.0816 10.5401 16.0816 10.6305 16.0816 17.2834V24.0267H13.0227H9.96391V17.2834C9.96391 10.6305 9.96391 10.5401 10.1029 10.4011C10.235 10.269 10.3324 10.262 13.0227 10.262C15.7131 10.262 15.8104 10.269 15.9425 10.4011ZM8.92113 19.2995V24.0267H5.82755H2.72701L2.74787 19.3968C2.76872 14.9059 2.77567 14.7668 2.90081 14.6695C3.01204 14.5861 3.54733 14.5722 5.98049 14.5722H8.92113V19.2995ZM23.1099 17.9717L23.2767 18.1037L23.2976 21.0652L23.3185 24.0267H20.2179H17.1243V20.9332V17.8396H20.0372C22.7971 17.8396 22.957 17.8465 23.1099 17.9717Z" fill="white"/>
<path d="M12.8223 0.789844C12.7664 0.815235 12.4871 1.07422 12.2027 1.36875C11.7305 1.84609 11.6797 1.91719 11.6797 2.08477C11.6797 2.45039 12.1215 2.65859 12.4313 2.44023L12.543 2.36406V3.73516V5.11133H12.2383C11.9793 5.11133 11.9082 5.13164 11.8066 5.23828C11.6391 5.40078 11.6391 5.66484 11.8016 5.85781L11.9234 6H13H14.0766L14.1984 5.85781C14.3609 5.66484 14.3609 5.40078 14.1934 5.23828C14.0918 5.13164 14.0207 5.11133 13.7617 5.11133H13.457V3.08516V1.05391L13.3453 0.926953C13.2184 0.784766 12.9797 0.723828 12.8223 0.789844Z" fill="white"/>
<path d="M5.22759 5.54688C4.70962 5.67891 4.21705 6.08516 4.019 6.54727C3.96314 6.6793 3.9022 6.92813 3.88697 7.10586C3.8565 7.40547 3.86666 7.42578 4.01392 7.57305C4.22212 7.78125 4.43541 7.78633 4.63853 7.5832C4.74009 7.48164 4.7858 7.38008 4.7858 7.27344C4.7858 6.91797 5.04986 6.58281 5.42564 6.46094C5.91314 6.29844 6.46158 6.75039 6.46158 7.30898C6.46158 7.76602 6.14166 8.10625 5.2022 8.65469C4.60298 9.00508 4.16626 9.38086 4.01392 9.67539C3.95806 9.78711 3.89712 10.0105 3.88697 10.168C3.86158 10.4219 3.87173 10.4676 3.98853 10.6047L4.11548 10.752H5.62369H7.13189L7.25376 10.6098C7.40103 10.4371 7.41626 10.1781 7.27916 10.0105C7.18267 9.88867 7.16236 9.88867 6.12134 9.86328L5.06509 9.83789L5.47134 9.58906C6.34986 9.05078 6.54283 8.91367 6.79673 8.66484C7.18267 8.27891 7.34009 7.91836 7.36548 7.38008C7.38072 7.01953 7.36548 6.89258 7.269 6.63867C7.11666 6.23242 6.64947 5.75508 6.28384 5.62813C5.969 5.52148 5.4815 5.48594 5.22759 5.54688Z" fill="white"/>
<path d="M20.3407 9.08172C20.0411 9.18836 19.6958 9.51844 19.5333 9.84344C19.3606 10.1989 19.3352 10.661 19.4825 10.8235C19.7008 11.0622 20.1934 10.9759 20.2493 10.6864C20.3305 10.3056 20.3915 10.1634 20.5337 10.0466C21.011 9.64539 21.7423 10.1989 21.4731 10.7575C21.3817 10.9505 21.1227 11.1333 20.945 11.1333C20.7926 11.1333 20.5489 11.2602 20.5083 11.3618C20.4473 11.5192 20.4778 11.7833 20.5692 11.895C20.6251 11.9661 20.752 12.022 20.9094 12.0524C21.2395 12.1134 21.402 12.2352 21.4883 12.4891C21.5544 12.6669 21.5544 12.7227 21.4883 12.8852C21.336 13.2864 20.8434 13.4337 20.554 13.1645C20.3965 13.0223 20.2747 12.7684 20.2747 12.5907C20.2747 12.413 20.0715 12.2505 19.8583 12.2505C19.5993 12.2505 19.5231 12.2911 19.4317 12.4688C19.2641 12.7837 19.4774 13.4286 19.8684 13.7942C20.2087 14.1091 20.4219 14.1954 20.9094 14.2005C21.2598 14.2056 21.3563 14.1852 21.6051 14.0634C22.443 13.652 22.7122 12.5856 22.179 11.7833C22.0622 11.6056 22.052 11.57 22.118 11.4989C22.4176 11.1536 22.5344 10.529 22.3821 10.0415C22.2653 9.67586 21.92 9.28485 21.5696 9.12235C21.27 8.98016 20.686 8.95985 20.3407 9.08172Z" fill="white"/>
</svg>
