<svg width="46" height="47" viewBox="0 0 46 47" fill="none" xmlns="http://www.w3.org/2000/svg">
<path d="M17.7501 11.3277C16.8881 11.3277 16.1863 12.0378 16.1863 12.9099C16.1863 13.783 16.8881 14.4926 17.7501 14.4926C18.6125 14.4926 19.3139 13.783 19.3139 12.9099C19.3139 12.0378 18.6125 11.3277 17.7501 11.3277Z" fill="black"/>
<path d="M13.0714 2.57996C12.2089 2.57996 11.5076 3.29001 11.5076 4.1622C11.5076 5.03522 12.2089 5.74486 13.0714 5.74486C13.9338 5.74486 14.6352 5.03522 14.6352 4.1622C14.6352 3.29001 13.9338 2.57996 13.0714 2.57996Z" fill="black"/>
<path d="M27.9815 11.3277C27.1191 11.3277 26.4177 12.0378 26.4177 12.9099C26.4177 13.783 27.1191 14.4926 27.9815 14.4926C28.844 14.4926 29.5454 13.783 29.5454 12.9099C29.5454 12.0378 28.844 11.3277 27.9815 11.3277Z" fill="black"/>
<path d="M32.6621 2.57373C32.6535 2.57373 32.6444 2.57373 32.6358 2.57415C32.2179 2.58121 31.828 2.75208 31.5375 3.05597C31.247 3.35945 31.0913 3.75979 31.0979 4.18258C31.1044 4.60496 31.2741 4.99948 31.5741 5.2934C31.8744 5.58773 32.2701 5.74446 32.6876 5.73822C33.1054 5.73116 33.4954 5.56029 33.7859 5.2564C34.0764 4.95292 34.2325 4.55258 34.2255 4.12979C34.2115 3.26633 33.5126 2.57373 32.6621 2.57373Z" fill="black"/>
<path d="M22.8658 0C22.0038 0 21.302 0.710057 21.302 1.58266C21.302 2.45527 22.0038 3.16491 22.8658 3.16491C23.7283 3.16491 24.4296 2.45527 24.4296 1.58266C24.4296 0.710057 23.7283 0 22.8658 0Z" fill="black"/>
<path d="M22.8658 20.6875C22.0038 20.6875 21.302 21.3976 21.302 22.2697C21.302 23.1428 22.0038 23.8524 22.8658 23.8524C23.7283 23.8524 24.4296 23.1428 24.4296 22.2697C24.4296 21.3976 23.7283 20.6875 22.8658 20.6875Z" fill="black"/>
<path d="M1.56382 21.1837C0.70179 21.1837 0 21.8934 0 22.766C0 23.6386 0.70179 24.3486 1.56382 24.3486C2.42627 24.3486 3.12765 23.6386 3.12765 22.766C3.12765 21.8934 2.42627 21.1837 1.56382 21.1837Z" fill="black"/>
<path d="M33.6986 39.643C32.8361 39.643 32.1348 40.3531 32.1348 41.2257C32.1348 42.0983 32.8361 42.8079 33.6986 42.8079C34.561 42.8079 35.2624 42.0983 35.2624 41.2257C35.2624 40.3531 34.561 39.643 33.6986 39.643Z" fill="black"/>
<path d="M40.7816 31.4624C39.9192 31.4624 39.2178 32.1725 39.2178 33.0451C39.2178 33.9177 39.9192 34.6273 40.7816 34.6273C41.6436 34.6273 42.3454 33.9177 42.3454 33.0451C42.3454 32.1725 41.6436 31.4624 40.7816 31.4624Z" fill="black"/>
<path d="M44.169 21.1837C43.3066 21.1837 42.6052 21.8934 42.6052 22.766C42.6052 23.6386 43.3066 24.3486 44.169 24.3486C45.0315 24.3486 45.7329 23.6386 45.7329 22.766C45.7329 21.8934 45.0315 21.1837 44.169 21.1837Z" fill="black"/>
<path d="M12.0348 39.643C11.1723 39.643 10.4709 40.3531 10.4709 41.2253C10.4709 42.0983 11.1723 42.8079 12.0348 42.8079C12.8968 42.8079 13.5986 42.0983 13.5986 41.2253C13.5986 40.3531 12.8968 39.643 12.0348 39.643Z" fill="black"/>
<path d="M4.94932 31.4624C4.08688 31.4624 3.3855 32.1725 3.3855 33.0451C3.3855 33.9177 4.08688 34.6273 4.94932 34.6273C5.81177 34.6273 6.51315 33.9177 6.51315 33.0451C6.51315 32.1725 5.81177 31.4624 4.94932 31.4624Z" fill="black"/>
<path d="M11.6215 19.3614C9.9015 19.3614 8.50244 20.7769 8.50244 22.5172C8.50244 24.2574 9.9015 25.6729 11.6215 25.6729C13.3414 25.6729 14.7405 24.2574 14.7405 22.5172C14.7405 20.7769 13.3414 19.3614 11.6215 19.3614Z" fill="black"/>
<path d="M28.6102 29.6581C26.8902 29.6581 25.4907 31.0737 25.4907 32.8143C25.4907 34.5541 26.8902 35.9697 28.6102 35.9697C30.3301 35.9697 31.7292 34.5541 31.7292 32.8143C31.7292 31.0737 30.3301 29.6581 28.6102 29.6581Z" fill="black"/>
<path d="M6.12129 8.95697C4.40174 8.95697 3.00269 10.3725 3.00269 12.1131C3.00269 13.853 4.40174 15.2685 6.12129 15.2685C7.84125 15.2685 9.24072 13.853 9.24072 12.1131C9.24072 10.3725 7.84125 8.95697 6.12129 8.95697Z" fill="black"/>
<path d="M22.8658 40.0483C21.1463 40.0483 19.7468 41.4638 19.7468 43.204C19.7468 44.9443 21.1463 46.3598 22.8658 46.3598C24.5858 46.3598 25.9849 44.9443 25.9849 43.204C25.9849 41.4638 24.5858 40.0483 22.8658 40.0483Z" fill="black"/>
<path d="M17.1224 29.6407C15.4024 29.6407 14.0029 31.0563 14.0029 32.7969C14.0029 34.5367 15.4024 35.9523 17.1224 35.9523C18.8423 35.9523 20.2414 34.5367 20.2414 32.7969C20.2414 31.0563 18.8423 29.6407 17.1224 29.6407Z" fill="black"/>
<path d="M34.1111 19.3614C32.3912 19.3614 30.9917 20.7769 30.9917 22.5172C30.9917 24.2574 32.3912 25.6729 34.1111 25.6729C35.8311 25.6729 37.2301 24.2574 37.2301 22.5172C37.2301 20.7769 35.8311 19.3614 34.1111 19.3614Z" fill="black"/>
<path d="M39.7333 8.95697C38.0133 8.95697 36.6143 10.3725 36.6143 12.1131C36.6143 13.853 38.0133 15.2685 39.7333 15.2685C41.4532 15.2685 42.8519 13.853 42.8519 12.1131C42.8519 10.3725 41.4532 8.95697 39.7333 8.95697Z" fill="black"/>
</svg>
