<svg width="33" height="33" viewBox="0 0 33 33" fill="none" xmlns="http://www.w3.org/2000/svg">
<g filter="url(#filter0_b_1690_6090)">
<path fill-rule="evenodd" clip-rule="evenodd" d="M0.281982 16.0408C0.281982 12.6463 0.281982 10.9491 0.612411 9.54715C1.6897 4.97649 5.25847 1.40772 9.82913 0.330429C11.2311 0 12.9283 0 16.3228 0C19.7173 0 21.4145 0 22.8165 0.330429C27.3871 1.40772 30.9559 4.97649 32.0332 9.54715C32.3636 10.9491 32.3636 12.6463 32.3636 16.0408C32.3636 19.4353 32.3636 21.1326 32.0332 22.5345C30.9559 27.1051 27.3871 30.6739 22.8165 31.7512C21.4145 32.0816 19.7173 32.0816 16.3228 32.0816C12.9283 32.0816 11.2311 32.0816 9.82913 31.7512C5.25847 30.6739 1.6897 27.1051 0.612411 22.5345C0.281982 21.1326 0.281982 19.4353 0.281982 16.0408Z" fill="#161514"/>
</g>
<path fill-rule="evenodd" clip-rule="evenodd" d="M21.509 11.8213C20.9107 11.8213 20.4236 12.3082 20.4236 12.9067C20.4236 13.5051 20.9107 13.992 21.509 13.992C22.1074 13.992 22.5943 13.5051 22.5943 12.9067C22.5943 12.3082 22.1074 11.8213 21.509 11.8213ZM9.56958 17.2494C9.56958 16.6508 10.0567 16.1639 10.655 16.1639C11.2534 16.1639 11.7403 16.6508 11.7403 17.2494C11.7403 17.8477 11.2534 18.3347 10.655 18.3347C10.0567 18.3347 9.56958 17.8477 9.56958 17.2494ZM13.1829 20.868C13.1829 20.2694 13.67 19.7825 14.2684 19.7825C14.8667 19.7825 15.3537 20.2694 15.3537 20.868C15.3537 21.4663 14.8667 21.9532 14.2684 21.9532C13.67 21.9532 13.1829 21.4663 13.1829 20.868ZM16.8033 17.2494C16.8033 16.6508 17.2904 16.1639 17.8887 16.1639C18.4871 16.1639 18.974 16.6508 18.974 17.2494C18.974 17.8477 18.4871 18.3347 17.8887 18.3347C17.2904 18.3347 16.8033 17.8477 16.8033 17.2494Z" fill="white"/>
<defs>
<filter id="filter0_b_1690_6090" x="-5.331" y="-5.61298" width="43.3075" height="43.3075" filterUnits="userSpaceOnUse" color-interpolation-filters="sRGB">
<feFlood flood-opacity="0" result="BackgroundImageFix"/>
<feGaussianBlur in="BackgroundImageFix" stdDeviation="2.80649"/>
<feComposite in2="SourceAlpha" operator="in" result="effect1_backgroundBlur_1690_6090"/>
<feBlend mode="normal" in="SourceGraphic" in2="effect1_backgroundBlur_1690_6090" result="shape"/>
</filter>
</defs>
</svg>
