<svg width="47" height="60" viewBox="0 0 47 60" fill="none" xmlns="http://www.w3.org/2000/svg">
<path d="M20.3703 1.25821L20.3152 1.25L20.2596 1.25L14.6465 1.25C11.0159 1.25 7.5886 2.64817 5.00295 5.23382C4.28878 5.94799 3.70239 7.00412 3.22426 8.17337C2.74075 9.35576 2.34367 10.7148 2.03608 12.0885C1.42748 14.8063 1.14872 17.6758 1.28329 19.4627L1.28329 33.2358C1.28329 35.1689 2.80775 36.6934 4.74083 36.6934C6.67391 36.6934 8.19837 35.1689 8.19837 33.2358L8.19837 33.2355L8.19837 33.2351L8.19837 33.2347L8.19837 33.2343L8.19837 33.2339L8.19837 33.2335L8.19837 33.2331L8.19837 33.2328L8.19837 33.2324L8.19837 33.232L8.19837 33.2316L8.19837 33.2312L8.19837 33.2308L8.19837 33.2304L8.19837 33.23L8.19837 33.2297L8.19837 33.2293L8.19837 33.2289L8.19837 33.2285L8.19837 33.2281L8.19837 33.2277L8.19837 33.2273L8.19837 33.2269L8.19837 33.2266L8.19837 33.2262L8.19837 33.2258L8.19837 33.2254L8.19837 33.225L8.19837 33.2246L8.19837 33.2242L8.19837 33.2239L8.19837 33.2235L8.19837 33.2231L8.19837 33.2227L8.19837 33.2223L8.19837 33.2219L8.19837 33.2215L8.19837 33.2211L8.19837 33.2208L8.19837 33.2204L8.19837 33.22L8.19837 33.2196L8.19837 33.2192L8.19837 33.2188L8.19837 33.2184L8.19837 33.218L8.19837 33.2177L8.19837 33.2173L8.19837 33.2169L8.19837 33.2165L8.19837 33.2161L8.19837 33.2157L8.19837 33.2153L8.19837 33.215L8.19837 33.2146L8.19837 33.2142L8.19837 33.2138L8.19837 33.2134L8.19837 33.213L8.19837 33.2126L8.19837 33.2122L8.19837 33.2119L8.19837 33.2115L8.19837 33.2111L8.19837 33.2107L8.19837 33.2103L8.19837 33.2099L8.19837 33.2095L8.19837 33.2091L8.19837 33.2088L8.19837 33.2084L8.19837 33.208L8.19837 33.2076L8.19837 33.2072L8.19837 33.2068L8.19837 33.2064L8.19837 33.2061L8.19837 33.2057L8.19837 33.2053L8.19837 33.2049L8.19837 33.2045L8.19837 33.2041L8.19837 33.2037L8.19837 33.2033L8.19837 33.203L8.19837 33.2026L8.19837 33.2022L8.19837 33.2018L8.19837 33.2014L8.19837 33.201L8.19837 33.2006L8.19837 33.2002L8.19837 33.1999L8.19837 33.1995L8.19837 33.1991L8.19837 33.1987L8.19837 33.1983L8.19837 33.1979L8.19837 33.1975L8.19837 33.1972L8.19837 33.1968L8.19837 33.1964L8.19837 33.196L8.19837 33.1956L8.19837 33.1952L8.19837 33.1948L8.19837 33.1944L8.19837 33.1941L8.19837 33.1937L8.19837 33.1933L8.19837 33.1929L8.19837 33.1925L8.19837 33.1921L8.19837 33.1917L8.19837 33.1913L8.19837 33.191L8.19837 33.1906L8.19837 33.1902L8.19837 33.1898L8.19837 33.1894L8.19837 33.189L8.19837 33.1886L8.19837 33.1883L8.19837 33.1879L8.19837 33.1875L8.19837 33.1871L8.19837 33.1867L8.19837 33.1863L8.19837 33.1859L8.19837 33.1855L8.19837 33.1852L8.19837 33.1848L8.19837 33.1844L8.19837 33.184L8.19837 33.1836L8.19837 33.1832L8.19837 33.1828L8.19837 33.1824L8.19837 33.1821L8.19837 33.1817L8.19837 33.1813L8.19837 33.1809L8.19837 33.1805L8.19837 33.1801L8.19837 33.1797L8.19837 33.1794L8.19837 33.179L8.19837 33.1786L8.19837 33.1782L8.19837 33.1778L8.19837 33.1774L8.19837 33.177L8.19837 33.1766L8.19837 33.1763L8.19837 33.1759L8.19837 33.1755L8.19837 33.1751L8.19837 33.1747L8.19837 33.1743L8.19837 33.1739L8.19837 33.1735L8.19837 33.1732L8.19837 33.1728L8.19837 33.1724L8.19837 33.172L8.19837 33.1716L8.19837 33.1712L8.19837 33.1708L8.19837 33.1705L8.19837 33.1701L8.19837 33.1697L8.19837 33.1693L8.19837 33.1689L8.19837 33.1685L8.19837 33.1681L8.19837 33.1677L8.19837 33.1674L8.19837 33.167L8.19837 33.1666L8.19837 33.1662L8.19837 33.1658L8.19837 33.1654L8.19837 33.165L8.19837 33.1646L8.19837 33.1643L8.19837 33.1639L8.19837 33.1635L8.19837 33.1631L8.19837 33.1627L8.19837 33.1623L8.19837 33.1619L8.19837 33.1616L8.19837 33.1612L8.19837 33.1608L8.19837 33.1604L8.19837 33.16L8.19837 33.1596L8.19837 33.1592L8.19837 33.1588L8.19837 33.1585L8.19837 33.1581L8.19837 33.1577L8.19837 33.1573L8.19837 33.1569L8.19837 33.1565L8.19837 33.1561L8.19837 33.1557L8.19837 33.1554L8.19837 33.155L8.19837 33.1546L8.19837 33.1542L8.19837 33.1538L8.19837 33.1534L8.19837 33.153L8.19837 33.1527L8.19837 33.1523L8.19837 33.1519L8.19837 33.1515L8.19837 33.1511L8.19837 33.1507L8.19837 33.1503L8.19837 33.1499L8.19837 33.1496L8.19837 33.1492L8.19837 33.1488L8.19837 33.1484L8.19837 33.148L8.19837 33.1476L8.19837 33.1472L8.19837 33.1468L8.19837 33.1465L8.19837 33.1461L8.19837 33.1457L8.19837 33.1453L8.19837 33.1449L8.19837 33.1445L8.19837 33.1441L8.19837 33.1438L8.19837 33.1434L8.19837 33.143L8.19837 33.1426L8.19837 33.1422L8.19837 33.1418L8.19837 33.1414L8.19837 33.141L8.19837 33.1407L8.19837 33.1403L8.19837 33.1399L8.19837 33.1395L8.19837 33.1391L8.19837 33.1387L8.19837 33.1383L8.19837 33.1379L8.19837 33.1376L8.19837 33.1372L8.19837 33.1368L8.19837 33.1364L8.19837 33.136L8.19837 33.1356L8.19837 33.1352L8.19837 33.1349L8.19837 33.1345L8.19837 33.1341L8.19837 33.1337L8.19837 33.1333L8.19837 33.1329L8.19837 33.1325L8.19837 33.1321L8.19837 33.1318L8.19837 33.1314L8.19837 33.131L8.19837 33.1306L8.19837 33.1302L8.19837 33.1298L8.19837 33.1294L8.19837 33.129L8.19837 33.1287L8.19837 33.1283L8.19837 33.1279L8.19837 33.1275L8.19837 33.1271L8.19837 33.1267L8.19837 33.1263L8.19837 33.126L8.19837 33.1256L8.19837 33.1252L8.19837 33.1248L8.19837 33.1244L8.19837 33.124L8.19837 33.1236L8.19837 33.1232L8.19837 33.1229L8.19837 33.1225L8.19837 33.1221L8.19837 33.1217L8.19837 33.1213L8.19837 33.1209L8.19837 33.1205L8.19837 33.1202L8.19837 33.1198L8.19837 33.1194L8.19837 33.119L8.19837 33.1186L8.19837 33.1182L8.19837 33.1178L8.19837 33.1174L8.19837 33.1171L8.19837 33.1167L8.19837 33.1163L8.19837 33.1159L8.19837 33.1155L8.19837 33.1151L8.19837 33.1147L8.19837 33.1143L8.19837 33.114L8.19837 33.1136L8.19837 33.1132L8.19837 33.1128L8.19837 33.1124L8.19837 33.112L8.19837 33.1116L8.19837 33.1113L8.19837 33.1109L8.19837 33.1105L8.19837 33.1101L8.19837 33.1097L8.19837 33.1093L8.19837 33.1089L8.19837 33.1085L8.19837 33.1082L8.19837 33.1078L8.19837 33.1074L8.19837 33.107L8.19837 33.1066L8.19837 33.1062L8.19837 33.1058L8.19837 33.1054L8.19837 33.1051L8.19837 33.1047L8.19837 33.1043L8.19837 33.1039L8.19837 33.1035L8.19837 33.1031L8.19837 33.1027L8.19837 33.1024L8.19837 33.102L8.19837 33.1016L8.19837 33.1012L8.19837 33.1008L8.19837 33.1004L8.19837 33.1L8.19837 33.0996L8.19837 33.0993L8.19837 33.0989L8.19837 33.0985L8.19837 33.0981L8.19837 33.0977L8.19837 33.0973L8.19837 33.0969L8.19837 33.0965L8.19837 33.0962L8.19837 33.0958L8.19837 33.0954L8.19837 33.095L8.19837 33.0946L8.19837 33.0942L8.19837 33.0938L8.19837 33.0935L8.19837 33.0931L8.19837 33.0927L8.19837 33.0923L8.19837 33.0919L8.19837 33.0915L8.19837 33.0911L8.19837 33.0907L8.19837 33.0904L8.19837 33.09L8.19837 33.0896L8.19837 33.0892L8.19837 33.0888L8.19837 33.0884L8.19837 33.088L8.19837 33.0876L8.19837 33.0873L8.19837 33.0869L8.19837 33.0865L8.19837 33.0861L8.19837 33.0857L8.19837 33.0853L8.19837 33.0849L8.19837 33.0846L8.19837 33.0842L8.19837 33.0838L8.19837 33.0834L8.19837 33.083L8.19837 33.0826L8.19837 33.0822L8.19837 33.0818L8.19837 33.0815L8.19837 33.0811L8.19837 33.0807L8.19837 33.0803L8.19837 33.0799L8.19837 33.0795L8.19837 33.0791L8.19837 33.0787L8.19837 33.0784L8.19837 33.078L8.19837 33.0776L8.19837 33.0772L8.19837 33.0768L8.19837 33.0764L8.19837 33.076L8.19837 33.0757L8.19837 33.0753L8.19837 33.0749L8.19837 33.0745L8.19837 33.0741L8.19837 33.0737L8.19837 33.0733L8.19837 33.0729L8.19837 33.0726L8.19837 33.0722L8.19837 33.0718L8.19837 33.0714L8.19837 33.071L8.19837 33.0706L8.19837 33.0702L8.19837 33.0698L8.19837 33.0695L8.19837 33.0691L8.19837 33.0687L8.19837 33.0683L8.19837 33.0679L8.19837 33.0675L8.19837 33.0671L8.19837 33.0668L8.19837 33.0664L8.19837 33.066L8.19837 33.0656L8.19837 33.0652L8.19837 33.0648L8.19837 33.0644L8.19837 33.064L8.19837 33.0637L8.19837 33.0633L8.19837 33.0629L8.19837 33.0625L8.19837 33.0621L8.19837 33.0617L8.19837 33.0613L8.19837 33.0609L8.19837 33.0606L8.19837 33.0602L8.19837 33.0598L8.19837 33.0594L8.19837 33.059L8.19837 33.0586L8.19837 33.0582L8.19837 33.0579L8.19837 33.0575L8.19837 33.0571L8.19837 33.0567L8.19837 33.0563L8.19837 33.0559L8.19837 33.0555L8.19837 33.0551L8.19837 33.0548L8.19837 33.0544L8.19837 33.054L8.19837 33.0536L8.19837 33.0532L8.19837 33.0528L8.19837 33.0524L8.19837 33.052L8.19837 33.0517L8.19837 33.0513L8.19837 33.0509L8.19837 33.0505L8.19837 33.0501L8.19837 33.0497L8.19837 33.0493L8.19837 33.049L8.19837 33.0486L8.19837 33.0482L8.19837 33.0478L8.19837 33.0474L8.19837 33.047L8.19837 33.0466L8.19837 33.0462L8.19837 33.0459L8.19837 33.0455L8.19837 33.0451L8.19837 33.0447L8.19837 33.0443L8.19837 33.0439L8.19837 33.0435L8.19837 33.0431L8.19837 33.0428L8.19837 33.0424L8.19837 33.042L8.19837 33.0416L8.19837 33.0412L8.19837 33.0408L8.19837 33.0404L8.19837 33.0401L8.19837 33.0397L8.19837 33.0393L8.19837 33.0389L8.19837 33.0385L8.19837 33.0381L8.19837 33.0377L8.19837 30.5283C8.19837 30.2161 8.45693 29.9575 8.76913 29.9575C9.08133 29.9575 9.33988 30.2161 9.33988 30.5283L9.33988 35.6792C9.33988 37.6123 10.8643 39.1368 12.7974 39.1368C14.7305 39.1368 16.255 37.6123 16.255 35.6792L16.255 32.9717C16.255 32.6595 16.5135 32.4009 16.8257 32.4009C17.1379 32.4009 17.3965 32.6595 17.3965 32.9717L17.3965 38.1226C17.3965 40.0557 18.9209 41.5802 20.854 41.5802C22.7871 41.5802 24.3116 40.0557 24.3116 38.1226L24.3116 35.4151C24.3116 35.1029 24.5701 34.8443 24.8823 34.8443C25.1945 34.8443 25.4531 35.1029 25.4531 35.4151L25.4531 55.2925C25.4531 56.2141 25.7937 57.0663 26.4652 57.7379L26.9928 57.2103L26.4652 57.7379C27.1367 58.4094 27.989 58.75 28.9106 58.75C30.8437 58.75 32.3682 57.2255 32.3682 55.2925L32.3682 26.5C32.3682 25.8494 32.7379 25.2931 33.2742 25.0868L33.2971 25.078L33.3193 25.0678C33.8815 24.8083 34.5372 24.9325 34.9841 25.3794L34.988 25.3833L39.4746 29.8039C39.4754 29.8046 39.4761 29.8053 39.4768 29.806C40.1609 30.4889 41.0846 30.816 41.9861 30.816C42.6958 30.816 43.3863 30.6563 44.0041 30.2161C44.8373 29.6317 45.3365 28.7901 45.4995 27.812C45.6625 26.8341 45.427 25.8238 44.7585 25.0484L33.6888 8.9709L33.67 8.94371L33.649 8.91828C32.1598 7.11734 29.9882 5.37998 27.6372 4.01001C25.2877 2.64086 22.7037 1.60649 20.3703 1.25821Z" fill="white" stroke="white" stroke-width="1.5"/>
</svg>
