<svg width="15" height="22" viewBox="0 0 15 22" fill="none" xmlns="http://www.w3.org/2000/svg">
<path d="M7.49831 21.9983C5.74711 21.9983 2.44367 21.6947 2.40422 20.5544L0.568979 5.95259C0.563375 5.91078 0.56695 5.86829 0.579459 5.82793C0.591967 5.78758 0.613117 5.75029 0.641517 5.71855C0.669916 5.68682 0.704903 5.66137 0.744151 5.64389C0.783399 5.62641 0.826009 5.61731 0.869136 5.61719H14.1378C14.1809 5.61725 14.2235 5.62625 14.2628 5.6436C14.3022 5.66094 14.3373 5.68623 14.3659 5.71781C14.394 5.74956 14.4151 5.78667 14.4278 5.8268C14.4405 5.86692 14.4445 5.90919 14.4396 5.95092L12.5924 20.5594C12.5529 21.6947 9.24951 21.9983 7.49831 21.9983ZM1.20702 6.21253L3.00796 20.4973C3.00881 20.5091 3.00881 20.5208 3.00796 20.5326C3.00796 20.7858 4.58079 21.4046 7.49659 21.4046C10.4124 21.4046 11.9852 20.7858 11.9852 20.5326C11.9844 20.5208 11.9844 20.5091 11.9852 20.4973L13.7861 6.21253H1.20702Z" fill="#676767"/>
<path d="M7.49877 2.93142C6.73208 2.93142 0 2.8895 0 1.46571C0 0.0419238 6.73208 0 7.49877 0C8.26545 0 14.9975 0.0419238 14.9975 1.46571C14.9975 2.8895 8.26717 2.93142 7.49877 2.93142ZM0.627761 1.46571C0.953645 1.78099 3.22283 2.33776 7.49877 2.33776C11.7747 2.33776 14.0439 1.78099 14.3698 1.46571C14.0439 1.15043 11.7747 0.59366 7.49877 0.59366C3.22283 0.59366 0.953645 1.15043 0.627761 1.46571Z" fill="#676767"/>
<path d="M7.49924 21.9997C5.73775 21.9997 2.40516 21.6928 2.40516 20.534C2.40202 20.4932 2.40751 20.4523 2.4213 20.4137C2.43509 20.3751 2.45689 20.3398 2.4853 20.3098C2.51372 20.2799 2.54815 20.256 2.58645 20.2396C2.62475 20.2233 2.6661 20.2148 2.70789 20.2148C2.74968 20.2148 2.79101 20.2233 2.82931 20.2396C2.86761 20.256 2.90205 20.2799 2.93047 20.3098C2.95889 20.3398 2.98067 20.3751 2.99447 20.4137C3.00826 20.4523 3.01375 20.4932 3.01061 20.534C3.01061 20.7872 4.58344 21.406 7.49924 21.406C10.415 21.406 11.9879 20.7872 11.9879 20.534C11.9879 20.4553 12.0199 20.3797 12.0768 20.3241C12.1337 20.2684 12.2109 20.2371 12.2915 20.2371C12.372 20.2371 12.4492 20.2684 12.5061 20.3241C12.563 20.3797 12.595 20.4553 12.595 20.534C12.595 21.6928 9.26245 21.9997 7.49924 21.9997Z" fill="#676767"/>
<path d="M2.70568 20.8358C2.63189 20.8356 2.56071 20.8091 2.50547 20.7612C2.45023 20.7134 2.4147 20.6475 2.40553 20.5759L0.00427433 1.50662C-0.00258839 1.46705 -0.00117593 1.42653 0.00843037 1.38752C0.0180367 1.3485 0.0356289 1.31179 0.0601558 1.27961C0.0846828 1.24743 0.115634 1.22046 0.151128 1.2003C0.186623 1.18015 0.22593 1.16724 0.26667 1.16236C0.307411 1.15748 0.348738 1.16073 0.388159 1.17191C0.427579 1.18309 0.464271 1.20197 0.496017 1.22741C0.527763 1.25284 0.553902 1.28431 0.572857 1.31991C0.591812 1.35551 0.603185 1.39449 0.606293 1.43451L3.00754 20.5038C3.01307 20.5428 3.01061 20.5825 3.00028 20.6206C2.98995 20.6587 2.97196 20.6944 2.94737 20.7256C2.92278 20.7568 2.8921 20.783 2.85708 20.8025C2.82206 20.822 2.78342 20.8344 2.74341 20.8392L2.70568 20.8358Z" fill="#676767"/>
<path d="M12.2891 20.8303H12.2514C12.2114 20.8255 12.1727 20.813 12.1377 20.7935C12.1027 20.774 12.072 20.7479 12.0474 20.7167C12.0228 20.6855 12.0049 20.6498 11.9945 20.6117C11.9842 20.5736 11.9817 20.5339 11.9872 20.4949L14.3885 1.42559C14.3929 1.38629 14.4054 1.34826 14.4252 1.3138C14.445 1.27933 14.4717 1.24913 14.5037 1.22501C14.5358 1.20089 14.5725 1.18335 14.6116 1.17344C14.6508 1.16352 14.6915 1.16145 14.7315 1.16733C14.7715 1.17208 14.8102 1.18457 14.8452 1.20407C14.8802 1.22356 14.9109 1.24969 14.9355 1.2809C14.9601 1.31212 14.9781 1.34782 14.9884 1.3859C14.9987 1.42399 15.0012 1.4637 14.9957 1.50273L12.5944 20.572C12.5848 20.6442 12.5483 20.7103 12.492 20.7579C12.4357 20.8056 12.3635 20.8313 12.2891 20.8303Z" fill="#676767"/>
<path d="M12.3559 6.35547C12.4942 6.35547 12.6063 6.24529 12.6063 6.10938C12.6063 5.97346 12.4942 5.86328 12.3559 5.86328C12.2176 5.86328 12.1055 5.97346 12.1055 6.10938C12.1055 6.24529 12.2176 6.35547 12.3559 6.35547Z" fill="#676767"/>
<path d="M10.4692 6.35547C10.6075 6.35547 10.7196 6.24529 10.7196 6.10938C10.7196 5.97346 10.6075 5.86328 10.4692 5.86328C10.3309 5.86328 10.2188 5.97346 10.2188 6.10938C10.2188 6.24529 10.3309 6.35547 10.4692 6.35547Z" fill="#676767"/>
<path d="M8.58245 6.35547C8.72075 6.35547 8.83286 6.24529 8.83286 6.10938C8.83286 5.97346 8.72075 5.86328 8.58245 5.86328C8.44415 5.86328 8.33203 5.97346 8.33203 6.10938C8.33203 6.24529 8.44415 6.35547 8.58245 6.35547Z" fill="#676767"/>
<path d="M13.2992 6.96875C13.4375 6.96875 13.5497 6.85857 13.5497 6.72266C13.5497 6.58674 13.4375 6.47656 13.2992 6.47656C13.1609 6.47656 13.0488 6.58674 13.0488 6.72266C13.0488 6.85857 13.1609 6.96875 13.2992 6.96875Z" fill="#676767"/>
<path d="M12.3559 7.58593C12.4942 7.58593 12.6063 7.47575 12.6063 7.33984C12.6063 7.20393 12.4942 7.09375 12.3559 7.09375C12.2176 7.09375 12.1055 7.20393 12.1055 7.33984C12.1055 7.47575 12.2176 7.58593 12.3559 7.58593Z" fill="#676767"/>
<path d="M11.4125 6.96875C11.5508 6.96875 11.6629 6.85857 11.6629 6.72266C11.6629 6.58674 11.5508 6.47656 11.4125 6.47656C11.2742 6.47656 11.1621 6.58674 11.1621 6.72266C11.1621 6.85857 11.2742 6.96875 11.4125 6.96875Z" fill="#676767"/>
<path d="M10.4692 7.58593C10.6075 7.58593 10.7196 7.47575 10.7196 7.33984C10.7196 7.20393 10.6075 7.09375 10.4692 7.09375C10.3309 7.09375 10.2188 7.20393 10.2188 7.33984C10.2188 7.47575 10.3309 7.58593 10.4692 7.58593Z" fill="#676767"/>
<path d="M9.52581 6.96875C9.66411 6.96875 9.77622 6.85857 9.77622 6.72266C9.77622 6.58674 9.66411 6.47656 9.52581 6.47656C9.38751 6.47656 9.27539 6.58674 9.27539 6.72266C9.27539 6.85857 9.38751 6.96875 9.52581 6.96875Z" fill="#676767"/>
<path d="M8.58245 7.58593C8.72075 7.58593 8.83286 7.47575 8.83286 7.33984C8.83286 7.20393 8.72075 7.09375 8.58245 7.09375C8.44415 7.09375 8.33203 7.20393 8.33203 7.33984C8.33203 7.47575 8.44415 7.58593 8.58245 7.58593Z" fill="#676767"/>
<path d="M7.63909 6.96875C7.77739 6.96875 7.8895 6.85857 7.8895 6.72266C7.8895 6.58674 7.77739 6.47656 7.63909 6.47656C7.50079 6.47656 7.38867 6.58674 7.38867 6.72266C7.38867 6.85857 7.50079 6.96875 7.63909 6.96875Z" fill="#676767"/>
<path d="M13.2992 8.19922C13.4375 8.19922 13.5497 8.08904 13.5497 7.95313C13.5497 7.81721 13.4375 7.70703 13.2992 7.70703C13.1609 7.70703 13.0488 7.81721 13.0488 7.95313C13.0488 8.08904 13.1609 8.19922 13.2992 8.19922Z" fill="#676767"/>
<path d="M12.3559 8.8125C12.4942 8.8125 12.6063 8.70232 12.6063 8.56641C12.6063 8.43049 12.4942 8.32031 12.3559 8.32031C12.2176 8.32031 12.1055 8.43049 12.1055 8.56641C12.1055 8.70232 12.2176 8.8125 12.3559 8.8125Z" fill="#676767"/>
<path d="M11.4125 8.19922C11.5508 8.19922 11.6629 8.08904 11.6629 7.95313C11.6629 7.81721 11.5508 7.70703 11.4125 7.70703C11.2742 7.70703 11.1621 7.81721 11.1621 7.95313C11.1621 8.08904 11.2742 8.19922 11.4125 8.19922Z" fill="#676767"/>
<path d="M10.4692 8.8125C10.6075 8.8125 10.7196 8.70232 10.7196 8.56641C10.7196 8.43049 10.6075 8.32031 10.4692 8.32031C10.3309 8.32031 10.2188 8.43049 10.2188 8.56641C10.2188 8.70232 10.3309 8.8125 10.4692 8.8125Z" fill="#676767"/>
<path d="M9.52581 8.19922C9.66411 8.19922 9.77622 8.08904 9.77622 7.95313C9.77622 7.81721 9.66411 7.70703 9.52581 7.70703C9.38751 7.70703 9.27539 7.81721 9.27539 7.95313C9.27539 8.08904 9.38751 8.19922 9.52581 8.19922Z" fill="#676767"/>
<path d="M8.58245 8.8125C8.72075 8.8125 8.83286 8.70232 8.83286 8.56641C8.83286 8.43049 8.72075 8.32031 8.58245 8.32031C8.44415 8.32031 8.33203 8.43049 8.33203 8.56641C8.33203 8.70232 8.44415 8.8125 8.58245 8.8125Z" fill="#676767"/>
<path d="M7.63909 8.19922C7.77739 8.19922 7.8895 8.08904 7.8895 7.95313C7.8895 7.81721 7.77739 7.70703 7.63909 7.70703C7.50079 7.70703 7.38867 7.81721 7.38867 7.95313C7.38867 8.08904 7.50079 8.19922 7.63909 8.19922Z" fill="#676767"/>
<path d="M13.2992 9.42968C13.4375 9.42968 13.5497 9.3195 13.5497 9.18359C13.5497 9.04768 13.4375 8.9375 13.2992 8.9375C13.1609 8.9375 13.0488 9.04768 13.0488 9.18359C13.0488 9.3195 13.1609 9.42968 13.2992 9.42968Z" fill="#676767"/>
<path d="M12.3559 10.043C12.4942 10.043 12.6063 9.93278 12.6063 9.79687C12.6063 9.66096 12.4942 9.55078 12.3559 9.55078C12.2176 9.55078 12.1055 9.66096 12.1055 9.79687C12.1055 9.93278 12.2176 10.043 12.3559 10.043Z" fill="#676767"/>
<path d="M11.4125 9.42968C11.5508 9.42968 11.6629 9.3195 11.6629 9.18359C11.6629 9.04768 11.5508 8.9375 11.4125 8.9375C11.2742 8.9375 11.1621 9.04768 11.1621 9.18359C11.1621 9.3195 11.2742 9.42968 11.4125 9.42968Z" fill="#676767"/>
<path d="M10.4692 10.043C10.6075 10.043 10.7196 9.93278 10.7196 9.79687C10.7196 9.66096 10.6075 9.55078 10.4692 9.55078C10.3309 9.55078 10.2188 9.66096 10.2188 9.79687C10.2188 9.93278 10.3309 10.043 10.4692 10.043Z" fill="#676767"/>
<path d="M9.52581 9.42968C9.66411 9.42968 9.77622 9.3195 9.77622 9.18359C9.77622 9.04768 9.66411 8.9375 9.52581 8.9375C9.38751 8.9375 9.27539 9.04768 9.27539 9.18359C9.27539 9.3195 9.38751 9.42968 9.52581 9.42968Z" fill="#676767"/>
<path d="M8.58245 10.043C8.72075 10.043 8.83286 9.93278 8.83286 9.79687C8.83286 9.66096 8.72075 9.55078 8.58245 9.55078C8.44415 9.55078 8.33203 9.66096 8.33203 9.79687C8.33203 9.93278 8.44415 10.043 8.58245 10.043Z" fill="#676767"/>
<path d="M7.63909 9.42968C7.77739 9.42968 7.8895 9.3195 7.8895 9.18359C7.8895 9.04768 7.77739 8.9375 7.63909 8.9375C7.50079 8.9375 7.38867 9.04768 7.38867 9.18359C7.38867 9.3195 7.50079 9.42968 7.63909 9.42968Z" fill="#676767"/>
<path d="M13.2992 10.6562C13.4375 10.6562 13.5497 10.5461 13.5497 10.4102C13.5497 10.2742 13.4375 10.1641 13.2992 10.1641C13.1609 10.1641 13.0488 10.2742 13.0488 10.4102C13.0488 10.5461 13.1609 10.6562 13.2992 10.6562Z" fill="#676767"/>
<path d="M12.3559 11.2734C12.4942 11.2734 12.6063 11.1633 12.6063 11.0273C12.6063 10.8914 12.4942 10.7812 12.3559 10.7812C12.2176 10.7812 12.1055 10.8914 12.1055 11.0273C12.1055 11.1633 12.2176 11.2734 12.3559 11.2734Z" fill="#676767"/>
<path d="M11.4125 10.6562C11.5508 10.6562 11.6629 10.5461 11.6629 10.4102C11.6629 10.2742 11.5508 10.1641 11.4125 10.1641C11.2742 10.1641 11.1621 10.2742 11.1621 10.4102C11.1621 10.5461 11.2742 10.6562 11.4125 10.6562Z" fill="#676767"/>
<path d="M10.4692 11.2734C10.6075 11.2734 10.7196 11.1633 10.7196 11.0273C10.7196 10.8914 10.6075 10.7812 10.4692 10.7812C10.3309 10.7812 10.2188 10.8914 10.2188 11.0273C10.2188 11.1633 10.3309 11.2734 10.4692 11.2734Z" fill="#676767"/>
<path d="M9.52581 10.6562C9.66411 10.6562 9.77622 10.5461 9.77622 10.4102C9.77622 10.2742 9.66411 10.1641 9.52581 10.1641C9.38751 10.1641 9.27539 10.2742 9.27539 10.4102C9.27539 10.5461 9.38751 10.6562 9.52581 10.6562Z" fill="#676767"/>
<path d="M8.58245 11.2734C8.72075 11.2734 8.83286 11.1633 8.83286 11.0273C8.83286 10.8914 8.72075 10.7812 8.58245 10.7812C8.44415 10.7812 8.33203 10.8914 8.33203 11.0273C8.33203 11.1633 8.44415 11.2734 8.58245 11.2734Z" fill="#676767"/>
<path d="M7.63909 10.6562C7.77739 10.6562 7.8895 10.5461 7.8895 10.4102C7.8895 10.2742 7.77739 10.1641 7.63909 10.1641C7.50079 10.1641 7.38867 10.2742 7.38867 10.4102C7.38867 10.5461 7.50079 10.6562 7.63909 10.6562Z" fill="#676767"/>
<path d="M13.2992 11.8867C13.4375 11.8867 13.5497 11.7765 13.5497 11.6406C13.5497 11.5047 13.4375 11.3945 13.2992 11.3945C13.1609 11.3945 13.0488 11.5047 13.0488 11.6406C13.0488 11.7765 13.1609 11.8867 13.2992 11.8867Z" fill="#676767"/>
<path d="M12.3559 12.5039C12.4942 12.5039 12.6063 12.3937 12.6063 12.2578C12.6063 12.1219 12.4942 12.0117 12.3559 12.0117C12.2176 12.0117 12.1055 12.1219 12.1055 12.2578C12.1055 12.3937 12.2176 12.5039 12.3559 12.5039Z" fill="#676767"/>
<path d="M11.4125 11.8867C11.5508 11.8867 11.6629 11.7765 11.6629 11.6406C11.6629 11.5047 11.5508 11.3945 11.4125 11.3945C11.2742 11.3945 11.1621 11.5047 11.1621 11.6406C11.1621 11.7765 11.2742 11.8867 11.4125 11.8867Z" fill="#676767"/>
<path d="M10.4692 12.5039C10.6075 12.5039 10.7196 12.3937 10.7196 12.2578C10.7196 12.1219 10.6075 12.0117 10.4692 12.0117C10.3309 12.0117 10.2188 12.1219 10.2188 12.2578C10.2188 12.3937 10.3309 12.5039 10.4692 12.5039Z" fill="#676767"/>
<path d="M9.52581 11.8867C9.66411 11.8867 9.77622 11.7765 9.77622 11.6406C9.77622 11.5047 9.66411 11.3945 9.52581 11.3945C9.38751 11.3945 9.27539 11.5047 9.27539 11.6406C9.27539 11.7765 9.38751 11.8867 9.52581 11.8867Z" fill="#676767"/>
<path d="M8.58245 12.5039C8.72075 12.5039 8.83286 12.3937 8.83286 12.2578C8.83286 12.1219 8.72075 12.0117 8.58245 12.0117C8.44415 12.0117 8.33203 12.1219 8.33203 12.2578C8.33203 12.3937 8.44415 12.5039 8.58245 12.5039Z" fill="#676767"/>
<path d="M7.63909 11.8867C7.77739 11.8867 7.8895 11.7765 7.8895 11.6406C7.8895 11.5047 7.77739 11.3945 7.63909 11.3945C7.50079 11.3945 7.38867 11.5047 7.38867 11.6406C7.38867 11.7765 7.50079 11.8867 7.63909 11.8867Z" fill="#676767"/>
<path d="M12.3559 13.7305C12.4942 13.7305 12.6063 13.6203 12.6063 13.4844C12.6063 13.3485 12.4942 13.2383 12.3559 13.2383C12.2176 13.2383 12.1055 13.3485 12.1055 13.4844C12.1055 13.6203 12.2176 13.7305 12.3559 13.7305Z" fill="#676767"/>
<path d="M11.4125 13.1172C11.5508 13.1172 11.6629 13.007 11.6629 12.8711C11.6629 12.7352 11.5508 12.625 11.4125 12.625C11.2742 12.625 11.1621 12.7352 11.1621 12.8711C11.1621 13.007 11.2742 13.1172 11.4125 13.1172Z" fill="#676767"/>
<path d="M10.4692 13.7305C10.6075 13.7305 10.7196 13.6203 10.7196 13.4844C10.7196 13.3485 10.6075 13.2383 10.4692 13.2383C10.3309 13.2383 10.2188 13.3485 10.2188 13.4844C10.2188 13.6203 10.3309 13.7305 10.4692 13.7305Z" fill="#676767"/>
<path d="M9.52581 13.1172C9.66411 13.1172 9.77622 13.007 9.77622 12.8711C9.77622 12.7352 9.66411 12.625 9.52581 12.625C9.38751 12.625 9.27539 12.7352 9.27539 12.8711C9.27539 13.007 9.38751 13.1172 9.52581 13.1172Z" fill="#676767"/>
<path d="M8.58245 13.7305C8.72075 13.7305 8.83286 13.6203 8.83286 13.4844C8.83286 13.3485 8.72075 13.2383 8.58245 13.2383C8.44415 13.2383 8.33203 13.3485 8.33203 13.4844C8.33203 13.6203 8.44415 13.7305 8.58245 13.7305Z" fill="#676767"/>
<path d="M7.63909 13.1172C7.77739 13.1172 7.8895 13.007 7.8895 12.8711C7.8895 12.7352 7.77739 12.625 7.63909 12.625C7.50079 12.625 7.38867 12.7352 7.38867 12.8711C7.38867 13.007 7.50079 13.1172 7.63909 13.1172Z" fill="#676767"/>
<path d="M12.3559 14.9648C12.4942 14.9648 12.6063 14.8547 12.6063 14.7187C12.6063 14.5828 12.4942 14.4727 12.3559 14.4727C12.2176 14.4727 12.1055 14.5828 12.1055 14.7187C12.1055 14.8547 12.2176 14.9648 12.3559 14.9648Z" fill="#676767"/>
<path d="M11.4125 14.3477C11.5508 14.3477 11.6629 14.2375 11.6629 14.1016C11.6629 13.9657 11.5508 13.8555 11.4125 13.8555C11.2742 13.8555 11.1621 13.9657 11.1621 14.1016C11.1621 14.2375 11.2742 14.3477 11.4125 14.3477Z" fill="#676767"/>
<path d="M10.4692 14.9648C10.6075 14.9648 10.7196 14.8547 10.7196 14.7187C10.7196 14.5828 10.6075 14.4727 10.4692 14.4727C10.3309 14.4727 10.2188 14.5828 10.2188 14.7187C10.2188 14.8547 10.3309 14.9648 10.4692 14.9648Z" fill="#676767"/>
<path d="M9.52581 14.3477C9.66411 14.3477 9.77622 14.2375 9.77622 14.1016C9.77622 13.9657 9.66411 13.8555 9.52581 13.8555C9.38751 13.8555 9.27539 13.9657 9.27539 14.1016C9.27539 14.2375 9.38751 14.3477 9.52581 14.3477Z" fill="#676767"/>
<path d="M8.58245 14.9648C8.72075 14.9648 8.83286 14.8547 8.83286 14.7187C8.83286 14.5828 8.72075 14.4727 8.58245 14.4727C8.44415 14.4727 8.33203 14.5828 8.33203 14.7187C8.33203 14.8547 8.44415 14.9648 8.58245 14.9648Z" fill="#676767"/>
<path d="M7.63909 14.3477C7.77739 14.3477 7.8895 14.2375 7.8895 14.1016C7.8895 13.9657 7.77739 13.8555 7.63909 13.8555C7.50079 13.8555 7.38867 13.9657 7.38867 14.1016C7.38867 14.2375 7.50079 14.3477 7.63909 14.3477Z" fill="#676767"/>
<path d="M12.3559 16.1914C12.4942 16.1914 12.6063 16.0812 12.6063 15.9453C12.6063 15.8094 12.4942 15.6992 12.3559 15.6992C12.2176 15.6992 12.1055 15.8094 12.1055 15.9453C12.1055 16.0812 12.2176 16.1914 12.3559 16.1914Z" fill="#676767"/>
<path d="M11.4125 15.5781C11.5508 15.5781 11.6629 15.4679 11.6629 15.332C11.6629 15.1961 11.5508 15.0859 11.4125 15.0859C11.2742 15.0859 11.1621 15.1961 11.1621 15.332C11.1621 15.4679 11.2742 15.5781 11.4125 15.5781Z" fill="#676767"/>
<path d="M10.4692 16.1914C10.6075 16.1914 10.7196 16.0812 10.7196 15.9453C10.7196 15.8094 10.6075 15.6992 10.4692 15.6992C10.3309 15.6992 10.2188 15.8094 10.2188 15.9453C10.2188 16.0812 10.3309 16.1914 10.4692 16.1914Z" fill="#676767"/>
<path d="M9.52581 15.5781C9.66411 15.5781 9.77622 15.4679 9.77622 15.332C9.77622 15.1961 9.66411 15.0859 9.52581 15.0859C9.38751 15.0859 9.27539 15.1961 9.27539 15.332C9.27539 15.4679 9.38751 15.5781 9.52581 15.5781Z" fill="#676767"/>
<path d="M8.58245 16.1914C8.72075 16.1914 8.83286 16.0812 8.83286 15.9453C8.83286 15.8094 8.72075 15.6992 8.58245 15.6992C8.44415 15.6992 8.33203 15.8094 8.33203 15.9453C8.33203 16.0812 8.44415 16.1914 8.58245 16.1914Z" fill="#676767"/>
<path d="M7.63909 15.5781C7.77739 15.5781 7.8895 15.4679 7.8895 15.332C7.8895 15.1961 7.77739 15.0859 7.63909 15.0859C7.50079 15.0859 7.38867 15.1961 7.38867 15.332C7.38867 15.4679 7.50079 15.5781 7.63909 15.5781Z" fill="#676767"/>
<path d="M12.3559 17.4219C12.4942 17.4219 12.6063 17.3117 12.6063 17.1758C12.6063 17.0399 12.4942 16.9297 12.3559 16.9297C12.2176 16.9297 12.1055 17.0399 12.1055 17.1758C12.1055 17.3117 12.2176 17.4219 12.3559 17.4219Z" fill="#676767"/>
<path d="M11.4125 16.8086C11.5508 16.8086 11.6629 16.6984 11.6629 16.5625C11.6629 16.4266 11.5508 16.3164 11.4125 16.3164C11.2742 16.3164 11.1621 16.4266 11.1621 16.5625C11.1621 16.6984 11.2742 16.8086 11.4125 16.8086Z" fill="#676767"/>
<path d="M10.4692 17.4219C10.6075 17.4219 10.7196 17.3117 10.7196 17.1758C10.7196 17.0399 10.6075 16.9297 10.4692 16.9297C10.3309 16.9297 10.2188 17.0399 10.2188 17.1758C10.2188 17.3117 10.3309 17.4219 10.4692 17.4219Z" fill="#676767"/>
<path d="M9.52581 16.8086C9.66411 16.8086 9.77622 16.6984 9.77622 16.5625C9.77622 16.4266 9.66411 16.3164 9.52581 16.3164C9.38751 16.3164 9.27539 16.4266 9.27539 16.5625C9.27539 16.6984 9.38751 16.8086 9.52581 16.8086Z" fill="#676767"/>
<path d="M8.58245 17.4219C8.72075 17.4219 8.83286 17.3117 8.83286 17.1758C8.83286 17.0399 8.72075 16.9297 8.58245 16.9297C8.44415 16.9297 8.33203 17.0399 8.33203 17.1758C8.33203 17.3117 8.44415 17.4219 8.58245 17.4219Z" fill="#676767"/>
<path d="M7.63909 16.8086C7.77739 16.8086 7.8895 16.6984 7.8895 16.5625C7.8895 16.4266 7.77739 16.3164 7.63909 16.3164C7.50079 16.3164 7.38867 16.4266 7.38867 16.5625C7.38867 16.6984 7.50079 16.8086 7.63909 16.8086Z" fill="#676767"/>
<path d="M12.3559 18.6523C12.4942 18.6523 12.6063 18.5422 12.6063 18.4062C12.6063 18.2703 12.4942 18.1602 12.3559 18.1602C12.2176 18.1602 12.1055 18.2703 12.1055 18.4062C12.1055 18.5422 12.2176 18.6523 12.3559 18.6523Z" fill="#676767"/>
<path d="M11.4125 18.0391C11.5508 18.0391 11.6629 17.9289 11.6629 17.793C11.6629 17.6571 11.5508 17.5469 11.4125 17.5469C11.2742 17.5469 11.1621 17.6571 11.1621 17.793C11.1621 17.9289 11.2742 18.0391 11.4125 18.0391Z" fill="#676767"/>
<path d="M10.4692 18.6523C10.6075 18.6523 10.7196 18.5422 10.7196 18.4062C10.7196 18.2703 10.6075 18.1602 10.4692 18.1602C10.3309 18.1602 10.2188 18.2703 10.2188 18.4062C10.2188 18.5422 10.3309 18.6523 10.4692 18.6523Z" fill="#676767"/>
<path d="M9.52581 18.0391C9.66411 18.0391 9.77622 17.9289 9.77622 17.793C9.77622 17.6571 9.66411 17.5469 9.52581 17.5469C9.38751 17.5469 9.27539 17.6571 9.27539 17.793C9.27539 17.9289 9.38751 18.0391 9.52581 18.0391Z" fill="#676767"/>
<path d="M8.58245 18.6523C8.72075 18.6523 8.83286 18.5422 8.83286 18.4062C8.83286 18.2703 8.72075 18.1602 8.58245 18.1602C8.44415 18.1602 8.33203 18.2703 8.33203 18.4062C8.33203 18.5422 8.44415 18.6523 8.58245 18.6523Z" fill="#676767"/>
<path d="M7.63909 18.0391C7.77739 18.0391 7.8895 17.9289 7.8895 17.793C7.8895 17.6571 7.77739 17.5469 7.63909 17.5469C7.50079 17.5469 7.38867 17.6571 7.38867 17.793C7.38867 17.9289 7.50079 18.0391 7.63909 18.0391Z" fill="#676767"/>
<path d="M11.4125 19.2656C11.5508 19.2656 11.6629 19.1554 11.6629 19.0195C11.6629 18.8836 11.5508 18.7734 11.4125 18.7734C11.2742 18.7734 11.1621 18.8836 11.1621 19.0195C11.1621 19.1554 11.2742 19.2656 11.4125 19.2656Z" fill="#676767"/>
<path d="M10.4692 19.8828C10.6075 19.8828 10.7196 19.7726 10.7196 19.6367C10.7196 19.5008 10.6075 19.3906 10.4692 19.3906C10.3309 19.3906 10.2188 19.5008 10.2188 19.6367C10.2188 19.7726 10.3309 19.8828 10.4692 19.8828Z" fill="#676767"/>
<path d="M9.52581 19.2656C9.66411 19.2656 9.77622 19.1554 9.77622 19.0195C9.77622 18.8836 9.66411 18.7734 9.52581 18.7734C9.38751 18.7734 9.27539 18.8836 9.27539 19.0195C9.27539 19.1554 9.38751 19.2656 9.52581 19.2656Z" fill="#676767"/>
<path d="M8.58245 19.8828C8.72075 19.8828 8.83286 19.7726 8.83286 19.6367C8.83286 19.5008 8.72075 19.3906 8.58245 19.3906C8.44415 19.3906 8.33203 19.5008 8.33203 19.6367C8.33203 19.7726 8.44415 19.8828 8.58245 19.8828Z" fill="#676767"/>
<path d="M7.63909 19.2656C7.77739 19.2656 7.8895 19.1554 7.8895 19.0195C7.8895 18.8836 7.77739 18.7734 7.63909 18.7734C7.50079 18.7734 7.38867 18.8836 7.38867 19.0195C7.38867 19.1554 7.50079 19.2656 7.63909 19.2656Z" fill="#676767"/>
<path d="M11.4125 20.5C11.5508 20.5 11.6629 20.3898 11.6629 20.2539C11.6629 20.118 11.5508 20.0078 11.4125 20.0078C11.2742 20.0078 11.1621 20.118 11.1621 20.2539C11.1621 20.3898 11.2742 20.5 11.4125 20.5Z" fill="#676767"/>
<path d="M10.4692 21.1094C10.6075 21.1094 10.7196 20.9992 10.7196 20.8633C10.7196 20.7274 10.6075 20.6172 10.4692 20.6172C10.3309 20.6172 10.2188 20.7274 10.2188 20.8633C10.2188 20.9992 10.3309 21.1094 10.4692 21.1094Z" fill="#676767"/>
<path d="M9.52581 20.5C9.66411 20.5 9.77622 20.3898 9.77622 20.2539C9.77622 20.118 9.66411 20.0078 9.52581 20.0078C9.38751 20.0078 9.27539 20.118 9.27539 20.2539C9.27539 20.3898 9.38751 20.5 9.52581 20.5Z" fill="#676767"/>
<path d="M8.58245 21.1094C8.72075 21.1094 8.83286 20.9992 8.83286 20.8633C8.83286 20.7274 8.72075 20.6172 8.58245 20.6172C8.44415 20.6172 8.33203 20.7274 8.33203 20.8633C8.33203 20.9992 8.44415 21.1094 8.58245 21.1094Z" fill="#676767"/>
<path d="M7.63909 20.5C7.77739 20.5 7.8895 20.3898 7.8895 20.2539C7.8895 20.118 7.77739 20.0078 7.63909 20.0078C7.50079 20.0078 7.38867 20.118 7.38867 20.2539C7.38867 20.3898 7.50079 20.5 7.63909 20.5Z" fill="#676767"/>
<path d="M9.52581 21.7266C9.66411 21.7266 9.77622 21.6164 9.77622 21.4805C9.77622 21.3446 9.66411 21.2344 9.52581 21.2344C9.38751 21.2344 9.27539 21.3446 9.27539 21.4805C9.27539 21.6164 9.38751 21.7266 9.52581 21.7266Z" fill="#676767"/>
<path d="M7.63909 21.7266C7.77739 21.7266 7.8895 21.6164 7.8895 21.4805C7.8895 21.3446 7.77739 21.2344 7.63909 21.2344C7.50079 21.2344 7.38867 21.3446 7.38867 21.4805C7.38867 21.6164 7.50079 21.7266 7.63909 21.7266Z" fill="#676767"/>
<path d="M5.75237 6.35547C5.89067 6.35547 6.00278 6.24529 6.00278 6.10938C6.00278 5.97346 5.89067 5.86328 5.75237 5.86328C5.61407 5.86328 5.50195 5.97346 5.50195 6.10938C5.50195 6.24529 5.61407 6.35547 5.75237 6.35547Z" fill="#676767"/>
<path d="M3.86565 6.35547C4.00396 6.35547 4.11606 6.24529 4.11606 6.10938C4.11606 5.97346 4.00396 5.86328 3.86565 5.86328C3.72735 5.86328 3.61523 5.97346 3.61523 6.10938C3.61523 6.24529 3.72735 6.35547 3.86565 6.35547Z" fill="#676767"/>
<path d="M1.97894 6.35547C2.11724 6.35547 2.22935 6.24529 2.22935 6.10938C2.22935 5.97346 2.11724 5.86328 1.97894 5.86328C1.84063 5.86328 1.72852 5.97346 1.72852 6.10938C1.72852 6.24529 1.84063 6.35547 1.97894 6.35547Z" fill="#676767"/>
<path d="M6.69573 6.96875C6.83403 6.96875 6.94614 6.85857 6.94614 6.72266C6.94614 6.58674 6.83403 6.47656 6.69573 6.47656C6.55743 6.47656 6.44531 6.58674 6.44531 6.72266C6.44531 6.85857 6.55743 6.96875 6.69573 6.96875Z" fill="#676767"/>
<path d="M5.75237 7.58593C5.89067 7.58593 6.00278 7.47575 6.00278 7.33984C6.00278 7.20393 5.89067 7.09375 5.75237 7.09375C5.61407 7.09375 5.50195 7.20393 5.50195 7.33984C5.50195 7.47575 5.61407 7.58593 5.75237 7.58593Z" fill="#676767"/>
<path d="M4.80901 6.96875C4.94731 6.96875 5.05942 6.85857 5.05942 6.72266C5.05942 6.58674 4.94731 6.47656 4.80901 6.47656C4.67071 6.47656 4.55859 6.58674 4.55859 6.72266C4.55859 6.85857 4.67071 6.96875 4.80901 6.96875Z" fill="#676767"/>
<path d="M3.86565 7.58593C4.00396 7.58593 4.11606 7.47575 4.11606 7.33984C4.11606 7.20393 4.00396 7.09375 3.86565 7.09375C3.72735 7.09375 3.61523 7.20393 3.61523 7.33984C3.61523 7.47575 3.72735 7.58593 3.86565 7.58593Z" fill="#676767"/>
<path d="M2.92229 6.96875C3.0606 6.96875 3.1727 6.85857 3.1727 6.72266C3.1727 6.58674 3.0606 6.47656 2.92229 6.47656C2.78399 6.47656 2.67188 6.58674 2.67188 6.72266C2.67188 6.85857 2.78399 6.96875 2.92229 6.96875Z" fill="#676767"/>
<path d="M1.97894 7.58593C2.11724 7.58593 2.22935 7.47575 2.22935 7.33984C2.22935 7.20393 2.11724 7.09375 1.97894 7.09375C1.84063 7.09375 1.72852 7.20393 1.72852 7.33984C1.72852 7.47575 1.84063 7.58593 1.97894 7.58593Z" fill="#676767"/>
<path d="M6.69573 8.19922C6.83403 8.19922 6.94614 8.08904 6.94614 7.95313C6.94614 7.81721 6.83403 7.70703 6.69573 7.70703C6.55743 7.70703 6.44531 7.81721 6.44531 7.95313C6.44531 8.08904 6.55743 8.19922 6.69573 8.19922Z" fill="#676767"/>
<path d="M5.75237 8.8125C5.89067 8.8125 6.00278 8.70232 6.00278 8.56641C6.00278 8.43049 5.89067 8.32031 5.75237 8.32031C5.61407 8.32031 5.50195 8.43049 5.50195 8.56641C5.50195 8.70232 5.61407 8.8125 5.75237 8.8125Z" fill="#676767"/>
<path d="M4.80901 8.19922C4.94731 8.19922 5.05942 8.08904 5.05942 7.95313C5.05942 7.81721 4.94731 7.70703 4.80901 7.70703C4.67071 7.70703 4.55859 7.81721 4.55859 7.95313C4.55859 8.08904 4.67071 8.19922 4.80901 8.19922Z" fill="#676767"/>
<path d="M3.86565 8.8125C4.00396 8.8125 4.11606 8.70232 4.11606 8.56641C4.11606 8.43049 4.00396 8.32031 3.86565 8.32031C3.72735 8.32031 3.61523 8.43049 3.61523 8.56641C3.61523 8.70232 3.72735 8.8125 3.86565 8.8125Z" fill="#676767"/>
<path d="M2.92229 8.19922C3.0606 8.19922 3.1727 8.08904 3.1727 7.95313C3.1727 7.81721 3.0606 7.70703 2.92229 7.70703C2.78399 7.70703 2.67188 7.81721 2.67188 7.95313C2.67188 8.08904 2.78399 8.19922 2.92229 8.19922Z" fill="#676767"/>
<path d="M1.97894 8.8125C2.11724 8.8125 2.22935 8.70232 2.22935 8.56641C2.22935 8.43049 2.11724 8.32031 1.97894 8.32031C1.84063 8.32031 1.72852 8.43049 1.72852 8.56641C1.72852 8.70232 1.84063 8.8125 1.97894 8.8125Z" fill="#676767"/>
<path d="M6.69573 9.42968C6.83403 9.42968 6.94614 9.3195 6.94614 9.18359C6.94614 9.04768 6.83403 8.9375 6.69573 8.9375C6.55743 8.9375 6.44531 9.04768 6.44531 9.18359C6.44531 9.3195 6.55743 9.42968 6.69573 9.42968Z" fill="#676767"/>
<path d="M5.75237 10.043C5.89067 10.043 6.00278 9.93278 6.00278 9.79687C6.00278 9.66096 5.89067 9.55078 5.75237 9.55078C5.61407 9.55078 5.50195 9.66096 5.50195 9.79687C5.50195 9.93278 5.61407 10.043 5.75237 10.043Z" fill="#676767"/>
<path d="M4.80901 9.42968C4.94731 9.42968 5.05942 9.3195 5.05942 9.18359C5.05942 9.04768 4.94731 8.9375 4.80901 8.9375C4.67071 8.9375 4.55859 9.04768 4.55859 9.18359C4.55859 9.3195 4.67071 9.42968 4.80901 9.42968Z" fill="#676767"/>
<path d="M3.86565 10.043C4.00396 10.043 4.11606 9.93278 4.11606 9.79687C4.11606 9.66096 4.00396 9.55078 3.86565 9.55078C3.72735 9.55078 3.61523 9.66096 3.61523 9.79687C3.61523 9.93278 3.72735 10.043 3.86565 10.043Z" fill="#676767"/>
<path d="M2.92229 9.42968C3.0606 9.42968 3.1727 9.3195 3.1727 9.18359C3.1727 9.04768 3.0606 8.9375 2.92229 8.9375C2.78399 8.9375 2.67188 9.04768 2.67188 9.18359C2.67188 9.3195 2.78399 9.42968 2.92229 9.42968Z" fill="#676767"/>
<path d="M1.97894 10.043C2.11724 10.043 2.22935 9.93278 2.22935 9.79687C2.22935 9.66096 2.11724 9.55078 1.97894 9.55078C1.84063 9.55078 1.72852 9.66096 1.72852 9.79687C1.72852 9.93278 1.84063 10.043 1.97894 10.043Z" fill="#676767"/>
<path d="M6.69573 10.6562C6.83403 10.6562 6.94614 10.5461 6.94614 10.4102C6.94614 10.2742 6.83403 10.1641 6.69573 10.1641C6.55743 10.1641 6.44531 10.2742 6.44531 10.4102C6.44531 10.5461 6.55743 10.6562 6.69573 10.6562Z" fill="#676767"/>
<path d="M5.75237 11.2734C5.89067 11.2734 6.00278 11.1633 6.00278 11.0273C6.00278 10.8914 5.89067 10.7812 5.75237 10.7812C5.61407 10.7812 5.50195 10.8914 5.50195 11.0273C5.50195 11.1633 5.61407 11.2734 5.75237 11.2734Z" fill="#676767"/>
<path d="M4.80901 10.6562C4.94731 10.6562 5.05942 10.5461 5.05942 10.4102C5.05942 10.2742 4.94731 10.1641 4.80901 10.1641C4.67071 10.1641 4.55859 10.2742 4.55859 10.4102C4.55859 10.5461 4.67071 10.6562 4.80901 10.6562Z" fill="#676767"/>
<path d="M3.86565 11.2734C4.00396 11.2734 4.11606 11.1633 4.11606 11.0273C4.11606 10.8914 4.00396 10.7812 3.86565 10.7812C3.72735 10.7812 3.61523 10.8914 3.61523 11.0273C3.61523 11.1633 3.72735 11.2734 3.86565 11.2734Z" fill="#676767"/>
<path d="M2.92229 10.6562C3.0606 10.6562 3.1727 10.5461 3.1727 10.4102C3.1727 10.2742 3.0606 10.1641 2.92229 10.1641C2.78399 10.1641 2.67188 10.2742 2.67188 10.4102C2.67188 10.5461 2.78399 10.6562 2.92229 10.6562Z" fill="#676767"/>
<path d="M1.97894 11.2734C2.11724 11.2734 2.22935 11.1633 2.22935 11.0273C2.22935 10.8914 2.11724 10.7812 1.97894 10.7812C1.84063 10.7812 1.72852 10.8914 1.72852 11.0273C1.72852 11.1633 1.84063 11.2734 1.97894 11.2734Z" fill="#676767"/>
<path d="M6.69573 11.8867C6.83403 11.8867 6.94614 11.7765 6.94614 11.6406C6.94614 11.5047 6.83403 11.3945 6.69573 11.3945C6.55743 11.3945 6.44531 11.5047 6.44531 11.6406C6.44531 11.7765 6.55743 11.8867 6.69573 11.8867Z" fill="#676767"/>
<path d="M5.75237 12.5039C5.89067 12.5039 6.00278 12.3937 6.00278 12.2578C6.00278 12.1219 5.89067 12.0117 5.75237 12.0117C5.61407 12.0117 5.50195 12.1219 5.50195 12.2578C5.50195 12.3937 5.61407 12.5039 5.75237 12.5039Z" fill="#676767"/>
<path d="M4.80901 11.8867C4.94731 11.8867 5.05942 11.7765 5.05942 11.6406C5.05942 11.5047 4.94731 11.3945 4.80901 11.3945C4.67071 11.3945 4.55859 11.5047 4.55859 11.6406C4.55859 11.7765 4.67071 11.8867 4.80901 11.8867Z" fill="#676767"/>
<path d="M3.86565 12.5039C4.00396 12.5039 4.11606 12.3937 4.11606 12.2578C4.11606 12.1219 4.00396 12.0117 3.86565 12.0117C3.72735 12.0117 3.61523 12.1219 3.61523 12.2578C3.61523 12.3937 3.72735 12.5039 3.86565 12.5039Z" fill="#676767"/>
<path d="M2.92229 11.8867C3.0606 11.8867 3.1727 11.7765 3.1727 11.6406C3.1727 11.5047 3.0606 11.3945 2.92229 11.3945C2.78399 11.3945 2.67188 11.5047 2.67188 11.6406C2.67188 11.7765 2.78399 11.8867 2.92229 11.8867Z" fill="#676767"/>
<path d="M1.97894 12.5039C2.11724 12.5039 2.22935 12.3937 2.22935 12.2578C2.22935 12.1219 2.11724 12.0117 1.97894 12.0117C1.84063 12.0117 1.72852 12.1219 1.72852 12.2578C1.72852 12.3937 1.84063 12.5039 1.97894 12.5039Z" fill="#676767"/>
<path d="M6.69573 13.1172C6.83403 13.1172 6.94614 13.007 6.94614 12.8711C6.94614 12.7352 6.83403 12.625 6.69573 12.625C6.55743 12.625 6.44531 12.7352 6.44531 12.8711C6.44531 13.007 6.55743 13.1172 6.69573 13.1172Z" fill="#676767"/>
<path d="M5.75237 13.7305C5.89067 13.7305 6.00278 13.6203 6.00278 13.4844C6.00278 13.3485 5.89067 13.2383 5.75237 13.2383C5.61407 13.2383 5.50195 13.3485 5.50195 13.4844C5.50195 13.6203 5.61407 13.7305 5.75237 13.7305Z" fill="#676767"/>
<path d="M4.80901 13.1172C4.94731 13.1172 5.05942 13.007 5.05942 12.8711C5.05942 12.7352 4.94731 12.625 4.80901 12.625C4.67071 12.625 4.55859 12.7352 4.55859 12.8711C4.55859 13.007 4.67071 13.1172 4.80901 13.1172Z" fill="#676767"/>
<path d="M3.86565 13.7305C4.00396 13.7305 4.11606 13.6203 4.11606 13.4844C4.11606 13.3485 4.00396 13.2383 3.86565 13.2383C3.72735 13.2383 3.61523 13.3485 3.61523 13.4844C3.61523 13.6203 3.72735 13.7305 3.86565 13.7305Z" fill="#676767"/>
<path d="M2.92229 13.1172C3.0606 13.1172 3.1727 13.007 3.1727 12.8711C3.1727 12.7352 3.0606 12.625 2.92229 12.625C2.78399 12.625 2.67188 12.7352 2.67188 12.8711C2.67188 13.007 2.78399 13.1172 2.92229 13.1172Z" fill="#676767"/>
<path d="M1.97894 13.7305C2.11724 13.7305 2.22935 13.6203 2.22935 13.4844C2.22935 13.3485 2.11724 13.2383 1.97894 13.2383C1.84063 13.2383 1.72852 13.3485 1.72852 13.4844C1.72852 13.6203 1.84063 13.7305 1.97894 13.7305Z" fill="#676767"/>
<path d="M6.69573 14.3477C6.83403 14.3477 6.94614 14.2375 6.94614 14.1016C6.94614 13.9657 6.83403 13.8555 6.69573 13.8555C6.55743 13.8555 6.44531 13.9657 6.44531 14.1016C6.44531 14.2375 6.55743 14.3477 6.69573 14.3477Z" fill="#676767"/>
<path d="M5.75237 14.9648C5.89067 14.9648 6.00278 14.8547 6.00278 14.7187C6.00278 14.5828 5.89067 14.4727 5.75237 14.4727C5.61407 14.4727 5.50195 14.5828 5.50195 14.7187C5.50195 14.8547 5.61407 14.9648 5.75237 14.9648Z" fill="#676767"/>
<path d="M4.80901 14.3477C4.94731 14.3477 5.05942 14.2375 5.05942 14.1016C5.05942 13.9657 4.94731 13.8555 4.80901 13.8555C4.67071 13.8555 4.55859 13.9657 4.55859 14.1016C4.55859 14.2375 4.67071 14.3477 4.80901 14.3477Z" fill="#676767"/>
<path d="M3.86565 14.9648C4.00396 14.9648 4.11606 14.8547 4.11606 14.7187C4.11606 14.5828 4.00396 14.4727 3.86565 14.4727C3.72735 14.4727 3.61523 14.5828 3.61523 14.7187C3.61523 14.8547 3.72735 14.9648 3.86565 14.9648Z" fill="#676767"/>
<path d="M2.92229 14.3477C3.0606 14.3477 3.1727 14.2375 3.1727 14.1016C3.1727 13.9657 3.0606 13.8555 2.92229 13.8555C2.78399 13.8555 2.67188 13.9657 2.67188 14.1016C2.67188 14.2375 2.78399 14.3477 2.92229 14.3477Z" fill="#676767"/>
<path d="M6.69573 15.5781C6.83403 15.5781 6.94614 15.4679 6.94614 15.332C6.94614 15.1961 6.83403 15.0859 6.69573 15.0859C6.55743 15.0859 6.44531 15.1961 6.44531 15.332C6.44531 15.4679 6.55743 15.5781 6.69573 15.5781Z" fill="#676767"/>
<path d="M5.75237 16.1914C5.89067 16.1914 6.00278 16.0812 6.00278 15.9453C6.00278 15.8094 5.89067 15.6992 5.75237 15.6992C5.61407 15.6992 5.50195 15.8094 5.50195 15.9453C5.50195 16.0812 5.61407 16.1914 5.75237 16.1914Z" fill="#676767"/>
<path d="M4.80901 15.5781C4.94731 15.5781 5.05942 15.4679 5.05942 15.332C5.05942 15.1961 4.94731 15.0859 4.80901 15.0859C4.67071 15.0859 4.55859 15.1961 4.55859 15.332C4.55859 15.4679 4.67071 15.5781 4.80901 15.5781Z" fill="#676767"/>
<path d="M3.86565 16.1914C4.00396 16.1914 4.11606 16.0812 4.11606 15.9453C4.11606 15.8094 4.00396 15.6992 3.86565 15.6992C3.72735 15.6992 3.61523 15.8094 3.61523 15.9453C3.61523 16.0812 3.72735 16.1914 3.86565 16.1914Z" fill="#676767"/>
<path d="M2.92229 15.5781C3.0606 15.5781 3.1727 15.4679 3.1727 15.332C3.1727 15.1961 3.0606 15.0859 2.92229 15.0859C2.78399 15.0859 2.67188 15.1961 2.67188 15.332C2.67188 15.4679 2.78399 15.5781 2.92229 15.5781Z" fill="#676767"/>
<path d="M6.69573 16.8086C6.83403 16.8086 6.94614 16.6984 6.94614 16.5625C6.94614 16.4266 6.83403 16.3164 6.69573 16.3164C6.55743 16.3164 6.44531 16.4266 6.44531 16.5625C6.44531 16.6984 6.55743 16.8086 6.69573 16.8086Z" fill="#676767"/>
<path d="M5.75237 17.4219C5.89067 17.4219 6.00278 17.3117 6.00278 17.1758C6.00278 17.0399 5.89067 16.9297 5.75237 16.9297C5.61407 16.9297 5.50195 17.0399 5.50195 17.1758C5.50195 17.3117 5.61407 17.4219 5.75237 17.4219Z" fill="#676767"/>
<path d="M4.80901 16.8086C4.94731 16.8086 5.05942 16.6984 5.05942 16.5625C5.05942 16.4266 4.94731 16.3164 4.80901 16.3164C4.67071 16.3164 4.55859 16.4266 4.55859 16.5625C4.55859 16.6984 4.67071 16.8086 4.80901 16.8086Z" fill="#676767"/>
<path d="M3.86565 17.4219C4.00396 17.4219 4.11606 17.3117 4.11606 17.1758C4.11606 17.0399 4.00396 16.9297 3.86565 16.9297C3.72735 16.9297 3.61523 17.0399 3.61523 17.1758C3.61523 17.3117 3.72735 17.4219 3.86565 17.4219Z" fill="#676767"/>
<path d="M2.92229 16.8086C3.0606 16.8086 3.1727 16.6984 3.1727 16.5625C3.1727 16.4266 3.0606 16.3164 2.92229 16.3164C2.78399 16.3164 2.67188 16.4266 2.67188 16.5625C2.67188 16.6984 2.78399 16.8086 2.92229 16.8086Z" fill="#676767"/>
<path d="M6.69573 18.0391C6.83403 18.0391 6.94614 17.9289 6.94614 17.793C6.94614 17.6571 6.83403 17.5469 6.69573 17.5469C6.55743 17.5469 6.44531 17.6571 6.44531 17.793C6.44531 17.9289 6.55743 18.0391 6.69573 18.0391Z" fill="#676767"/>
<path d="M5.75237 18.6523C5.89067 18.6523 6.00278 18.5422 6.00278 18.4062C6.00278 18.2703 5.89067 18.1602 5.75237 18.1602C5.61407 18.1602 5.50195 18.2703 5.50195 18.4062C5.50195 18.5422 5.61407 18.6523 5.75237 18.6523Z" fill="#676767"/>
<path d="M4.80901 18.0391C4.94731 18.0391 5.05942 17.9289 5.05942 17.793C5.05942 17.6571 4.94731 17.5469 4.80901 17.5469C4.67071 17.5469 4.55859 17.6571 4.55859 17.793C4.55859 17.9289 4.67071 18.0391 4.80901 18.0391Z" fill="#676767"/>
<path d="M3.86565 18.6523C4.00396 18.6523 4.11606 18.5422 4.11606 18.4062C4.11606 18.2703 4.00396 18.1602 3.86565 18.1602C3.72735 18.1602 3.61523 18.2703 3.61523 18.4062C3.61523 18.5422 3.72735 18.6523 3.86565 18.6523Z" fill="#676767"/>
<path d="M2.92229 18.0391C3.0606 18.0391 3.1727 17.9289 3.1727 17.793C3.1727 17.6571 3.0606 17.5469 2.92229 17.5469C2.78399 17.5469 2.67188 17.6571 2.67188 17.793C2.67188 17.9289 2.78399 18.0391 2.92229 18.0391Z" fill="#676767"/>
<path d="M6.69573 19.2656C6.83403 19.2656 6.94614 19.1554 6.94614 19.0195C6.94614 18.8836 6.83403 18.7734 6.69573 18.7734C6.55743 18.7734 6.44531 18.8836 6.44531 19.0195C6.44531 19.1554 6.55743 19.2656 6.69573 19.2656Z" fill="#676767"/>
<path d="M5.75237 19.8828C5.89067 19.8828 6.00278 19.7726 6.00278 19.6367C6.00278 19.5008 5.89067 19.3906 5.75237 19.3906C5.61407 19.3906 5.50195 19.5008 5.50195 19.6367C5.50195 19.7726 5.61407 19.8828 5.75237 19.8828Z" fill="#676767"/>
<path d="M4.80901 19.2656C4.94731 19.2656 5.05942 19.1554 5.05942 19.0195C5.05942 18.8836 4.94731 18.7734 4.80901 18.7734C4.67071 18.7734 4.55859 18.8836 4.55859 19.0195C4.55859 19.1554 4.67071 19.2656 4.80901 19.2656Z" fill="#676767"/>
<path d="M3.86565 19.8828C4.00396 19.8828 4.11606 19.7726 4.11606 19.6367C4.11606 19.5008 4.00396 19.3906 3.86565 19.3906C3.72735 19.3906 3.61523 19.5008 3.61523 19.6367C3.61523 19.7726 3.72735 19.8828 3.86565 19.8828Z" fill="#676767"/>
<path d="M2.92229 19.2656C3.0606 19.2656 3.1727 19.1554 3.1727 19.0195C3.1727 18.8836 3.0606 18.7734 2.92229 18.7734C2.78399 18.7734 2.67188 18.8836 2.67188 19.0195C2.67188 19.1554 2.78399 19.2656 2.92229 19.2656Z" fill="#676767"/>
<path d="M6.69573 20.5C6.83403 20.5 6.94614 20.3898 6.94614 20.2539C6.94614 20.118 6.83403 20.0078 6.69573 20.0078C6.55743 20.0078 6.44531 20.118 6.44531 20.2539C6.44531 20.3898 6.55743 20.5 6.69573 20.5Z" fill="#676767"/>
<path d="M5.75237 21.1094C5.89067 21.1094 6.00278 20.9992 6.00278 20.8633C6.00278 20.7274 5.89067 20.6172 5.75237 20.6172C5.61407 20.6172 5.50195 20.7274 5.50195 20.8633C5.50195 20.9992 5.61407 21.1094 5.75237 21.1094Z" fill="#676767"/>
<path d="M4.80901 20.5C4.94731 20.5 5.05942 20.3898 5.05942 20.2539C5.05942 20.118 4.94731 20.0078 4.80901 20.0078C4.67071 20.0078 4.55859 20.118 4.55859 20.2539C4.55859 20.3898 4.67071 20.5 4.80901 20.5Z" fill="#676767"/>
<path d="M3.86565 21.1094C4.00396 21.1094 4.11606 20.9992 4.11606 20.8633C4.11606 20.7274 4.00396 20.6172 3.86565 20.6172C3.72735 20.6172 3.61523 20.7274 3.61523 20.8633C3.61523 20.9992 3.72735 21.1094 3.86565 21.1094Z" fill="#676767"/>
<path d="M2.92229 20.5C3.0606 20.5 3.1727 20.3898 3.1727 20.2539C3.1727 20.118 3.0606 20.0078 2.92229 20.0078C2.78399 20.0078 2.67188 20.118 2.67188 20.2539C2.67188 20.3898 2.78399 20.5 2.92229 20.5Z" fill="#676767"/>
<path d="M6.69573 21.7266C6.83403 21.7266 6.94614 21.6164 6.94614 21.4805C6.94614 21.3446 6.83403 21.2344 6.69573 21.2344C6.55743 21.2344 6.44531 21.3446 6.44531 21.4805C6.44531 21.6164 6.55743 21.7266 6.69573 21.7266Z" fill="#676767"/>
</svg>
