<?xml version="1.0" encoding="utf-8"?>
<svg viewBox="0 0 58 58" xmlns="http://www.w3.org/2000/svg">
  <circle cx="29" cy="29" r="29" fill="#161514"/>
  <path fill-rule="evenodd" clip-rule="evenodd" d="M 27.701 11.298 C 27.701 10.582 28.284 10 29 10 C 29.717 10 30.3 10.582 30.3 11.298 C 30.3 12.013 29.717 12.594 29 12.594 C 28.284 12.594 27.701 12.013 27.701 11.298 Z M 37.14 12.11 C 37.133 12.11 37.126 12.11 37.118 12.11 C 36.771 12.116 36.448 12.256 36.206 12.505 C 35.965 12.755 35.835 13.082 35.84 13.43 C 35.846 13.776 35.987 14.098 36.237 14.34 C 36.486 14.58 36.814 14.71 37.162 14.703 C 37.509 14.698 37.833 14.558 38.074 14.309 C 38.316 14.06 38.445 13.732 38.44 13.386 C 38.428 12.678 37.847 12.11 37.14 12.11 Z M 20.862 12.115 C 20.145 12.115 19.562 12.698 19.562 13.413 C 19.562 14.128 20.145 14.71 20.862 14.71 C 21.578 14.71 22.161 14.128 22.161 13.413 C 22.161 12.698 21.578 12.115 20.862 12.115 Z M 24.749 19.285 C 24.033 19.285 23.45 19.867 23.45 20.583 C 23.45 21.298 24.033 21.879 24.749 21.879 C 25.466 21.879 26.049 21.298 26.049 20.583 C 26.049 19.867 25.466 19.285 24.749 19.285 Z M 31.952 20.583 C 31.952 19.867 32.535 19.285 33.251 19.285 C 33.968 19.285 34.551 19.867 34.551 20.583 C 34.551 21.298 33.968 21.879 33.251 21.879 C 32.535 21.879 31.952 21.298 31.952 20.583 Z M 29 26.957 C 28.284 26.957 27.701 27.539 27.701 28.255 C 27.701 28.969 28.284 29.551 29 29.551 C 29.717 29.551 30.3 28.969 30.3 28.255 C 30.3 27.539 29.717 26.957 29 26.957 Z M 10 28.66 C 10 27.944 10.583 27.362 11.3 27.362 C 12.017 27.362 12.6 27.944 12.6 28.66 C 12.6 29.374 12.017 29.957 11.3 29.957 C 10.583 29.957 10 29.374 10 28.66 Z M 38.001 42.495 C 37.285 42.495 36.702 43.078 36.702 43.792 C 36.702 44.507 37.285 45.09 38.001 45.09 C 38.718 45.09 39.301 44.507 39.301 43.792 C 39.301 43.078 38.718 42.495 38.001 42.495 Z M 42.588 37.086 C 42.588 36.371 43.171 35.789 43.888 35.789 C 44.604 35.789 45.188 36.371 45.188 37.086 C 45.188 37.801 44.604 38.383 43.888 38.383 C 43.171 38.383 42.588 37.801 42.588 37.086 Z M 46.7 27.362 C 45.984 27.362 45.401 27.944 45.401 28.66 C 45.401 29.374 45.984 29.957 46.7 29.957 C 47.417 29.957 48 29.374 48 28.66 C 48 27.944 47.417 27.362 46.7 27.362 Z M 18.701 43.792 C 18.701 43.078 19.284 42.495 20 42.495 C 20.717 42.495 21.3 43.078 21.3 43.792 C 21.3 44.507 20.717 45.09 20 45.09 C 19.284 45.09 18.701 44.507 18.701 43.792 Z M 14.113 35.789 C 13.397 35.789 12.814 36.371 12.814 37.086 C 12.814 37.801 13.397 38.383 14.113 38.383 C 14.83 38.383 15.413 37.801 15.413 37.086 C 15.413 36.371 14.83 35.789 14.113 35.789 Z M 17.066 28.457 C 17.066 27.03 18.228 25.87 19.657 25.87 C 21.086 25.87 22.249 27.03 22.249 28.457 C 22.249 29.883 21.086 31.043 19.657 31.043 C 18.228 31.043 17.066 29.883 17.066 28.457 Z M 33.774 34.309 C 32.345 34.309 31.182 35.47 31.182 36.897 C 31.182 38.323 32.345 39.483 33.774 39.483 C 35.203 39.483 36.365 38.323 36.365 36.897 C 36.365 35.47 35.203 34.309 33.774 34.309 Z M 12.495 19.929 C 12.495 18.502 13.658 17.342 15.087 17.342 C 16.516 17.342 17.679 18.502 17.679 19.929 C 17.679 21.354 16.516 22.515 15.087 22.515 C 13.658 22.515 12.495 21.354 12.495 19.929 Z M 29.001 42.826 C 27.572 42.826 26.409 43.987 26.409 45.413 C 26.409 46.839 27.572 48 29.001 48 C 30.429 48 31.592 46.839 31.592 45.413 C 31.592 43.987 30.429 42.826 29.001 42.826 Z M 21.635 36.885 C 21.635 35.458 22.798 34.298 24.227 34.298 C 25.656 34.298 26.819 35.458 26.819 36.885 C 26.819 38.31 25.656 39.47 24.227 39.47 C 22.798 39.47 21.635 38.31 21.635 36.885 Z M 38.343 25.87 C 36.914 25.87 35.751 27.03 35.751 28.457 C 35.751 29.883 36.914 31.043 38.343 31.043 C 39.772 31.043 40.935 29.883 40.935 28.457 C 40.935 27.03 39.772 25.87 38.343 25.87 Z M 40.424 19.929 C 40.424 18.502 41.587 17.342 43.016 17.342 C 44.445 17.342 45.607 18.502 45.607 19.929 C 45.607 21.354 44.445 22.515 43.016 22.515 C 41.587 22.515 40.424 21.354 40.424 19.929 Z" fill="white"/>
</svg>