<svg width="16" height="33" viewBox="0 0 16 33" fill="none" xmlns="http://www.w3.org/2000/svg">
<path d="M1 14.8966L7.94828 18.1035L14.8966 14.8966" stroke="white"/>
<rect x="1" y="1" width="13.8966" height="31" rx="1" stroke="white"/>
<path fill-rule="evenodd" clip-rule="evenodd" d="M7.69201 4.46006C7.69201 4.32048 7.80682 4.20691 7.94791 4.20691C8.089 4.20691 8.20381 4.32048 8.20381 4.46006C8.20381 4.59963 8.089 4.7132 7.94791 4.7132C7.80682 4.7132 7.69201 4.59963 7.69201 4.46006ZM9.54999 4.61869L9.54567 4.61877C9.47733 4.61987 9.41356 4.64721 9.366 4.69586C9.31851 4.74443 9.29299 4.80843 9.29401 4.87603C9.29519 4.94364 9.32292 5.00672 9.37202 5.05377C9.42111 5.10083 9.48581 5.12591 9.55415 5.1249C9.62249 5.12381 9.68634 5.09638 9.73382 5.04782C9.78139 4.99925 9.80691 4.93525 9.80581 4.86764C9.80352 4.7295 9.68913 4.61869 9.54999 4.61869ZM6.34543 4.61983C6.20434 4.61983 6.08953 4.7334 6.08953 4.87297C6.08953 5.01255 6.20434 5.12612 6.34543 5.12612C6.48653 5.12612 6.60133 5.01255 6.60133 4.87297C6.60133 4.7334 6.48653 4.61983 6.34543 4.61983ZM7.11135 6.01896C6.97026 6.01896 6.85545 6.13254 6.85545 6.27211C6.85545 6.41169 6.97026 6.52526 7.11135 6.52526C7.25244 6.52526 7.36725 6.41169 7.36725 6.27211C7.36725 6.13254 7.25244 6.01896 7.11135 6.01896ZM8.52907 6.27211C8.52907 6.13254 8.64388 6.01896 8.78497 6.01896C8.92606 6.01896 9.04087 6.13254 9.04087 6.27211C9.04087 6.41169 8.92606 6.52526 8.78497 6.52526C8.64388 6.52526 8.52907 6.41169 8.52907 6.27211ZM7.94791 7.51617C7.80682 7.51617 7.69201 7.62975 7.69201 7.76932C7.69201 7.9089 7.80682 8.02247 7.94791 8.02247C8.089 8.02247 8.20381 7.9089 8.20381 7.76932C8.20381 7.62975 8.089 7.51617 7.94791 7.51617ZM4.20703 7.84857C4.20703 7.70891 4.32184 7.59542 4.46293 7.59542C4.60402 7.59542 4.71883 7.70891 4.71883 7.84857C4.71883 7.98806 4.60402 8.10172 4.46293 8.10172C4.32184 8.10172 4.20703 7.98806 4.20703 7.84857ZM9.72042 10.5486C9.57933 10.5486 9.46452 10.6622 9.46452 10.8018C9.46452 10.9413 9.57933 11.0549 9.72042 11.0549C9.86151 11.0549 9.97632 10.9413 9.97632 10.8018C9.97632 10.6622 9.86151 10.5486 9.72042 10.5486ZM10.6235 9.49302C10.6235 9.35344 10.7383 9.23987 10.8794 9.23987C11.0205 9.23987 11.1353 9.35344 11.1353 9.49302C11.1353 9.63259 11.0205 9.74616 10.8794 9.74616C10.7383 9.74616 10.6235 9.63259 10.6235 9.49302ZM11.4339 7.59542C11.2928 7.59542 11.178 7.70891 11.178 7.84857C11.178 7.98806 11.2928 8.10172 11.4339 8.10172C11.575 8.10172 11.6898 7.98806 11.6898 7.84857C11.6898 7.70891 11.575 7.59542 11.4339 7.59542ZM5.92 10.8018C5.92 10.6622 6.03481 10.5486 6.1759 10.5486C6.317 10.5486 6.4318 10.6622 6.4318 10.8018C6.4318 10.9413 6.317 11.0549 6.1759 11.0549C6.03481 11.0549 5.92 10.9413 5.92 10.8018ZM5.01693 9.23987C4.87584 9.23987 4.76104 9.35344 4.76104 9.49302C4.76104 9.63259 4.87584 9.74616 5.01693 9.74616C5.15803 9.74616 5.27283 9.63259 5.27283 9.49302C5.27283 9.35344 5.15803 9.23987 5.01693 9.23987ZM5.5986 7.80894C5.5986 7.53046 5.82754 7.30407 6.10887 7.30407C6.39021 7.30407 6.61915 7.53046 6.61915 7.80894C6.61915 8.08725 6.39021 8.31373 6.10887 8.31373C5.82754 8.31373 5.5986 8.08725 5.5986 7.80894ZM8.88705 8.95117C8.60571 8.95117 8.37669 9.17764 8.37669 9.45604C8.37669 9.73435 8.60571 9.96082 8.88705 9.96082C9.16839 9.96082 9.39732 9.73435 9.39732 9.45604C9.39732 9.17764 9.16839 8.95117 8.88705 8.95117ZM4.69746 6.14453C4.69746 5.86614 4.9264 5.63966 5.20773 5.63966C5.48907 5.63966 5.71809 5.86614 5.71809 6.14453C5.71809 6.42284 5.48907 6.64932 5.20773 6.64932C4.9264 6.64932 4.69746 6.42284 4.69746 6.14453ZM7.94807 10.6133C7.66673 10.6133 7.43771 10.8397 7.43771 11.1181C7.43771 11.3965 7.66673 11.6229 7.94807 11.6229C8.22941 11.6229 8.45834 11.3965 8.45834 11.1181C8.45834 10.8397 8.22941 10.6133 7.94807 10.6133ZM6.49823 9.45364C6.49823 9.17524 6.72725 8.94877 7.00858 8.94877C7.28992 8.94877 7.51886 9.17524 7.51886 9.45364C7.51886 9.73195 7.28992 9.95843 7.00858 9.95843C6.72725 9.95843 6.49823 9.73195 6.49823 9.45364ZM9.78819 7.30407C9.50685 7.30407 9.27783 7.53046 9.27783 7.80894C9.27783 8.08725 9.50685 8.31373 9.78819 8.31373C10.0695 8.31373 10.2985 8.08725 10.2985 7.80894C10.2985 7.53046 10.0695 7.30407 9.78819 7.30407ZM10.1971 6.14453C10.1971 5.86614 10.4261 5.63966 10.7074 5.63966C10.9888 5.63966 11.2177 5.86614 11.2177 6.14453C11.2177 6.42284 10.9888 6.64932 10.7074 6.64932C10.4261 6.64932 10.1971 6.42284 10.1971 6.14453Z" fill="white"/>
<path d="M9.54567 4.61877L9.54726 4.71876L9.54761 4.71876L9.54567 4.61877ZM9.54999 4.61869V4.51867L9.54805 4.51871L9.54999 4.61869ZM9.366 4.69586L9.29449 4.62595L9.29449 4.62595L9.366 4.69586ZM9.29401 4.87603L9.19402 4.87754L9.19402 4.87779L9.29401 4.87603ZM9.37202 5.05377L9.44121 4.98158V4.98158L9.37202 5.05377ZM9.55415 5.1249L9.55562 5.22489L9.55574 5.22489L9.55415 5.1249ZM9.73382 5.04782L9.66238 4.97784L9.66232 4.97791L9.73382 5.04782ZM9.80581 4.86764L9.90579 4.86602L9.90579 4.86599L9.80581 4.86764ZM7.94791 4.10691C7.75261 4.10691 7.59201 4.26424 7.59201 4.46006H7.79201C7.79201 4.37673 7.86102 4.30691 7.94791 4.30691V4.10691ZM8.30381 4.46006C8.30381 4.26424 8.14321 4.10691 7.94791 4.10691V4.30691C8.03479 4.30691 8.10381 4.37673 8.10381 4.46006H8.30381ZM7.94791 4.8132C8.14321 4.8132 8.30381 4.65588 8.30381 4.46006H8.10381C8.10381 4.54339 8.03479 4.6132 7.94791 4.6132V4.8132ZM7.59201 4.46006C7.59201 4.65588 7.75261 4.8132 7.94791 4.8132V4.6132C7.86102 4.6132 7.79201 4.54339 7.79201 4.46006H7.59201ZM9.54761 4.71876L9.55193 4.71867L9.54805 4.51871L9.54373 4.51879L9.54761 4.71876ZM9.4375 4.76577C9.46653 4.73608 9.50512 4.71943 9.54726 4.71876L9.54407 4.51879C9.44953 4.5203 9.3606 4.55834 9.29449 4.62595L9.4375 4.76577ZM9.394 4.87453C9.39338 4.83363 9.40861 4.79532 9.4375 4.76577L9.29449 4.62595C9.22842 4.69353 9.1926 4.78322 9.19402 4.87754L9.394 4.87453ZM9.44121 4.98158C9.41118 4.9528 9.39471 4.915 9.39399 4.87428L9.19402 4.87779C9.19568 4.97228 9.23466 5.06064 9.30282 5.12597L9.44121 4.98158ZM9.55267 5.02491C9.51018 5.02554 9.471 5.01013 9.44121 4.98158L9.30282 5.12597C9.37122 5.19152 9.46143 5.22628 9.55562 5.22489L9.55267 5.02491ZM9.66232 4.97791C9.63335 5.00753 9.59467 5.02424 9.55255 5.02492L9.55574 5.22489C9.65031 5.22338 9.73932 5.18523 9.80532 5.11773L9.66232 4.97791ZM9.70582 4.86927C9.70649 4.91007 9.6913 4.94831 9.66238 4.97785L9.80526 5.11779C9.87147 5.05019 9.90733 4.96043 9.90579 4.86602L9.70582 4.86927ZM9.54999 4.71869C9.63568 4.71869 9.70445 4.78685 9.70582 4.8693L9.90579 4.86599C9.90258 4.67214 9.74259 4.51869 9.54999 4.51869V4.71869ZM6.18953 4.87297C6.18953 4.78964 6.25855 4.71983 6.34543 4.71983V4.51983C6.15014 4.51983 5.98953 4.67715 5.98953 4.87297H6.18953ZM6.34543 5.02612C6.25855 5.02612 6.18953 4.9563 6.18953 4.87297H5.98953C5.98953 5.06879 6.15014 5.22612 6.34543 5.22612V5.02612ZM6.50133 4.87297C6.50133 4.9563 6.43232 5.02612 6.34543 5.02612V5.22612C6.54073 5.22612 6.70133 5.06879 6.70133 4.87297H6.50133ZM6.34543 4.71983C6.43232 4.71983 6.50133 4.78964 6.50133 4.87297H6.70133C6.70133 4.67715 6.54073 4.51983 6.34543 4.51983V4.71983ZM6.95545 6.27211C6.95545 6.18878 7.02447 6.11896 7.11135 6.11896V5.91896C6.91605 5.91896 6.75545 6.07629 6.75545 6.27211H6.95545ZM7.11135 6.42526C7.02447 6.42526 6.95545 6.35544 6.95545 6.27211H6.75545C6.75545 6.46793 6.91605 6.62526 7.11135 6.62526V6.42526ZM7.26725 6.27211C7.26725 6.35544 7.19824 6.42526 7.11135 6.42526V6.62526C7.30665 6.62526 7.46725 6.46793 7.46725 6.27211H7.26725ZM7.11135 6.11896C7.19824 6.11896 7.26725 6.18878 7.26725 6.27211H7.46725C7.46725 6.07629 7.30665 5.91896 7.11135 5.91896V6.11896ZM8.78497 5.91896C8.58967 5.91896 8.42907 6.07629 8.42907 6.27211H8.62907C8.62907 6.18878 8.69808 6.11896 8.78497 6.11896V5.91896ZM9.14087 6.27211C9.14087 6.07629 8.98027 5.91896 8.78497 5.91896V6.11896C8.87185 6.11896 8.94087 6.18878 8.94087 6.27211H9.14087ZM8.78497 6.62526C8.98027 6.62526 9.14087 6.46793 9.14087 6.27211H8.94087C8.94087 6.35544 8.87185 6.42526 8.78497 6.42526V6.62526ZM8.42907 6.27211C8.42907 6.46793 8.58967 6.62526 8.78497 6.62526V6.42526C8.69808 6.42526 8.62907 6.35544 8.62907 6.27211H8.42907ZM7.79201 7.76932C7.79201 7.68599 7.86102 7.61617 7.94791 7.61617V7.41617C7.75261 7.41617 7.59201 7.5735 7.59201 7.76932H7.79201ZM7.94791 7.92247C7.86102 7.92247 7.79201 7.85265 7.79201 7.76932H7.59201C7.59201 7.96514 7.75261 8.12247 7.94791 8.12247V7.92247ZM8.10381 7.76932C8.10381 7.85265 8.03479 7.92247 7.94791 7.92247V8.12247C8.14321 8.12247 8.30381 7.96514 8.30381 7.76932H8.10381ZM7.94791 7.61617C8.03479 7.61617 8.10381 7.68599 8.10381 7.76932H8.30381C8.30381 7.5735 8.14321 7.41617 7.94791 7.41617V7.61617ZM4.46293 7.49542C4.26765 7.49542 4.10703 7.65264 4.10703 7.84857H4.30703C4.30703 7.76518 4.37602 7.69542 4.46293 7.69542V7.49542ZM4.81883 7.84857C4.81883 7.65264 4.65821 7.49542 4.46293 7.49542V7.69542C4.54984 7.69542 4.61883 7.76518 4.61883 7.84857H4.81883ZM4.46293 8.20172C4.65825 8.20172 4.81883 8.04428 4.81883 7.84857H4.61883C4.61883 7.93184 4.5498 8.00172 4.46293 8.00172V8.20172ZM4.10703 7.84857C4.10703 8.04428 4.26761 8.20172 4.46293 8.20172V8.00172C4.37607 8.00172 4.30703 7.93184 4.30703 7.84857H4.10703ZM9.56452 10.8018C9.56452 10.7184 9.63353 10.6486 9.72042 10.6486V10.4486C9.52512 10.4486 9.36452 10.606 9.36452 10.8018H9.56452ZM9.72042 10.9549C9.63353 10.9549 9.56452 10.8851 9.56452 10.8018H9.36452C9.36452 10.9976 9.52512 11.1549 9.72042 11.1549V10.9549ZM9.87632 10.8018C9.87632 10.8851 9.8073 10.9549 9.72042 10.9549V11.1549C9.91572 11.1549 10.0763 10.9976 10.0763 10.8018H9.87632ZM9.72042 10.6486C9.8073 10.6486 9.87632 10.7184 9.87632 10.8018H10.0763C10.0763 10.606 9.91572 10.4486 9.72042 10.4486V10.6486ZM10.8794 9.13987C10.6841 9.13987 10.5235 9.2972 10.5235 9.49302H10.7235C10.7235 9.40969 10.7925 9.33987 10.8794 9.33987V9.13987ZM11.2353 9.49302C11.2353 9.2972 11.0747 9.13987 10.8794 9.13987V9.33987C10.9663 9.33987 11.0353 9.40969 11.0353 9.49302H11.2353ZM10.8794 9.84616C11.0747 9.84616 11.2353 9.68884 11.2353 9.49302H11.0353C11.0353 9.57635 10.9663 9.64616 10.8794 9.64616V9.84616ZM10.5235 9.49302C10.5235 9.68884 10.6841 9.84616 10.8794 9.84616V9.64616C10.7925 9.64616 10.7235 9.57635 10.7235 9.49302H10.5235ZM11.278 7.84857C11.278 7.76518 11.347 7.69542 11.4339 7.69542V7.49542C11.2386 7.49542 11.078 7.65264 11.078 7.84857H11.278ZM11.4339 8.00172C11.347 8.00172 11.278 7.93184 11.278 7.84857H11.078C11.078 8.04428 11.2386 8.20172 11.4339 8.20172V8.00172ZM11.5898 7.84857C11.5898 7.93184 11.5208 8.00172 11.4339 8.00172V8.20172C11.6292 8.20172 11.7898 8.04428 11.7898 7.84857H11.5898ZM11.4339 7.69542C11.5208 7.69542 11.5898 7.76518 11.5898 7.84857H11.7898C11.7898 7.65264 11.6292 7.49542 11.4339 7.49542V7.69542ZM6.1759 10.4486C5.9806 10.4486 5.82 10.606 5.82 10.8018H6.02C6.02 10.7184 6.08902 10.6486 6.1759 10.6486V10.4486ZM6.5318 10.8018C6.5318 10.606 6.3712 10.4486 6.1759 10.4486V10.6486C6.26279 10.6486 6.3318 10.7184 6.3318 10.8018H6.5318ZM6.1759 11.1549C6.3712 11.1549 6.5318 10.9976 6.5318 10.8018H6.3318C6.3318 10.8851 6.26279 10.9549 6.1759 10.9549V11.1549ZM5.82 10.8018C5.82 10.9976 5.9806 11.1549 6.1759 11.1549V10.9549C6.08902 10.9549 6.02 10.8851 6.02 10.8018H5.82ZM4.86104 9.49302C4.86104 9.40969 4.93005 9.33987 5.01693 9.33987V9.13987C4.82164 9.13987 4.66104 9.2972 4.66104 9.49302H4.86104ZM5.01693 9.64616C4.93005 9.64616 4.86104 9.57635 4.86104 9.49302H4.66104C4.66104 9.68884 4.82164 9.84616 5.01693 9.84616V9.64616ZM5.17283 9.49302C5.17283 9.57635 5.10382 9.64616 5.01693 9.64616V9.84616C5.21223 9.84616 5.37283 9.68884 5.37283 9.49302H5.17283ZM5.01693 9.33987C5.10382 9.33987 5.17283 9.40969 5.17283 9.49302H5.37283C5.37283 9.2972 5.21223 9.13987 5.01693 9.13987V9.33987ZM6.10887 7.20407C5.77333 7.20407 5.4986 7.47422 5.4986 7.80894H5.6986C5.6986 7.58671 5.88174 7.40407 6.10887 7.40407V7.20407ZM6.71915 7.80894C6.71915 7.47422 6.44442 7.20407 6.10887 7.20407V7.40407C6.336 7.40407 6.51915 7.58671 6.51915 7.80894H6.71915ZM6.10887 8.41373C6.44442 8.41373 6.71915 8.1435 6.71915 7.80894H6.51915C6.51915 8.03101 6.336 8.21373 6.10887 8.21373V8.41373ZM5.4986 7.80894C5.4986 8.1435 5.77333 8.41373 6.10887 8.41373V8.21373C5.88174 8.21373 5.6986 8.03101 5.6986 7.80894H5.4986ZM8.47669 9.45604C8.47669 9.2339 8.65991 9.05117 8.88705 9.05117V8.85117C8.55152 8.85117 8.27669 9.12139 8.27669 9.45604H8.47669ZM8.88705 9.86082C8.6599 9.86082 8.47669 9.67808 8.47669 9.45604H8.27669C8.27669 9.79061 8.55153 10.0608 8.88705 10.0608V9.86082ZM9.29732 9.45604C9.29732 9.6781 9.11418 9.86082 8.88705 9.86082V10.0608C9.22259 10.0608 9.49732 9.79059 9.49732 9.45604H9.29732ZM8.88705 9.05117C9.11417 9.05117 9.29732 9.23388 9.29732 9.45604H9.49732C9.49732 9.12141 9.2226 8.85117 8.88705 8.85117V9.05117ZM5.20773 5.53966C4.87218 5.53966 4.59746 5.8099 4.59746 6.14453H4.79746C4.79746 5.92237 4.98061 5.73966 5.20773 5.73966V5.53966ZM5.81809 6.14453C5.81809 5.80988 5.54327 5.53966 5.20773 5.53966V5.73966C5.43488 5.73966 5.61809 5.92239 5.61809 6.14453H5.81809ZM5.20773 6.74932C5.54326 6.74932 5.81809 6.47911 5.81809 6.14453H5.61809C5.61809 6.36658 5.43489 6.54932 5.20773 6.54932V6.74932ZM4.59746 6.14453C4.59746 6.47909 4.87219 6.74932 5.20773 6.74932V6.54932C4.9806 6.54932 4.79746 6.3666 4.79746 6.14453H4.59746ZM7.53771 11.1181C7.53771 10.896 7.72093 10.7133 7.94807 10.7133V10.5133C7.61254 10.5133 7.33771 10.7835 7.33771 11.1181H7.53771ZM7.94807 11.5229C7.72092 11.5229 7.53771 11.3402 7.53771 11.1181H7.33771C7.33771 11.4527 7.61255 11.7229 7.94807 11.7229V11.5229ZM8.35834 11.1181C8.35834 11.3402 8.1752 11.5229 7.94807 11.5229V11.7229C8.28361 11.7229 8.55834 11.4527 8.55834 11.1181H8.35834ZM7.94807 10.7133C8.17519 10.7133 8.35834 10.896 8.35834 11.1181H8.55834C8.55834 10.7835 8.28362 10.5133 7.94807 10.5133V10.7133ZM7.00858 8.84877C6.67305 8.84877 6.39823 9.11899 6.39823 9.45364H6.59823C6.59823 9.2315 6.78144 9.04877 7.00858 9.04877V8.84877ZM7.61886 9.45364C7.61886 9.11901 7.34414 8.84877 7.00858 8.84877V9.04877C7.2357 9.04877 7.41886 9.23148 7.41886 9.45364H7.61886ZM7.00858 10.0584C7.34413 10.0584 7.61886 9.7882 7.61886 9.45364H7.41886C7.41886 9.67571 7.23571 9.85843 7.00858 9.85843V10.0584ZM6.39823 9.45364C6.39823 9.78822 6.67306 10.0584 7.00858 10.0584V9.85843C6.78143 9.85843 6.59823 9.67568 6.59823 9.45364H6.39823ZM9.37783 7.80894C9.37783 7.58673 9.56104 7.40407 9.78819 7.40407V7.20407C9.45267 7.20407 9.17783 7.4742 9.17783 7.80894H9.37783ZM9.78819 8.21373C9.56104 8.21373 9.37783 8.03099 9.37783 7.80894H9.17783C9.17783 8.14352 9.45267 8.41373 9.78819 8.41373V8.21373ZM10.1985 7.80894C10.1985 8.03101 10.0153 8.21373 9.78819 8.21373V8.41373C10.1237 8.41373 10.3985 8.1435 10.3985 7.80894H10.1985ZM9.78819 7.40407C10.0153 7.40407 10.1985 7.58671 10.1985 7.80894H10.3985C10.3985 7.47422 10.1237 7.20407 9.78819 7.20407V7.40407ZM10.7074 5.53966C10.3719 5.53966 10.0971 5.8099 10.0971 6.14453H10.2971C10.2971 5.92237 10.4803 5.73966 10.7074 5.73966V5.53966ZM11.3177 6.14453C11.3177 5.80991 11.0431 5.53966 10.7074 5.53966V5.73966C10.9346 5.73966 11.1177 5.92236 11.1177 6.14453H11.3177ZM10.7074 6.74932C11.043 6.74932 11.3177 6.47908 11.3177 6.14453H11.1177C11.1177 6.36661 10.9346 6.54932 10.7074 6.54932V6.74932ZM10.0971 6.14453C10.0971 6.47909 10.3719 6.74932 10.7074 6.74932V6.54932C10.4803 6.54932 10.2971 6.3666 10.2971 6.14453H10.0971Z" fill="white"/>
<rect x="3.1377" y="22.3793" width="2.13793" height="2.13793" stroke="white"/>
<rect x="6.87915" y="22.3793" width="2.13793" height="2.13793" stroke="white"/>
<rect x="10.6208" y="22.3793" width="2.13793" height="2.13793" stroke="white"/>
</svg>
