<svg width="10" height="10" viewBox="0 0 10 10" fill="none" xmlns="http://www.w3.org/2000/svg">
<path fill-rule="evenodd" clip-rule="evenodd" d="M0.219821 8.70495C-0.0730722 8.99784 -0.0730722 9.47272 0.219821 9.76561C0.512714 10.0585 0.987588 10.0585 1.28048 9.76561L4.99226 6.05383L8.70495 9.76652C8.99784 10.0594 9.47272 10.0594 9.76561 9.76652C10.0585 9.47362 10.0585 8.99875 9.76561 8.70586L6.05292 4.99317L9.76576 1.28033C10.0587 0.987437 10.0587 0.512563 9.76576 0.21967C9.47287 -0.0732231 8.998 -0.0732236 8.7051 0.21967L4.99226 3.93251L1.28033 0.220576C0.987437 -0.0723167 0.512563 -0.0723167 0.21967 0.220576C-0.0732233 0.51347 -0.0732233 0.988343 0.21967 1.28124L3.9316 4.99317L0.219821 8.70495Z" fill="white"/>
</svg>
