<svg width="50" height="50" viewBox="0 0 50 50" fill="none" xmlns="http://www.w3.org/2000/svg">
<rect width="50" height="50" rx="20" fill="#161514"/>
<path fill-rule="evenodd" clip-rule="evenodd" d="M19.6153 21.2308C20.5058 21.2308 21.2308 20.5061 21.2308 19.6153C21.2308 18.7247 20.5058 18 19.6153 18C18.7247 18 18 18.7247 18 19.6152C18 20.5061 18.7247 21.2308 19.6153 21.2308ZM28.7692 19.6155C28.7692 18.7247 29.4942 18 30.3847 18C31.2753 18 32 18.7247 32 19.6155C32 20.5061 31.2753 21.2308 30.3847 21.2308C29.4942 21.2308 28.7692 20.5061 28.7692 19.6155ZM25.0001 23.3846C24.1096 23.3846 23.3846 24.1093 23.3846 25.0001C23.3846 25.8907 24.1096 26.6154 25.0001 26.6154C25.8907 26.6154 26.6154 25.8907 26.6154 25.0001C26.6154 24.1093 25.8907 23.3846 25.0001 23.3846ZM30.3847 28.7692C29.4942 28.7692 28.7692 29.4939 28.7692 30.3847C28.7692 31.2753 29.4942 32 30.3847 32C31.2753 32 32 31.2753 32 30.3847C32 29.4939 31.2753 28.7692 30.3847 28.7692ZM21.2308 30.3845C21.2308 31.2753 20.5058 32 19.6153 32C18.7247 32 18 31.2753 18 30.3845C18 29.4939 18.7247 28.7692 19.6153 28.7692C20.5058 28.7692 21.2308 29.4939 21.2308 30.3845Z" fill="white"/>
</svg>
