<?xml version="1.0" encoding="utf-8"?>
<svg viewBox="0 0 500 500" xmlns="http://www.w3.org/2000/svg">
  <circle cx="250" cy="250" r="29" fill="#161514"/>
  <path fill-rule="evenodd" clip-rule="evenodd" d="M 248.701 232.454 C 248.701 231.745 249.284 231.168 250 231.168 C 250.717 231.168 251.3 231.745 251.3 232.454 C 251.3 233.163 250.717 233.739 250 233.739 C 249.284 233.739 248.701 233.163 248.701 232.454 Z M 258.14 233.26 C 258.133 233.26 258.126 233.26 258.118 233.26 C 257.771 233.266 257.448 233.404 257.206 233.651 C 256.965 233.898 256.835 234.223 256.84 234.567 C 256.846 234.91 256.987 235.23 257.237 235.469 C 257.486 235.708 257.814 235.836 258.162 235.83 C 258.509 235.825 258.833 235.686 259.074 235.439 C 259.316 235.192 259.445 234.867 259.44 234.524 C 259.428 233.822 258.847 233.26 258.14 233.26 Z M 241.862 233.265 C 241.145 233.265 240.562 233.842 240.562 234.551 C 240.562 235.26 241.145 235.836 241.862 235.836 C 242.578 235.836 243.161 235.26 243.161 234.551 C 243.161 233.842 242.578 233.265 241.862 233.265 Z M 245.749 240.371 C 245.033 240.371 244.45 240.948 244.45 241.657 C 244.45 242.366 245.033 242.942 245.749 242.942 C 246.466 242.942 247.049 242.366 247.049 241.657 C 247.049 240.948 246.466 240.371 245.749 240.371 Z M 252.952 241.657 C 252.952 240.948 253.535 240.371 254.251 240.371 C 254.968 240.371 255.551 240.948 255.551 241.657 C 255.551 242.366 254.968 242.942 254.251 242.942 C 253.535 242.942 252.952 242.366 252.952 241.657 Z M 250 247.975 C 249.284 247.975 248.701 248.552 248.701 249.261 C 248.701 249.969 249.284 250.546 250 250.546 C 250.717 250.546 251.3 249.969 251.3 249.261 C 251.3 248.552 250.717 247.975 250 247.975 Z M 231 249.663 C 231 248.953 231.583 248.377 232.3 248.377 C 233.017 248.377 233.6 248.953 233.6 249.663 C 233.6 250.371 233.017 250.948 232.3 250.948 C 231.583 250.948 231 250.371 231 249.663 Z M 259.001 263.376 C 258.285 263.376 257.702 263.953 257.702 264.661 C 257.702 265.37 258.285 265.947 259.001 265.947 C 259.718 265.947 260.301 265.37 260.301 264.661 C 260.301 263.953 259.718 263.376 259.001 263.376 Z M 263.588 258.015 C 263.588 257.306 264.171 256.729 264.888 256.729 C 265.604 256.729 266.188 257.306 266.188 258.015 C 266.188 258.724 265.604 259.3 264.888 259.3 C 264.171 259.3 263.588 258.724 263.588 258.015 Z M 267.7 248.377 C 266.984 248.377 266.401 248.953 266.401 249.663 C 266.401 250.371 266.984 250.948 267.7 250.948 C 268.417 250.948 269 250.371 269 249.663 C 269 248.953 268.417 248.377 267.7 248.377 Z M 239.701 264.661 C 239.701 263.953 240.284 263.376 241 263.376 C 241.717 263.376 242.3 263.953 242.3 264.661 C 242.3 265.37 241.717 265.947 241 265.947 C 240.284 265.947 239.701 265.37 239.701 264.661 Z M 235.113 256.729 C 234.397 256.729 233.814 257.306 233.814 258.015 C 233.814 258.724 234.397 259.3 235.113 259.3 C 235.83 259.3 236.413 258.724 236.413 258.015 C 236.413 257.306 235.83 256.729 235.113 256.729 Z M 238.066 249.462 C 238.066 248.047 239.228 246.898 240.657 246.898 C 242.086 246.898 243.249 248.047 243.249 249.462 C 243.249 250.875 242.086 252.025 240.657 252.025 C 239.228 252.025 238.066 250.875 238.066 249.462 Z M 254.774 255.262 C 253.345 255.262 252.182 256.413 252.182 257.827 C 252.182 259.24 253.345 260.39 254.774 260.39 C 256.203 260.39 257.365 259.24 257.365 257.827 C 257.365 256.413 256.203 255.262 254.774 255.262 Z M 233.495 241.009 C 233.495 239.595 234.658 238.445 236.087 238.445 C 237.516 238.445 238.679 239.595 238.679 241.009 C 238.679 242.422 237.516 243.572 236.087 243.572 C 234.658 243.572 233.495 242.422 233.495 241.009 Z M 250.001 263.704 C 248.572 263.704 247.409 264.854 247.409 266.268 C 247.409 267.681 248.572 268.832 250.001 268.832 C 251.429 268.832 252.592 267.681 252.592 266.268 C 252.592 264.854 251.429 263.704 250.001 263.704 Z M 242.635 257.815 C 242.635 256.401 243.798 255.251 245.227 255.251 C 246.656 255.251 247.819 256.401 247.819 257.815 C 247.819 259.228 246.656 260.378 245.227 260.378 C 243.798 260.378 242.635 259.228 242.635 257.815 Z M 259.343 246.898 C 257.914 246.898 256.751 248.047 256.751 249.462 C 256.751 250.875 257.914 252.025 259.343 252.025 C 260.772 252.025 261.935 250.875 261.935 249.462 C 261.935 248.047 260.772 246.898 259.343 246.898 Z M 261.424 241.009 C 261.424 239.595 262.587 238.445 264.016 238.445 C 265.445 238.445 266.607 239.595 266.607 241.009 C 266.607 242.422 265.445 243.572 264.016 243.572 C 262.587 243.572 261.424 242.422 261.424 241.009 Z" fill="white"/>
</svg>