<svg width="30" height="45" viewBox="0 0 30 45" fill="none" xmlns="http://www.w3.org/2000/svg">
<g filter="url(#filter0_b_1587_10997)">
<path d="M4.80924 41.5478C4.88815 43.8839 11.4959 44.5013 14.9988 44.5013C18.5016 44.5013 25.1094 43.8839 25.1883 41.5478L28.873 11.6792C28.8936 11.5077 28.8386 11.3327 28.7254 11.2024C28.6088 11.072 28.4441 11 28.2692 11H1.72836C1.55682 11 1.38873 11.072 1.27551 11.2024C1.15886 11.3327 1.10738 11.5077 1.12797 11.6792L4.80924 41.5478Z" fill="#BAD8DE"/>
</g>
<path fill-rule="evenodd" clip-rule="evenodd" d="M14.9995 5.99292C13.466 5.99292 0 5.91058 0 2.99474C0 0.0823231 13.466 0 14.9995 0C16.5365 0 29.999 0.0823231 29.999 2.99474C29.999 5.91058 16.5365 5.99292 14.9995 5.99292ZM1.25569 2.99474C1.90754 3.63966 6.44651 4.77855 14.9995 4.77855C23.5526 4.77855 28.0915 3.63966 28.7434 2.99474C28.0915 2.35325 23.5526 1.21093 14.9995 1.21093C6.44651 1.21093 1.90754 2.35325 1.25569 2.99474ZM28.8017 3.06678H28.8051H28.8017Z" fill="#161514"/>
<path d="M14.9954 44.9999C11.472 44.9999 4.80591 44.3721 4.80591 42.0017C4.80591 41.669 5.07695 41.3979 5.40973 41.3979C5.74595 41.3979 6.01697 41.669 6.01697 42.0017C6.01697 42.5197 9.16305 43.7855 14.9954 43.7855C20.8278 43.7855 23.9739 42.5197 23.9739 42.0017C23.9739 41.669 24.2449 41.3979 24.5811 41.3979C24.9139 41.3979 25.1884 41.669 25.1884 42.0017C25.1884 44.3721 18.5223 44.9999 14.9954 44.9999Z" fill="#161514"/>
<path d="M5.41162 42.6095C5.10971 42.6095 4.84897 42.3865 4.81123 42.0777L0.00465283 3.07058C-0.0365169 2.73783 0.200198 2.43595 0.529556 2.39479C0.865776 2.35362 1.1677 2.59032 1.20887 2.92307L6.01542 41.9302C6.05659 42.263 5.81988 42.5649 5.48709 42.606C5.46307 42.6095 5.43907 42.6095 5.41162 42.6095Z" fill="#161514"/>
<path d="M24.5831 42.6095C24.5591 42.6095 24.535 42.6095 24.5076 42.606C24.1748 42.5649 23.9381 42.263 23.9793 41.9302L28.7892 2.92307C28.827 2.59032 29.1289 2.35362 29.4651 2.39479C29.7979 2.43595 30.0346 2.73783 29.9935 3.07058L25.1835 42.0777C25.1457 42.3865 24.885 42.6095 24.5831 42.6095Z" fill="#161514"/>
<defs>
<filter id="filter0_b_1587_10997" x="-4.56262" y="5.31385" width="39.126" height="44.8738" filterUnits="userSpaceOnUse" color-interpolation-filters="sRGB">
<feFlood flood-opacity="0" result="BackgroundImageFix"/>
<feGaussianBlur in="BackgroundImageFix" stdDeviation="2.84308"/>
<feComposite in2="SourceAlpha" operator="in" result="effect1_backgroundBlur_1587_10997"/>
<feBlend mode="normal" in="SourceGraphic" in2="effect1_backgroundBlur_1587_10997" result="shape"/>
</filter>
</defs>
</svg>
