<svg width="80" height="80" viewBox="0 0 80 80" fill="none" xmlns="http://www.w3.org/2000/svg">
<rect width="80" height="80" rx="40" fill="white"/>
<path d="M27 39.5C27 32.0442 33.0442 26 40.5 26C47.9558 26 54 32.0442 54 39.5C54 46.9558 47.9558 53 40.5 53C33.0442 53 27 46.9558 27 39.5Z" fill="#C1DEBA"/>
<path fill-rule="evenodd" clip-rule="evenodd" d="M40 54C32.268 54 26 47.732 26 40C26 32.268 32.268 26 40 26C47.732 26 54 32.268 54 40C54 47.732 47.732 54 40 54ZM40 52.7826C47.0596 52.7826 52.7826 47.0597 52.7826 40C52.7826 32.9404 47.0596 27.2174 40 27.2174C32.9403 27.2174 27.2174 32.9404 27.2174 40C27.2174 47.0597 32.9403 52.7826 40 52.7826ZM35.7391 38.7826C36.7477 38.7826 37.5652 37.965 37.5652 36.9565C37.5652 35.948 36.7477 35.1304 35.7391 35.1304C34.7306 35.1304 33.9131 35.948 33.9131 36.9565C33.9131 37.965 34.7306 38.7826 35.7391 38.7826ZM33.5466 44.7468L34.2797 43.7749C36.3328 45.3236 38.2938 46.087 40.1677 46.087C43.1414 46.087 44.9678 44.5078 46.6232 43.0765C46.8226 42.904 47.0196 42.7338 47.2157 42.5686L47.9997 43.5C47.7845 43.6812 47.57 43.8666 47.3539 44.0534C45.5297 45.6306 43.5939 47.3043 40.1677 47.3043C38.006 47.3043 35.7973 46.4445 33.5466 44.7468ZM41.6747 37.6784C42.1206 38.0999 42.905 38.5937 43.8457 38.7198C44.8176 38.85 45.9157 38.5801 46.9074 37.531L46.1806 36.8441C45.4129 37.6563 44.6359 37.8167 43.9785 37.7286C43.29 37.6364 42.6912 37.2632 42.3616 36.9516L41.6747 37.6784Z" fill="#161514"/>
</svg>
