<svg width="49" height="83" viewBox="0 0 49 83" fill="none" xmlns="http://www.w3.org/2000/svg">
<path fill-rule="evenodd" clip-rule="evenodd" d="M39.2568 9.5688L25.0806 55.9466C24.6936 57.2128 23.6526 58.1691 22.3442 58.4602L12.9243 59.838C10.0707 60.4733 8.91382 58.2076 9.75808 55.4458L23.9341 9.06789C24.3212 7.80193 25.3623 6.84551 26.6704 6.55406L34.7149 4.76297C37.5685 4.12767 40.1009 6.80697 39.2568 9.5688Z" stroke="#555553" stroke-width="1.29376"/>
<path d="M16.25 35.4524L20.3728 39.5884L31.9068 33.6092" stroke="#555553" stroke-width="1.12126" stroke-linecap="round" stroke-linejoin="round"/>
<path fill-rule="evenodd" clip-rule="evenodd" d="M30.8076 10.1497C30.8369 9.9863 30.7165 9.85833 30.5393 9.86452L30.1648 10.1722C30.1356 10.3356 30.256 10.4636 30.4332 10.4574C30.6104 10.4512 30.7784 10.3132 30.8076 10.1497ZM32.4659 10.2765C32.6407 10.2704 32.7611 10.3952 32.7351 10.5568C32.7223 10.636 32.6768 10.712 32.6069 10.771C32.5371 10.8299 32.4512 10.8649 32.3651 10.8691C32.2791 10.8733 32.2031 10.8468 32.1513 10.7938C32.0995 10.7409 32.0779 10.6682 32.0905 10.5891C32.1034 10.51 32.1489 10.4339 32.2187 10.375C32.2886 10.3159 32.3744 10.2811 32.4605 10.2768L32.4659 10.2765ZM28.44 10.4184C28.6172 10.4122 28.7376 10.5402 28.7084 10.7036C28.6792 10.8671 28.5112 11.0051 28.334 11.0113C28.1568 11.0175 28.0364 10.8895 28.0656 10.7261L28.44 10.4184ZM29.1086 12.0233C29.2858 12.0171 29.4062 12.1451 29.377 12.3085C29.3477 12.472 29.1798 12.61 29.0026 12.6162C28.8254 12.6224 28.705 12.4944 28.7342 12.331L29.1086 12.0233ZM31.4793 12.2351C31.5085 12.0717 31.3881 11.9437 31.2109 11.9499L30.8365 12.2575C30.8073 12.421 30.9277 12.549 31.1049 12.5428C31.2821 12.5366 31.4501 12.3986 31.4793 12.2351ZM29.8463 13.7399C30.0235 13.7337 30.1439 13.8617 30.1147 14.0251C30.0854 14.1886 29.9175 14.3266 29.7403 14.3328C29.5631 14.339 29.4426 14.211 29.4719 14.0476L29.8463 13.7399ZM25.7209 14.2707C25.7501 14.1071 25.6297 13.9793 25.4525 13.9854L25.0781 14.2931C25.0489 14.4565 25.1693 14.5845 25.3465 14.5783C25.5237 14.5722 25.6917 14.434 25.7209 14.2707ZM31.4371 17.2133C31.6143 17.2071 31.7348 17.3351 31.7055 17.4985C31.6763 17.662 31.5083 17.8 31.3311 17.8062C31.1539 17.8124 31.0335 17.6844 31.0627 17.521L31.4371 17.2133ZM33.4352 15.9151C33.4645 15.7516 33.3441 15.6237 33.1669 15.6299L32.7925 15.9375C32.7632 16.101 32.8836 16.229 33.0608 16.2228C33.238 16.2166 33.406 16.0785 33.4352 15.9151ZM34.2069 13.6797C34.3841 13.6735 34.5046 13.8014 34.4753 13.965C34.4461 14.1283 34.2781 14.2664 34.1009 14.2726C33.9237 14.2788 33.8033 14.1508 33.8325 13.9874L34.2069 13.6797ZM27.254 17.654C27.2833 17.4905 27.1629 17.3626 26.9856 17.3688L26.6112 17.6764C26.582 17.8399 26.7024 17.9678 26.8796 17.9617C27.0568 17.9555 27.2248 17.8174 27.254 17.654ZM25.8038 15.887C25.981 15.8808 26.1015 16.0088 26.0722 16.1722C26.043 16.3357 25.875 16.4737 25.6978 16.4799C25.5206 16.4861 25.4002 16.3581 25.4294 16.1947L25.8038 15.887ZM28.1153 14.141C28.1736 13.8149 27.9335 13.5598 27.5802 13.5722L26.8336 14.1858C26.7753 14.5117 27.0154 14.7669 27.3687 14.7545C27.7221 14.7422 28.057 14.4669 28.1153 14.141ZM30.7262 15.3791C31.0795 15.3667 31.3197 15.6219 31.2614 15.9479C31.2031 16.2738 30.8681 16.5491 30.5148 16.5614C30.1614 16.5738 29.9212 16.3186 29.9795 15.9927L30.7262 15.3791ZM27.3337 12.2314C27.392 11.9053 27.1518 11.6502 26.7984 11.6625L26.0518 12.2761C25.9935 12.602 26.2336 12.8572 26.587 12.8449C26.9403 12.8325 27.2754 12.5573 27.3337 12.2314ZM29.1978 17.3667C29.5511 17.3544 29.7912 17.6095 29.7329 17.9356C29.6747 18.2615 29.3397 18.5367 28.9864 18.5491C28.633 18.5614 28.3928 18.3062 28.4511 17.9803L29.1978 17.3667ZM28.901 16.0276C28.9593 15.7016 28.7192 15.4464 28.3659 15.4588L27.6192 16.0724C27.5609 16.3983 27.8011 16.6535 28.1545 16.6411C28.5078 16.6288 28.8428 16.3535 28.901 16.0276ZM32.2013 13.4108C32.5546 13.3985 32.7947 13.6535 32.7364 13.9797C32.6781 14.3056 32.3432 14.5808 31.9898 14.5932C31.6365 14.6055 31.3963 14.3503 31.4546 14.0244L32.2013 13.4108ZM34.2404 11.9902C34.2987 11.6642 34.0587 11.409 33.7052 11.4213L32.9586 12.0349C32.9003 12.3608 33.1405 12.616 33.4938 12.6037C33.8472 12.5913 34.1821 12.3161 34.2404 11.9902Z" fill="#555553"/>
<path d="M30.5393 9.86452L30.5296 9.58872L30.4362 9.59198L30.364 9.6513L30.5393 9.86452ZM30.8076 10.1497L30.536 10.1012L30.536 10.1012L30.8076 10.1497ZM30.1648 10.1722L29.9896 9.95898L29.9111 10.0235L29.8932 10.1236L30.1648 10.1722ZM32.7351 10.5568L33.0075 10.6008L33.0075 10.6007L32.7351 10.5568ZM32.4659 10.2765L32.4563 10.0007L32.4513 10.0009L32.4659 10.2765ZM32.6069 10.771L32.429 10.56L32.4289 10.5602L32.6069 10.771ZM32.3651 10.8691L32.3785 11.1448L32.3788 11.1448L32.3651 10.8691ZM32.1513 10.7938L31.954 10.9868L31.954 10.9868L32.1513 10.7938ZM32.0905 10.5891L31.8181 10.5448L31.818 10.5455L32.0905 10.5891ZM32.2187 10.375L32.0406 10.1641L32.0406 10.1641L32.2187 10.375ZM32.4605 10.2768L32.4742 10.5524L32.475 10.5524L32.4605 10.2768ZM28.7084 10.7036L28.9801 10.7522L28.9801 10.7522L28.7084 10.7036ZM28.44 10.4184L28.4304 10.1426L28.337 10.1459L28.2648 10.2052L28.44 10.4184ZM28.0656 10.7261L27.8904 10.5129L27.8118 10.5774L27.7939 10.6775L28.0656 10.7261ZM29.377 12.3085L29.1053 12.2599L29.1053 12.2599L29.377 12.3085ZM29.1086 12.0233L29.099 11.7475L29.0056 11.7507L28.9334 11.8101L29.1086 12.0233ZM28.7342 12.331L28.559 12.1177L28.4804 12.1823L28.4625 12.2824L28.7342 12.331ZM31.2109 11.9499L31.2013 11.6741L31.1079 11.6773L31.0357 11.7367L31.2109 11.9499ZM31.4793 12.2351L31.2076 12.1865L31.2076 12.1865L31.4793 12.2351ZM30.8365 12.2575L30.6613 12.0443L30.5827 12.1089L30.5648 12.209L30.8365 12.2575ZM30.1147 14.0251L29.843 13.9765L29.843 13.9765L30.1147 14.0251ZM29.8463 13.7399L29.8366 13.4641L29.7433 13.4673L29.6711 13.5267L29.8463 13.7399ZM29.4719 14.0476L29.2967 13.8343L29.2181 13.8989L29.2002 13.999L29.4719 14.0476ZM25.4525 13.9854L25.4429 13.7096L25.3495 13.7129L25.2773 13.7722L25.4525 13.9854ZM25.7209 14.2707L25.4492 14.2221L25.4492 14.2221L25.7209 14.2707ZM25.0781 14.2931L24.9029 14.0799L24.8243 14.1445L24.8064 14.2445L25.0781 14.2931ZM31.7055 17.4985L31.9772 17.5471L31.9772 17.5471L31.7055 17.4985ZM31.4371 17.2133L31.4275 16.9375L31.3341 16.9408L31.2619 17.0001L31.4371 17.2133ZM31.0627 17.521L30.8875 17.3078L30.809 17.3723L30.7911 17.4724L31.0627 17.521ZM33.1669 15.6299L33.1572 15.3541L33.0638 15.3573L32.9916 15.4167L33.1669 15.6299ZM33.4352 15.9151L33.1636 15.8665L33.1636 15.8665L33.4352 15.9151ZM32.7925 15.9375L32.6172 15.7243L32.5387 15.7889L32.5208 15.889L32.7925 15.9375ZM34.4753 13.965L34.2036 13.9164L34.4753 13.965ZM34.2069 13.6797L34.1973 13.4039L34.1039 13.4072L34.0317 13.4665L34.2069 13.6797ZM33.8325 13.9874L33.6573 13.7742L33.5788 13.8387L33.5609 13.9388L33.8325 13.9874ZM26.9856 17.3688L26.976 17.093L26.8826 17.0962L26.8104 17.1555L26.9856 17.3688ZM27.254 17.654L26.9824 17.6054L26.9824 17.6054L27.254 17.654ZM26.6112 17.6764L26.436 17.4632L26.3575 17.5278L26.3396 17.6279L26.6112 17.6764ZM26.0722 16.1722L25.8006 16.1236L25.8006 16.1236L26.0722 16.1722ZM25.8038 15.887L25.7942 15.6112L25.7008 15.6144L25.6286 15.6738L25.8038 15.887ZM25.4294 16.1947L25.2542 15.9814L25.1757 16.046L25.1578 16.1461L25.4294 16.1947ZM27.5802 13.5722L27.5705 13.2964L27.4771 13.2996L27.4049 13.359L27.5802 13.5722ZM28.1153 14.141L28.387 14.1896L28.387 14.1896L28.1153 14.141ZM26.8336 14.1858L26.6583 13.9726L26.5798 14.0371L26.5619 14.1372L26.8336 14.1858ZM27.3687 14.7545L27.3591 14.4787L27.3591 14.4787L27.3687 14.7545ZM31.2614 15.9479L31.533 15.9965L31.533 15.9965L31.2614 15.9479ZM30.7262 15.3791L30.7166 15.1032L30.6232 15.1065L30.551 15.1658L30.7262 15.3791ZM29.9795 15.9927L29.8043 15.7794L29.7257 15.844L29.7078 15.9441L29.9795 15.9927ZM26.7984 11.6625L26.7888 11.3867L26.6954 11.39L26.6232 11.4493L26.7984 11.6625ZM27.3337 12.2314L27.6053 12.2799L27.6053 12.2799L27.3337 12.2314ZM26.0518 12.2761L25.8766 12.0629L25.7981 12.1275L25.7802 12.2275L26.0518 12.2761ZM29.7329 17.9356L30.0046 17.9841L29.7329 17.9356ZM29.1978 17.3667L29.1882 17.0909L29.0948 17.0942L29.0226 17.1535L29.1978 17.3667ZM28.4511 17.9803L28.2759 17.7671L28.1973 17.8317L28.1794 17.9317L28.4511 17.9803ZM28.3659 15.4588L28.3563 15.183L28.2629 15.1862L28.1907 15.2456L28.3659 15.4588ZM28.901 16.0276L28.6294 15.979L28.901 16.0276ZM27.6192 16.0724L27.444 15.8592L27.3654 15.9237L27.3475 16.0238L27.6192 16.0724ZM32.7364 13.9797L33.0081 14.0282L33.0081 14.0282L32.7364 13.9797ZM32.2013 13.4108L32.1916 13.135L32.0983 13.1383L32.0261 13.1976L32.2013 13.4108ZM31.4546 14.0244L31.2794 13.8112L31.2008 13.8758L31.1829 13.9758L31.4546 14.0244ZM33.7052 11.4213L33.6956 11.1455L33.6022 11.1488L33.53 11.2081L33.7052 11.4213ZM34.2404 11.9902L34.512 12.0387L34.512 12.0387L34.2404 11.9902ZM32.9586 12.0349L32.7834 11.8217L32.7049 11.8863L32.687 11.9864L32.9586 12.0349ZM30.5489 10.1403C30.5589 10.14 30.5626 10.1417 30.5614 10.1412C30.5602 10.1408 30.5555 10.1386 30.5499 10.1326C30.5442 10.1266 30.5398 10.1189 30.5376 10.111C30.5353 10.1032 30.5363 10.0992 30.536 10.1012L31.0793 10.1983C31.1085 10.0353 31.0634 9.87298 30.9518 9.7544C30.8421 9.63774 30.6873 9.58321 30.5296 9.58872L30.5489 10.1403ZM30.3401 10.3854L30.7145 10.0777L30.364 9.6513L29.9896 9.95898L30.3401 10.3854ZM30.4236 10.1816C30.4136 10.182 30.4099 10.1803 30.4111 10.1807C30.4122 10.1812 30.417 10.1834 30.4226 10.1893C30.4283 10.1954 30.4327 10.2031 30.4349 10.2109C30.4372 10.2187 30.4362 10.2227 30.4365 10.2208L29.8932 10.1236C29.864 10.2867 29.9091 10.449 30.0206 10.5675C30.1304 10.6842 30.2852 10.7387 30.4429 10.7332L30.4236 10.1816ZM30.536 10.1012C30.5318 10.1245 30.4836 10.1795 30.4236 10.1816L30.4429 10.7332C30.7373 10.7229 31.025 10.5019 31.0793 10.1983L30.536 10.1012ZM33.0075 10.6007C33.0337 10.4384 32.9863 10.2785 32.8747 10.1625C32.765 10.0484 32.6118 9.99529 32.4563 10.0007L32.4755 10.5523C32.4947 10.5517 32.4892 10.5579 32.4769 10.5451C32.4712 10.5392 32.4668 10.5316 32.4644 10.5237C32.462 10.5158 32.4628 10.5115 32.4626 10.5129L33.0075 10.6007ZM32.7848 10.982C32.8978 10.8867 32.9828 10.7541 33.0075 10.6008L32.4626 10.5129C32.4618 10.5178 32.4559 10.5374 32.429 10.56L32.7848 10.982ZM32.3788 11.1448C32.5292 11.1373 32.6721 11.0772 32.785 10.9818L32.4289 10.5602C32.4022 10.5827 32.3732 10.5924 32.3514 10.5935L32.3788 11.1448ZM31.954 10.9868C32.0707 11.1062 32.2288 11.1521 32.3785 11.1448L32.3517 10.5935C32.3407 10.594 32.3362 10.5923 32.3368 10.5925C32.3379 10.5929 32.3429 10.595 32.3485 10.6008L31.954 10.9868ZM31.818 10.5455C31.7928 10.703 31.8356 10.8658 31.954 10.9868L32.3485 10.6008C32.354 10.6064 32.3588 10.6143 32.3613 10.6227C32.3637 10.6308 32.3627 10.6348 32.363 10.6327L31.818 10.5455ZM32.0406 10.1641C31.9278 10.2594 31.843 10.3918 31.8181 10.5448L32.3629 10.6334C32.3638 10.6282 32.3699 10.6085 32.3967 10.5858L32.0406 10.1641ZM32.4468 10.0012C32.2964 10.0086 32.1537 10.0686 32.0406 10.1641L32.3967 10.5858C32.4235 10.5632 32.4524 10.5535 32.4742 10.5524L32.4468 10.0012ZM32.4513 10.0009L32.4459 10.0012L32.475 10.5524L32.4805 10.5521L32.4513 10.0009ZM28.9801 10.7522C29.0092 10.5891 28.9642 10.4269 28.8526 10.3083C28.7428 10.1916 28.588 10.1371 28.4304 10.1426L28.4496 10.6942C28.4596 10.6939 28.4633 10.6956 28.4622 10.6951C28.461 10.6947 28.4562 10.6925 28.4506 10.6865C28.4449 10.6804 28.4405 10.6727 28.4383 10.6649C28.4361 10.6571 28.4371 10.6531 28.4367 10.655L28.9801 10.7522ZM28.3436 11.2871C28.6381 11.2768 28.9258 11.0558 28.9801 10.7522L28.4367 10.655C28.4326 10.6783 28.3843 10.7334 28.3244 10.7355L28.3436 11.2871ZM27.7939 10.6775C27.7648 10.8406 27.8098 11.0028 27.9214 11.1214C28.0312 11.2381 28.186 11.2926 28.3436 11.2871L28.3244 10.7355C28.3144 10.7358 28.3107 10.7341 28.3118 10.7346C28.313 10.735 28.3178 10.7372 28.3234 10.7432C28.3291 10.7493 28.3335 10.757 28.3357 10.7648C28.3379 10.7726 28.3369 10.7766 28.3373 10.7747L27.7939 10.6775ZM28.2648 10.2052L27.8904 10.5129L28.2408 10.9393L28.6152 10.6316L28.2648 10.2052ZM29.6486 12.3571C29.6778 12.194 29.6328 12.0317 29.5212 11.9132C29.4114 11.7965 29.2566 11.742 29.099 11.7475L29.1182 12.2991C29.1282 12.2987 29.1319 12.3004 29.1308 12.3C29.1296 12.2996 29.1248 12.2973 29.1192 12.2914C29.1135 12.2853 29.1091 12.2776 29.1069 12.2698C29.1047 12.262 29.1057 12.258 29.1053 12.2599L29.6486 12.3571ZM29.0122 12.892C29.3066 12.8817 29.5943 12.6607 29.6486 12.3571L29.1053 12.2599C29.1011 12.2832 29.0529 12.3383 28.9929 12.3404L29.0122 12.892ZM28.4625 12.2824C28.4334 12.4454 28.4784 12.6077 28.59 12.7263C28.6998 12.843 28.8545 12.8975 29.0122 12.892L28.9929 12.3404C28.9829 12.3407 28.9793 12.339 28.9804 12.3395C28.9816 12.3399 28.9864 12.3421 28.9919 12.3481C28.9977 12.3541 29.002 12.3619 29.0043 12.3697C29.0065 12.3775 29.0055 12.3815 29.0058 12.3795L28.4625 12.2824ZM28.9334 11.8101L28.559 12.1177L28.9094 12.5442L29.2838 12.2365L28.9334 11.8101ZM31.2205 12.2257C31.2305 12.2253 31.2342 12.227 31.2331 12.2266C31.2319 12.2261 31.2271 12.2239 31.2215 12.218C31.2158 12.2119 31.2114 12.2042 31.2092 12.1964C31.207 12.1886 31.208 12.1846 31.2076 12.1865L31.7509 12.2837C31.7801 12.1206 31.7351 11.9583 31.6235 11.8398C31.5137 11.7231 31.3589 11.6686 31.2013 11.6741L31.2205 12.2257ZM31.0117 12.4708L31.3861 12.1631L31.0357 11.7367L30.6613 12.0443L31.0117 12.4708ZM31.0952 12.267C31.0853 12.2673 31.0816 12.2656 31.0827 12.2661C31.0839 12.2665 31.0887 12.2687 31.0943 12.2747C31.1 12.2807 31.1043 12.2884 31.1066 12.2963C31.1088 12.3041 31.1078 12.3081 31.1082 12.3061L30.5648 12.209C30.5357 12.372 30.5807 12.5343 30.6923 12.6529C30.8021 12.7696 30.9569 12.8241 31.1145 12.8186L31.0952 12.267ZM31.2076 12.1865C31.2035 12.2098 31.1552 12.2649 31.0952 12.267L31.1145 12.8186C31.409 12.8083 31.6967 12.5873 31.7509 12.2837L31.2076 12.1865ZM30.3863 14.0737C30.4155 13.9106 30.3704 13.7483 30.2589 13.6298C30.1491 13.5131 29.9943 13.4586 29.8366 13.4641L29.8559 14.0157C29.8659 14.0153 29.8696 14.017 29.8685 14.0166C29.8673 14.0162 29.8625 14.0139 29.8569 14.008C29.8512 14.0019 29.8468 13.9942 29.8446 13.9864C29.8423 13.9786 29.8433 13.9746 29.843 13.9765L30.3863 14.0737ZM29.7499 14.6086C30.0443 14.5983 30.332 14.3773 30.3863 14.0737L29.843 13.9765C29.8388 13.9998 29.7906 14.0549 29.7306 14.057L29.7499 14.6086ZM29.2002 13.999C29.1711 14.162 29.2161 14.3243 29.3277 14.4429C29.4374 14.5596 29.5922 14.6141 29.7499 14.6086L29.7306 14.057C29.7206 14.0573 29.717 14.0556 29.7181 14.0561C29.7193 14.0565 29.7241 14.0587 29.7296 14.0647C29.7354 14.0707 29.7397 14.0784 29.742 14.0863C29.7442 14.0941 29.7432 14.0981 29.7435 14.0961L29.2002 13.999ZM29.6711 13.5267L29.2967 13.8343L29.6471 14.2608L30.0215 13.9531L29.6711 13.5267ZM25.4621 14.2613C25.4721 14.2609 25.4758 14.2626 25.4747 14.2622C25.4735 14.2617 25.4687 14.2595 25.4631 14.2536C25.4574 14.2475 25.453 14.2397 25.4508 14.2319C25.4486 14.2241 25.4496 14.2201 25.4492 14.2221L25.9925 14.3193C26.0217 14.1562 25.9767 13.9939 25.8651 13.8753C25.7552 13.7586 25.6004 13.7041 25.4429 13.7096L25.4621 14.2613ZM25.2533 14.5063L25.6277 14.1987L25.2773 13.7722L24.9029 14.0799L25.2533 14.5063ZM25.3368 14.3025C25.3269 14.3029 25.3232 14.3012 25.3243 14.3016C25.3255 14.3021 25.3303 14.3043 25.3359 14.3102C25.3416 14.3163 25.3459 14.324 25.3482 14.3318C25.3504 14.3396 25.3494 14.3436 25.3497 14.3417L24.8064 14.2445C24.7773 14.4076 24.8223 14.5698 24.9339 14.6884C25.0436 14.8051 25.1984 14.8597 25.3561 14.8542L25.3368 14.3025ZM25.4492 14.2221C25.4451 14.2453 25.3968 14.3004 25.3368 14.3025L25.3561 14.8542C25.6506 14.8439 25.9383 14.6227 25.9925 14.3193L25.4492 14.2221ZM31.9772 17.5471C32.0063 17.384 31.9613 17.2218 31.8497 17.1032C31.74 16.9865 31.5852 16.932 31.4275 16.9375L31.4468 17.4891C31.4568 17.4888 31.4604 17.4905 31.4593 17.49C31.4581 17.4896 31.4533 17.4874 31.4478 17.4814C31.442 17.4753 31.4377 17.4676 31.4354 17.4598C31.4332 17.452 31.4342 17.448 31.4339 17.4499L31.9772 17.5471ZM31.3408 18.082C31.6352 18.0717 31.9229 17.8507 31.9772 17.5471L31.4339 17.4499C31.4297 17.4732 31.3815 17.5283 31.3215 17.5304L31.3408 18.082ZM30.7911 17.4724C30.7619 17.6355 30.807 17.7977 30.9185 17.9163C31.0283 18.033 31.1831 18.0875 31.3408 18.082L31.3215 17.5304C31.3115 17.5307 31.3078 17.529 31.3089 17.5295C31.3101 17.5299 31.3149 17.5321 31.3205 17.5381C31.3262 17.5442 31.3306 17.5519 31.3328 17.5597C31.3351 17.5675 31.3341 17.5715 31.3344 17.5695L30.7911 17.4724ZM31.2619 17.0001L30.8875 17.3078L31.238 17.7342L31.6124 17.4265L31.2619 17.0001ZM33.1765 15.9057C33.1865 15.9053 33.1902 15.907 33.189 15.9066C33.1879 15.9061 33.1831 15.9039 33.1775 15.898C33.1718 15.8919 33.1674 15.8842 33.1652 15.8764C33.1629 15.8685 33.1639 15.8646 33.1636 15.8665L33.7069 15.9637C33.7361 15.8006 33.691 15.6383 33.5795 15.5197C33.4697 15.4031 33.3149 15.3486 33.1572 15.3541L33.1765 15.9057ZM32.9677 16.1508L33.3421 15.8431L32.9916 15.4167L32.6172 15.7243L32.9677 16.1508ZM33.0512 15.947C33.0412 15.9473 33.0375 15.9456 33.0387 15.946C33.0398 15.9465 33.0446 15.9487 33.0502 15.9546C33.0559 15.9607 33.0603 15.9684 33.0625 15.9763C33.0648 15.9841 33.0638 15.9881 33.0641 15.9861L32.5208 15.889C32.4916 16.052 32.5367 16.2143 32.6483 16.3329C32.758 16.4496 32.9128 16.5041 33.0705 16.4986L33.0512 15.947ZM33.1636 15.8665C33.1594 15.8898 33.1112 15.9449 33.0512 15.947L33.0705 16.4986C33.3649 16.4883 33.6526 16.2673 33.7069 15.9637L33.1636 15.8665ZM34.747 14.0135C34.7761 13.8505 34.7311 13.6882 34.6195 13.5695C34.5097 13.4529 34.3549 13.3984 34.1973 13.4039L34.2166 13.9555C34.2266 13.9552 34.2303 13.9569 34.2292 13.9565C34.228 13.956 34.2232 13.9538 34.2176 13.9478C34.2118 13.9418 34.2075 13.934 34.2052 13.9262C34.203 13.9184 34.204 13.9144 34.2036 13.9164L34.747 14.0135ZM34.1105 14.5484C34.405 14.5382 34.6927 14.317 34.747 14.0135L34.2036 13.9164C34.1995 13.9396 34.1512 13.9947 34.0913 13.9968L34.1105 14.5484ZM33.5609 13.9388C33.5317 14.1019 33.5768 14.2641 33.6883 14.3827C33.798 14.4993 33.9528 14.5539 34.1105 14.5484L34.0913 13.9968C34.0813 13.9972 34.0776 13.9955 34.0788 13.9959C34.08 13.9964 34.0847 13.9986 34.0903 14.0045C34.096 14.0106 34.1004 14.0183 34.1026 14.0261C34.1048 14.0339 34.1038 14.0379 34.1042 14.036L33.5609 13.9388ZM34.0317 13.4665L33.6573 13.7742L34.0077 14.2006L34.3821 13.893L34.0317 13.4665ZM26.9953 17.6446C27.0053 17.6442 27.009 17.6459 27.0078 17.6455C27.0066 17.645 27.0019 17.6428 26.9963 17.6369C26.9905 17.6308 26.9862 17.6231 26.984 17.6153C26.9817 17.6074 26.9827 17.6035 26.9824 17.6054L27.5257 17.7026C27.5549 17.5395 27.5098 17.3772 27.3982 17.2586C27.2885 17.142 27.1337 17.0874 26.976 17.093L26.9953 17.6446ZM26.7865 17.8896L27.1609 17.582L26.8104 17.1555L26.436 17.4632L26.7865 17.8896ZM26.87 17.6859C26.86 17.6862 26.8563 17.6845 26.8575 17.6849C26.8586 17.6854 26.8634 17.6876 26.869 17.6935C26.8747 17.6996 26.8791 17.7073 26.8813 17.7151C26.8836 17.723 26.8826 17.727 26.8829 17.725L26.3396 17.6279C26.3104 17.7909 26.3555 17.9532 26.467 18.0718C26.5768 18.1884 26.7316 18.243 26.8893 18.2375L26.87 17.6859ZM26.9824 17.6054C26.9782 17.6287 26.93 17.6838 26.87 17.6859L26.8893 18.2375C27.1837 18.2272 27.4714 18.0062 27.5257 17.7026L26.9824 17.6054ZM26.3439 16.2208C26.3731 16.0577 26.328 15.8954 26.2164 15.7769C26.1067 15.6602 25.9519 15.6057 25.7942 15.6112L25.8135 16.1628C25.8235 16.1624 25.8271 16.1641 25.826 16.1637C25.8248 16.1633 25.82 16.161 25.8145 16.1551C25.8087 16.149 25.8044 16.1413 25.8021 16.1335C25.7999 16.1257 25.8009 16.1217 25.8006 16.1236L26.3439 16.2208ZM25.7075 16.7557C26.0019 16.7454 26.2896 16.5244 26.3439 16.2208L25.8006 16.1236C25.7964 16.1469 25.7482 16.202 25.6882 16.2041L25.7075 16.7557ZM25.1578 16.1461C25.1286 16.3091 25.1737 16.4714 25.2852 16.59C25.395 16.7067 25.5498 16.7612 25.7075 16.7557L25.6882 16.2041C25.6782 16.2044 25.6745 16.2027 25.6756 16.2032C25.6768 16.2036 25.6816 16.2058 25.6872 16.2118C25.6929 16.2178 25.6973 16.2256 25.6995 16.2334C25.7018 16.2412 25.7008 16.2452 25.7011 16.2432L25.1578 16.1461ZM25.6286 15.6738L25.2542 15.9814L25.6047 16.4079L25.9791 16.1002L25.6286 15.6738ZM27.5898 13.848C27.6975 13.8442 27.7654 13.8809 27.8011 13.9188C27.835 13.9548 27.8583 14.0107 27.8437 14.0925L28.387 14.1896C28.4307 13.9453 28.363 13.7105 28.2031 13.5406C28.045 13.3725 27.8162 13.2878 27.5705 13.2964L27.5898 13.848ZM27.0088 14.399L27.7554 13.7854L27.4049 13.359L26.6583 13.9726L27.0088 14.399ZM27.3591 14.4787C27.2515 14.4825 27.1835 14.4459 27.1478 14.4079C27.1139 14.3718 27.0906 14.316 27.1052 14.2344L26.5619 14.1372C26.5182 14.3815 26.5859 14.6162 26.7458 14.7861C26.9039 14.9541 27.1327 15.0389 27.3784 15.0303L27.3591 14.4787ZM27.8437 14.0925C27.8104 14.2782 27.5952 14.4705 27.3591 14.4787L27.3784 15.0303C27.849 15.0139 28.3036 14.6557 28.387 14.1896L27.8437 14.0925ZM31.533 15.9965C31.5767 15.7522 31.509 15.5174 31.3491 15.3475C31.1911 15.1795 30.9623 15.0947 30.7166 15.1032L30.7358 15.6549C30.8435 15.6511 30.9114 15.6877 30.9471 15.7257C30.9811 15.7618 31.0043 15.8176 30.9897 15.8993L31.533 15.9965ZM30.5244 16.8372C30.995 16.8208 31.4497 16.4626 31.533 15.9965L30.9897 15.8993C30.9565 16.0851 30.7412 16.2774 30.5051 16.2856L30.5244 16.8372ZM29.7078 15.9441C29.6641 16.1884 29.7319 16.4231 29.8918 16.593C30.0499 16.761 30.2787 16.8458 30.5244 16.8372L30.5051 16.2856C30.3975 16.2894 30.3295 16.2527 30.2937 16.2147C30.2598 16.1787 30.2366 16.1228 30.2512 16.0412L29.7078 15.9441ZM30.551 15.1658L29.8043 15.7794L30.1547 16.2059L30.9014 15.5923L30.551 15.1658ZM26.808 11.9383C26.9157 11.9346 26.9837 11.9712 27.0194 12.0092C27.0534 12.0453 27.0766 12.1011 27.062 12.1828L27.6053 12.2799C27.649 12.0356 27.5813 11.8008 27.4214 11.6309C27.2633 11.4629 27.0345 11.3781 26.7888 11.3867L26.808 11.9383ZM26.2271 12.4893L26.9736 11.8757L26.6232 11.4493L25.8766 12.0629L26.2271 12.4893ZM26.5774 12.5691C26.4697 12.5728 26.4018 12.5362 26.366 12.4982C26.3321 12.4622 26.3089 12.4063 26.3235 12.3247L25.7802 12.2275C25.7365 12.4718 25.8042 12.7065 25.9641 12.8765C26.1221 13.0445 26.3509 13.1293 26.5966 13.1207L26.5774 12.5691ZM27.062 12.1828C27.0288 12.3685 26.8135 12.5608 26.5774 12.5691L26.5966 13.1207C27.0672 13.1042 27.522 12.7461 27.6053 12.2799L27.062 12.1828ZM30.0046 17.9841C30.0483 17.7398 29.9806 17.5051 29.8207 17.3351C29.6626 17.1671 29.4339 17.0823 29.1882 17.0909L29.2074 17.6425C29.315 17.6388 29.383 17.6754 29.4187 17.7134C29.4527 17.7494 29.4759 17.8053 29.4613 17.887L30.0046 17.9841ZM28.996 18.8249C29.4666 18.8084 29.9213 18.4502 30.0046 17.9841L29.4613 17.887C29.4281 18.0727 29.2128 18.265 28.9767 18.2733L28.996 18.8249ZM28.1794 17.9317C28.1357 18.1761 28.2035 18.4108 28.3634 18.5807C28.5215 18.7487 28.7503 18.8335 28.996 18.8249L28.9767 18.2733C28.8691 18.277 28.8011 18.2404 28.7653 18.2024C28.7314 18.1663 28.7082 18.1105 28.7228 18.0289L28.1794 17.9317ZM29.0226 17.1535L28.2759 17.7671L28.6263 18.1935L29.373 17.5799L29.0226 17.1535ZM28.3755 15.7346C28.4831 15.7308 28.5511 15.7674 28.5868 15.8054C28.6208 15.8415 28.644 15.8974 28.6294 15.979L29.1727 16.0762C29.2164 15.8319 29.1487 15.5972 28.9888 15.4272C28.8307 15.2592 28.602 15.1744 28.3563 15.183L28.3755 15.7346ZM27.7944 16.2856L28.5411 15.672L28.1907 15.2456L27.444 15.8592L27.7944 16.2856ZM28.1448 16.3653C28.0372 16.3691 27.9692 16.3325 27.9334 16.2945C27.8995 16.2584 27.8763 16.2025 27.8909 16.121L27.3475 16.0238C27.3038 16.2681 27.3716 16.5029 27.5315 16.6728C27.6896 16.8407 27.9184 16.9255 28.1641 16.9169L28.1448 16.3653ZM28.6294 15.979C28.5962 16.1648 28.3809 16.3571 28.1448 16.3653L28.1641 16.9169C28.6347 16.9005 29.0894 16.5423 29.1727 16.0762L28.6294 15.979ZM33.0081 14.0282C33.0518 13.7839 32.9841 13.5491 32.8242 13.3792C32.6661 13.2112 32.4373 13.1264 32.1916 13.135L32.2109 13.6866C32.3186 13.6829 32.3865 13.7195 32.4222 13.7574C32.4561 13.7935 32.4794 13.8493 32.4648 13.9311L33.0081 14.0282ZM31.9995 14.869C32.4701 14.8525 32.9247 14.4943 33.0081 14.0282L32.4648 13.9311C32.4315 14.1168 32.2163 14.3091 31.9802 14.3174L31.9995 14.869ZM31.1829 13.9758C31.1392 14.2202 31.207 14.4549 31.3669 14.6248C31.525 14.7928 31.7538 14.8776 31.9995 14.869L31.9802 14.3174C31.8726 14.3211 31.8046 14.2845 31.7688 14.2465C31.7349 14.2104 31.7116 14.1546 31.7262 14.073L31.1829 13.9758ZM32.0261 13.1976L31.2794 13.8112L31.6298 14.2376L32.3765 13.624L32.0261 13.1976ZM33.7149 11.6971C33.8225 11.6934 33.8905 11.73 33.9262 11.768C33.9601 11.804 33.9833 11.8599 33.9687 11.9416L34.512 12.0387C34.5557 11.7945 34.4881 11.5597 34.3282 11.3898C34.1701 11.2217 33.9413 11.1369 33.6956 11.1455L33.7149 11.6971ZM33.1339 12.2481L33.8804 11.6345L33.53 11.2081L32.7834 11.8217L33.1339 12.2481ZM33.4842 12.3279C33.3765 12.3316 33.3086 12.295 33.2728 12.257C33.2389 12.221 33.2157 12.1651 33.2303 12.0835L32.687 11.9864C32.6433 12.2307 32.711 12.4654 32.8709 12.6353C33.0289 12.8033 33.2577 12.8881 33.5034 12.8795L33.4842 12.3279ZM33.9687 11.9416C33.9355 12.1274 33.7203 12.3196 33.4842 12.3279L33.5034 12.8795C33.9741 12.8631 34.4287 12.5048 34.512 12.0387L33.9687 11.9416Z" fill="#555553"/>
<path d="M15.4523 42.1322C15.484 42.0945 15.5101 42.0719 15.5264 42.0604L18.0354 41.8849C18.0302 41.9128 18.0228 41.9436 18.0127 41.977L17.1776 44.7408C17.1361 44.8782 17.0668 45.0014 16.9968 45.0845C16.9651 45.1221 16.939 45.1447 16.9227 45.1563L14.4137 45.3317C14.4189 45.3038 14.4263 45.2731 14.4364 45.2397L15.2715 42.4758C15.313 42.3384 15.3823 42.2152 15.4523 42.1322ZM16.9105 45.1639C16.9105 45.1639 16.911 45.1636 16.9119 45.1632L16.9105 45.1639ZM15.5372 42.0535C15.5381 42.053 15.5385 42.0527 15.5385 42.0528C15.5385 42.0528 15.5381 42.053 15.5372 42.0535Z" stroke="#555553" stroke-width="0.862506" stroke-linecap="round" stroke-linejoin="round"/>
<path d="M24.0532 41.4839C24.0849 41.4462 24.111 41.4237 24.1273 41.4121L26.6364 41.2366C26.6311 41.2645 26.6237 41.2953 26.6137 41.3287L25.7786 44.0925C25.737 44.23 25.6677 44.3531 25.5978 44.4362C25.5661 44.4739 25.54 44.4964 25.5236 44.508L23.0146 44.6834C23.0198 44.6556 23.0273 44.6248 23.0373 44.5914L23.8724 41.8276C23.914 41.6901 23.9833 41.567 24.0532 41.4839ZM25.5115 44.5156C25.5115 44.5156 25.512 44.5153 25.5129 44.5149L25.5115 44.5156ZM24.1381 41.4052C24.139 41.4047 24.1395 41.4045 24.1395 41.4045C24.1395 41.4045 24.139 41.4048 24.1381 41.4052Z" stroke="#555553" stroke-width="0.862506" stroke-linecap="round" stroke-linejoin="round"/>
<path d="M19.7605 41.7811C19.7922 41.7434 19.8183 41.7209 19.8346 41.7093L22.3437 41.5338C22.3384 41.5617 22.331 41.5925 22.3209 41.6259L21.4858 44.3897C21.4443 44.5272 21.375 44.6503 21.305 44.7334C21.2733 44.7711 21.2473 44.7936 21.2309 44.8052L18.7219 44.9807C18.7271 44.9528 18.7345 44.922 18.7446 44.8886L19.5797 42.1248C19.6212 41.9873 19.6906 41.8642 19.7605 41.7811ZM21.2188 44.8128C21.2188 44.8128 21.2192 44.8125 21.2202 44.8121L21.2188 44.8128ZM19.8454 41.7024C19.8463 41.7019 19.8468 41.7017 19.8468 41.7017C19.8468 41.7017 19.8463 41.702 19.8454 41.7024Z" stroke="#555553" stroke-width="0.862506" stroke-linecap="round" stroke-linejoin="round"/>
<ellipse cx="10.1566" cy="65.0694" rx="0.592365" ry="0.593177" fill="#555553"/>
<ellipse cx="10.1566" cy="68.233" rx="0.592365" ry="0.593177" fill="#555553"/>
<ellipse cx="10.1566" cy="71.3966" rx="0.592365" ry="0.593177" fill="#555553"/>
<ellipse cx="12.2628" cy="66.6512" rx="0.592365" ry="0.593177" fill="#555553"/>
<ellipse cx="12.2628" cy="69.8148" rx="0.592365" ry="0.593177" fill="#555553"/>
<ellipse cx="12.2628" cy="72.9784" rx="0.592365" ry="0.593177" fill="#555553"/>
<ellipse cx="14.4611" cy="65.0694" rx="0.592365" ry="0.593177" fill="#555553"/>
<ellipse cx="14.4611" cy="68.233" rx="0.592365" ry="0.593177" fill="#555553"/>
<ellipse cx="14.4611" cy="71.3966" rx="0.592365" ry="0.593177" fill="#555553"/>
<ellipse cx="16.5673" cy="66.6512" rx="0.592365" ry="0.593177" fill="#555553"/>
<ellipse cx="16.5673" cy="69.8148" rx="0.592365" ry="0.593177" fill="#555553"/>
<ellipse cx="16.5673" cy="72.9784" rx="0.592365" ry="0.593177" fill="#555553"/>
<ellipse cx="8.01094" cy="66.6512" rx="0.592365" ry="0.593177" fill="#555553"/>
<ellipse cx="8.01094" cy="69.8148" rx="0.592365" ry="0.593177" fill="#555553"/>
<ellipse cx="8.01094" cy="72.9784" rx="0.592365" ry="0.593177" fill="#555553"/>
<ellipse cx="10.1566" cy="74.5602" rx="0.592365" ry="0.593177" fill="#555553"/>
<ellipse cx="10.1566" cy="77.7238" rx="0.592365" ry="0.593177" fill="#555553"/>
<ellipse cx="10.1566" cy="80.8874" rx="0.592365" ry="0.593177" fill="#555553"/>
<ellipse cx="12.2628" cy="76.142" rx="0.592365" ry="0.593177" fill="#555553"/>
<ellipse cx="12.2628" cy="79.3056" rx="0.592365" ry="0.593177" fill="#555553"/>
<ellipse cx="14.4611" cy="74.5602" rx="0.592365" ry="0.593177" fill="#555553"/>
<ellipse cx="14.4611" cy="77.7238" rx="0.592365" ry="0.593177" fill="#555553"/>
<ellipse cx="14.4611" cy="80.8874" rx="0.592365" ry="0.593177" fill="#555553"/>
<ellipse cx="16.5673" cy="76.142" rx="0.592365" ry="0.593177" fill="#555553"/>
<ellipse cx="16.5673" cy="79.3056" rx="0.592365" ry="0.593177" fill="#555553"/>
<ellipse cx="8.01094" cy="76.142" rx="0.592365" ry="0.593177" fill="#555553"/>
<ellipse cx="8.01094" cy="79.3056" rx="0.592365" ry="0.593177" fill="#555553"/>
<ellipse cx="27.2826" cy="65.0694" rx="0.592365" ry="0.593177" fill="#555553"/>
<ellipse cx="27.2826" cy="68.233" rx="0.592365" ry="0.593177" fill="#555553"/>
<ellipse cx="27.2826" cy="71.3966" rx="0.592365" ry="0.593177" fill="#555553"/>
<ellipse cx="29.3888" cy="66.6512" rx="0.592365" ry="0.593177" fill="#555553"/>
<ellipse cx="29.3888" cy="69.8148" rx="0.592365" ry="0.593177" fill="#555553"/>
<ellipse cx="29.3888" cy="72.9784" rx="0.592365" ry="0.593177" fill="#555553"/>
<ellipse cx="18.7262" cy="65.0694" rx="0.592365" ry="0.593177" fill="#555553"/>
<ellipse cx="18.7262" cy="68.233" rx="0.592365" ry="0.593177" fill="#555553"/>
<ellipse cx="18.7262" cy="71.3966" rx="0.592365" ry="0.593177" fill="#555553"/>
<ellipse cx="20.8324" cy="66.6512" rx="0.592365" ry="0.593177" fill="#555553"/>
<ellipse cx="20.8324" cy="69.8148" rx="0.592365" ry="0.593177" fill="#555553"/>
<ellipse cx="20.8324" cy="72.9784" rx="0.592365" ry="0.593177" fill="#555553"/>
<ellipse cx="23.0175" cy="65.0694" rx="0.592365" ry="0.593177" fill="#555553"/>
<ellipse cx="23.0175" cy="68.233" rx="0.592365" ry="0.593177" fill="#555553"/>
<ellipse cx="23.0175" cy="71.3966" rx="0.592365" ry="0.593177" fill="#555553"/>
<ellipse cx="25.1237" cy="66.6512" rx="0.592365" ry="0.593177" fill="#555553"/>
<ellipse cx="25.1237" cy="69.8148" rx="0.592365" ry="0.593177" fill="#555553"/>
<ellipse cx="25.1237" cy="72.9784" rx="0.592365" ry="0.593177" fill="#555553"/>
<ellipse cx="27.2826" cy="74.5602" rx="0.592365" ry="0.593177" fill="#555553"/>
<ellipse cx="27.2826" cy="77.7238" rx="0.592365" ry="0.593177" fill="#555553"/>
<ellipse cx="29.3888" cy="76.142" rx="0.592365" ry="0.593177" fill="#555553"/>
<ellipse cx="18.7262" cy="74.5602" rx="0.592365" ry="0.593177" fill="#555553"/>
<ellipse cx="18.7262" cy="77.7238" rx="0.592365" ry="0.593177" fill="#555553"/>
<ellipse cx="18.7262" cy="80.8874" rx="0.592365" ry="0.593177" fill="#555553"/>
<ellipse cx="20.8324" cy="76.142" rx="0.592365" ry="0.593177" fill="#555553"/>
<ellipse cx="20.8324" cy="79.3056" rx="0.592365" ry="0.593177" fill="#555553"/>
<ellipse cx="23.0175" cy="74.5602" rx="0.592365" ry="0.593177" fill="#555553"/>
<ellipse cx="23.0175" cy="77.7238" rx="0.592365" ry="0.593177" fill="#555553"/>
<ellipse cx="23.0175" cy="80.8874" rx="0.592365" ry="0.593177" fill="#555553"/>
<ellipse cx="25.1237" cy="76.142" rx="0.592365" ry="0.593177" fill="#555553"/>
<ellipse cx="25.1237" cy="79.3056" rx="0.592365" ry="0.593177" fill="#555553"/>
<ellipse cx="5.90474" cy="49.1195" rx="0.592365" ry="0.593177" fill="#555553"/>
<ellipse cx="5.90474" cy="52.2831" rx="0.592365" ry="0.593177" fill="#555553"/>
<ellipse cx="8.01094" cy="50.7013" rx="0.592365" ry="0.593177" fill="#555553"/>
<ellipse cx="8.01094" cy="53.8649" rx="0.592365" ry="0.593177" fill="#555553"/>
<ellipse cx="10.1566" cy="61.7739" rx="0.592365" ry="0.593177" fill="#555553"/>
<ellipse cx="12.2628" cy="63.3558" rx="0.592365" ry="0.593177" fill="#555553"/>
<ellipse cx="14.4611" cy="61.7739" rx="0.592365" ry="0.593177" fill="#555553"/>
<ellipse cx="16.5673" cy="63.3558" rx="0.592365" ry="0.593177" fill="#555553"/>
<ellipse cx="5.90474" cy="55.4467" rx="0.592365" ry="0.593177" fill="#555553"/>
<ellipse cx="5.90474" cy="58.6103" rx="0.592365" ry="0.593177" fill="#555553"/>
<ellipse cx="5.90474" cy="61.7739" rx="0.592365" ry="0.593177" fill="#555553"/>
<ellipse cx="8.01094" cy="60.1921" rx="0.592365" ry="0.593177" fill="#555553"/>
<ellipse cx="8.01094" cy="63.3558" rx="0.592365" ry="0.593177" fill="#555553"/>
<ellipse cx="27.2826" cy="52.2831" rx="0.592365" ry="0.593177" fill="#555553"/>
<ellipse cx="29.3888" cy="50.7013" rx="0.592365" ry="0.593177" fill="#555553"/>
<ellipse cx="29.3888" cy="53.8649" rx="0.592365" ry="0.593177" fill="#555553"/>
<ellipse cx="31.5739" cy="49.1195" rx="0.592365" ry="0.593177" fill="#555553"/>
<ellipse cx="31.5739" cy="52.2831" rx="0.592365" ry="0.593177" fill="#555553"/>
<ellipse cx="20.8324" cy="50.7013" rx="0.592365" ry="0.593177" fill="#555553"/>
<ellipse cx="25.1237" cy="50.7013" rx="0.592365" ry="0.593177" fill="#555553"/>
<ellipse cx="27.2826" cy="55.4467" rx="0.592365" ry="0.593177" fill="#555553"/>
<ellipse cx="27.2826" cy="58.6103" rx="0.592365" ry="0.593177" fill="#555553"/>
<ellipse cx="27.2826" cy="61.7739" rx="0.592365" ry="0.593177" fill="#555553"/>
<ellipse cx="29.3888" cy="57.0285" rx="0.592365" ry="0.593177" fill="#555553"/>
<ellipse cx="29.3888" cy="60.1921" rx="0.592365" ry="0.593177" fill="#555553"/>
<ellipse cx="29.3888" cy="63.3558" rx="0.592365" ry="0.593177" fill="#555553"/>
<ellipse cx="31.5739" cy="55.4467" rx="0.592365" ry="0.593177" fill="#555553"/>
<ellipse cx="31.5739" cy="58.6103" rx="0.592365" ry="0.593177" fill="#555553"/>
<ellipse cx="18.7262" cy="61.7739" rx="0.592365" ry="0.593177" fill="#555553"/>
<ellipse cx="20.8324" cy="60.1921" rx="0.592365" ry="0.593177" fill="#555553"/>
<ellipse cx="20.8324" cy="63.3558" rx="0.592365" ry="0.593177" fill="#555553"/>
<ellipse cx="23.0175" cy="61.7739" rx="0.592365" ry="0.593177" fill="#555553"/>
<ellipse cx="25.1237" cy="57.0285" rx="0.592365" ry="0.593177" fill="#555553"/>
<ellipse cx="25.1237" cy="60.1921" rx="0.592365" ry="0.593177" fill="#555553"/>
<ellipse cx="25.1237" cy="63.3558" rx="0.592365" ry="0.593177" fill="#555553"/>
<path d="M13.164 33.1066C6.94306 33.4668 2.48218 34.4449 2.48218 35.5951C2.48218 37.0511 9.63108 38.2314 18.4497 38.2314C27.2683 38.2314 34.4172 37.0511 34.4172 35.5951C34.4172 35.0769 33.5117 34.5936 31.9478 34.1861" stroke="#555553" stroke-width="1.16438" stroke-linecap="round" stroke-linejoin="round"/>
<path d="M9.64667 45.8223C6.42814 46.3055 4.36902 47.046 4.36902 47.876C4.36902 49.3321 10.7046 50.5124 18.52 50.5124C26.3353 50.5124 32.6709 49.3321 32.6709 47.876C32.6709 47.1554 31.1189 46.5023 28.6037 46.0264" stroke="#555553" stroke-width="1.16438" stroke-linecap="round" stroke-linejoin="round"/>
<path d="M2.48218 35.5951L7.93194 79.9911C7.93194 79.9911 10.2356 81.876 18.4497 81.876" stroke="#555553" stroke-width="1.16438" stroke-linecap="round" stroke-linejoin="round"/>
<path d="M34.4304 35.5951L28.9807 79.9911C28.9807 79.9911 26.677 81.876 18.4629 81.876" stroke="#555553" stroke-width="1.16438" stroke-linecap="round" stroke-linejoin="round"/>
</svg>
