<svg width="30" height="30" viewBox="0 0 30 30" fill="none" xmlns="http://www.w3.org/2000/svg">
<g filter="url(#filter0_b_142_6828)">
<rect y="30" width="30" height="30" rx="15" transform="rotate(-90 0 30)" fill="#161514"/>
</g>
<path fill-rule="evenodd" clip-rule="evenodd" d="M11.9231 12.8461C12.432 12.8461 12.8463 12.432 12.8463 11.923C12.8463 11.4141 12.432 11 11.9231 11C11.4142 11 11.0001 11.4141 11.0001 11.923C11.0001 12.432 11.4142 12.8461 11.9231 12.8461ZM17.1538 11.9232C17.1538 11.4141 17.568 11 18.0769 11C18.5858 11 18.9999 11.4141 18.9999 11.9232C18.9999 12.432 18.5858 12.8462 18.0769 12.8462C17.568 12.8462 17.1538 12.432 17.1538 11.9232ZM15.0002 14.0769C14.4913 14.0769 14.077 14.491 14.077 15C14.077 15.5089 14.4913 15.923 15.0002 15.923C15.5091 15.923 15.9232 15.5089 15.9232 15C15.9232 14.491 15.5091 14.0769 15.0002 14.0769ZM18.0769 17.1539C17.568 17.1539 17.1538 17.568 17.1538 18.077C17.1538 18.5859 17.568 19 18.0769 19C18.5858 19 18.9999 18.5859 18.9999 18.077C18.9999 17.568 18.5858 17.1539 18.0769 17.1539ZM12.8463 18.0768C12.8463 18.5859 12.432 19 11.9231 19C11.4142 19 11.0001 18.5859 11.0001 18.0768C11.0001 17.568 11.4142 17.1538 11.9231 17.1538C12.432 17.1538 12.8463 17.568 12.8463 18.0768Z" fill="white"/>
<defs>
<filter id="filter0_b_142_6828" x="-5.43656" y="-5.43656" width="40.8731" height="40.8731" filterUnits="userSpaceOnUse" color-interpolation-filters="sRGB">
<feFlood flood-opacity="0" result="BackgroundImageFix"/>
<feGaussianBlur in="BackgroundImageFix" stdDeviation="2.71828"/>
<feComposite in2="SourceAlpha" operator="in" result="effect1_backgroundBlur_142_6828"/>
<feBlend mode="normal" in="SourceGraphic" in2="effect1_backgroundBlur_142_6828" result="shape"/>
</filter>
</defs>
</svg>
