<svg width="31" height="45" viewBox="0 0 31 45" fill="none" xmlns="http://www.w3.org/2000/svg">
<path fill-rule="evenodd" clip-rule="evenodd" d="M15.0621 6.18677C13.5264 6.18677 0.041748 6.10443 0.041748 3.18859C0.041748 0.276171 13.5264 0.193848 15.0621 0.193848C16.6012 0.193848 30.0824 0.276171 30.0824 3.18859C30.0824 6.10443 16.6012 6.18677 15.0621 6.18677ZM1.29918 3.18859C1.95194 3.8335 6.49721 4.9724 15.0621 4.9724C23.627 4.9724 28.1723 3.8335 28.825 3.18859C28.1723 2.5471 23.627 1.40478 15.0621 1.40478C6.49721 1.40478 1.95194 2.5471 1.29918 3.18859ZM28.8834 3.26063H28.8868H28.8834Z" fill="#161514"/>
<path d="M15.0618 45.1937C11.5335 45.1937 4.85815 44.566 4.85815 42.1956C4.85815 41.8628 5.12957 41.5918 5.46282 41.5918C5.79951 41.5918 6.0709 41.8628 6.0709 42.1956C6.0709 42.7135 9.22134 43.9794 15.0618 43.9794C20.9023 43.9794 24.0527 42.7135 24.0527 42.1956C24.0527 41.8628 24.3241 41.5918 24.6608 41.5918C24.9941 41.5918 25.2689 41.8628 25.2689 42.1956C25.2689 44.566 18.5936 45.1937 15.0618 45.1937Z" fill="#161514"/>
<path d="M5.46283 42.8033C5.1605 42.8033 4.8994 42.5803 4.86161 42.2716L0.0483605 3.26443C0.00713356 2.93168 0.244177 2.6298 0.573993 2.58863C0.910679 2.54747 1.21302 2.78417 1.25425 3.11692L6.06747 42.1241C6.1087 42.4568 5.87165 42.7587 5.5384 42.7999C5.51435 42.8033 5.49032 42.8033 5.46283 42.8033Z" fill="#161514"/>
<path d="M24.6608 42.8033C24.6368 42.8033 24.6127 42.8033 24.5852 42.7999C24.252 42.7587 24.0149 42.4568 24.0562 42.1241L28.8728 3.11692C28.9106 2.78417 29.213 2.54747 29.5497 2.58863C29.8829 2.6298 30.12 2.93168 30.0787 3.26443L25.2621 42.2716C25.2243 42.5803 24.9632 42.8033 24.6608 42.8033Z" fill="#161514"/>
<path fill-rule="evenodd" clip-rule="evenodd" d="M7.04175 25.1566C7.04175 20.7449 10.6235 17.1686 15.0417 17.1686C19.46 17.1686 23.0417 20.7449 23.0417 25.1566C23.0417 29.5682 19.46 33.1445 15.0417 33.1445C10.6235 33.1445 7.04175 29.5682 7.04175 25.1566Z" fill="#C1DEBA"/>
<path fill-rule="evenodd" clip-rule="evenodd" d="M14.1046 28.1502L11.0417 25.2699L11.8993 24.4634L14.1046 26.5372L18.7601 22.1592L19.6176 22.9657L14.1046 28.1502Z" fill="#161514"/>
</svg>
