<svg width="9" height="13" viewBox="0 0 9 13" fill="none" xmlns="http://www.w3.org/2000/svg">
<path fill-rule="evenodd" clip-rule="evenodd" d="M3.1488 1.39286C3.1488 2.16211 2.48122 2.78571 1.65773 2.78571C0.834232 2.78571 0.166656 2.16211 0.166656 1.39286C0.166656 0.623603 0.834232 0 1.65773 0C2.48122 0 3.1488 0.623603 3.1488 1.39286ZM8.11904 6.03571C8.11904 6.80497 7.45146 7.42857 6.62797 7.42857C5.80447 7.42857 5.13689 6.80497 5.13689 6.03571C5.13689 5.26646 5.80447 4.64286 6.62797 4.64286C7.45146 4.64286 8.11904 5.26646 8.11904 6.03571ZM1.65773 12.0714C2.48122 12.0714 3.1488 11.4478 3.1488 10.6786C3.1488 9.90932 2.48122 9.28571 1.65773 9.28571C0.834232 9.28571 0.166656 9.90932 0.166656 10.6786C0.166656 11.4478 0.834232 12.0714 1.65773 12.0714Z" fill="black"/>
</svg>
