<svg width="19" height="5" viewBox="0 0 19 5" fill="none" xmlns="http://www.w3.org/2000/svg">
<path fill-rule="evenodd" clip-rule="evenodd" d="M11.8398 3C11.8398 4.10457 10.9444 5 9.83984 5H8.83984C7.73527 5 6.83984 4.10457 6.83984 3V2C6.83984 0.89543 7.73527 0 8.83984 0H9.83984C10.9444 0 11.8398 0.895431 11.8398 2V3ZM18.6797 3.00049C18.6797 4.10506 17.7843 5.00049 16.6797 5.00049H15.6797C14.5751 5.00049 13.6797 4.10506 13.6797 3.00049V2.00049C13.6797 0.895919 14.5751 0.000488281 15.6797 0.000488281H16.6797C17.7843 0.000488281 18.6797 0.895919 18.6797 2.00049V3.00049ZM3 5.00006C4.10457 5.00006 5 4.10463 5 3.00006V2.00006C5 0.895488 4.10457 5.72205e-05 3 5.72205e-05H2C0.895431 5.72205e-05 0 0.895488 0 2.00006V3.00006C0 4.10463 0.89543 5.00006 2 5.00006H3Z" fill="#FFFFFF"/>
</svg>
