<svg width="17" height="27" viewBox="0 0 17 27" fill="none" xmlns="http://www.w3.org/2000/svg">
<rect x="4" y="1" width="9" height="2" rx="1" stroke="white"/>
<rect x="7" y="7" width="2" height="2" rx="1" stroke="white"/>
<rect x="9" y="12" width="3" height="3" rx="1.5" stroke="white"/>
<path d="M5.5 3V6.5L0.801495 19.3141C0.32985 20.6004 0.78956 22.0428 1.91854 22.819L2.65494 23.3253C5.90627 25.5606 10.168 25.6751 13.5347 23.6177L14.9636 22.7445C16.1556 22.016 16.6871 20.5612 16.2453 19.2359L12 6.5V3" stroke="white"/>
<path d="M1.5 18.5L3.94522 18.7717C5.28188 18.9202 6.63162 18.6491 7.80725 17.996V17.996C9.51104 17.0494 11.5504 16.9202 13.3601 17.644L15.5 18.5" stroke="white"/>
</svg>
