<svg width="82" height="82" viewBox="0 0 82 82" fill="none" xmlns="http://www.w3.org/2000/svg">
<rect x="1" y="1" width="80" height="80" rx="40" fill="#C1DEBA" stroke="white"/>
<path fill-rule="evenodd" clip-rule="evenodd" d="M41 55C33.268 55 27 48.732 27 41C27 33.268 33.268 27 41 27C48.732 27 55 33.268 55 41C55 48.732 48.732 55 41 55ZM41 53.7826C48.0596 53.7826 53.7826 48.0597 53.7826 41C53.7826 33.9404 48.0596 28.2174 41 28.2174C33.9403 28.2174 28.2174 33.9404 28.2174 41C28.2174 48.0597 33.9403 53.7826 41 53.7826ZM36.7391 39.7826C37.7477 39.7826 38.5652 38.965 38.5652 37.9565C38.5652 36.948 37.7477 36.1304 36.7391 36.1304C35.7306 36.1304 34.9131 36.948 34.9131 37.9565C34.9131 38.965 35.7306 39.7826 36.7391 39.7826ZM47.087 37.9565C47.087 38.965 46.2694 39.7826 45.2609 39.7826C44.2524 39.7826 43.4348 38.965 43.4348 37.9565C43.4348 36.948 44.2524 36.1304 45.2609 36.1304C46.2694 36.1304 47.087 36.948 47.087 37.9565ZM35.2797 44.7749L34.5466 45.7468C36.7973 47.4445 39.006 48.3043 41.1677 48.3043C43.3385 48.3043 45.4467 47.4372 47.479 45.7265L46.6951 44.7952C44.8705 46.3309 43.0325 47.0869 41.1677 47.0869C39.2938 47.0869 37.3328 46.3236 35.2797 44.7749Z" fill="#161514"/>
</svg>
