<svg width="16" height="16" viewBox="0 0 16 16" fill="none" xmlns="http://www.w3.org/2000/svg">
<path fill-rule="evenodd" clip-rule="evenodd" d="M1.13434 0.78125L0.175781 1.84359L14.3403 14.6244L15.2989 13.5621L11.1225 9.79373V7.60304C11.1225 5.53739 9.72323 3.87154 7.79085 3.4051V2.93866C7.79085 2.40559 7.32441 1.93915 6.79134 1.93915C6.25826 1.93915 5.79182 2.40559 5.79182 2.93866V3.4051C5.35815 3.50978 4.95132 3.67487 4.58113 3.89133L1.13434 0.78125ZM6.79134 15.0555H7.08943C7.61111 14.9959 7.98373 14.6978 8.13278 14.3401C8.20731 14.2208 8.28183 14.042 8.28183 13.8631H5.30084C5.30084 14.519 5.97156 15.0555 6.79134 15.0555ZM10.8762 13.2669L2.77812 5.95998C2.57271 6.46333 2.46012 7.0171 2.46012 7.60304V11.2679L1.12744 12.6006V13.2669H10.8762Z" fill="white"/>
</svg>
