<svg width="80" height="80" viewBox="0 0 80 80" fill="none" xmlns="http://www.w3.org/2000/svg">
<rect width="80" height="80" rx="40" fill="#EAEBE5"/>
<path fill-rule="evenodd" clip-rule="evenodd" d="M40 54C32.268 54 26 47.732 26 40C26 32.268 32.268 26 40 26C47.732 26 54 32.268 54 40C54 47.732 47.732 54 40 54ZM40 52.5652C47.0596 52.5652 52.7826 46.8422 52.7826 39.7826C52.7826 32.723 47.0596 27 40 27C32.9404 27 27.2174 32.723 27.2174 39.7826C27.2174 46.8422 32.9404 52.5652 40 52.5652ZM35.7391 38.7826C36.7476 38.7826 37.5652 37.965 37.5652 36.9565C37.5652 35.948 36.7476 35.1304 35.7391 35.1304C34.7306 35.1304 33.913 35.948 33.913 36.9565C33.913 37.965 34.7306 38.7826 35.7391 38.7826ZM46.087 36.9565C46.087 37.965 45.2694 38.7826 44.2609 38.7826C43.2524 38.7826 42.4348 37.965 42.4348 36.9565C42.4348 35.948 43.2524 35.1304 44.2609 35.1304C45.2694 35.1304 46.087 35.948 46.087 36.9565ZM33.913 43.6522V44.8696H46.087V43.6522H33.913Z" fill="#161514"/>
</svg>
