<svg width="50" height="50" viewBox="0 0 50 50" fill="none" xmlns="http://www.w3.org/2000/svg">
<path d="M31 30.5422C31 31.3461 30.3184 32 29.4805 32C28.6425 32 27.9609 31.3461 27.9609 30.5422C27.9609 29.7382 28.6425 29.0843 29.4805 29.0843C30.3184 29.0843 31 29.7382 31 30.5422Z" fill="white"/>
<path d="M26.0403 21.1432C26.0403 21.9472 25.3587 22.6013 24.5205 22.6013C23.6828 22.6013 23.0012 21.9472 23.0012 21.1432C23.0012 20.3393 23.6828 19.6854 24.5205 19.6854C25.3587 19.6854 26.0403 20.3393 26.0403 21.1432Z" fill="white"/>
<path d="M19.5195 26.1193C20.3575 26.1193 21.0391 25.4652 21.0391 24.6615C21.0391 23.8576 20.3575 23.2037 19.5195 23.2037C18.6816 23.2037 18 23.8576 18 24.6615C18 25.4652 18.6816 26.1193 19.5195 26.1193Z" fill="white"/>
<path d="M26.0484 27.8567C26.0484 28.6606 25.3668 29.3148 24.5286 29.3148C23.6909 29.3148 23.0093 28.6606 23.0093 27.8567C23.0093 27.0528 23.6909 26.3989 24.5286 26.3989C25.3668 26.3989 26.0484 27.0528 26.0484 27.8567Z" fill="white"/>
<path d="M29.4805 19.9159C30.3184 19.9159 31 19.2618 31 18.4578C31 17.6539 30.3184 17 29.4805 17C28.6425 17 27.9609 17.6539 27.9609 18.4578C27.9609 19.2618 28.6425 19.9159 29.4805 19.9159Z" fill="white"/>
</svg>
