<svg width="21" height="24" viewBox="0 0 21 24" fill="none" xmlns="http://www.w3.org/2000/svg">
<path fill-rule="evenodd" clip-rule="evenodd" d="M18.1263 7.35326L19.288 6.19157C19.6484 5.8311 19.6484 5.2468 19.288 4.88633C18.9275 4.52587 18.3432 4.52587 17.9827 4.88633L16.8211 6.04803C15.2818 4.76403 13.3581 3.92772 11.2508 3.73664V1.84664H12.1738C12.6834 1.84664 13.0969 1.4331 13.0969 0.923565C13.0969 0.414027 12.6834 0.000488281 12.1738 0.000488281H8.48152C7.97198 0.000488281 7.55844 0.414027 7.55844 0.923565C7.55844 1.4331 7.97198 1.84664 8.48152 1.84664H9.4046V3.73664C7.29721 3.92772 5.37352 4.76403 3.83429 6.04803L2.6726 4.88633C2.3126 4.52587 1.72737 4.52587 1.36737 4.88633C1.00691 5.2468 1.00691 5.8311 1.36737 6.19157L2.52906 7.35326C1.05952 9.11449 0.173828 11.3788 0.173828 13.8466C0.173828 19.4456 4.72875 24.0005 10.3277 24.0005C15.9266 24.0005 20.4815 19.4456 20.4815 13.8466C20.4815 11.3788 19.5958 9.11449 18.1263 7.35326ZM10.3277 22.1543C5.7469 22.1543 2.01998 18.4274 2.01998 13.8466C2.01998 9.26587 5.7469 5.53895 10.3277 5.53895C14.9084 5.53895 18.6354 9.26587 18.6354 13.8466C18.6354 18.4274 14.9084 22.1543 10.3277 22.1543ZM10.3277 7.3851C9.81814 7.3851 9.4046 7.79864 9.4046 8.30818V13.8466C9.4046 14.3562 9.81814 14.7697 10.3277 14.7697C10.3336 14.7697 10.3395 14.7697 10.3453 14.7696C10.3512 14.7697 10.3571 14.7697 10.3629 14.7697L15.9014 14.7697C16.4109 14.7697 16.8245 14.3562 16.8245 13.8466C16.8245 13.3371 16.4109 12.9236 15.9014 12.9236H11.2508V8.30818C11.2508 7.79864 10.8372 7.3851 10.3277 7.3851Z" fill="#555553"/>
<ellipse cx="1.3304" cy="12.2343" rx="0.592365" ry="0.593177" fill="#555553"/>
<ellipse cx="1.3304" cy="15.3984" rx="0.592365" ry="0.593177" fill="#555553"/>
<ellipse cx="3.4366" cy="10.6523" rx="0.592365" ry="0.593177" fill="#555553"/>
<ellipse cx="3.4366" cy="13.8163" rx="0.592365" ry="0.593177" fill="#555553"/>
<ellipse cx="3.4366" cy="16.9784" rx="0.592365" ry="0.593177" fill="#555553"/>
<ellipse cx="5.63485" cy="9.07023" rx="0.592365" ry="0.593177" fill="#555553"/>
<ellipse cx="5.63485" cy="12.2343" rx="0.592365" ry="0.593177" fill="#555553"/>
<ellipse cx="5.63485" cy="15.3984" rx="0.592365" ry="0.593177" fill="#555553"/>
<ellipse cx="7.74105" cy="10.6523" rx="0.592365" ry="0.593177" fill="#555553"/>
<ellipse cx="7.74105" cy="13.8163" rx="0.592365" ry="0.593177" fill="#555553"/>
<ellipse cx="7.74105" cy="16.9784" rx="0.592365" ry="0.593177" fill="#555553"/>
<ellipse cx="3.4366" cy="20.1425" rx="0.592365" ry="0.593177" fill="#555553"/>
<ellipse cx="5.63485" cy="18.5605" rx="0.592365" ry="0.593177" fill="#555553"/>
<ellipse cx="5.63485" cy="21.7245" rx="0.592365" ry="0.593177" fill="#555553"/>
<ellipse cx="7.74105" cy="20.1425" rx="0.592365" ry="0.593177" fill="#555553"/>
<ellipse cx="18.4564" cy="9.07023" rx="0.592365" ry="0.593177" fill="#555553"/>
<ellipse cx="18.4564" cy="12.2343" rx="0.592365" ry="0.593177" fill="#555553"/>
<ellipse cx="18.4564" cy="15.3984" rx="0.592365" ry="0.593177" fill="#555553"/>
<ellipse cx="9.89998" cy="15.3984" rx="0.592365" ry="0.593177" fill="#555553"/>
<ellipse cx="12.0062" cy="10.6523" rx="0.592365" ry="0.593177" fill="#555553"/>
<ellipse cx="12.0062" cy="13.8163" rx="0.592365" ry="0.593177" fill="#555553"/>
<ellipse cx="12.0062" cy="16.9784" rx="0.592365" ry="0.593177" fill="#555553"/>
<ellipse cx="14.1912" cy="9.07023" rx="0.592365" ry="0.593177" fill="#555553"/>
<ellipse cx="16.2974" cy="10.6523" rx="0.592365" ry="0.593177" fill="#555553"/>
<ellipse cx="16.2974" cy="13.8163" rx="0.592365" ry="0.593177" fill="#555553"/>
<ellipse cx="16.2974" cy="16.9784" rx="0.592365" ry="0.593177" fill="#555553"/>
<ellipse cx="18.4564" cy="18.5605" rx="0.592365" ry="0.593177" fill="#555553"/>
<ellipse cx="9.89998" cy="18.5605" rx="0.592365" ry="0.593177" fill="#555553"/>
<ellipse cx="9.89998" cy="21.7245" rx="0.592365" ry="0.593177" fill="#555553"/>
<ellipse cx="12.0062" cy="20.1425" rx="0.592365" ry="0.593177" fill="#555553"/>
<ellipse cx="14.1912" cy="18.5605" rx="0.592365" ry="0.593177" fill="#555553"/>
<ellipse cx="14.1912" cy="21.7245" rx="0.592365" ry="0.593177" fill="#555553"/>
<ellipse cx="16.2974" cy="20.1425" rx="0.592365" ry="0.593177" fill="#555553"/>
<ellipse cx="3.4366" cy="7.35734" rx="0.592365" ry="0.593177" fill="#555553"/>
<ellipse cx="5.63485" cy="5.77531" rx="0.592365" ry="0.593177" fill="#555553"/>
<ellipse cx="7.74105" cy="7.35734" rx="0.592365" ry="0.593177" fill="#555553"/>
<ellipse cx="18.4561" cy="5.77531" rx="0.592365" ry="0.593177" fill="#555553"/>
<ellipse cx="9.89998" cy="5.77531" rx="0.592365" ry="0.593177" fill="#555553"/>
<ellipse cx="12.0059" cy="7.35734" rx="0.592365" ry="0.593177" fill="#555553"/>
<ellipse cx="14.1912" cy="5.77531" rx="0.592365" ry="0.593177" fill="#555553"/>
</svg>
