<svg width="22" height="31" viewBox="0 0 22 31" fill="none" xmlns="http://www.w3.org/2000/svg">
<path d="M20.3173 7.6918C20.3173 7.87476 20.1687 8.02341 19.9858 8.02341C19.8005 8.02341 19.6519 7.87476 19.6519 7.6918C19.6519 7.50656 19.8005 7.35791 19.9858 7.35791C20.1687 7.35791 20.3173 7.50656 20.3173 7.6918Z" fill="#161514"/>
<path d="M19.0595 9.36905C19.0595 9.552 18.9109 9.70294 18.7279 9.70294C18.5427 9.70294 18.394 9.552 18.394 9.36905C18.394 9.18381 18.5427 9.03516 18.7279 9.03516C18.9109 9.03516 19.0595 9.18381 19.0595 9.36905Z" fill="#161514"/>
<path d="M16.5462 9.36905C16.5462 9.552 16.3953 9.70294 16.2123 9.70294C16.0271 9.70294 15.8784 9.552 15.8784 9.36905C15.8784 9.18381 16.0271 9.03516 16.2123 9.03516C16.3953 9.03516 16.5462 9.18381 16.5462 9.36905Z" fill="#161514"/>
<path d="M14.0306 9.36905C14.0306 9.552 13.8796 9.70294 13.6967 9.70294C13.5114 9.70294 13.3628 9.552 13.3628 9.36905C13.3628 9.18381 13.5114 9.03516 13.6967 9.03516C13.8796 9.03516 14.0306 9.18381 14.0306 9.36905Z" fill="#161514"/>
<path d="M11.5149 9.36905C11.5149 9.552 11.364 9.70294 11.1811 9.70294C10.9958 9.70294 10.8472 9.552 10.8472 9.36905C10.8472 9.18381 10.9958 9.03516 11.1811 9.03516C11.364 9.03516 11.5149 9.18381 11.5149 9.36905Z" fill="#161514"/>
<path d="M17.804 8.52969C17.804 8.71493 17.6531 8.86359 17.4701 8.86359C17.2849 8.86359 17.1362 8.71493 17.1362 8.52969C17.1362 8.34674 17.2849 8.1958 17.4701 8.1958C17.6531 8.1958 17.804 8.34674 17.804 8.52969Z" fill="#161514"/>
<path d="M15.2884 8.52969C15.2884 8.71493 15.1375 8.86359 14.9545 8.86359C14.7693 8.86359 14.6206 8.71493 14.6206 8.52969C14.6206 8.34674 14.7693 8.1958 14.9545 8.1958C15.1375 8.1958 15.2884 8.34674 15.2884 8.52969Z" fill="#161514"/>
<path d="M12.7728 8.52969C12.7728 8.71493 12.6218 8.86359 12.4389 8.86359C12.2536 8.86359 12.105 8.71493 12.105 8.52969C12.105 8.34674 12.2536 8.1958 12.4389 8.1958C12.6218 8.1958 12.7728 8.34674 12.7728 8.52969Z" fill="#161514"/>
<path d="M19.0595 11.0453C19.0595 11.2306 18.9109 11.3792 18.7279 11.3792C18.5427 11.3792 18.394 11.2306 18.394 11.0453C18.394 10.8624 18.5427 10.7114 18.7279 10.7114C18.9109 10.7114 19.0595 10.8624 19.0595 11.0453Z" fill="#161514"/>
<path d="M16.5462 11.0453C16.5462 11.2306 16.3953 11.3792 16.2123 11.3792C16.0271 11.3792 15.8784 11.2306 15.8784 11.0453C15.8784 10.8624 16.0271 10.7114 16.2123 10.7114C16.3953 10.7114 16.5462 10.8624 16.5462 11.0453Z" fill="#161514"/>
<path d="M14.0306 11.0453C14.0306 11.2306 13.8796 11.3792 13.6967 11.3792C13.5114 11.3792 13.3628 11.2306 13.3628 11.0453C13.3628 10.8624 13.5114 10.7114 13.6967 10.7114C13.8796 10.7114 14.0306 10.8624 14.0306 11.0453Z" fill="#161514"/>
<path d="M11.5149 11.0453C11.5149 11.2306 11.364 11.3792 11.1811 11.3792C10.9958 11.3792 10.8472 11.2306 10.8472 11.0453C10.8472 10.8624 10.9958 10.7114 11.1811 10.7114C11.364 10.7114 11.5149 10.8624 11.5149 11.0453Z" fill="#161514"/>
<path d="M19.0595 9.36905C19.0595 9.552 18.9109 9.70294 18.7279 9.70294C18.5427 9.70294 18.394 9.552 18.394 9.36905C18.394 9.18381 18.5427 9.03516 18.7279 9.03516C18.9109 9.03516 19.0595 9.18381 19.0595 9.36905Z" fill="#161514"/>
<path d="M17.804 10.2084C17.804 10.3914 17.6531 10.54 17.4701 10.54C17.2849 10.54 17.1362 10.3914 17.1362 10.2084C17.1362 10.0232 17.2849 9.87451 17.4701 9.87451C17.6531 9.87451 17.804 10.0232 17.804 10.2084Z" fill="#161514"/>
<path d="M16.5462 9.36905C16.5462 9.552 16.3953 9.70294 16.2123 9.70294C16.0271 9.70294 15.8784 9.552 15.8784 9.36905C15.8784 9.18381 16.0271 9.03516 16.2123 9.03516C16.3953 9.03516 16.5462 9.18381 16.5462 9.36905Z" fill="#161514"/>
<path d="M15.2884 10.2084C15.2884 10.3914 15.1375 10.54 14.9545 10.54C14.7693 10.54 14.6206 10.3914 14.6206 10.2084C14.6206 10.0232 14.7693 9.87451 14.9545 9.87451C15.1375 9.87451 15.2884 10.0232 15.2884 10.2084Z" fill="#161514"/>
<path d="M14.0306 9.36905C14.0306 9.552 13.8796 9.70294 13.6967 9.70294C13.5114 9.70294 13.3628 9.552 13.3628 9.36905C13.3628 9.18381 13.5114 9.03516 13.6967 9.03516C13.8796 9.03516 14.0306 9.18381 14.0306 9.36905Z" fill="#161514"/>
<path d="M12.7728 10.2084C12.7728 10.3914 12.6218 10.54 12.4389 10.54C12.2536 10.54 12.105 10.3914 12.105 10.2084C12.105 10.0232 12.2536 9.87451 12.4389 9.87451C12.6218 9.87451 12.7728 10.0232 12.7728 10.2084Z" fill="#161514"/>
<path d="M11.5149 9.36905C11.5149 9.552 11.364 9.70294 11.1811 9.70294C10.9958 9.70294 10.8472 9.552 10.8472 9.36905C10.8472 9.18381 10.9958 9.03516 11.1811 9.03516C11.364 9.03516 11.5149 9.18381 11.5149 9.36905Z" fill="#161514"/>
<path d="M19.0595 12.7213C19.0595 12.9065 18.9109 13.0551 18.7279 13.0551C18.5427 13.0551 18.394 12.9065 18.394 12.7213C18.394 12.5383 18.5427 12.3896 18.7279 12.3896C18.9109 12.3896 19.0595 12.5383 19.0595 12.7213Z" fill="#161514"/>
<path d="M16.5462 12.7213C16.5462 12.9065 16.3953 13.0551 16.2123 13.0551C16.0271 13.0551 15.8784 12.9065 15.8784 12.7213C15.8784 12.5383 16.0271 12.3896 16.2123 12.3896C16.3953 12.3896 16.5462 12.5383 16.5462 12.7213Z" fill="#161514"/>
<path d="M14.0306 12.7213C14.0306 12.9065 13.8796 13.0551 13.6967 13.0551C13.5114 13.0551 13.3628 12.9065 13.3628 12.7213C13.3628 12.5383 13.5114 12.3896 13.6967 12.3896C13.8796 12.3896 14.0306 12.5383 14.0306 12.7213Z" fill="#161514"/>
<path d="M11.5149 12.7213C11.5149 12.9065 11.364 13.0551 11.1811 13.0551C10.9958 13.0551 10.8472 12.9065 10.8472 12.7213C10.8472 12.5383 10.9958 12.3896 11.1811 12.3896C11.364 12.3896 11.5149 12.5383 11.5149 12.7213Z" fill="#161514"/>
<path d="M19.0595 11.0448C19.0595 11.2301 18.9109 11.3787 18.7279 11.3787C18.5427 11.3787 18.394 11.2301 18.394 11.0448C18.394 10.8619 18.5427 10.7109 18.7279 10.7109C18.9109 10.7109 19.0595 10.8619 19.0595 11.0448Z" fill="#161514"/>
<path d="M17.804 11.8842C17.804 12.0671 17.6531 12.2181 17.4701 12.2181C17.2849 12.2181 17.1362 12.0671 17.1362 11.8842C17.1362 11.6989 17.2849 11.5503 17.4701 11.5503C17.6531 11.5503 17.804 11.6989 17.804 11.8842Z" fill="#161514"/>
<path d="M16.5462 11.0448C16.5462 11.2301 16.3953 11.3787 16.2123 11.3787C16.0271 11.3787 15.8784 11.2301 15.8784 11.0448C15.8784 10.8619 16.0271 10.7109 16.2123 10.7109C16.3953 10.7109 16.5462 10.8619 16.5462 11.0448Z" fill="#161514"/>
<path d="M15.2884 11.8842C15.2884 12.0671 15.1375 12.2181 14.9545 12.2181C14.7693 12.2181 14.6206 12.0671 14.6206 11.8842C14.6206 11.6989 14.7693 11.5503 14.9545 11.5503C15.1375 11.5503 15.2884 11.6989 15.2884 11.8842Z" fill="#161514"/>
<path d="M14.0306 11.0448C14.0306 11.2301 13.8796 11.3787 13.6967 11.3787C13.5114 11.3787 13.3628 11.2301 13.3628 11.0448C13.3628 10.8619 13.5114 10.7109 13.6967 10.7109C13.8796 10.7109 14.0306 10.8619 14.0306 11.0448Z" fill="#161514"/>
<path d="M12.7728 11.8842C12.7728 12.0671 12.6218 12.2181 12.4389 12.2181C12.2536 12.2181 12.105 12.0671 12.105 11.8842C12.105 11.6989 12.2536 11.5503 12.4389 11.5503C12.6218 11.5503 12.7728 11.6989 12.7728 11.8842Z" fill="#161514"/>
<path d="M11.5149 11.0448C11.5149 11.2301 11.364 11.3787 11.1811 11.3787C10.9958 11.3787 10.8472 11.2301 10.8472 11.0448C10.8472 10.8619 10.9958 10.7109 11.1811 10.7109C11.364 10.7109 11.5149 10.8619 11.5149 11.0448Z" fill="#161514"/>
<path d="M19.0595 14.3993C19.0595 14.5823 18.9109 14.7332 18.7279 14.7332C18.5427 14.7332 18.394 14.5823 18.394 14.3993C18.394 14.2141 18.5427 14.0654 18.7279 14.0654C18.9109 14.0654 19.0595 14.2141 19.0595 14.3993Z" fill="#161514"/>
<path d="M16.5462 14.3993C16.5462 14.5823 16.3953 14.7332 16.2123 14.7332C16.0271 14.7332 15.8784 14.5823 15.8784 14.3993C15.8784 14.2141 16.0271 14.0654 16.2123 14.0654C16.3953 14.0654 16.5462 14.2141 16.5462 14.3993Z" fill="#161514"/>
<path d="M14.0306 14.3993C14.0306 14.5823 13.8796 14.7332 13.6967 14.7332C13.5114 14.7332 13.3628 14.5823 13.3628 14.3993C13.3628 14.2141 13.5114 14.0654 13.6967 14.0654C13.8796 14.0654 14.0306 14.2141 14.0306 14.3993Z" fill="#161514"/>
<path d="M11.5149 14.3993C11.5149 14.5823 11.364 14.7332 11.1811 14.7332C10.9958 14.7332 10.8472 14.5823 10.8472 14.3993C10.8472 14.2141 10.9958 14.0654 11.1811 14.0654C11.364 14.0654 11.5149 14.2141 11.5149 14.3993Z" fill="#161514"/>
<path d="M19.0595 12.7208C19.0595 12.906 18.9109 13.0547 18.7279 13.0547C18.5427 13.0547 18.394 12.906 18.394 12.7208C18.394 12.5378 18.5427 12.3892 18.7279 12.3892C18.9109 12.3892 19.0595 12.5378 19.0595 12.7208Z" fill="#161514"/>
<path d="M17.804 13.56C17.804 13.7452 17.6531 13.8939 17.4701 13.8939C17.2849 13.8939 17.1362 13.7452 17.1362 13.56C17.1362 13.377 17.2849 13.2261 17.4701 13.2261C17.6531 13.2261 17.804 13.377 17.804 13.56Z" fill="#161514"/>
<path d="M16.5462 12.7208C16.5462 12.906 16.3953 13.0547 16.2123 13.0547C16.0271 13.0547 15.8784 12.906 15.8784 12.7208C15.8784 12.5378 16.0271 12.3892 16.2123 12.3892C16.3953 12.3892 16.5462 12.5378 16.5462 12.7208Z" fill="#161514"/>
<path d="M15.2884 13.56C15.2884 13.7452 15.1375 13.8939 14.9545 13.8939C14.7693 13.8939 14.6206 13.7452 14.6206 13.56C14.6206 13.377 14.7693 13.2261 14.9545 13.2261C15.1375 13.2261 15.2884 13.377 15.2884 13.56Z" fill="#161514"/>
<path d="M14.0306 12.7208C14.0306 12.906 13.8796 13.0547 13.6967 13.0547C13.5114 13.0547 13.3628 12.906 13.3628 12.7208C13.3628 12.5378 13.5114 12.3892 13.6967 12.3892C13.8796 12.3892 14.0306 12.5378 14.0306 12.7208Z" fill="#161514"/>
<path d="M12.7728 13.56C12.7728 13.7452 12.6218 13.8939 12.4389 13.8939C12.2536 13.8939 12.105 13.7452 12.105 13.56C12.105 13.377 12.2536 13.2261 12.4389 13.2261C12.6218 13.2261 12.7728 13.377 12.7728 13.56Z" fill="#161514"/>
<path d="M11.5149 12.7208C11.5149 12.906 11.364 13.0547 11.1811 13.0547C10.9958 13.0547 10.8472 12.906 10.8472 12.7208C10.8472 12.5378 10.9958 12.3892 11.1811 12.3892C11.364 12.3892 11.5149 12.5378 11.5149 12.7208Z" fill="#161514"/>
<path d="M19.0595 16.0766C19.0595 16.2618 18.9109 16.4105 18.7279 16.4105C18.5427 16.4105 18.394 16.2618 18.394 16.0766C18.394 15.8913 18.5427 15.7427 18.7279 15.7427C18.9109 15.7427 19.0595 15.8913 19.0595 16.0766Z" fill="#161514"/>
<path d="M16.5462 16.0766C16.5462 16.2618 16.3953 16.4105 16.2123 16.4105C16.0271 16.4105 15.8784 16.2618 15.8784 16.0766C15.8784 15.8913 16.0271 15.7427 16.2123 15.7427C16.3953 15.7427 16.5462 15.8913 16.5462 16.0766Z" fill="#161514"/>
<path d="M14.0306 16.0766C14.0306 16.2618 13.8796 16.4105 13.6967 16.4105C13.5114 16.4105 13.3628 16.2618 13.3628 16.0766C13.3628 15.8913 13.5114 15.7427 13.6967 15.7427C13.8796 15.7427 14.0306 15.8913 14.0306 16.0766Z" fill="#161514"/>
<path d="M11.5149 16.0766C11.5149 16.2618 11.364 16.4105 11.1811 16.4105C10.9958 16.4105 10.8472 16.2618 10.8472 16.0766C10.8472 15.8913 10.9958 15.7427 11.1811 15.7427C11.364 15.7427 11.5149 15.8913 11.5149 16.0766Z" fill="#161514"/>
<path d="M19.0595 14.4003C19.0595 14.5833 18.9109 14.7342 18.7279 14.7342C18.5427 14.7342 18.394 14.5833 18.394 14.4003C18.394 14.2151 18.5427 14.0664 18.7279 14.0664C18.9109 14.0664 19.0595 14.2151 19.0595 14.4003Z" fill="#161514"/>
<path d="M17.804 15.2374C17.804 15.4226 17.6531 15.5713 17.4701 15.5713C17.2849 15.5713 17.1362 15.4226 17.1362 15.2374C17.1362 15.0544 17.2849 14.9058 17.4701 14.9058C17.6531 14.9058 17.804 15.0544 17.804 15.2374Z" fill="#161514"/>
<path d="M16.5462 14.4003C16.5462 14.5833 16.3953 14.7342 16.2123 14.7342C16.0271 14.7342 15.8784 14.5833 15.8784 14.4003C15.8784 14.2151 16.0271 14.0664 16.2123 14.0664C16.3953 14.0664 16.5462 14.2151 16.5462 14.4003Z" fill="#161514"/>
<path d="M15.2884 15.2374C15.2884 15.4226 15.1375 15.5713 14.9545 15.5713C14.7693 15.5713 14.6206 15.4226 14.6206 15.2374C14.6206 15.0544 14.7693 14.9058 14.9545 14.9058C15.1375 14.9058 15.2884 15.0544 15.2884 15.2374Z" fill="#161514"/>
<path d="M14.0306 14.4003C14.0306 14.5833 13.8796 14.7342 13.6967 14.7342C13.5114 14.7342 13.3628 14.5833 13.3628 14.4003C13.3628 14.2151 13.5114 14.0664 13.6967 14.0664C13.8796 14.0664 14.0306 14.2151 14.0306 14.4003Z" fill="#161514"/>
<path d="M12.7728 15.2374C12.7728 15.4226 12.6218 15.5713 12.4389 15.5713C12.2536 15.5713 12.105 15.4226 12.105 15.2374C12.105 15.0544 12.2536 14.9058 12.4389 14.9058C12.6218 14.9058 12.7728 15.0544 12.7728 15.2374Z" fill="#161514"/>
<path d="M11.5149 14.4003C11.5149 14.5833 11.364 14.7342 11.1811 14.7342C10.9958 14.7342 10.8472 14.5833 10.8472 14.4003C10.8472 14.2151 10.9958 14.0664 11.1811 14.0664C11.364 14.0664 11.5149 14.2151 11.5149 14.4003Z" fill="#161514"/>
<path d="M19.0595 17.753C19.0595 17.9382 18.9109 18.0869 18.7279 18.0869C18.5427 18.0869 18.394 17.9382 18.394 17.753C18.394 17.57 18.5427 17.4214 18.7279 17.4214C18.9109 17.4214 19.0595 17.57 19.0595 17.753Z" fill="#161514"/>
<path d="M16.5462 17.753C16.5462 17.9382 16.3953 18.0869 16.2123 18.0869C16.0271 18.0869 15.8784 17.9382 15.8784 17.753C15.8784 17.57 16.0271 17.4214 16.2123 17.4214C16.3953 17.4214 16.5462 17.57 16.5462 17.753Z" fill="#161514"/>
<path d="M14.0306 17.753C14.0306 17.9382 13.8796 18.0869 13.6967 18.0869C13.5114 18.0869 13.3628 17.9382 13.3628 17.753C13.3628 17.57 13.5114 17.4214 13.6967 17.4214C13.8796 17.4214 14.0306 17.57 14.0306 17.753Z" fill="#161514"/>
<path d="M11.5149 17.753C11.5149 17.9382 11.364 18.0869 11.1811 18.0869C10.9958 18.0869 10.8472 17.9382 10.8472 17.753C10.8472 17.57 10.9958 17.4214 11.1811 17.4214C11.364 17.4214 11.5149 17.57 11.5149 17.753Z" fill="#161514"/>
<path d="M19.0595 16.0766C19.0595 16.2618 18.9109 16.4105 18.7279 16.4105C18.5427 16.4105 18.394 16.2618 18.394 16.0766C18.394 15.8913 18.5427 15.7427 18.7279 15.7427C18.9109 15.7427 19.0595 15.8913 19.0595 16.0766Z" fill="#161514"/>
<path d="M17.804 16.9159C17.804 17.0989 17.6531 17.2475 17.4701 17.2475C17.2849 17.2475 17.1362 17.0989 17.1362 16.9159C17.1362 16.7307 17.2849 16.582 17.4701 16.582C17.6531 16.582 17.804 16.7307 17.804 16.9159Z" fill="#161514"/>
<path d="M16.5462 16.0766C16.5462 16.2618 16.3953 16.4105 16.2123 16.4105C16.0271 16.4105 15.8784 16.2618 15.8784 16.0766C15.8784 15.8913 16.0271 15.7427 16.2123 15.7427C16.3953 15.7427 16.5462 15.8913 16.5462 16.0766Z" fill="#161514"/>
<path d="M15.2884 16.9159C15.2884 17.0989 15.1375 17.2475 14.9545 17.2475C14.7693 17.2475 14.6206 17.0989 14.6206 16.9159C14.6206 16.7307 14.7693 16.582 14.9545 16.582C15.1375 16.582 15.2884 16.7307 15.2884 16.9159Z" fill="#161514"/>
<path d="M14.0306 16.0766C14.0306 16.2618 13.8796 16.4105 13.6967 16.4105C13.5114 16.4105 13.3628 16.2618 13.3628 16.0766C13.3628 15.8913 13.5114 15.7427 13.6967 15.7427C13.8796 15.7427 14.0306 15.8913 14.0306 16.0766Z" fill="#161514"/>
<path d="M12.7728 16.9159C12.7728 17.0989 12.6218 17.2475 12.4389 17.2475C12.2536 17.2475 12.105 17.0989 12.105 16.9159C12.105 16.7307 12.2536 16.582 12.4389 16.582C12.6218 16.582 12.7728 16.7307 12.7728 16.9159Z" fill="#161514"/>
<path d="M11.5149 16.0766C11.5149 16.2618 11.364 16.4105 11.1811 16.4105C10.9958 16.4105 10.8472 16.2618 10.8472 16.0766C10.8472 15.8913 10.9958 15.7427 11.1811 15.7427C11.364 15.7427 11.5149 15.8913 11.5149 16.0766Z" fill="#161514"/>
<path d="M16.5462 19.4306C16.5462 19.6135 16.3953 19.7622 16.2123 19.7622C16.0271 19.7622 15.8784 19.6135 15.8784 19.4306C15.8784 19.2453 16.0271 19.0967 16.2123 19.0967C16.3953 19.0967 16.5462 19.2453 16.5462 19.4306Z" fill="#161514"/>
<path d="M14.0306 19.4306C14.0306 19.6135 13.8796 19.7622 13.6967 19.7622C13.5114 19.7622 13.3628 19.6135 13.3628 19.4306C13.3628 19.2453 13.5114 19.0967 13.6967 19.0967C13.8796 19.0967 14.0306 19.2453 14.0306 19.4306Z" fill="#161514"/>
<path d="M11.5149 19.4306C11.5149 19.6135 11.364 19.7622 11.1811 19.7622C10.9958 19.7622 10.8472 19.6135 10.8472 19.4306C10.8472 19.2453 10.9958 19.0967 11.1811 19.0967C11.364 19.0967 11.5149 19.2453 11.5149 19.4306Z" fill="#161514"/>
<path d="M19.0595 17.752C19.0595 17.9373 18.9109 18.0859 18.7279 18.0859C18.5427 18.0859 18.394 17.9373 18.394 17.752C18.394 17.5691 18.5427 17.4204 18.7279 17.4204C18.9109 17.4204 19.0595 17.5691 19.0595 17.752Z" fill="#161514"/>
<path d="M17.804 18.5912C17.804 18.7742 17.6531 18.9251 17.4701 18.9251C17.2849 18.9251 17.1362 18.7742 17.1362 18.5912C17.1362 18.406 17.2849 18.2573 17.4701 18.2573C17.6531 18.2573 17.804 18.406 17.804 18.5912Z" fill="#161514"/>
<path d="M16.5462 17.752C16.5462 17.9373 16.3953 18.0859 16.2123 18.0859C16.0271 18.0859 15.8784 17.9373 15.8784 17.752C15.8784 17.5691 16.0271 17.4204 16.2123 17.4204C16.3953 17.4204 16.5462 17.5691 16.5462 17.752Z" fill="#161514"/>
<path d="M15.2884 18.5912C15.2884 18.7742 15.1375 18.9251 14.9545 18.9251C14.7693 18.9251 14.6206 18.7742 14.6206 18.5912C14.6206 18.406 14.7693 18.2573 14.9545 18.2573C15.1375 18.2573 15.2884 18.406 15.2884 18.5912Z" fill="#161514"/>
<path d="M14.0306 17.752C14.0306 17.9373 13.8796 18.0859 13.6967 18.0859C13.5114 18.0859 13.3628 17.9373 13.3628 17.752C13.3628 17.5691 13.5114 17.4204 13.6967 17.4204C13.8796 17.4204 14.0306 17.5691 14.0306 17.752Z" fill="#161514"/>
<path d="M12.7728 18.5912C12.7728 18.7742 12.6218 18.9251 12.4389 18.9251C12.2536 18.9251 12.105 18.7742 12.105 18.5912C12.105 18.406 12.2536 18.2573 12.4389 18.2573C12.6218 18.2573 12.7728 18.406 12.7728 18.5912Z" fill="#161514"/>
<path d="M11.5149 17.752C11.5149 17.9373 11.364 18.0859 11.1811 18.0859C10.9958 18.0859 10.8472 17.9373 10.8472 17.752C10.8472 17.5691 10.9958 17.4204 11.1811 17.4204C11.364 17.4204 11.5149 17.5691 11.5149 17.752Z" fill="#161514"/>
<path d="M16.5462 21.1078C16.5462 21.2908 16.3953 21.4417 16.2123 21.4417C16.0271 21.4417 15.8784 21.2908 15.8784 21.1078C15.8784 20.9226 16.0271 20.7739 16.2123 20.7739C16.3953 20.7739 16.5462 20.9226 16.5462 21.1078Z" fill="#161514"/>
<path d="M14.0306 21.1078C14.0306 21.2908 13.8796 21.4417 13.6967 21.4417C13.5114 21.4417 13.3628 21.2908 13.3628 21.1078C13.3628 20.9226 13.5114 20.7739 13.6967 20.7739C13.8796 20.7739 14.0306 20.9226 14.0306 21.1078Z" fill="#161514"/>
<path d="M11.5149 21.1078C11.5149 21.2908 11.364 21.4417 11.1811 21.4417C10.9958 21.4417 10.8472 21.2908 10.8472 21.1078C10.8472 20.9226 10.9958 20.7739 11.1811 20.7739C11.364 20.7739 11.5149 20.9226 11.5149 21.1078Z" fill="#161514"/>
<path d="M17.804 20.2685C17.804 20.4537 17.6531 20.6024 17.4701 20.6024C17.2849 20.6024 17.1362 20.4537 17.1362 20.2685C17.1362 20.0855 17.2849 19.9346 17.4701 19.9346C17.6531 19.9346 17.804 20.0855 17.804 20.2685Z" fill="#161514"/>
<path d="M16.5462 19.4315C16.5462 19.6145 16.3953 19.7631 16.2123 19.7631C16.0271 19.7631 15.8784 19.6145 15.8784 19.4315C15.8784 19.2463 16.0271 19.0977 16.2123 19.0977C16.3953 19.0977 16.5462 19.2463 16.5462 19.4315Z" fill="#161514"/>
<path d="M15.2884 20.2685C15.2884 20.4537 15.1375 20.6024 14.9545 20.6024C14.7693 20.6024 14.6206 20.4537 14.6206 20.2685C14.6206 20.0855 14.7693 19.9346 14.9545 19.9346C15.1375 19.9346 15.2884 20.0855 15.2884 20.2685Z" fill="#161514"/>
<path d="M14.0306 19.4315C14.0306 19.6145 13.8796 19.7631 13.6967 19.7631C13.5114 19.7631 13.3628 19.6145 13.3628 19.4315C13.3628 19.2463 13.5114 19.0977 13.6967 19.0977C13.8796 19.0977 14.0306 19.2463 14.0306 19.4315Z" fill="#161514"/>
<path d="M12.7728 20.2685C12.7728 20.4537 12.6218 20.6024 12.4389 20.6024C12.2536 20.6024 12.105 20.4537 12.105 20.2685C12.105 20.0855 12.2536 19.9346 12.4389 19.9346C12.6218 19.9346 12.7728 20.0855 12.7728 20.2685Z" fill="#161514"/>
<path d="M11.5149 19.4315C11.5149 19.6145 11.364 19.7631 11.1811 19.7631C10.9958 19.7631 10.8472 19.6145 10.8472 19.4315C10.8472 19.2463 10.9958 19.0977 11.1811 19.0977C11.364 19.0977 11.5149 19.2463 11.5149 19.4315Z" fill="#161514"/>
<path d="M16.5462 22.7841C16.5462 22.9693 16.3953 23.118 16.2123 23.118C16.0271 23.118 15.8784 22.9693 15.8784 22.7841C15.8784 22.6011 16.0271 22.4502 16.2123 22.4502C16.3953 22.4502 16.5462 22.6011 16.5462 22.7841Z" fill="#161514"/>
<path d="M14.0306 22.7841C14.0306 22.9693 13.8796 23.118 13.6967 23.118C13.5114 23.118 13.3628 22.9693 13.3628 22.7841C13.3628 22.6011 13.5114 22.4502 13.6967 22.4502C13.8796 22.4502 14.0306 22.6011 14.0306 22.7841Z" fill="#161514"/>
<path d="M11.5149 22.7841C11.5149 22.9693 11.364 23.118 11.1811 23.118C10.9958 23.118 10.8472 22.9693 10.8472 22.7841C10.8472 22.6011 10.9958 22.4502 11.1811 22.4502C11.364 22.4502 11.5149 22.6011 11.5149 22.7841Z" fill="#161514"/>
<path d="M17.804 21.9472C17.804 22.1301 17.6531 22.2788 17.4701 22.2788C17.2849 22.2788 17.1362 22.1301 17.1362 21.9472C17.1362 21.7619 17.2849 21.6133 17.4701 21.6133C17.6531 21.6133 17.804 21.7619 17.804 21.9472Z" fill="#161514"/>
<path d="M16.5462 21.1078C16.5462 21.2908 16.3953 21.4417 16.2123 21.4417C16.0271 21.4417 15.8784 21.2908 15.8784 21.1078C15.8784 20.9226 16.0271 20.7739 16.2123 20.7739C16.3953 20.7739 16.5462 20.9226 16.5462 21.1078Z" fill="#161514"/>
<path d="M15.2884 21.9472C15.2884 22.1301 15.1375 22.2788 14.9545 22.2788C14.7693 22.2788 14.6206 22.1301 14.6206 21.9472C14.6206 21.7619 14.7693 21.6133 14.9545 21.6133C15.1375 21.6133 15.2884 21.7619 15.2884 21.9472Z" fill="#161514"/>
<path d="M14.0306 21.1078C14.0306 21.2908 13.8796 21.4417 13.6967 21.4417C13.5114 21.4417 13.3628 21.2908 13.3628 21.1078C13.3628 20.9226 13.5114 20.7739 13.6967 20.7739C13.8796 20.7739 14.0306 20.9226 14.0306 21.1078Z" fill="#161514"/>
<path d="M12.7728 21.9472C12.7728 22.1301 12.6218 22.2788 12.4389 22.2788C12.2536 22.2788 12.105 22.1301 12.105 21.9472C12.105 21.7619 12.2536 21.6133 12.4389 21.6133C12.6218 21.6133 12.7728 21.7619 12.7728 21.9472Z" fill="#161514"/>
<path d="M11.5149 21.1078C11.5149 21.2908 11.364 21.4417 11.1811 21.4417C10.9958 21.4417 10.8472 21.2908 10.8472 21.1078C10.8472 20.9226 10.9958 20.7739 11.1811 20.7739C11.364 20.7739 11.5149 20.9226 11.5149 21.1078Z" fill="#161514"/>
<path d="M16.5462 24.4605C16.5462 24.6457 16.3953 24.7944 16.2123 24.7944C16.0271 24.7944 15.8784 24.6457 15.8784 24.4605C15.8784 24.2776 16.0271 24.1289 16.2123 24.1289C16.3953 24.1289 16.5462 24.2776 16.5462 24.4605Z" fill="#161514"/>
<path d="M14.0306 24.4605C14.0306 24.6457 13.8796 24.7944 13.6967 24.7944C13.5114 24.7944 13.3628 24.6457 13.3628 24.4605C13.3628 24.2776 13.5114 24.1289 13.6967 24.1289C13.8796 24.1289 14.0306 24.2776 14.0306 24.4605Z" fill="#161514"/>
<path d="M11.5149 24.4605C11.5149 24.6457 11.364 24.7944 11.1811 24.7944C10.9958 24.7944 10.8472 24.6457 10.8472 24.4605C10.8472 24.2776 10.9958 24.1289 11.1811 24.1289C11.364 24.1289 11.5149 24.2776 11.5149 24.4605Z" fill="#161514"/>
<path d="M17.804 23.6234C17.804 23.8064 17.6531 23.9573 17.4701 23.9573C17.2849 23.9573 17.1362 23.8064 17.1362 23.6234C17.1362 23.4382 17.2849 23.2896 17.4701 23.2896C17.6531 23.2896 17.804 23.4382 17.804 23.6234Z" fill="#161514"/>
<path d="M16.5462 22.7841C16.5462 22.9693 16.3953 23.118 16.2123 23.118C16.0271 23.118 15.8784 22.9693 15.8784 22.7841C15.8784 22.6011 16.0271 22.4502 16.2123 22.4502C16.3953 22.4502 16.5462 22.6011 16.5462 22.7841Z" fill="#161514"/>
<path d="M15.2884 23.6234C15.2884 23.8064 15.1375 23.9573 14.9545 23.9573C14.7693 23.9573 14.6206 23.8064 14.6206 23.6234C14.6206 23.4382 14.7693 23.2896 14.9545 23.2896C15.1375 23.2896 15.2884 23.4382 15.2884 23.6234Z" fill="#161514"/>
<path d="M14.0306 22.7841C14.0306 22.9693 13.8796 23.118 13.6967 23.118C13.5114 23.118 13.3628 22.9693 13.3628 22.7841C13.3628 22.6011 13.5114 22.4502 13.6967 22.4502C13.8796 22.4502 14.0306 22.6011 14.0306 22.7841Z" fill="#161514"/>
<path d="M12.7728 23.6234C12.7728 23.8064 12.6218 23.9573 12.4389 23.9573C12.2536 23.9573 12.105 23.8064 12.105 23.6234C12.105 23.4382 12.2536 23.2896 12.4389 23.2896C12.6218 23.2896 12.7728 23.4382 12.7728 23.6234Z" fill="#161514"/>
<path d="M11.5149 22.7841C11.5149 22.9693 11.364 23.118 11.1811 23.118C10.9958 23.118 10.8472 22.9693 10.8472 22.7841C10.8472 22.6011 10.9958 22.4502 11.1811 22.4502C11.364 22.4502 11.5149 22.6011 11.5149 22.7841Z" fill="#161514"/>
<path d="M16.5462 26.1391C16.5462 26.322 16.3953 26.473 16.2123 26.473C16.0271 26.473 15.8784 26.322 15.8784 26.1391C15.8784 25.9538 16.0271 25.8052 16.2123 25.8052C16.3953 25.8052 16.5462 25.9538 16.5462 26.1391Z" fill="#161514"/>
<path d="M14.0306 26.1391C14.0306 26.322 13.8796 26.473 13.6967 26.473C13.5114 26.473 13.3628 26.322 13.3628 26.1391C13.3628 25.9538 13.5114 25.8052 13.6967 25.8052C13.8796 25.8052 14.0306 25.9538 14.0306 26.1391Z" fill="#161514"/>
<path d="M11.5149 26.1391C11.5149 26.322 11.364 26.473 11.1811 26.473C10.9958 26.473 10.8472 26.322 10.8472 26.1391C10.8472 25.9538 10.9958 25.8052 11.1811 25.8052C11.364 25.8052 11.5149 25.9538 11.5149 26.1391Z" fill="#161514"/>
<path d="M17.804 25.2997C17.804 25.485 17.6531 25.6336 17.4701 25.6336C17.2849 25.6336 17.1362 25.485 17.1362 25.2997C17.1362 25.1168 17.2849 24.9658 17.4701 24.9658C17.6531 24.9658 17.804 25.1168 17.804 25.2997Z" fill="#161514"/>
<path d="M16.5462 24.4605C16.5462 24.6457 16.3953 24.7944 16.2123 24.7944C16.0271 24.7944 15.8784 24.6457 15.8784 24.4605C15.8784 24.2776 16.0271 24.1289 16.2123 24.1289C16.3953 24.1289 16.5462 24.2776 16.5462 24.4605Z" fill="#161514"/>
<path d="M15.2884 25.2997C15.2884 25.485 15.1375 25.6336 14.9545 25.6336C14.7693 25.6336 14.6206 25.485 14.6206 25.2997C14.6206 25.1168 14.7693 24.9658 14.9545 24.9658C15.1375 24.9658 15.2884 25.1168 15.2884 25.2997Z" fill="#161514"/>
<path d="M14.0306 24.4605C14.0306 24.6457 13.8796 24.7944 13.6967 24.7944C13.5114 24.7944 13.3628 24.6457 13.3628 24.4605C13.3628 24.2776 13.5114 24.1289 13.6967 24.1289C13.8796 24.1289 14.0306 24.2776 14.0306 24.4605Z" fill="#161514"/>
<path d="M12.7728 25.2997C12.7728 25.485 12.6218 25.6336 12.4389 25.6336C12.2536 25.6336 12.105 25.485 12.105 25.2997C12.105 25.1168 12.2536 24.9658 12.4389 24.9658C12.6218 24.9658 12.7728 25.1168 12.7728 25.2997Z" fill="#161514"/>
<path d="M11.5149 24.4605C11.5149 24.6457 11.364 24.7944 11.1811 24.7944C10.9958 24.7944 10.8472 24.6457 10.8472 24.4605C10.8472 24.2776 10.9958 24.1289 11.1811 24.1289C11.364 24.1289 11.5149 24.2776 11.5149 24.4605Z" fill="#161514"/>
<path d="M16.5462 27.8149C16.5462 28.0001 16.3953 28.1488 16.2123 28.1488C16.0271 28.1488 15.8784 28.0001 15.8784 27.8149C15.8784 27.6296 16.0271 27.481 16.2123 27.481C16.3953 27.481 16.5462 27.6296 16.5462 27.8149Z" fill="#161514"/>
<path d="M14.0306 27.8149C14.0306 28.0001 13.8796 28.1488 13.6967 28.1488C13.5114 28.1488 13.3628 28.0001 13.3628 27.8149C13.3628 27.6296 13.5114 27.481 13.6967 27.481C13.8796 27.481 14.0306 27.6296 14.0306 27.8149Z" fill="#161514"/>
<path d="M11.5149 27.8149C11.5149 28.0001 11.364 28.1488 11.1811 28.1488C10.9958 28.1488 10.8472 28.0001 10.8472 27.8149C10.8472 27.6296 10.9958 27.481 11.1811 27.481C11.364 27.481 11.5149 27.6296 11.5149 27.8149Z" fill="#161514"/>
<path d="M17.804 26.9756C17.804 27.1609 17.6531 27.3095 17.4701 27.3095C17.2849 27.3095 17.1362 27.1609 17.1362 26.9756C17.1362 26.7927 17.2849 26.644 17.4701 26.644C17.6531 26.644 17.804 26.7927 17.804 26.9756Z" fill="#161514"/>
<path d="M16.5462 26.1386C16.5462 26.3215 16.3953 26.4725 16.2123 26.4725C16.0271 26.4725 15.8784 26.3215 15.8784 26.1386C15.8784 25.9533 16.0271 25.8047 16.2123 25.8047C16.3953 25.8047 16.5462 25.9533 16.5462 26.1386Z" fill="#161514"/>
<path d="M15.2884 26.9756C15.2884 27.1609 15.1375 27.3095 14.9545 27.3095C14.7693 27.3095 14.6206 27.1609 14.6206 26.9756C14.6206 26.7927 14.7693 26.644 14.9545 26.644C15.1375 26.644 15.2884 26.7927 15.2884 26.9756Z" fill="#161514"/>
<path d="M14.0306 26.1386C14.0306 26.3215 13.8796 26.4725 13.6967 26.4725C13.5114 26.4725 13.3628 26.3215 13.3628 26.1386C13.3628 25.9533 13.5114 25.8047 13.6967 25.8047C13.8796 25.8047 14.0306 25.9533 14.0306 26.1386Z" fill="#161514"/>
<path d="M12.7728 26.9756C12.7728 27.1609 12.6218 27.3095 12.4389 27.3095C12.2536 27.3095 12.105 27.1609 12.105 26.9756C12.105 26.7927 12.2536 26.644 12.4389 26.644C12.6218 26.644 12.7728 26.7927 12.7728 26.9756Z" fill="#161514"/>
<path d="M11.5149 26.1386C11.5149 26.3215 11.364 26.4725 11.1811 26.4725C10.9958 26.4725 10.8472 26.3215 10.8472 26.1386C10.8472 25.9533 10.9958 25.8047 11.1811 25.8047C11.364 25.8047 11.5149 25.9533 11.5149 26.1386Z" fill="#161514"/>
<path d="M14.0306 29.4916C14.0306 29.6769 13.8796 29.8255 13.6967 29.8255C13.5114 29.8255 13.3628 29.6769 13.3628 29.4916C13.3628 29.3087 13.5114 29.1577 13.6967 29.1577C13.8796 29.1577 14.0306 29.3087 14.0306 29.4916Z" fill="#161514"/>
<path d="M11.5149 29.4916C11.5149 29.6769 11.364 29.8255 11.1811 29.8255C10.9958 29.8255 10.8472 29.6769 10.8472 29.4916C10.8472 29.3087 10.9958 29.1577 11.1811 29.1577C11.364 29.1577 11.5149 29.3087 11.5149 29.4916Z" fill="#161514"/>
<path d="M16.5462 27.8153C16.5462 28.0006 16.3953 28.1492 16.2123 28.1492C16.0271 28.1492 15.8784 28.0006 15.8784 27.8153C15.8784 27.6301 16.0271 27.4814 16.2123 27.4814C16.3953 27.4814 16.5462 27.6301 16.5462 27.8153Z" fill="#161514"/>
<path d="M15.2884 28.6547C15.2884 28.8376 15.1375 28.9863 14.9545 28.9863C14.7693 28.9863 14.6206 28.8376 14.6206 28.6547C14.6206 28.4694 14.7693 28.3208 14.9545 28.3208C15.1375 28.3208 15.2884 28.4694 15.2884 28.6547Z" fill="#161514"/>
<path d="M14.0306 27.8153C14.0306 28.0006 13.8796 28.1492 13.6967 28.1492C13.5114 28.1492 13.3628 28.0006 13.3628 27.8153C13.3628 27.6301 13.5114 27.4814 13.6967 27.4814C13.8796 27.4814 14.0306 27.6301 14.0306 27.8153Z" fill="#161514"/>
<path d="M12.7728 28.6547C12.7728 28.8376 12.6218 28.9863 12.4389 28.9863C12.2536 28.9863 12.105 28.8376 12.105 28.6547C12.105 28.4694 12.2536 28.3208 12.4389 28.3208C12.6218 28.3208 12.7728 28.4694 12.7728 28.6547Z" fill="#161514"/>
<path d="M11.5149 27.8153C11.5149 28.0006 11.364 28.1492 11.1811 28.1492C10.9958 28.1492 10.8472 28.0006 10.8472 27.8153C10.8472 27.6301 10.9958 27.4814 11.1811 27.4814C11.364 27.4814 11.5149 27.6301 11.5149 27.8153Z" fill="#161514"/>
<path d="M14.0306 29.4916C14.0306 29.6769 13.8796 29.8255 13.6967 29.8255C13.5114 29.8255 13.3628 29.6769 13.3628 29.4916C13.3628 29.3087 13.5114 29.1577 13.6967 29.1577C13.8796 29.1577 14.0306 29.3087 14.0306 29.4916Z" fill="#161514"/>
<path d="M11.5149 29.4916C11.5149 29.6769 11.364 29.8255 11.1811 29.8255C10.9958 29.8255 10.8472 29.6769 10.8472 29.4916C10.8472 29.3087 10.9958 29.1577 11.1811 29.1577C11.364 29.1577 11.5149 29.3087 11.5149 29.4916Z" fill="#161514"/>
<path d="M10.2571 9.36905C10.2571 9.552 10.1062 9.70294 9.92325 9.70294C9.73801 9.70294 9.58936 9.552 9.58936 9.36905C9.58936 9.18381 9.73801 9.03516 9.92325 9.03516C10.1062 9.03516 10.2571 9.18381 10.2571 9.36905Z" fill="#161514"/>
<path d="M7.74151 9.36905C7.74151 9.552 7.59287 9.70294 7.40763 9.70294C7.22239 9.70294 7.07373 9.552 7.07373 9.36905C7.07373 9.18381 7.22239 9.03516 7.40763 9.03516C7.59287 9.03516 7.74151 9.18381 7.74151 9.36905Z" fill="#161514"/>
<path d="M5.22589 9.36905C5.22589 9.552 5.07724 9.70294 4.892 9.70294C4.70905 9.70294 4.55811 9.552 4.55811 9.36905C4.55811 9.18381 4.70905 9.03516 4.892 9.03516C5.07724 9.03516 5.22589 9.18381 5.22589 9.36905Z" fill="#161514"/>
<path d="M2.71026 9.36905C2.71026 9.552 2.56162 9.70294 2.37638 9.70294C2.19342 9.70294 2.04248 9.552 2.04248 9.36905C2.04248 9.18381 2.19342 9.03516 2.37638 9.03516C2.56162 9.03516 2.71026 9.18381 2.71026 9.36905Z" fill="#161514"/>
<path d="M8.99932 8.52969C8.99932 8.71493 8.85068 8.86359 8.66544 8.86359C8.4802 8.86359 8.33154 8.71493 8.33154 8.52969C8.33154 8.34674 8.4802 8.1958 8.66544 8.1958C8.85068 8.1958 8.99932 8.34674 8.99932 8.52969Z" fill="#161514"/>
<path d="M6.4837 8.52969C6.4837 8.71493 6.33506 8.86359 6.14982 8.86359C5.96686 8.86359 5.81592 8.71493 5.81592 8.52969C5.81592 8.34674 5.96686 8.1958 6.14982 8.1958C6.33506 8.1958 6.4837 8.34674 6.4837 8.52969Z" fill="#161514"/>
<path d="M3.96807 8.52969C3.96807 8.71493 3.81943 8.86359 3.63419 8.86359C3.45124 8.86359 3.30029 8.71493 3.30029 8.52969C3.30029 8.34674 3.45124 8.1958 3.63419 8.1958C3.81943 8.1958 3.96807 8.34674 3.96807 8.52969Z" fill="#161514"/>
<path d="M10.2571 11.0453C10.2571 11.2306 10.1062 11.3792 9.92325 11.3792C9.73801 11.3792 9.58936 11.2306 9.58936 11.0453C9.58936 10.8624 9.73801 10.7114 9.92325 10.7114C10.1062 10.7114 10.2571 10.8624 10.2571 11.0453Z" fill="#161514"/>
<path d="M7.74151 11.0453C7.74151 11.2306 7.59287 11.3792 7.40763 11.3792C7.22239 11.3792 7.07373 11.2306 7.07373 11.0453C7.07373 10.8624 7.22239 10.7114 7.40763 10.7114C7.59287 10.7114 7.74151 10.8624 7.74151 11.0453Z" fill="#161514"/>
<path d="M5.22589 11.0453C5.22589 11.2306 5.07724 11.3792 4.892 11.3792C4.70905 11.3792 4.55811 11.2306 4.55811 11.0453C4.55811 10.8624 4.70905 10.7114 4.892 10.7114C5.07724 10.7114 5.22589 10.8624 5.22589 11.0453Z" fill="#161514"/>
<path d="M2.71026 11.0453C2.71026 11.2306 2.56162 11.3792 2.37638 11.3792C2.19342 11.3792 2.04248 11.2306 2.04248 11.0453C2.04248 10.8624 2.19342 10.7114 2.37638 10.7114C2.56162 10.7114 2.71026 10.8624 2.71026 11.0453Z" fill="#161514"/>
<path d="M10.2571 9.36905C10.2571 9.552 10.1062 9.70294 9.92325 9.70294C9.73801 9.70294 9.58936 9.552 9.58936 9.36905C9.58936 9.18381 9.73801 9.03516 9.92325 9.03516C10.1062 9.03516 10.2571 9.18381 10.2571 9.36905Z" fill="#161514"/>
<path d="M8.99932 10.2084C8.99932 10.3914 8.85068 10.54 8.66544 10.54C8.4802 10.54 8.33154 10.3914 8.33154 10.2084C8.33154 10.0232 8.4802 9.87451 8.66544 9.87451C8.85068 9.87451 8.99932 10.0232 8.99932 10.2084Z" fill="#161514"/>
<path d="M7.74151 9.36905C7.74151 9.552 7.59287 9.70294 7.40763 9.70294C7.22239 9.70294 7.07373 9.552 7.07373 9.36905C7.07373 9.18381 7.22239 9.03516 7.40763 9.03516C7.59287 9.03516 7.74151 9.18381 7.74151 9.36905Z" fill="#161514"/>
<path d="M6.4837 10.2084C6.4837 10.3914 6.33506 10.54 6.14982 10.54C5.96686 10.54 5.81592 10.3914 5.81592 10.2084C5.81592 10.0232 5.96686 9.87451 6.14982 9.87451C6.33506 9.87451 6.4837 10.0232 6.4837 10.2084Z" fill="#161514"/>
<path d="M5.22589 9.36905C5.22589 9.552 5.07724 9.70294 4.892 9.70294C4.70905 9.70294 4.55811 9.552 4.55811 9.36905C4.55811 9.18381 4.70905 9.03516 4.892 9.03516C5.07724 9.03516 5.22589 9.18381 5.22589 9.36905Z" fill="#161514"/>
<path d="M3.96807 10.2084C3.96807 10.3914 3.81943 10.54 3.63419 10.54C3.45124 10.54 3.30029 10.3914 3.30029 10.2084C3.30029 10.0232 3.45124 9.87451 3.63419 9.87451C3.81943 9.87451 3.96807 10.0232 3.96807 10.2084Z" fill="#161514"/>
<path d="M2.71026 9.36905C2.71026 9.552 2.56162 9.70294 2.37638 9.70294C2.19342 9.70294 2.04248 9.552 2.04248 9.36905C2.04248 9.18381 2.19342 9.03516 2.37638 9.03516C2.56162 9.03516 2.71026 9.18381 2.71026 9.36905Z" fill="#161514"/>
<path d="M10.2571 12.7213C10.2571 12.9065 10.1062 13.0551 9.92325 13.0551C9.73801 13.0551 9.58936 12.9065 9.58936 12.7213C9.58936 12.5383 9.73801 12.3896 9.92325 12.3896C10.1062 12.3896 10.2571 12.5383 10.2571 12.7213Z" fill="#161514"/>
<path d="M7.74151 12.7213C7.74151 12.9065 7.59287 13.0551 7.40763 13.0551C7.22239 13.0551 7.07373 12.9065 7.07373 12.7213C7.07373 12.5383 7.22239 12.3896 7.40763 12.3896C7.59287 12.3896 7.74151 12.5383 7.74151 12.7213Z" fill="#161514"/>
<path d="M5.22589 12.7213C5.22589 12.9065 5.07724 13.0551 4.892 13.0551C4.70905 13.0551 4.55811 12.9065 4.55811 12.7213C4.55811 12.5383 4.70905 12.3896 4.892 12.3896C5.07724 12.3896 5.22589 12.5383 5.22589 12.7213Z" fill="#161514"/>
<path d="M10.2571 11.0448C10.2571 11.2301 10.1062 11.3787 9.92325 11.3787C9.73801 11.3787 9.58936 11.2301 9.58936 11.0448C9.58936 10.8619 9.73801 10.7109 9.92325 10.7109C10.1062 10.7109 10.2571 10.8619 10.2571 11.0448Z" fill="#161514"/>
<path d="M8.99932 11.8842C8.99932 12.0671 8.85068 12.2181 8.66544 12.2181C8.4802 12.2181 8.33154 12.0671 8.33154 11.8842C8.33154 11.6989 8.4802 11.5503 8.66544 11.5503C8.85068 11.5503 8.99932 11.6989 8.99932 11.8842Z" fill="#161514"/>
<path d="M7.74151 11.0448C7.74151 11.2301 7.59287 11.3787 7.40763 11.3787C7.22239 11.3787 7.07373 11.2301 7.07373 11.0448C7.07373 10.8619 7.22239 10.7109 7.40763 10.7109C7.59287 10.7109 7.74151 10.8619 7.74151 11.0448Z" fill="#161514"/>
<path d="M6.4837 11.8842C6.4837 12.0671 6.33506 12.2181 6.14982 12.2181C5.96686 12.2181 5.81592 12.0671 5.81592 11.8842C5.81592 11.6989 5.96686 11.5503 6.14982 11.5503C6.33506 11.5503 6.4837 11.6989 6.4837 11.8842Z" fill="#161514"/>
<path d="M5.22589 11.0448C5.22589 11.2301 5.07724 11.3787 4.892 11.3787C4.70905 11.3787 4.55811 11.2301 4.55811 11.0448C4.55811 10.8619 4.70905 10.7109 4.892 10.7109C5.07724 10.7109 5.22589 10.8619 5.22589 11.0448Z" fill="#161514"/>
<path d="M3.96807 11.8842C3.96807 12.0671 3.81943 12.2181 3.63419 12.2181C3.45124 12.2181 3.30029 12.0671 3.30029 11.8842C3.30029 11.6989 3.45124 11.5503 3.63419 11.5503C3.81943 11.5503 3.96807 11.6989 3.96807 11.8842Z" fill="#161514"/>
<path d="M2.71026 11.0448C2.71026 11.2301 2.56162 11.3787 2.37638 11.3787C2.19342 11.3787 2.04248 11.2301 2.04248 11.0448C2.04248 10.8619 2.19342 10.7109 2.37638 10.7109C2.56162 10.7109 2.71026 10.8619 2.71026 11.0448Z" fill="#161514"/>
<path d="M10.2571 14.3993C10.2571 14.5823 10.1062 14.7332 9.92325 14.7332C9.73801 14.7332 9.58936 14.5823 9.58936 14.3993C9.58936 14.2141 9.73801 14.0654 9.92325 14.0654C10.1062 14.0654 10.2571 14.2141 10.2571 14.3993Z" fill="#161514"/>
<path d="M7.74151 14.3993C7.74151 14.5823 7.59287 14.7332 7.40763 14.7332C7.22239 14.7332 7.07373 14.5823 7.07373 14.3993C7.07373 14.2141 7.22239 14.0654 7.40763 14.0654C7.59287 14.0654 7.74151 14.2141 7.74151 14.3993Z" fill="#161514"/>
<path d="M5.22589 14.3993C5.22589 14.5823 5.07724 14.7332 4.892 14.7332C4.70905 14.7332 4.55811 14.5823 4.55811 14.3993C4.55811 14.2141 4.70905 14.0654 4.892 14.0654C5.07724 14.0654 5.22589 14.2141 5.22589 14.3993Z" fill="#161514"/>
<path d="M10.2571 12.7208C10.2571 12.906 10.1062 13.0547 9.92325 13.0547C9.73801 13.0547 9.58936 12.906 9.58936 12.7208C9.58936 12.5378 9.73801 12.3892 9.92325 12.3892C10.1062 12.3892 10.2571 12.5378 10.2571 12.7208Z" fill="#161514"/>
<path d="M8.99932 13.56C8.99932 13.7452 8.85068 13.8939 8.66544 13.8939C8.4802 13.8939 8.33154 13.7452 8.33154 13.56C8.33154 13.377 8.4802 13.2261 8.66544 13.2261C8.85068 13.2261 8.99932 13.377 8.99932 13.56Z" fill="#161514"/>
<path d="M7.74151 12.7208C7.74151 12.906 7.59287 13.0547 7.40763 13.0547C7.22239 13.0547 7.07373 12.906 7.07373 12.7208C7.07373 12.5378 7.22239 12.3892 7.40763 12.3892C7.59287 12.3892 7.74151 12.5378 7.74151 12.7208Z" fill="#161514"/>
<path d="M6.4837 13.56C6.4837 13.7452 6.33506 13.8939 6.14982 13.8939C5.96686 13.8939 5.81592 13.7452 5.81592 13.56C5.81592 13.377 5.96686 13.2261 6.14982 13.2261C6.33506 13.2261 6.4837 13.377 6.4837 13.56Z" fill="#161514"/>
<path d="M5.22589 12.7208C5.22589 12.906 5.07724 13.0547 4.892 13.0547C4.70905 13.0547 4.55811 12.906 4.55811 12.7208C4.55811 12.5378 4.70905 12.3892 4.892 12.3892C5.07724 12.3892 5.22589 12.5378 5.22589 12.7208Z" fill="#161514"/>
<path d="M3.96807 13.56C3.96807 13.7452 3.81943 13.8939 3.63419 13.8939C3.45124 13.8939 3.30029 13.7452 3.30029 13.56C3.30029 13.377 3.45124 13.2261 3.63419 13.2261C3.81943 13.2261 3.96807 13.377 3.96807 13.56Z" fill="#161514"/>
<path d="M10.2571 16.0766C10.2571 16.2618 10.1062 16.4105 9.92325 16.4105C9.73801 16.4105 9.58936 16.2618 9.58936 16.0766C9.58936 15.8913 9.73801 15.7427 9.92325 15.7427C10.1062 15.7427 10.2571 15.8913 10.2571 16.0766Z" fill="#161514"/>
<path d="M7.74151 16.0766C7.74151 16.2618 7.59287 16.4105 7.40763 16.4105C7.22239 16.4105 7.07373 16.2618 7.07373 16.0766C7.07373 15.8913 7.22239 15.7427 7.40763 15.7427C7.59287 15.7427 7.74151 15.8913 7.74151 16.0766Z" fill="#161514"/>
<path d="M5.22589 16.0766C5.22589 16.2618 5.07724 16.4105 4.892 16.4105C4.70905 16.4105 4.55811 16.2618 4.55811 16.0766C4.55811 15.8913 4.70905 15.7427 4.892 15.7427C5.07724 15.7427 5.22589 15.8913 5.22589 16.0766Z" fill="#161514"/>
<path d="M10.2571 14.4003C10.2571 14.5833 10.1062 14.7342 9.92325 14.7342C9.73801 14.7342 9.58936 14.5833 9.58936 14.4003C9.58936 14.2151 9.73801 14.0664 9.92325 14.0664C10.1062 14.0664 10.2571 14.2151 10.2571 14.4003Z" fill="#161514"/>
<path d="M8.99932 15.2374C8.99932 15.4226 8.85068 15.5713 8.66544 15.5713C8.4802 15.5713 8.33154 15.4226 8.33154 15.2374C8.33154 15.0544 8.4802 14.9058 8.66544 14.9058C8.85068 14.9058 8.99932 15.0544 8.99932 15.2374Z" fill="#161514"/>
<path d="M7.74151 14.4003C7.74151 14.5833 7.59287 14.7342 7.40763 14.7342C7.22239 14.7342 7.07373 14.5833 7.07373 14.4003C7.07373 14.2151 7.22239 14.0664 7.40763 14.0664C7.59287 14.0664 7.74151 14.2151 7.74151 14.4003Z" fill="#161514"/>
<path d="M6.4837 15.2374C6.4837 15.4226 6.33506 15.5713 6.14982 15.5713C5.96686 15.5713 5.81592 15.4226 5.81592 15.2374C5.81592 15.0544 5.96686 14.9058 6.14982 14.9058C6.33506 14.9058 6.4837 15.0544 6.4837 15.2374Z" fill="#161514"/>
<path d="M5.22589 14.4003C5.22589 14.5833 5.07724 14.7342 4.892 14.7342C4.70905 14.7342 4.55811 14.5833 4.55811 14.4003C4.55811 14.2151 4.70905 14.0664 4.892 14.0664C5.07724 14.0664 5.22589 14.2151 5.22589 14.4003Z" fill="#161514"/>
<path d="M3.96807 15.2374C3.96807 15.4226 3.81943 15.5713 3.63419 15.5713C3.45124 15.5713 3.30029 15.4226 3.30029 15.2374C3.30029 15.0544 3.45124 14.9058 3.63419 14.9058C3.81943 14.9058 3.96807 15.0544 3.96807 15.2374Z" fill="#161514"/>
<path d="M10.2571 17.753C10.2571 17.9382 10.1062 18.0869 9.92325 18.0869C9.73801 18.0869 9.58936 17.9382 9.58936 17.753C9.58936 17.57 9.73801 17.4214 9.92325 17.4214C10.1062 17.4214 10.2571 17.57 10.2571 17.753Z" fill="#161514"/>
<path d="M7.74151 17.753C7.74151 17.9382 7.59287 18.0869 7.40763 18.0869C7.22239 18.0869 7.07373 17.9382 7.07373 17.753C7.07373 17.57 7.22239 17.4214 7.40763 17.4214C7.59287 17.4214 7.74151 17.57 7.74151 17.753Z" fill="#161514"/>
<path d="M5.22589 17.753C5.22589 17.9382 5.07724 18.0869 4.892 18.0869C4.70905 18.0869 4.55811 17.9382 4.55811 17.753C4.55811 17.57 4.70905 17.4214 4.892 17.4214C5.07724 17.4214 5.22589 17.57 5.22589 17.753Z" fill="#161514"/>
<path d="M10.2571 16.0766C10.2571 16.2618 10.1062 16.4105 9.92325 16.4105C9.73801 16.4105 9.58936 16.2618 9.58936 16.0766C9.58936 15.8913 9.73801 15.7427 9.92325 15.7427C10.1062 15.7427 10.2571 15.8913 10.2571 16.0766Z" fill="#161514"/>
<path d="M8.99932 16.9159C8.99932 17.0989 8.85068 17.2475 8.66544 17.2475C8.4802 17.2475 8.33154 17.0989 8.33154 16.9159C8.33154 16.7307 8.4802 16.582 8.66544 16.582C8.85068 16.582 8.99932 16.7307 8.99932 16.9159Z" fill="#161514"/>
<path d="M7.74151 16.0766C7.74151 16.2618 7.59287 16.4105 7.40763 16.4105C7.22239 16.4105 7.07373 16.2618 7.07373 16.0766C7.07373 15.8913 7.22239 15.7427 7.40763 15.7427C7.59287 15.7427 7.74151 15.8913 7.74151 16.0766Z" fill="#161514"/>
<path d="M6.4837 16.9159C6.4837 17.0989 6.33506 17.2475 6.14982 17.2475C5.96686 17.2475 5.81592 17.0989 5.81592 16.9159C5.81592 16.7307 5.96686 16.582 6.14982 16.582C6.33506 16.582 6.4837 16.7307 6.4837 16.9159Z" fill="#161514"/>
<path d="M5.22589 16.0766C5.22589 16.2618 5.07724 16.4105 4.892 16.4105C4.70905 16.4105 4.55811 16.2618 4.55811 16.0766C4.55811 15.8913 4.70905 15.7427 4.892 15.7427C5.07724 15.7427 5.22589 15.8913 5.22589 16.0766Z" fill="#161514"/>
<path d="M3.96807 16.9159C3.96807 17.0989 3.81943 17.2475 3.63419 17.2475C3.45124 17.2475 3.30029 17.0989 3.30029 16.9159C3.30029 16.7307 3.45124 16.582 3.63419 16.582C3.81943 16.582 3.96807 16.7307 3.96807 16.9159Z" fill="#161514"/>
<path d="M10.2571 19.4306C10.2571 19.6135 10.1062 19.7622 9.92325 19.7622C9.73801 19.7622 9.58936 19.6135 9.58936 19.4306C9.58936 19.2453 9.73801 19.0967 9.92325 19.0967C10.1062 19.0967 10.2571 19.2453 10.2571 19.4306Z" fill="#161514"/>
<path d="M7.74151 19.4306C7.74151 19.6135 7.59287 19.7622 7.40763 19.7622C7.22239 19.7622 7.07373 19.6135 7.07373 19.4306C7.07373 19.2453 7.22239 19.0967 7.40763 19.0967C7.59287 19.0967 7.74151 19.2453 7.74151 19.4306Z" fill="#161514"/>
<path d="M5.22589 19.4306C5.22589 19.6135 5.07724 19.7622 4.892 19.7622C4.70905 19.7622 4.55811 19.6135 4.55811 19.4306C4.55811 19.2453 4.70905 19.0967 4.892 19.0967C5.07724 19.0967 5.22589 19.2453 5.22589 19.4306Z" fill="#161514"/>
<path d="M10.2571 17.752C10.2571 17.9373 10.1062 18.0859 9.92325 18.0859C9.73801 18.0859 9.58936 17.9373 9.58936 17.752C9.58936 17.5691 9.73801 17.4204 9.92325 17.4204C10.1062 17.4204 10.2571 17.5691 10.2571 17.752Z" fill="#161514"/>
<path d="M8.99932 18.5912C8.99932 18.7742 8.85068 18.9251 8.66544 18.9251C8.4802 18.9251 8.33154 18.7742 8.33154 18.5912C8.33154 18.406 8.4802 18.2573 8.66544 18.2573C8.85068 18.2573 8.99932 18.406 8.99932 18.5912Z" fill="#161514"/>
<path d="M7.74151 17.752C7.74151 17.9373 7.59287 18.0859 7.40763 18.0859C7.22239 18.0859 7.07373 17.9373 7.07373 17.752C7.07373 17.5691 7.22239 17.4204 7.40763 17.4204C7.59287 17.4204 7.74151 17.5691 7.74151 17.752Z" fill="#161514"/>
<path d="M6.4837 18.5912C6.4837 18.7742 6.33506 18.9251 6.14982 18.9251C5.96686 18.9251 5.81592 18.7742 5.81592 18.5912C5.81592 18.406 5.96686 18.2573 6.14982 18.2573C6.33506 18.2573 6.4837 18.406 6.4837 18.5912Z" fill="#161514"/>
<path d="M5.22589 17.752C5.22589 17.9373 5.07724 18.0859 4.892 18.0859C4.70905 18.0859 4.55811 17.9373 4.55811 17.752C4.55811 17.5691 4.70905 17.4204 4.892 17.4204C5.07724 17.4204 5.22589 17.5691 5.22589 17.752Z" fill="#161514"/>
<path d="M3.96807 18.5912C3.96807 18.7742 3.81943 18.9251 3.63419 18.9251C3.45124 18.9251 3.30029 18.7742 3.30029 18.5912C3.30029 18.406 3.45124 18.2573 3.63419 18.2573C3.81943 18.2573 3.96807 18.406 3.96807 18.5912Z" fill="#161514"/>
<path d="M10.2571 21.1078C10.2571 21.2908 10.1062 21.4417 9.92325 21.4417C9.73801 21.4417 9.58936 21.2908 9.58936 21.1078C9.58936 20.9226 9.73801 20.7739 9.92325 20.7739C10.1062 20.7739 10.2571 20.9226 10.2571 21.1078Z" fill="#161514"/>
<path d="M7.74151 21.1078C7.74151 21.2908 7.59287 21.4417 7.40763 21.4417C7.22239 21.4417 7.07373 21.2908 7.07373 21.1078C7.07373 20.9226 7.22239 20.7739 7.40763 20.7739C7.59287 20.7739 7.74151 20.9226 7.74151 21.1078Z" fill="#161514"/>
<path d="M5.22589 21.1078C5.22589 21.2908 5.07724 21.4417 4.892 21.4417C4.70905 21.4417 4.55811 21.2908 4.55811 21.1078C4.55811 20.9226 4.70905 20.7739 4.892 20.7739C5.07724 20.7739 5.22589 20.9226 5.22589 21.1078Z" fill="#161514"/>
<path d="M10.2571 19.4315C10.2571 19.6145 10.1062 19.7631 9.92325 19.7631C9.73801 19.7631 9.58936 19.6145 9.58936 19.4315C9.58936 19.2463 9.73801 19.0977 9.92325 19.0977C10.1062 19.0977 10.2571 19.2463 10.2571 19.4315Z" fill="#161514"/>
<path d="M8.99932 20.2685C8.99932 20.4537 8.85068 20.6024 8.66544 20.6024C8.4802 20.6024 8.33154 20.4537 8.33154 20.2685C8.33154 20.0855 8.4802 19.9346 8.66544 19.9346C8.85068 19.9346 8.99932 20.0855 8.99932 20.2685Z" fill="#161514"/>
<path d="M7.74151 19.4315C7.74151 19.6145 7.59287 19.7631 7.40763 19.7631C7.22239 19.7631 7.07373 19.6145 7.07373 19.4315C7.07373 19.2463 7.22239 19.0977 7.40763 19.0977C7.59287 19.0977 7.74151 19.2463 7.74151 19.4315Z" fill="#161514"/>
<path d="M6.4837 20.2685C6.4837 20.4537 6.33506 20.6024 6.14982 20.6024C5.96686 20.6024 5.81592 20.4537 5.81592 20.2685C5.81592 20.0855 5.96686 19.9346 6.14982 19.9346C6.33506 19.9346 6.4837 20.0855 6.4837 20.2685Z" fill="#161514"/>
<path d="M5.22589 19.4315C5.22589 19.6145 5.07724 19.7631 4.892 19.7631C4.70905 19.7631 4.55811 19.6145 4.55811 19.4315C4.55811 19.2463 4.70905 19.0977 4.892 19.0977C5.07724 19.0977 5.22589 19.2463 5.22589 19.4315Z" fill="#161514"/>
<path d="M3.96807 20.2685C3.96807 20.4537 3.81943 20.6024 3.63419 20.6024C3.45124 20.6024 3.30029 20.4537 3.30029 20.2685C3.30029 20.0855 3.45124 19.9346 3.63419 19.9346C3.81943 19.9346 3.96807 20.0855 3.96807 20.2685Z" fill="#161514"/>
<path d="M10.2571 22.7841C10.2571 22.9693 10.1062 23.118 9.92325 23.118C9.73801 23.118 9.58936 22.9693 9.58936 22.7841C9.58936 22.6011 9.73801 22.4502 9.92325 22.4502C10.1062 22.4502 10.2571 22.6011 10.2571 22.7841Z" fill="#161514"/>
<path d="M7.74151 22.7841C7.74151 22.9693 7.59287 23.118 7.40763 23.118C7.22239 23.118 7.07373 22.9693 7.07373 22.7841C7.07373 22.6011 7.22239 22.4502 7.40763 22.4502C7.59287 22.4502 7.74151 22.6011 7.74151 22.7841Z" fill="#161514"/>
<path d="M5.22589 22.7841C5.22589 22.9693 5.07724 23.118 4.892 23.118C4.70905 23.118 4.55811 22.9693 4.55811 22.7841C4.55811 22.6011 4.70905 22.4502 4.892 22.4502C5.07724 22.4502 5.22589 22.6011 5.22589 22.7841Z" fill="#161514"/>
<path d="M10.2571 21.1078C10.2571 21.2908 10.1062 21.4417 9.92325 21.4417C9.73801 21.4417 9.58936 21.2908 9.58936 21.1078C9.58936 20.9226 9.73801 20.7739 9.92325 20.7739C10.1062 20.7739 10.2571 20.9226 10.2571 21.1078Z" fill="#161514"/>
<path d="M8.99932 21.9472C8.99932 22.1301 8.85068 22.2788 8.66544 22.2788C8.4802 22.2788 8.33154 22.1301 8.33154 21.9472C8.33154 21.7619 8.4802 21.6133 8.66544 21.6133C8.85068 21.6133 8.99932 21.7619 8.99932 21.9472Z" fill="#161514"/>
<path d="M7.74151 21.1078C7.74151 21.2908 7.59287 21.4417 7.40763 21.4417C7.22239 21.4417 7.07373 21.2908 7.07373 21.1078C7.07373 20.9226 7.22239 20.7739 7.40763 20.7739C7.59287 20.7739 7.74151 20.9226 7.74151 21.1078Z" fill="#161514"/>
<path d="M6.4837 21.9472C6.4837 22.1301 6.33506 22.2788 6.14982 22.2788C5.96686 22.2788 5.81592 22.1301 5.81592 21.9472C5.81592 21.7619 5.96686 21.6133 6.14982 21.6133C6.33506 21.6133 6.4837 21.7619 6.4837 21.9472Z" fill="#161514"/>
<path d="M5.22589 21.1078C5.22589 21.2908 5.07724 21.4417 4.892 21.4417C4.70905 21.4417 4.55811 21.2908 4.55811 21.1078C4.55811 20.9226 4.70905 20.7739 4.892 20.7739C5.07724 20.7739 5.22589 20.9226 5.22589 21.1078Z" fill="#161514"/>
<path d="M10.2571 24.4605C10.2571 24.6457 10.1062 24.7944 9.92325 24.7944C9.73801 24.7944 9.58936 24.6457 9.58936 24.4605C9.58936 24.2776 9.73801 24.1289 9.92325 24.1289C10.1062 24.1289 10.2571 24.2776 10.2571 24.4605Z" fill="#161514"/>
<path d="M7.74151 24.4605C7.74151 24.6457 7.59287 24.7944 7.40763 24.7944C7.22239 24.7944 7.07373 24.6457 7.07373 24.4605C7.07373 24.2776 7.22239 24.1289 7.40763 24.1289C7.59287 24.1289 7.74151 24.2776 7.74151 24.4605Z" fill="#161514"/>
<path d="M5.22589 24.4605C5.22589 24.6457 5.07724 24.7944 4.892 24.7944C4.70905 24.7944 4.55811 24.6457 4.55811 24.4605C4.55811 24.2776 4.70905 24.1289 4.892 24.1289C5.07724 24.1289 5.22589 24.2776 5.22589 24.4605Z" fill="#161514"/>
<path d="M10.2571 22.7841C10.2571 22.9693 10.1062 23.118 9.92325 23.118C9.73801 23.118 9.58936 22.9693 9.58936 22.7841C9.58936 22.6011 9.73801 22.4502 9.92325 22.4502C10.1062 22.4502 10.2571 22.6011 10.2571 22.7841Z" fill="#161514"/>
<path d="M8.99932 23.6234C8.99932 23.8064 8.85068 23.9573 8.66544 23.9573C8.4802 23.9573 8.33154 23.8064 8.33154 23.6234C8.33154 23.4382 8.4802 23.2896 8.66544 23.2896C8.85068 23.2896 8.99932 23.4382 8.99932 23.6234Z" fill="#161514"/>
<path d="M7.74151 22.7841C7.74151 22.9693 7.59287 23.118 7.40763 23.118C7.22239 23.118 7.07373 22.9693 7.07373 22.7841C7.07373 22.6011 7.22239 22.4502 7.40763 22.4502C7.59287 22.4502 7.74151 22.6011 7.74151 22.7841Z" fill="#161514"/>
<path d="M6.4837 23.6234C6.4837 23.8064 6.33506 23.9573 6.14982 23.9573C5.96686 23.9573 5.81592 23.8064 5.81592 23.6234C5.81592 23.4382 5.96686 23.2896 6.14982 23.2896C6.33506 23.2896 6.4837 23.4382 6.4837 23.6234Z" fill="#161514"/>
<path d="M5.22589 22.7841C5.22589 22.9693 5.07724 23.118 4.892 23.118C4.70905 23.118 4.55811 22.9693 4.55811 22.7841C4.55811 22.6011 4.70905 22.4502 4.892 22.4502C5.07724 22.4502 5.22589 22.6011 5.22589 22.7841Z" fill="#161514"/>
<path d="M10.2571 26.1391C10.2571 26.322 10.1062 26.473 9.92325 26.473C9.73801 26.473 9.58936 26.322 9.58936 26.1391C9.58936 25.9538 9.73801 25.8052 9.92325 25.8052C10.1062 25.8052 10.2571 25.9538 10.2571 26.1391Z" fill="#161514"/>
<path d="M7.74151 26.1391C7.74151 26.322 7.59287 26.473 7.40763 26.473C7.22239 26.473 7.07373 26.322 7.07373 26.1391C7.07373 25.9538 7.22239 25.8052 7.40763 25.8052C7.59287 25.8052 7.74151 25.9538 7.74151 26.1391Z" fill="#161514"/>
<path d="M5.22589 26.1391C5.22589 26.322 5.07724 26.473 4.892 26.473C4.70905 26.473 4.55811 26.322 4.55811 26.1391C4.55811 25.9538 4.70905 25.8052 4.892 25.8052C5.07724 25.8052 5.22589 25.9538 5.22589 26.1391Z" fill="#161514"/>
<path d="M10.2571 24.4605C10.2571 24.6457 10.1062 24.7944 9.92325 24.7944C9.73801 24.7944 9.58936 24.6457 9.58936 24.4605C9.58936 24.2776 9.73801 24.1289 9.92325 24.1289C10.1062 24.1289 10.2571 24.2776 10.2571 24.4605Z" fill="#161514"/>
<path d="M8.99932 25.2997C8.99932 25.485 8.85068 25.6336 8.66544 25.6336C8.4802 25.6336 8.33154 25.485 8.33154 25.2997C8.33154 25.1168 8.4802 24.9658 8.66544 24.9658C8.85068 24.9658 8.99932 25.1168 8.99932 25.2997Z" fill="#161514"/>
<path d="M7.74151 24.4605C7.74151 24.6457 7.59287 24.7944 7.40763 24.7944C7.22239 24.7944 7.07373 24.6457 7.07373 24.4605C7.07373 24.2776 7.22239 24.1289 7.40763 24.1289C7.59287 24.1289 7.74151 24.2776 7.74151 24.4605Z" fill="#161514"/>
<path d="M6.4837 25.2997C6.4837 25.485 6.33506 25.6336 6.14982 25.6336C5.96686 25.6336 5.81592 25.485 5.81592 25.2997C5.81592 25.1168 5.96686 24.9658 6.14982 24.9658C6.33506 24.9658 6.4837 25.1168 6.4837 25.2997Z" fill="#161514"/>
<path d="M5.22589 24.4605C5.22589 24.6457 5.07724 24.7944 4.892 24.7944C4.70905 24.7944 4.55811 24.6457 4.55811 24.4605C4.55811 24.2776 4.70905 24.1289 4.892 24.1289C5.07724 24.1289 5.22589 24.2776 5.22589 24.4605Z" fill="#161514"/>
<path d="M10.2571 27.8149C10.2571 28.0001 10.1062 28.1488 9.92325 28.1488C9.73801 28.1488 9.58936 28.0001 9.58936 27.8149C9.58936 27.6296 9.73801 27.481 9.92325 27.481C10.1062 27.481 10.2571 27.6296 10.2571 27.8149Z" fill="#161514"/>
<path d="M7.74151 27.8149C7.74151 28.0001 7.59287 28.1488 7.40763 28.1488C7.22239 28.1488 7.07373 28.0001 7.07373 27.8149C7.07373 27.6296 7.22239 27.481 7.40763 27.481C7.59287 27.481 7.74151 27.6296 7.74151 27.8149Z" fill="#161514"/>
<path d="M5.22589 27.8149C5.22589 28.0001 5.07724 28.1488 4.892 28.1488C4.70905 28.1488 4.55811 28.0001 4.55811 27.8149C4.55811 27.6296 4.70905 27.481 4.892 27.481C5.07724 27.481 5.22589 27.6296 5.22589 27.8149Z" fill="#161514"/>
<path d="M10.2571 26.1386C10.2571 26.3215 10.1062 26.4725 9.92325 26.4725C9.73801 26.4725 9.58936 26.3215 9.58936 26.1386C9.58936 25.9533 9.73801 25.8047 9.92325 25.8047C10.1062 25.8047 10.2571 25.9533 10.2571 26.1386Z" fill="#161514"/>
<path d="M8.99932 26.9756C8.99932 27.1609 8.85068 27.3095 8.66544 27.3095C8.4802 27.3095 8.33154 27.1609 8.33154 26.9756C8.33154 26.7927 8.4802 26.644 8.66544 26.644C8.85068 26.644 8.99932 26.7927 8.99932 26.9756Z" fill="#161514"/>
<path d="M7.74151 26.1386C7.74151 26.3215 7.59287 26.4725 7.40763 26.4725C7.22239 26.4725 7.07373 26.3215 7.07373 26.1386C7.07373 25.9533 7.22239 25.8047 7.40763 25.8047C7.59287 25.8047 7.74151 25.9533 7.74151 26.1386Z" fill="#161514"/>
<path d="M6.4837 26.9756C6.4837 27.1609 6.33506 27.3095 6.14982 27.3095C5.96686 27.3095 5.81592 27.1609 5.81592 26.9756C5.81592 26.7927 5.96686 26.644 6.14982 26.644C6.33506 26.644 6.4837 26.7927 6.4837 26.9756Z" fill="#161514"/>
<path d="M5.22589 26.1386C5.22589 26.3215 5.07724 26.4725 4.892 26.4725C4.70905 26.4725 4.55811 26.3215 4.55811 26.1386C4.55811 25.9533 4.70905 25.8047 4.892 25.8047C5.07724 25.8047 5.22589 25.9533 5.22589 26.1386Z" fill="#161514"/>
<path d="M10.2571 29.4916C10.2571 29.6769 10.1062 29.8255 9.92325 29.8255C9.73801 29.8255 9.58936 29.6769 9.58936 29.4916C9.58936 29.3087 9.73801 29.1577 9.92325 29.1577C10.1062 29.1577 10.2571 29.3087 10.2571 29.4916Z" fill="#161514"/>
<path d="M7.74151 29.4916C7.74151 29.6769 7.59287 29.8255 7.40763 29.8255C7.22239 29.8255 7.07373 29.6769 7.07373 29.4916C7.07373 29.3087 7.22239 29.1577 7.40763 29.1577C7.59287 29.1577 7.74151 29.3087 7.74151 29.4916Z" fill="#161514"/>
<path d="M10.2571 27.8153C10.2571 28.0006 10.1062 28.1492 9.92325 28.1492C9.73801 28.1492 9.58936 28.0006 9.58936 27.8153C9.58936 27.6301 9.73801 27.4814 9.92325 27.4814C10.1062 27.4814 10.2571 27.6301 10.2571 27.8153Z" fill="#161514"/>
<path d="M8.99932 28.6547C8.99932 28.8376 8.85068 28.9863 8.66544 28.9863C8.4802 28.9863 8.33154 28.8376 8.33154 28.6547C8.33154 28.4694 8.4802 28.3208 8.66544 28.3208C8.85068 28.3208 8.99932 28.4694 8.99932 28.6547Z" fill="#161514"/>
<path d="M7.74151 27.8153C7.74151 28.0006 7.59287 28.1492 7.40763 28.1492C7.22239 28.1492 7.07373 28.0006 7.07373 27.8153C7.07373 27.6301 7.22239 27.4814 7.40763 27.4814C7.59287 27.4814 7.74151 27.6301 7.74151 27.8153Z" fill="#161514"/>
<path d="M6.4837 28.6547C6.4837 28.8376 6.33506 28.9863 6.14982 28.9863C5.96686 28.9863 5.81592 28.8376 5.81592 28.6547C5.81592 28.4694 5.96686 28.3208 6.14982 28.3208C6.33506 28.3208 6.4837 28.4694 6.4837 28.6547Z" fill="#161514"/>
<path d="M5.22589 27.8153C5.22589 28.0006 5.07724 28.1492 4.892 28.1492C4.70905 28.1492 4.55811 28.0006 4.55811 27.8153C4.55811 27.6301 4.70905 27.4814 4.892 27.4814C5.07724 27.4814 5.22589 27.6301 5.22589 27.8153Z" fill="#161514"/>
<path d="M10.2571 29.4916C10.2571 29.6769 10.1062 29.8255 9.92325 29.8255C9.73801 29.8255 9.58936 29.6769 9.58936 29.4916C9.58936 29.3087 9.73801 29.1577 9.92325 29.1577C10.1062 29.1577 10.2571 29.3087 10.2571 29.4916Z" fill="#161514"/>
<path d="M7.74151 29.4916C7.74151 29.6769 7.59287 29.8255 7.40763 29.8255C7.22239 29.8255 7.07373 29.6769 7.07373 29.4916C7.07373 29.3087 7.22239 29.1577 7.40763 29.1577C7.59287 29.1577 7.74151 29.3087 7.74151 29.4916Z" fill="#161514"/>
<path d="M1.70233 8.31815L1.70235 8.31831L4.15597 28.2285C4.17104 28.6433 4.47537 28.9728 4.93643 29.2328C5.39974 29.494 6.03398 29.6928 6.73568 29.842C8.1399 30.1406 9.82857 30.2436 10.9981 30.2436C12.1676 30.2436 13.8562 30.1406 15.2604 29.842C15.9622 29.6928 16.5964 29.494 17.0597 29.2328C17.5207 28.9728 17.8251 28.6433 17.8401 28.2285L20.2961 8.31831L20.2961 8.31815C20.3115 8.18955 20.2704 8.0589 20.1858 7.96152L20.1858 7.96152L20.1853 7.96096C20.0979 7.86323 19.9745 7.80937 19.8439 7.80937H2.15219C2.02435 7.80937 1.89833 7.86294 1.81282 7.96124C1.72522 8.0593 1.68699 8.1903 1.70233 8.31815ZM5.06036 28.1397L2.66612 8.71666H19.33L16.9358 28.1397C16.9357 28.1399 16.9357 28.14 16.9357 28.1402C16.933 28.1596 16.933 28.1785 16.933 28.1936V28.1948C16.933 28.2145 16.9159 28.2525 16.8526 28.3072C16.7921 28.3595 16.6991 28.4186 16.5723 28.4815C16.3193 28.6071 15.9393 28.7439 15.4362 28.8704C14.4306 29.1234 12.9385 29.334 10.9981 29.334C9.05759 29.334 7.56553 29.1234 6.55988 28.8704C6.05682 28.7439 5.67687 28.6071 5.42379 28.4815C5.29703 28.4186 5.20404 28.3595 5.14355 28.3072C5.08022 28.2525 5.06315 28.2145 5.06315 28.1948V28.1936C5.06315 28.1785 5.06315 28.1596 5.06043 28.1402C5.06041 28.1401 5.06038 28.1399 5.06036 28.1397Z" fill="#161514" stroke="black" stroke-width="0.1"/>
<path d="M0.95 2.19034C0.95 2.4551 1.10345 2.68164 1.35749 2.87418C1.61139 3.06661 1.97209 3.23031 2.40306 3.37028C3.26557 3.65042 4.42368 3.83995 5.61052 3.9684C7.98513 4.22541 10.487 4.23912 10.9985 4.23912C11.5112 4.23912 14.013 4.22541 16.3873 3.9684C17.574 3.83995 18.7319 3.65042 19.5942 3.37028C20.0251 3.2303 20.3857 3.06661 20.6396 2.87418C20.8936 2.68163 21.047 2.4551 21.047 2.19034C21.047 1.92584 20.8935 1.69955 20.6395 1.50724C20.3857 1.31503 20.0251 1.15153 19.5942 1.01171C18.7319 0.731901 17.574 0.54259 16.3873 0.414279C14.013 0.157558 11.5112 0.143848 10.9985 0.143848C10.487 0.143848 7.98514 0.157558 5.61052 0.414279C4.42368 0.542589 3.26558 0.731901 2.40308 1.01171C1.97211 1.15152 1.61141 1.31502 1.35751 1.50723C1.10348 1.69954 0.95 1.92583 0.95 2.19034ZM10.9985 3.32955C8.1499 3.32955 5.97087 3.13986 4.4506 2.8968C3.69038 2.77525 3.09562 2.64048 2.66459 2.50969C2.44903 2.44428 2.27517 2.3801 2.14238 2.3194C2.04069 2.27292 1.96525 2.22946 1.91384 2.19044C1.96526 2.1516 2.04069 2.10829 2.14233 2.06195C2.27515 2.0014 2.44902 1.93731 2.66457 1.87196C3.09562 1.74127 3.69039 1.60642 4.45061 1.48474C5.97088 1.24139 8.14991 1.05114 10.9985 1.05114C13.8471 1.05114 16.0261 1.24139 17.5464 1.48474C18.3066 1.60642 18.9014 1.74127 19.3324 1.87196C19.548 1.93731 19.7218 2.0014 19.8546 2.06195C19.9563 2.10829 20.0317 2.1516 20.0831 2.19044C20.0317 2.22946 19.9563 2.27293 19.8546 2.3194C19.7218 2.3801 19.5479 2.44428 19.3324 2.50969C18.9014 2.64048 18.3066 2.77525 17.5464 2.8968C16.0261 3.13986 13.8471 3.32955 10.9985 3.32955Z" fill="#161514" stroke="black" stroke-width="0.1"/>
<path d="M4.15605 28.195C4.15605 28.6171 4.45338 28.9527 4.91207 29.2173C5.37199 29.4826 6.00674 29.6844 6.71088 29.8359C8.12002 30.139 9.82189 30.2438 10.9983 30.2438C12.1758 30.2438 13.8782 30.139 15.2876 29.8359C15.9919 29.6844 16.6267 29.4826 17.0867 29.2173C17.5454 28.9527 17.8427 28.6171 17.8427 28.195C17.8427 27.9452 17.637 27.7425 17.388 27.7425C17.1364 27.7425 16.9332 27.9454 16.9332 28.195C16.9332 28.2147 16.9161 28.2527 16.8528 28.3074C16.7923 28.3597 16.6993 28.4188 16.5725 28.4817C16.3194 28.6072 15.9395 28.744 15.4364 28.8706C14.4308 29.1236 12.9387 29.3342 10.9983 29.3342C9.05777 29.3342 7.56571 29.1236 6.56007 28.8706C6.05701 28.744 5.67706 28.6072 5.42398 28.4817C5.29722 28.4188 5.20423 28.3597 5.14373 28.3074C5.08041 28.2527 5.06334 28.2147 5.06334 28.195C5.06334 27.9454 4.86011 27.7425 4.60856 27.7425C4.35911 27.7425 4.15605 27.9455 4.15605 28.195Z" fill="#161514" stroke="black" stroke-width="0.1"/>
<path d="M1.34777 1.7406L1.34789 1.74058C1.59934 1.70979 1.82558 1.88698 1.85642 2.13626L1.85642 2.13629L5.0604 28.141C5.0604 28.141 5.0604 28.141 5.0604 28.141C5.09122 28.3903 4.91403 28.6162 4.6652 28.6472C4.6458 28.65 4.62688 28.65 4.60981 28.65H4.60829C4.38223 28.65 4.18675 28.4829 4.15845 28.2516L1.34777 1.7406ZM1.34777 1.7406C1.10086 1.77146 0.923637 1.99764 0.954453 2.24685C0.954454 2.24686 0.954455 2.24687 0.954456 2.24688L4.15845 28.2515L1.34777 1.7406Z" fill="#161514" stroke="black" stroke-width="0.1"/>
<path d="M20.9945 2.24074L21.0441 2.24685C21.075 1.99747 20.8975 1.7714 20.6485 1.74059L20.6484 1.74058C20.3972 1.70982 20.1706 1.88683 20.1421 2.13653L20.1422 2.13628L20.1918 2.1424C20.217 1.92057 20.4182 1.76277 20.6423 1.79021C20.8642 1.81765 21.022 2.0189 20.9945 2.24074ZM20.9945 2.24074L21.0441 2.24687M20.9945 2.24074L17.7882 28.2455M21.0441 2.24687L16.9855 28.1471C16.9581 28.369 17.1159 28.5702 17.3377 28.5977C17.356 28.6 17.372 28.6 17.388 28.6C17.5893 28.6 17.7631 28.4513 17.7882 28.2455M21.0441 2.24687L17.8379 28.2515M21.0441 2.24687L17.8379 28.2515M17.7882 28.2455L17.8379 28.2515M17.7882 28.2455L17.8379 28.2515M16.9359 28.141L20.1421 2.13677L16.9359 28.141ZM16.9359 28.141C16.9359 28.141 16.9359 28.141 16.9359 28.141C16.9051 28.3904 17.0825 28.6164 17.3315 28.6473C17.3529 28.65 17.3716 28.65 17.3872 28.65H17.388C17.6141 28.65 17.8096 28.4829 17.8379 28.2516L16.9359 28.141Z" fill="#161514" stroke="black" stroke-width="0.1"/>
</svg>
