<svg width="80" height="80" viewBox="0 0 80 80" fill="none" xmlns="http://www.w3.org/2000/svg">
<rect width="80" height="80" rx="40" fill="#EAEBE5"/>
<rect x="27" y="26" width="27" height="27" rx="13.5" fill="#C1DEBA"/>
<path fill-rule="evenodd" clip-rule="evenodd" d="M40 54C32.268 54 26 47.732 26 40C26 32.268 32.268 26 40 26C47.732 26 54 32.268 54 40C54 47.732 47.732 54 40 54ZM40 52.7826C47.0596 52.7826 52.7826 47.0597 52.7826 40C52.7826 32.9404 47.0596 27.2174 40 27.2174C32.9403 27.2174 27.2174 32.9404 27.2174 40C27.2174 47.0597 32.9403 52.7826 40 52.7826ZM35.7391 38.7826C36.7477 38.7826 37.5652 37.965 37.5652 36.9565C37.5652 35.948 36.7477 35.1304 35.7391 35.1304C34.7306 35.1304 33.9131 35.948 33.9131 36.9565C33.9131 37.965 34.7306 38.7826 35.7391 38.7826ZM46.087 36.9565C46.087 37.965 45.2694 38.7826 44.2609 38.7826C43.2524 38.7826 42.4348 37.965 42.4348 36.9565C42.4348 35.948 43.2524 35.1304 44.2609 35.1304C45.2694 35.1304 46.087 35.948 46.087 36.9565ZM34.2797 43.7749L33.5466 44.7468C35.7973 46.4445 38.006 47.3043 40.1677 47.3043C42.3385 47.3043 44.4467 46.4372 46.479 44.7265L45.6951 43.7952C43.8705 45.3309 42.0325 46.0869 40.1677 46.0869C38.2938 46.0869 36.3328 45.3236 34.2797 43.7749Z" fill="#161514"/>
</svg>
