<svg width="104" height="104" viewBox="0 0 104 104" fill="none" xmlns="http://www.w3.org/2000/svg">
<rect width="104" height="104" rx="52" fill="white"/>
<circle cx="52" cy="52" r="16" fill="#C1DEBA"/>
<path fill-rule="evenodd" clip-rule="evenodd" d="M51.9981 68.1793C43.0634 68.1793 35.8203 60.9362 35.8203 52.0015C35.8203 43.0668 43.0634 35.8237 51.9981 35.8237C60.9328 35.8237 68.1759 43.0668 68.1759 52.0015C68.1759 60.9362 60.9328 68.1793 51.9981 68.1793ZM51.9976 66.771C60.1554 66.771 66.7686 60.1578 66.7686 52C66.7686 43.8422 60.1554 37.229 51.9976 37.229C43.8398 37.229 37.2266 43.8422 37.2266 52C37.2266 60.1578 43.8398 66.771 51.9976 66.771ZM47.075 50.5938C48.2404 50.5938 49.1851 49.6491 49.1851 48.4837C49.1851 47.3183 48.2404 46.3735 47.075 46.3735C45.9096 46.3735 44.9648 47.3183 44.9648 48.4837C44.9648 49.6491 45.9096 50.5938 47.075 50.5938ZM59.0328 48.4837C59.0328 49.6491 58.088 50.5938 56.9226 50.5938C55.7572 50.5938 54.8125 49.6491 54.8125 48.4837C54.8125 47.3183 55.7572 46.3735 56.9226 46.3735C58.088 46.3735 59.0328 47.3183 59.0328 48.4837ZM45.3901 56.3638L44.543 57.4869C47.1438 59.4486 49.6961 60.4422 52.1941 60.4422C54.7026 60.4422 57.1387 59.4402 59.4871 57.4634L58.5812 56.3872C56.4729 58.1618 54.3489 59.0355 52.1941 59.0355C50.0286 59.0355 47.7626 58.1534 45.3901 56.3638Z" fill="#6C6864"/>
</svg>
