<svg width="14" height="33" viewBox="0 0 14 33" fill="none" xmlns="http://www.w3.org/2000/svg">
<mask id="path-1-inside-1_762_4682" fill="white">
<path d="M1.02492 25.8487L1.02492 6.6698C1.02492 5.03882 1.67282 3.47463 2.8261 2.32135C3.97939 1.16807 5.54358 0.520142 7.17457 0.520142C8.80556 0.520142 10.3697 1.16807 11.523 2.32135C12.6763 3.47463 13.3242 5.03882 13.3242 6.6698L13.3242 25.8487C13.3242 27.4797 12.6763 29.0439 11.523 30.1971C10.3697 31.3504 8.80556 31.9984 7.17457 31.9984C5.54358 31.9984 3.97939 31.3504 2.8261 30.1971C1.67282 29.0439 1.02492 27.4797 1.02492 25.8487ZM12.562 6.6698C12.562 5.24212 11.9948 3.87289 10.9853 2.86337C9.97577 1.85384 8.60655 1.28671 7.17887 1.28671C5.75118 1.28671 4.38197 1.85384 3.37244 2.86337C2.36292 3.87289 1.79577 5.24212 1.79577 6.6698L1.79577 25.8487C1.79577 27.2764 2.36292 28.6456 3.37244 29.6551C4.38197 30.6647 5.75118 31.2318 7.17887 31.2318C8.60655 31.2318 9.97577 30.6647 10.9853 29.6551C11.9948 28.6456 12.562 27.2764 12.562 25.8487L12.562 6.6698Z"/>
</mask>
<path d="M1.02492 25.8487L1.02492 6.6698C1.02492 5.03882 1.67282 3.47463 2.8261 2.32135C3.97939 1.16807 5.54358 0.520142 7.17457 0.520142C8.80556 0.520142 10.3697 1.16807 11.523 2.32135C12.6763 3.47463 13.3242 5.03882 13.3242 6.6698L13.3242 25.8487C13.3242 27.4797 12.6763 29.0439 11.523 30.1971C10.3697 31.3504 8.80556 31.9984 7.17457 31.9984C5.54358 31.9984 3.97939 31.3504 2.8261 30.1971C1.67282 29.0439 1.02492 27.4797 1.02492 25.8487ZM12.562 6.6698C12.562 5.24212 11.9948 3.87289 10.9853 2.86337C9.97577 1.85384 8.60655 1.28671 7.17887 1.28671C5.75118 1.28671 4.38197 1.85384 3.37244 2.86337C2.36292 3.87289 1.79577 5.24212 1.79577 6.6698L1.79577 25.8487C1.79577 27.2764 2.36292 28.6456 3.37244 29.6551C4.38197 30.6647 5.75118 31.2318 7.17887 31.2318C8.60655 31.2318 9.97577 30.6647 10.9853 29.6551C11.9948 28.6456 12.562 27.2764 12.562 25.8487L12.562 6.6698Z" fill="white"/>
<path d="M1.02492 25.8487H0.0249203H1.02492ZM1.02492 6.6698H0.0249203H1.02492ZM13.3242 6.6698H14.3242H13.3242ZM2.02492 25.8487L2.02492 6.6698H0.0249203L0.0249203 25.8487H2.02492ZM2.02492 6.6698C2.02492 5.30403 2.56746 3.9942 3.53321 3.02846L2.119 1.61424C0.778174 2.95506 0.0249203 4.7736 0.0249203 6.6698H2.02492ZM3.53321 3.02846C4.49896 2.06271 5.8088 1.52014 7.17457 1.52014V-0.479858C5.27836 -0.479858 3.45981 0.273428 2.119 1.61424L3.53321 3.02846ZM7.17457 1.52014C8.54033 1.52014 9.85016 2.0627 10.8159 3.02846L12.2301 1.61424C10.8893 0.27343 9.07078 -0.479858 7.17457 -0.479858V1.52014ZM10.8159 3.02846C11.7817 3.99421 12.3242 5.30403 12.3242 6.6698H14.3242C14.3242 4.7736 13.5709 2.95506 12.2301 1.61424L10.8159 3.02846ZM12.3242 6.6698L12.3242 25.8487H14.3242L14.3242 6.6698H12.3242ZM12.3242 25.8487C12.3242 27.2145 11.7817 28.5243 10.8159 29.49L12.2301 30.9043C13.5709 29.5634 14.3242 27.7449 14.3242 25.8487H12.3242ZM10.8159 29.49C9.85016 30.4558 8.54033 30.9984 7.17457 30.9984V32.9984C9.07078 32.9984 10.8893 32.2451 12.2301 30.9043L10.8159 29.49ZM7.17457 30.9984C5.8088 30.9984 4.49896 30.4558 3.53321 29.49L2.119 30.9043C3.45981 32.2451 5.27836 32.9984 7.17457 32.9984V30.9984ZM3.53321 29.49C2.56746 28.5243 2.02492 27.2145 2.02492 25.8487H0.0249203C0.0249203 27.7449 0.778174 29.5634 2.119 30.9043L3.53321 29.49ZM13.562 6.6698C13.562 4.97691 12.8895 3.35332 11.6924 2.15626L10.2782 3.57047C11.1002 4.39246 11.562 5.50733 11.562 6.6698H13.562ZM11.6924 2.15626C10.4953 0.959192 8.87176 0.286707 7.17887 0.286707V2.28671C8.34134 2.28671 9.4562 2.74849 10.2782 3.57047L11.6924 2.15626ZM7.17887 0.286707C5.48597 0.286707 3.8624 0.959192 2.66534 2.15626L4.07955 3.57047C4.90153 2.74849 6.01639 2.28671 7.17887 2.28671V0.286707ZM2.66534 2.15626C1.46827 3.35332 0.79577 4.97691 0.79577 6.6698H2.79577C2.79577 5.50733 3.25756 4.39246 4.07955 3.57047L2.66534 2.15626ZM0.79577 6.6698L0.79577 25.8487H2.79577L2.79577 6.6698H0.79577ZM0.79577 25.8487C0.79577 27.5416 1.46827 29.1652 2.66534 30.3622L4.07955 28.948C3.25756 28.126 2.79577 27.0112 2.79577 25.8487H0.79577ZM2.66534 30.3622C3.8624 31.5593 5.48597 32.2318 7.17887 32.2318V30.2318C6.01639 30.2318 4.90153 29.77 4.07955 28.948L2.66534 30.3622ZM7.17887 32.2318C8.87176 32.2318 10.4953 31.5593 11.6924 30.3622L10.2782 28.948C9.4562 29.77 8.34134 30.2318 7.17887 30.2318V32.2318ZM11.6924 30.3622C12.8895 29.1652 13.562 27.5416 13.562 25.8487H11.562C11.562 27.0112 11.1002 28.126 10.2782 28.948L11.6924 30.3622ZM13.562 25.8487L13.562 6.6698H11.562L11.562 25.8487H13.562Z" fill="white" mask="url(#path-1-inside-1_762_4682)"/>
<mask id="path-3-inside-2_762_4682" fill="white">
<path d="M1.0237 25.8505V16.2837C1.0237 16.1826 1.06384 16.0857 1.13532 16.0142C1.20679 15.9427 1.30373 15.9026 1.40481 15.9026H12.9419C13.043 15.9026 13.1399 15.9427 13.2114 16.0142C13.2828 16.0857 13.323 16.1826 13.323 16.2837V25.8505C13.323 27.4815 12.6751 29.0457 11.5218 30.199C10.3685 31.3523 8.80434 32.0002 7.17335 32.0002C5.54236 32.0002 3.97817 31.3523 2.82488 30.199C1.6716 29.0457 1.0237 27.4815 1.0237 25.8505ZM1.78594 16.6648V25.8505C1.78594 27.2782 2.35309 28.6475 3.36261 29.657C4.37214 30.6665 5.74135 31.2336 7.16904 31.2336C8.59672 31.2336 9.96594 30.6665 10.9755 29.657C11.985 28.6475 12.5521 27.2782 12.5521 25.8505V16.6648H1.78594Z"/>
</mask>
<path d="M1.0237 25.8505V16.2837C1.0237 16.1826 1.06384 16.0857 1.13532 16.0142C1.20679 15.9427 1.30373 15.9026 1.40481 15.9026H12.9419C13.043 15.9026 13.1399 15.9427 13.2114 16.0142C13.2828 16.0857 13.323 16.1826 13.323 16.2837V25.8505C13.323 27.4815 12.6751 29.0457 11.5218 30.199C10.3685 31.3523 8.80434 32.0002 7.17335 32.0002C5.54236 32.0002 3.97817 31.3523 2.82488 30.199C1.6716 29.0457 1.0237 27.4815 1.0237 25.8505ZM1.78594 16.6648V25.8505C1.78594 27.2782 2.35309 28.6475 3.36261 29.657C4.37214 30.6665 5.74135 31.2336 7.16904 31.2336C8.59672 31.2336 9.96594 30.6665 10.9755 29.657C11.985 28.6475 12.5521 27.2782 12.5521 25.8505V16.6648H1.78594Z" fill="white"/>
<path d="M1.78594 16.6648V15.6648H0.785942V16.6648H1.78594ZM12.5521 16.6648H13.5521V15.6648L12.5521 15.6648V16.6648ZM2.0237 25.8505V16.2837H0.0236996V25.8505H2.0237ZM2.0237 16.2837C2.0237 16.4478 1.95854 16.6052 1.84242 16.7213L0.428211 15.3071C0.169146 15.5662 0.0236996 15.9175 0.0236996 16.2837H2.0237ZM1.84242 16.7213C1.72637 16.8374 1.56896 16.9026 1.40481 16.9026V14.9026C1.03851 14.9026 0.687213 15.0481 0.428211 15.3071L1.84242 16.7213ZM1.40481 16.9026H12.9419V14.9026H1.40481V16.9026ZM12.9419 16.9026C12.7777 16.9026 12.6203 16.8374 12.5043 16.7213L13.9185 15.3071C13.6595 15.0481 13.3082 14.9026 12.9419 14.9026V16.9026ZM12.5043 16.7213C12.3882 16.6053 12.323 16.4479 12.323 16.2837L14.323 16.2837C14.323 15.9174 14.1775 15.5661 13.9185 15.3071L12.5043 16.7213ZM12.323 16.2837V25.8505H14.323V16.2837L12.323 16.2837ZM12.323 25.8505C12.323 27.2163 11.7804 28.5261 10.8147 29.4919L12.2289 30.9061C13.5697 29.5653 14.323 27.7467 14.323 25.8505H12.323ZM10.8147 29.4919C9.84894 30.4576 8.53911 31.0002 7.17335 31.0002V33.0002C9.06956 33.0002 10.8881 32.2469 12.2289 30.9061L10.8147 29.4919ZM7.17335 31.0002C5.80758 31.0002 4.49774 30.4576 3.53199 29.4919L2.11777 30.9061C3.45859 32.2469 5.27714 33.0002 7.17335 33.0002V31.0002ZM3.53199 29.4919C2.56624 28.5261 2.0237 27.2163 2.0237 25.8505H0.0236996C0.0236996 27.7467 0.776953 29.5653 2.11777 30.9061L3.53199 29.4919ZM0.785942 16.6648V25.8505H2.78594V16.6648H0.785942ZM0.785942 25.8505C0.785942 27.5434 1.45844 29.167 2.65551 30.3641L4.06972 28.9499C3.24773 28.1279 2.78594 27.013 2.78594 25.8505H0.785942ZM2.65551 30.3641C3.85257 31.5612 5.47614 32.2336 7.16904 32.2336V30.2336C6.00656 30.2336 4.89171 29.7719 4.06972 28.9499L2.65551 30.3641ZM7.16904 32.2336C8.86193 32.2336 10.4855 31.5612 11.6826 30.3641L10.2684 28.9499C9.44637 29.7719 8.33151 30.2336 7.16904 30.2336V32.2336ZM11.6826 30.3641C12.8796 29.167 13.5521 27.5434 13.5521 25.8505H11.5521C11.5521 27.013 11.0903 28.1279 10.2684 28.9499L11.6826 30.3641ZM13.5521 25.8505V16.6648H11.5521V25.8505H13.5521ZM12.5521 15.6648H1.78594V17.6648H12.5521V15.6648Z" fill="white" mask="url(#path-3-inside-2_762_4682)"/>
<mask id="path-5-inside-3_762_4682" fill="white">
<path d="M1.10939 25.7878V16.221C1.10939 16.1199 1.14954 16.0229 1.22101 15.9515C1.29249 15.88 1.38943 15.8398 1.49051 15.8398H13.0276C13.1286 15.8398 13.2256 15.88 13.2971 15.9515C13.3685 16.0229 13.4087 16.1199 13.4087 16.221V25.7878C13.4087 27.4188 12.7608 28.983 11.6075 30.1363C10.4542 31.2895 8.89003 31.9375 7.25904 31.9375C5.62805 31.9375 4.06386 31.2895 2.91058 30.1363C1.75729 28.983 1.10939 27.4188 1.10939 25.7878ZM1.87164 16.6021V25.7878C1.87164 27.2155 2.43878 28.5847 3.44831 29.5942C4.45783 30.6038 5.82705 31.1709 7.25473 31.1709C8.68242 31.1709 10.0516 30.6038 11.0612 29.5942C12.0707 28.5847 12.6378 27.2155 12.6378 25.7878V16.6021H1.87164Z"/>
</mask>
<path d="M1.10939 25.7878V16.221C1.10939 16.1199 1.14954 16.0229 1.22101 15.9515C1.29249 15.88 1.38943 15.8398 1.49051 15.8398H13.0276C13.1286 15.8398 13.2256 15.88 13.2971 15.9515C13.3685 16.0229 13.4087 16.1199 13.4087 16.221V25.7878C13.4087 27.4188 12.7608 28.983 11.6075 30.1363C10.4542 31.2895 8.89003 31.9375 7.25904 31.9375C5.62805 31.9375 4.06386 31.2895 2.91058 30.1363C1.75729 28.983 1.10939 27.4188 1.10939 25.7878ZM1.87164 16.6021V25.7878C1.87164 27.2155 2.43878 28.5847 3.44831 29.5942C4.45783 30.6038 5.82705 31.1709 7.25473 31.1709C8.68242 31.1709 10.0516 30.6038 11.0612 29.5942C12.0707 28.5847 12.6378 27.2155 12.6378 25.7878V16.6021H1.87164Z" fill="white"/>
<path d="M1.87164 16.6021V15.6021H0.871635V16.6021H1.87164ZM12.6378 16.6021H13.6378V15.6021L12.6378 15.6021V16.6021ZM2.10939 25.7878V16.221H0.109393V25.7878H2.10939ZM2.10939 16.221C2.10939 16.385 2.04423 16.5425 1.92812 16.6586L0.513904 15.2444C0.25484 15.5034 0.109393 15.8548 0.109393 16.221H2.10939ZM1.92812 16.6586C1.81206 16.7746 1.65466 16.8398 1.49051 16.8398V14.8398C1.1242 14.8398 0.772906 14.9854 0.513904 15.2444L1.92812 16.6586ZM1.49051 16.8398H13.0276V14.8398H1.49051V16.8398ZM13.0276 16.8398C12.8634 16.8398 12.706 16.7746 12.59 16.6586L14.0042 15.2444C13.7452 14.9854 13.3939 14.8398 13.0276 14.8398V16.8398ZM12.59 16.6586C12.4739 16.5425 12.4087 16.3851 12.4087 16.221L14.4087 16.221C14.4087 15.8547 14.2632 15.5034 14.0042 15.2444L12.59 16.6586ZM12.4087 16.221V25.7878H14.4087V16.221L12.4087 16.221ZM12.4087 25.7878C12.4087 27.1536 11.8661 28.4634 10.9004 29.4291L12.3146 30.8434C13.6554 29.5025 14.4087 27.684 14.4087 25.7878H12.4087ZM10.9004 29.4291C9.93464 30.3949 8.62481 30.9375 7.25904 30.9375V32.9375C9.15526 32.9375 10.9738 32.1842 12.3146 30.8434L10.9004 29.4291ZM7.25904 30.9375C5.89328 30.9375 4.58343 30.3949 3.61768 29.4291L2.20347 30.8434C3.54428 32.1842 5.36283 32.9375 7.25904 32.9375V30.9375ZM3.61768 29.4291C2.65194 28.4634 2.10939 27.1536 2.10939 25.7878H0.109393C0.109393 27.684 0.862647 29.5025 2.20347 30.8434L3.61768 29.4291ZM0.871635 16.6021V25.7878H2.87164V16.6021H0.871635ZM0.871635 25.7878C0.871635 27.4807 1.54413 29.1043 2.7412 30.3013L4.15541 28.8871C3.33343 28.0651 2.87164 26.9503 2.87164 25.7878H0.871635ZM2.7412 30.3013C3.93827 31.4984 5.56184 32.1709 7.25473 32.1709V30.1709C6.09226 30.1709 4.9774 29.7091 4.15541 28.8871L2.7412 30.3013ZM7.25473 32.1709C8.94763 32.1709 10.5712 31.4984 11.7683 30.3013L10.354 28.8871C9.53206 29.7091 8.41721 30.1709 7.25473 30.1709V32.1709ZM11.7683 30.3013C12.9653 29.1043 13.6378 27.4807 13.6378 25.7878H11.6378C11.6378 26.9503 11.176 28.0651 10.354 28.8871L11.7683 30.3013ZM13.6378 25.7878V16.6021H11.6378V25.7878H13.6378ZM12.6378 15.6021H1.87164V17.6021H12.6378V15.6021Z" fill="white" mask="url(#path-5-inside-3_762_4682)"/>
<mask id="mask0_762_4682" style="mask-type:alpha" maskUnits="userSpaceOnUse" x="0" y="15" width="14" height="18">
<path d="M12.7034 15.8394H1.21174C0.786121 20.734 0.724979 31.8 6.85385 31.8C14.5149 31.8 13.5546 20.9468 12.7034 15.8394Z" fill="#C4C4C4" stroke="white"/>
</mask>
<g mask="url(#mask0_762_4682)">
<path d="M13.331 30.2707C13.1717 30.2707 13.0426 30.1416 13.0426 29.9824C13.0426 29.8231 13.1717 29.694 13.331 29.694C13.4903 29.694 13.6194 29.8231 13.6194 29.9824C13.6194 30.1416 13.4903 30.2707 13.331 30.2707Z" fill="white" stroke="white"/>
<path d="M11.3489 33.2356C11.1896 33.2356 11.0605 33.1065 11.0605 32.9472C11.0605 32.788 11.1896 32.6589 11.3489 32.6589C11.5081 32.6589 11.6372 32.788 11.6372 32.9472C11.6372 33.1065 11.5081 33.2356 11.3489 33.2356Z" fill="white" stroke="white"/>
<path d="M9.3686 30.2749C9.20934 30.2749 9.08025 30.1459 9.08025 29.9866C9.08025 29.8273 9.20934 29.6982 9.3686 29.6982C9.52789 29.6982 9.65698 29.8274 9.65698 29.9866C9.65698 30.1458 9.52789 30.2749 9.3686 30.2749Z" fill="white" stroke="white"/>
<path d="M11.3467 27.2934C11.1874 27.2934 11.0583 27.1643 11.0583 27.005C11.0583 26.8458 11.1874 26.7167 11.3467 26.7167C11.5059 26.7167 11.635 26.8458 11.635 27.005C11.635 27.1643 11.5059 27.2934 11.3467 27.2934Z" fill="white" stroke="white"/>
<path d="M7.38862 33.2356C7.22933 33.2356 7.10024 33.1065 7.10024 32.9472C7.10024 32.788 7.22933 32.6589 7.38862 32.6589C7.54791 32.6589 7.677 32.788 7.677 32.9472C7.677 33.1065 7.54791 33.2356 7.38862 33.2356Z" fill="white" stroke="white"/>
<path d="M5.41282 30.2749C5.25354 30.2749 5.12444 30.1458 5.12444 29.9866C5.12444 29.8274 5.25354 29.6982 5.41282 29.6982C5.57209 29.6982 5.70117 29.8273 5.70117 29.9866C5.70117 30.1459 5.57209 30.2749 5.41282 30.2749Z" fill="white" stroke="white"/>
<path d="M7.39082 27.2934C7.23153 27.2934 7.10244 27.1643 7.10244 27.005C7.10244 26.8458 7.23153 26.7167 7.39082 26.7167C7.55011 26.7167 7.6792 26.8458 7.6792 27.005C7.6792 27.1643 7.55011 27.2934 7.39082 27.2934Z" fill="white" stroke="white"/>
<path d="M3.42866 33.2398C3.2694 33.2398 3.14031 33.1107 3.14031 32.9514C3.14031 32.7922 3.2694 32.6631 3.42866 32.6631C3.58795 32.6631 3.71704 32.7922 3.71704 32.9514C3.71704 33.1107 3.58795 33.2398 3.42866 33.2398Z" fill="white" stroke="white"/>
<path d="M1.44233 30.2624C1.28304 30.2624 1.15395 30.1333 1.15395 29.974C1.15395 29.8148 1.28304 29.6857 1.44233 29.6857C1.60162 29.6857 1.73071 29.8148 1.73071 29.974C1.73071 30.1333 1.60162 30.2624 1.44233 30.2624Z" fill="white" stroke="white"/>
<path d="M3.43061 27.2934C3.27135 27.2934 3.14227 27.1643 3.14227 27.005C3.14227 26.8458 3.27135 26.7167 3.43061 26.7167C3.5899 26.7167 3.71899 26.8458 3.71899 27.005C3.71899 27.1643 3.5899 27.2934 3.43061 27.2934Z" fill="white" stroke="white"/>
<path d="M13.3371 21.3595C13.1778 21.3595 13.0487 21.2304 13.0487 21.0711C13.0487 20.9119 13.1778 20.7828 13.3371 20.7828C13.4964 20.7828 13.6255 20.9119 13.6255 21.0711C13.6255 21.2304 13.4964 21.3595 13.3371 21.3595Z" fill="white" stroke="white"/>
<path d="M11.3508 24.3243C11.1915 24.3243 11.0624 24.1952 11.0624 24.036C11.0624 23.8767 11.1915 23.7476 11.3508 23.7476C11.5101 23.7476 11.6392 23.8767 11.6392 24.036C11.6392 24.1952 11.5101 24.3243 11.3508 24.3243Z" fill="white" stroke="white"/>
<path d="M9.36665 21.3553C9.20739 21.3553 9.0783 21.2262 9.0783 21.067C9.0783 20.9077 9.20739 20.7786 9.36665 20.7786C9.52594 20.7786 9.65503 20.9077 9.65503 21.067C9.65503 21.2262 9.52594 21.3553 9.36665 21.3553Z" fill="white" stroke="white"/>
<path d="M11.3508 18.3863C11.1915 18.3863 11.0624 18.2572 11.0624 18.098C11.0624 17.9387 11.1915 17.8096 11.3508 17.8096C11.5101 17.8096 11.6392 17.9387 11.6392 18.098C11.6392 18.2572 11.5101 18.3863 11.3508 18.3863Z" fill="white" stroke="white"/>
<path d="M7.39277 24.3243C7.23348 24.3243 7.10439 24.1952 7.10439 24.036C7.10439 23.8767 7.23348 23.7476 7.39277 23.7476C7.55206 23.7476 7.68115 23.8767 7.68115 24.036C7.68115 24.1952 7.55206 24.3243 7.39277 24.3243Z" fill="white" stroke="white"/>
<path d="M5.40648 21.3595C5.24719 21.3595 5.1181 21.2304 5.1181 21.0711C5.1181 20.9119 5.24719 20.7828 5.40648 20.7828C5.56574 20.7828 5.69482 20.9119 5.69482 21.0711C5.69482 21.2304 5.56574 21.3595 5.40648 21.3595Z" fill="white" stroke="white"/>
<path d="M7.39082 18.3863C7.23153 18.3863 7.10244 18.2572 7.10244 18.098C7.10244 17.9387 7.23153 17.8096 7.39082 17.8096C7.55011 17.8096 7.6792 17.9387 7.6792 18.098C7.6792 18.2572 7.55011 18.3863 7.39082 18.3863Z" fill="white" stroke="white"/>
<path d="M3.42231 24.3202C3.26305 24.3202 3.13397 24.1911 3.13397 24.0318C3.13397 23.8726 3.26305 23.7435 3.42231 23.7435C3.5816 23.7435 3.71069 23.8726 3.71069 24.0318C3.71069 24.1911 3.5816 24.3202 3.42231 24.3202Z" fill="white" stroke="white"/>
<path d="M1.44844 21.3553C1.28915 21.3553 1.16006 21.2262 1.16006 21.067C1.16006 20.9077 1.28915 20.7786 1.44844 20.7786C1.60772 20.7786 1.73682 20.9077 1.73682 21.067C1.73682 21.2262 1.60772 21.3553 1.44844 21.3553Z" fill="white" stroke="white"/>
<path d="M3.42231 18.3821C3.26305 18.3821 3.13397 18.253 3.13397 18.0938C3.13397 17.9345 3.26305 17.8054 3.42231 17.8054C3.5816 17.8054 3.71069 17.9345 3.71069 18.0938C3.71069 18.253 3.5816 18.3821 3.42231 18.3821Z" fill="white" stroke="white"/>
</g>
</svg>
