<svg width="64" height="74" viewBox="0 0 64 74" fill="none" xmlns="http://www.w3.org/2000/svg">
<path d="M25.1394 40.0892C32.4094 37.01 39.7394 37.9262 41.9174 42.3573C44.2306 47.0588 39.8746 53.9232 32.1841 57.7083C24.4935 61.4935 16.3974 60.7425 14.0843 56.0411C13.5736 55.0046 13.3933 53.8781 13.4834 52.6915" stroke="#555553" stroke-width="1.3" stroke-linecap="round" stroke-linejoin="round"/>
<path d="M22.9015 35.7677C33.6412 31.5169 44.6212 33.5897 48.2112 40.8897C52.0865 48.7605 45.898 59.7255 34.3922 65.3733C22.8864 71.036 10.4344 69.2336 6.55907 61.3778C4.1708 56.5111 5.61278 50.4729 9.77348 45.2307" stroke="#555553" stroke-width="1.3" stroke-linecap="round" stroke-linejoin="round"/>
<path d="M5.40259 56.539C5.40259 63.4034 11.8915 72.4908 27.3777 72.4908" stroke="#555553" stroke-width="1.3" stroke-linecap="round" stroke-linejoin="round"/>
<path fill-rule="evenodd" clip-rule="evenodd" d="M36.856 28.4802L54.1447 39.265C54.1447 39.265 71.0728 14.9767 56.4879 5.31845C41.8879 -4.3548 31.6889 1.74356 36.856 28.4802Z" stroke="#555553" stroke-width="1.3" stroke-linecap="round" stroke-linejoin="round"/>
<ellipse cx="30.4464" cy="51.5127" rx="9.01227" ry="5.5125" transform="rotate(-26.1935 30.4464 51.5127)" stroke="#555553" stroke-width="1.3" stroke-linecap="round" stroke-linejoin="round"/>
<path d="M28.0083 39.084C34.2569 37.3116 40.0248 38.5132 41.9174 42.3585C44.2306 47.0599 39.8746 53.9243 32.1841 57.7095C24.4935 61.4947 16.3974 60.7437 14.0843 56.0422C13.5736 55.0058 13.3933 53.8793 13.4834 52.6926" stroke="#555553" stroke-width="1.3" stroke-linecap="round" stroke-linejoin="round"/>
<circle cx="36.1491" cy="47.0914" r="0.720988" fill="#555553"/>
<circle cx="36.1491" cy="50.9207" r="0.720988" fill="#555553"/>
<circle cx="38.7022" cy="49.0003" r="0.720988" fill="#555553"/>
<circle cx="25.7548" cy="50.9207" r="0.720988" fill="#555553"/>
<circle cx="28.3081" cy="52.8449" r="0.720988" fill="#555553"/>
<circle cx="33.5356" cy="49.0003" r="0.720988" fill="#555553"/>
<circle cx="33.5356" cy="52.8449" r="0.720988" fill="#555553"/>
<circle cx="36.1491" cy="54.7518" r="0.720988" fill="#555553"/>
<circle cx="25.7548" cy="54.7518" r="0.720988" fill="#555553"/>
<circle cx="28.3081" cy="56.6741" r="0.720988" fill="#555553"/>
<circle cx="30.967" cy="54.7518" r="0.720988" fill="#555553"/>
<path d="M23.112 47.6479L15.9622 25.6127C15.7669 25.0119 15.1811 24.5913 14.4451 24.5012L9.83379 23.9755C8.19654 23.7952 6.67946 25.2072 7.10004 26.514L14.2498 48.5492C14.4451 49.15 15.0309 49.5706 15.7669 49.6607L20.3782 50.1864C22.0155 50.3817 23.5326 48.9547 23.112 47.6479Z" stroke="#555553" stroke-width="1.3" stroke-linecap="round" stroke-linejoin="round"/>
<path d="M30.2466 52.3175C30.1715 52.3175 30.1114 52.3175 30.0363 52.3025C29.4205 52.1973 28.9699 51.6866 28.9549 51.0558C28.9248 49.9442 27.9935 48.5473 26.5816 47.4658C25.0645 46.3093 23.1869 45.6484 21.4446 45.6484C20.9188 45.6484 20.4232 45.7084 19.9575 45.8286C19.8524 45.8586 19.7472 45.8737 19.6421 45.8737C19.4018 45.8737 19.1614 45.8136 18.9662 45.6784C18.6657 45.4981 18.4555 45.1977 18.3804 44.8673C17.5993 41.4426 15.902 38.9792 13.3184 37.5372C11.6211 36.5909 9.53323 36.0953 7.2501 36.0953C5.53776 36.0953 3.76533 36.3807 2.24825 36.8914C2.11306 36.9364 1.97788 36.9665 1.82767 36.9665C1.27191 36.9665 0.776231 36.621 0.611005 36.0953C0.505861 35.7648 0.520881 35.4193 0.671087 35.1039C0.821293 34.7885 1.09166 34.5632 1.42212 34.458C3.22459 33.8422 5.29743 33.5117 7.26512 33.5117C9.96883 33.5117 12.4923 34.1276 14.5801 35.2992C17.5092 36.9364 19.5219 39.565 20.5884 43.1249C20.8738 43.0949 21.1742 43.0798 21.4746 43.0798C23.7878 43.0798 26.146 43.921 28.1437 45.4381C30.2166 47.0152 31.4783 49.1031 31.5384 51.0107C31.5534 51.7167 30.9977 52.3175 30.2767 52.3325L30.2466 52.3175Z" fill="#555553"/>
<path fill-rule="evenodd" clip-rule="evenodd" d="M1.24185 33.9025C2.56366 33.4519 4.66654 32.9261 7.2651 32.9261C10.0589 32.9261 12.6725 33.572 14.8355 34.7887C17.7645 36.441 19.8373 39.0395 20.9639 42.5243C21.1291 42.5093 21.2943 42.5093 21.4595 42.5093H21.4596C23.8929 42.5093 26.3713 43.3805 28.4591 44.9727C30.6672 46.655 32.004 48.893 32.0641 50.9659C32.0941 51.9722 31.283 52.8134 30.2766 52.8434H30.2316C30.1415 52.8434 30.0363 52.8284 29.9462 52.8134C29.075 52.6782 28.4291 51.9422 28.3991 51.056C28.369 49.9745 27.2875 48.6827 26.2361 47.8866C24.8091 46.7901 23.0517 46.1743 21.4295 46.1743C20.9489 46.1743 20.4982 46.2344 20.0626 46.3395C19.9275 46.3846 19.7773 46.3996 19.627 46.3996C19.2816 46.3996 18.9511 46.3095 18.6657 46.1292C18.2452 45.8739 17.9447 45.4533 17.8396 44.9727C17.1036 41.6982 15.4814 39.355 13.048 37.9881C11.4408 37.0868 9.42807 36.6062 7.25008 36.6062C5.59782 36.6062 3.88547 36.8766 2.42848 37.3722C2.24823 37.4473 2.03794 37.4774 1.84267 37.4774C1.04658 37.4774 0.355636 36.9817 0.100286 36.2307C-0.06494 35.765 -0.0198783 35.2694 0.19041 34.8338C0.400698 34.3831 0.776213 34.0527 1.24185 33.9025ZM14.3249 35.7368C12.1018 34.5051 9.60842 34.0244 7.26521 34.0244C5.17735 34.0244 3.19463 34.3999 1.63249 34.9257C1.24195 35.0609 1.03166 35.4814 1.16685 35.872C1.27199 36.1874 1.55738 36.3827 1.87282 36.3827C1.94792 36.3827 2.03804 36.3676 2.11315 36.3376C3.52508 35.8569 5.35759 35.5115 7.29525 35.5115C9.39813 35.5115 11.6512 35.932 13.6189 37.0285C16.3376 38.5606 18.1251 41.1442 18.9362 44.7191C18.9813 44.9144 19.1014 45.0796 19.2667 45.1847C19.3868 45.2448 19.522 45.2899 19.6572 45.2899C19.7173 45.2899 19.7774 45.2899 19.8374 45.2748C20.3632 45.1397 20.9039 45.0796 21.4597 45.0796C23.3072 45.0796 25.2899 45.7705 26.9272 47.0172C28.4893 48.2039 29.4807 49.751 29.5107 51.0277C29.5257 51.3882 29.7961 51.6886 30.1416 51.7487C30.1866 51.7637 30.2167 51.7637 30.2617 51.7637H30.2767C30.6823 51.7487 31.0128 51.4032 30.9977 50.9977C30.9377 49.2553 29.751 47.3176 27.8134 45.8456C25.8907 44.3886 23.6376 43.6076 21.4747 43.6076C21.0391 43.6076 20.6185 43.6376 20.1979 43.6977C19.2216 40.0477 17.2389 37.374 14.3249 35.7368Z" fill="#ECF5EA"/>
</svg>
