<svg width="50" height="50" viewBox="0 0 50 50" fill="none" xmlns="http://www.w3.org/2000/svg">
<rect width="50" height="50" rx="20" fill="#161514"/>
<path d="M28.75 22.75H30.625C31.2461 22.75 31.75 23.2534 31.75 23.875V32.875C31.75 33.4961 31.2461 34 30.625 34H19.375C18.7534 34 18.25 33.4961 18.25 32.875V23.875C18.25 23.2534 18.7534 22.75 19.375 22.75H21.25C21.6639 22.75 22 22.4139 22 22C22 21.5856 21.6639 21.25 21.25 21.25H19.375C17.9252 21.25 16.75 22.4252 16.75 23.875V32.875C16.75 34.3244 17.9252 35.5 19.375 35.5H30.625C32.0744 35.5 33.25 34.3244 33.25 32.875V23.875C33.25 22.4252 32.0744 21.25 30.625 21.25H28.75C28.3356 21.25 28 21.5856 28 22C28 22.4139 28.3356 22.75 28.75 22.75Z" fill="white"/>
<path d="M29.2803 18.4694L25.5303 14.7194C25.2373 14.4264 24.7625 14.4264 24.4695 14.7194L20.7195 18.4694C20.4265 18.7619 20.4265 19.2367 20.7195 19.5297C21.012 19.8222 21.4868 19.8222 21.7798 19.5297L25.5298 15.7797H24.469L28.219 19.5297C28.5115 19.8222 28.9864 19.8222 29.2793 19.5297C29.5718 19.2367 29.5718 18.7619 29.2793 18.4689L29.2803 18.4694Z" fill="white"/>
<path d="M25.75 28.0469V15.25C25.75 14.8356 25.4139 14.5 25 14.5C24.5856 14.5 24.25 14.8356 24.25 15.25V28.0469C24.25 28.4608 24.5856 28.7969 25 28.7969C25.4139 28.7969 25.75 28.4608 25.75 28.0469Z" fill="white"/>
</svg>
