<svg width="24" height="24" viewBox="0 0 24 24" fill="none" xmlns="http://www.w3.org/2000/svg">
<path d="M15.75 9.75H17.625C18.2461 9.75 18.75 10.2534 18.75 10.875V19.875C18.75 20.4961 18.2461 21 17.625 21H6.375C5.75344 21 5.25 20.4961 5.25 19.875V10.875C5.25 10.2534 5.75344 9.75 6.375 9.75H8.25C8.66391 9.75 9 9.41391 9 9C9 8.58562 8.66391 8.25 8.25 8.25H6.375C4.92516 8.25 3.75 9.42516 3.75 10.875V19.875C3.75 21.3244 4.92516 22.5 6.375 22.5H17.625C19.0744 22.5 20.25 21.3244 20.25 19.875V10.875C20.25 9.42516 19.0744 8.25 17.625 8.25H15.75C15.3356 8.25 15 8.58562 15 9C15 9.41391 15.3356 9.75 15.75 9.75Z" fill="white"/>
<path d="M16.2803 5.46936L12.5303 1.71936C12.2373 1.42639 11.7625 1.42639 11.4695 1.71936L7.71948 5.46936C7.42651 5.76186 7.42651 6.2367 7.71948 6.52967C8.01198 6.82217 8.48683 6.82217 8.7798 6.52967L12.5298 2.77967H11.469L15.219 6.52967C15.5115 6.82217 15.9864 6.82217 16.2793 6.52967C16.5718 6.2367 16.5718 5.76186 16.2793 5.46889L16.2803 5.46936Z" fill="white"/>
<path d="M12.75 15.0469V2.25C12.75 1.83562 12.4139 1.5 12 1.5C11.5856 1.5 11.25 1.83562 11.25 2.25V15.0469C11.25 15.4608 11.5856 15.7969 12 15.7969C12.4139 15.7969 12.75 15.4608 12.75 15.0469Z" fill="white"/>
</svg>
