<svg width="27" height="27" viewBox="0 0 27 27" fill="none" xmlns="http://www.w3.org/2000/svg">
<path fill-rule="evenodd" clip-rule="evenodd" d="M1 13.4607C1 6.57886 6.57886 1 13.4607 1C20.3426 1 25.9215 6.57886 25.9215 13.4607C25.9215 16.3034 24.9696 18.9237 23.3672 21.0203C22.0258 18.1005 19.4732 15.8838 16.0235 15.1485C17.3796 14.2955 18.2808 12.7857 18.2808 11.0653C18.2808 8.40318 16.1227 6.24509 13.4606 6.24509C10.7984 6.24509 8.64033 8.40318 8.64033 11.0653C8.64033 12.7856 9.54151 14.2954 10.8975 15.1484C7.4479 15.8836 4.89531 18.1001 3.55377 21.0197C1.95167 18.9232 1 16.3031 1 13.4607ZM4.27245 21.8778C6.55045 24.3632 9.82361 25.9215 13.4607 25.9215C17.0976 25.9215 20.3705 24.3634 22.6485 21.8784C21.2399 18.3878 18.0035 15.8856 13.4604 15.8856C8.91745 15.8856 5.68121 18.3875 4.27245 21.8778ZM13.4607 0C6.02658 0 0 6.02658 0 13.4607C0 20.8949 6.02658 26.9215 13.4607 26.9215C20.8949 26.9215 26.9215 20.8949 26.9215 13.4607C26.9215 6.02658 20.8949 0 13.4607 0ZM13.4606 7.24509C11.3507 7.24509 9.64033 8.95547 9.64033 11.0653C9.64033 13.1752 11.3507 14.8856 13.4606 14.8856C15.5704 14.8856 17.2808 13.1752 17.2808 11.0653C17.2808 8.95547 15.5704 7.24509 13.4606 7.24509Z" fill="white"/>
</svg>
