<svg width="1397" height="384" viewBox="0 0 1397 384" fill="none" xmlns="http://www.w3.org/2000/svg">
<path fill-rule="evenodd" clip-rule="evenodd" d="M178.154 13.0808C178.154 5.8686 184.022 0 191.234 0C198.447 0 204.315 5.8686 204.315 13.0808C204.315 20.293 198.447 26.1616 191.234 26.1616C184.022 26.1616 178.154 20.293 178.154 13.0808ZM273.16 21.2812C273.086 21.2812 273.013 21.2812 272.939 21.2856C269.445 21.3419 266.186 22.7549 263.755 25.2688C261.327 27.7783 260.023 31.0854 260.075 34.5788C260.135 38.0722 261.553 41.3316 264.062 43.7631C266.572 46.1946 269.879 47.4906 273.372 47.4385C276.866 47.3822 280.129 45.9649 282.557 43.4553C284.988 40.9458 286.293 37.6388 286.236 34.1453C286.119 27.0068 280.272 21.2812 273.16 21.2812ZM109.314 21.3385C102.102 21.3385 96.2333 27.2071 96.2333 34.4193C96.2333 41.6315 102.102 47.5001 109.314 47.5001C116.526 47.5001 122.395 41.6315 122.395 34.4193C122.395 27.2071 116.526 21.3385 109.314 21.3385ZM148.45 93.6357C141.238 93.6357 135.369 99.5043 135.369 106.717C135.369 113.929 141.238 119.797 148.45 119.797C155.662 119.797 161.531 113.929 161.531 106.717C161.531 99.5043 155.662 93.6357 148.45 93.6357ZM220.934 106.717C220.934 99.5043 226.802 93.6357 234.015 93.6357C241.227 93.6357 247.095 99.5043 247.095 106.717C247.095 113.929 241.227 119.797 234.015 119.797C226.802 119.797 220.934 113.929 220.934 106.717ZM191.234 171C184.022 171 178.154 176.869 178.154 184.081C178.154 191.293 184.022 197.162 191.234 197.162C198.447 197.162 204.315 191.293 204.315 184.081C204.315 176.869 198.447 171 191.234 171ZM0 188.172C0 180.955 5.8686 175.091 13.0808 175.091C20.293 175.091 26.1616 180.955 26.1616 188.172C26.1616 195.38 20.293 201.253 13.0808 201.253C5.8686 201.253 0 195.38 0 188.172ZM281.828 327.694C274.615 327.694 268.747 333.563 268.747 340.775C268.747 347.987 274.615 353.856 281.828 353.856C289.04 353.856 294.908 347.987 294.908 340.775C294.908 333.563 289.04 327.694 281.828 327.694ZM327.993 273.149C327.993 265.937 333.861 260.069 341.074 260.069C348.286 260.069 354.154 265.937 354.154 273.149C354.154 280.362 348.286 286.23 341.074 286.23C333.861 286.23 327.993 280.362 327.993 273.149ZM369.388 175.091C362.176 175.091 356.308 180.955 356.308 188.172C356.308 195.38 362.176 201.253 369.388 201.253C376.601 201.253 382.469 195.38 382.469 188.172C382.469 180.955 376.601 175.091 369.388 175.091ZM87.5701 340.776C87.5701 333.563 93.4387 327.695 100.651 327.695C107.863 327.695 113.732 333.563 113.732 340.776C113.732 347.988 107.863 353.856 100.651 353.856C93.4387 353.856 87.5701 347.988 87.5701 340.776ZM41.3971 260.069C34.1849 260.069 28.3163 265.937 28.3163 273.149C28.3163 280.362 34.1849 286.23 41.3971 286.23C48.6093 286.23 54.4779 280.362 54.4779 273.149C54.4779 265.937 48.6093 260.069 41.3971 260.069ZM71.1119 186.128C71.1119 171.738 82.8144 160.04 97.1955 160.04C111.577 160.04 123.279 171.738 123.279 186.128C123.279 200.509 111.577 212.212 97.1955 212.212C82.8144 212.212 71.1119 200.509 71.1119 186.128ZM239.277 245.147C224.896 245.147 213.189 256.85 213.189 271.235C213.189 285.616 224.896 297.319 239.277 297.319C253.658 297.319 265.361 285.616 265.361 271.235C265.361 256.85 253.658 245.147 239.277 245.147ZM25.1088 100.122C25.1088 85.737 36.8114 74.0345 51.1925 74.0345C65.5736 74.0345 77.2804 85.737 77.2804 100.122C77.2804 114.504 65.5736 126.206 51.1925 126.206C36.8114 126.206 25.1088 114.504 25.1088 100.122ZM191.236 331.034C176.855 331.034 165.148 342.736 165.148 357.122C165.148 371.503 176.855 383.205 191.236 383.205C205.617 383.205 217.32 371.503 217.32 357.122C217.32 342.736 205.617 331.034 191.236 331.034ZM117.104 271.115C117.104 256.73 128.811 245.027 143.192 245.027C157.573 245.027 169.276 256.73 169.276 271.115C169.276 285.496 157.573 297.199 143.192 297.199C128.811 297.199 117.104 285.496 117.104 271.115ZM285.276 160.04C270.894 160.04 259.188 171.738 259.188 186.128C259.188 200.509 270.894 212.212 285.276 212.212C299.657 212.212 311.359 200.509 311.359 186.128C311.359 171.738 299.657 160.04 285.276 160.04ZM306.217 100.122C306.217 85.737 317.92 74.0345 332.301 74.0345C346.687 74.0345 358.385 85.737 358.385 100.122C358.385 114.504 346.687 126.206 332.301 126.206C317.92 126.206 306.217 114.504 306.217 100.122ZM652.754 126.819L608.163 254.628L563.581 126.819H530.593L591.987 293.653H624.347L685.742 126.819H652.754ZM781.822 124.732C734.257 124.732 697 162.288 697 210.242C697 258.193 734.721 295.753 782.871 295.753C818.186 295.753 849.328 277.723 862.261 250.352H824.28C816.175 261.17 801.569 267.095 782.871 267.095C756.921 267.095 734.647 249.065 729.91 224.216L729.043 219.683H866.097C866.457 216.657 866.643 213.45 866.643 210.242C866.643 162.288 829.386 124.732 781.822 124.732ZM730.24 193.122L731.757 188.181C738.08 167.615 759.132 152.688 781.822 152.688C804.499 152.688 825.55 167.615 831.882 188.181L833.404 193.122H730.24ZM1162.2 210.242C1162.2 162.288 1199.46 124.732 1247.02 124.732C1294.58 124.732 1331.83 162.288 1331.83 210.242C1331.83 213.45 1331.65 216.657 1331.29 219.683H1194.25L1195.11 224.216C1199.85 249.065 1222.12 267.095 1248.07 267.095C1266.77 267.095 1281.37 261.17 1289.48 250.352H1327.45C1314.52 277.723 1283.38 295.753 1248.07 295.753C1199.92 295.753 1162.2 258.193 1162.2 210.242ZM1196.96 188.181L1195.44 193.122H1298.6L1297.07 188.181C1290.75 167.615 1269.69 152.688 1247.02 152.688C1224.33 152.688 1203.28 167.615 1196.96 188.181ZM1397 293.48H1366.26V73.4775H1397V293.48ZM969.329 194.63C964.54 192.853 959.7 191.569 955.013 190.326L954.948 190.309C941.321 186.703 928.457 183.292 928.457 169.063C928.457 160.446 934.685 151.292 946.236 151.292C952.872 151.292 958.702 154.578 962.563 160.307L980.308 142.823C971.054 130.652 959.074 124.732 943.792 124.732C918.514 124.732 899.461 143.79 899.461 169.063C899.461 199.489 922.887 209.328 932.96 212.145C935.063 212.748 937.144 213.288 939.192 213.819L939.722 213.957C954.575 217.797 969.94 221.772 969.94 241.649C969.94 244.813 969.407 247.686 968.584 250.356C965.398 260.715 956.422 267.099 943.792 267.099C933.597 267.099 923.226 260.962 918.991 250.356H888.833C893.328 277.194 915.034 295.753 943.792 295.753C973.919 295.753 995.816 277.493 999.933 250.356C1000.39 247.313 1000.69 244.193 1000.69 240.946C1000.69 217.641 990.433 202.493 969.329 194.63ZM1089.93 190.335C1094.61 191.575 1099.44 192.857 1104.22 194.63C1125.33 202.493 1135.59 217.641 1135.59 240.946C1135.59 244.193 1135.29 247.313 1134.82 250.356C1130.71 277.493 1108.81 295.753 1078.68 295.753C1049.93 295.753 1028.22 277.194 1023.73 250.356H1053.88C1058.11 260.962 1068.49 267.099 1078.68 267.099C1091.31 267.099 1100.29 260.715 1103.48 250.356C1104.3 247.686 1104.83 244.813 1104.83 241.649C1104.83 221.772 1089.47 217.797 1074.62 213.957L1074.08 213.819C1072.04 213.287 1069.96 212.747 1067.85 212.145C1057.78 209.328 1034.35 199.489 1034.35 169.063C1034.35 143.79 1053.41 124.732 1078.68 124.732C1093.97 124.732 1105.95 130.652 1115.21 142.823L1097.46 160.312C1093.6 154.578 1087.77 151.292 1081.13 151.292C1069.58 151.292 1063.35 160.446 1063.35 169.063C1063.35 183.292 1076.21 186.703 1089.84 190.309L1089.93 190.335Z" fill="#2D2D2B"/>
<path fill-rule="evenodd" clip-rule="evenodd" d="M178.154 13.0808C178.154 5.8686 184.022 0 191.234 0C198.447 0 204.315 5.8686 204.315 13.0808C204.315 20.293 198.447 26.1616 191.234 26.1616C184.022 26.1616 178.154 20.293 178.154 13.0808ZM273.16 21.2812C273.086 21.2812 273.013 21.2812 272.939 21.2856C269.445 21.3419 266.186 22.7549 263.755 25.2688C261.327 27.7783 260.023 31.0854 260.075 34.5788C260.135 38.0722 261.553 41.3316 264.062 43.7631C266.572 46.1946 269.879 47.4906 273.372 47.4385C276.866 47.3822 280.129 45.9649 282.557 43.4553C284.988 40.9458 286.293 37.6388 286.236 34.1453C286.119 27.0068 280.272 21.2812 273.16 21.2812ZM109.314 21.3385C102.102 21.3385 96.2333 27.2071 96.2333 34.4193C96.2333 41.6315 102.102 47.5001 109.314 47.5001C116.526 47.5001 122.395 41.6315 122.395 34.4193C122.395 27.2071 116.526 21.3385 109.314 21.3385ZM148.45 93.6357C141.238 93.6357 135.369 99.5043 135.369 106.717C135.369 113.929 141.238 119.797 148.45 119.797C155.662 119.797 161.531 113.929 161.531 106.717C161.531 99.5043 155.662 93.6357 148.45 93.6357ZM220.934 106.717C220.934 99.5043 226.802 93.6357 234.015 93.6357C241.227 93.6357 247.095 99.5043 247.095 106.717C247.095 113.929 241.227 119.797 234.015 119.797C226.802 119.797 220.934 113.929 220.934 106.717ZM191.234 171C184.022 171 178.154 176.869 178.154 184.081C178.154 191.293 184.022 197.162 191.234 197.162C198.447 197.162 204.315 191.293 204.315 184.081C204.315 176.869 198.447 171 191.234 171ZM0 188.172C0 180.955 5.8686 175.091 13.0808 175.091C20.293 175.091 26.1616 180.955 26.1616 188.172C26.1616 195.38 20.293 201.253 13.0808 201.253C5.8686 201.253 0 195.38 0 188.172ZM281.828 327.694C274.615 327.694 268.747 333.563 268.747 340.775C268.747 347.987 274.615 353.856 281.828 353.856C289.04 353.856 294.908 347.987 294.908 340.775C294.908 333.563 289.04 327.694 281.828 327.694ZM327.993 273.149C327.993 265.937 333.861 260.069 341.074 260.069C348.286 260.069 354.154 265.937 354.154 273.149C354.154 280.362 348.286 286.23 341.074 286.23C333.861 286.23 327.993 280.362 327.993 273.149ZM369.388 175.091C362.176 175.091 356.308 180.955 356.308 188.172C356.308 195.38 362.176 201.253 369.388 201.253C376.601 201.253 382.469 195.38 382.469 188.172C382.469 180.955 376.601 175.091 369.388 175.091ZM87.5701 340.776C87.5701 333.563 93.4387 327.695 100.651 327.695C107.863 327.695 113.732 333.563 113.732 340.776C113.732 347.988 107.863 353.856 100.651 353.856C93.4387 353.856 87.5701 347.988 87.5701 340.776ZM41.3971 260.069C34.1849 260.069 28.3163 265.937 28.3163 273.149C28.3163 280.362 34.1849 286.23 41.3971 286.23C48.6093 286.23 54.4779 280.362 54.4779 273.149C54.4779 265.937 48.6093 260.069 41.3971 260.069ZM71.1119 186.128C71.1119 171.738 82.8144 160.04 97.1955 160.04C111.577 160.04 123.279 171.738 123.279 186.128C123.279 200.509 111.577 212.212 97.1955 212.212C82.8144 212.212 71.1119 200.509 71.1119 186.128ZM239.277 245.147C224.896 245.147 213.189 256.85 213.189 271.235C213.189 285.616 224.896 297.319 239.277 297.319C253.658 297.319 265.361 285.616 265.361 271.235C265.361 256.85 253.658 245.147 239.277 245.147ZM25.1088 100.122C25.1088 85.737 36.8114 74.0345 51.1925 74.0345C65.5736 74.0345 77.2804 85.737 77.2804 100.122C77.2804 114.504 65.5736 126.206 51.1925 126.206C36.8114 126.206 25.1088 114.504 25.1088 100.122ZM191.236 331.034C176.855 331.034 165.148 342.736 165.148 357.122C165.148 371.503 176.855 383.205 191.236 383.205C205.617 383.205 217.32 371.503 217.32 357.122C217.32 342.736 205.617 331.034 191.236 331.034ZM117.104 271.115C117.104 256.73 128.811 245.027 143.192 245.027C157.573 245.027 169.276 256.73 169.276 271.115C169.276 285.496 157.573 297.199 143.192 297.199C128.811 297.199 117.104 285.496 117.104 271.115ZM285.276 160.04C270.894 160.04 259.188 171.738 259.188 186.128C259.188 200.509 270.894 212.212 285.276 212.212C299.657 212.212 311.359 200.509 311.359 186.128C311.359 171.738 299.657 160.04 285.276 160.04ZM306.217 100.122C306.217 85.737 317.92 74.0345 332.301 74.0345C346.687 74.0345 358.385 85.737 358.385 100.122C358.385 114.504 346.687 126.206 332.301 126.206C317.92 126.206 306.217 114.504 306.217 100.122ZM653.161 126.819L608.57 254.628L563.988 126.819H531L592.395 293.653H624.755L686.15 126.819H653.161ZM781.822 124.732C734.257 124.732 697 162.288 697 210.242C697 258.193 734.721 295.753 782.871 295.753C818.186 295.753 849.328 277.723 862.261 250.352H824.28C816.175 261.17 801.569 267.095 782.871 267.095C756.921 267.095 734.647 249.065 729.91 224.216L729.043 219.683H866.097C866.457 216.657 866.643 213.45 866.643 210.242C866.643 162.288 829.386 124.732 781.822 124.732ZM730.24 193.122L731.757 188.181C738.08 167.615 759.132 152.688 781.822 152.688C804.499 152.688 825.55 167.615 831.882 188.181L833.404 193.122H730.24ZM1162.2 210.242C1162.2 162.288 1199.46 124.732 1247.02 124.732C1294.58 124.732 1331.83 162.288 1331.83 210.242C1331.83 213.45 1331.65 216.657 1331.29 219.683H1194.25L1195.11 224.216C1199.85 249.065 1222.12 267.095 1248.07 267.095C1266.77 267.095 1281.37 261.17 1289.48 250.352H1327.45C1314.52 277.723 1283.38 295.753 1248.07 295.753C1199.92 295.753 1162.2 258.193 1162.2 210.242ZM1196.96 188.181L1195.44 193.122H1298.6L1297.07 188.181C1290.75 167.615 1269.69 152.688 1247.02 152.688C1224.33 152.688 1203.28 167.615 1196.96 188.181ZM1397 293.48H1366.26V73.4775H1397V293.48ZM969.329 194.63C964.54 192.853 959.7 191.569 955.013 190.326L954.948 190.309C941.321 186.703 928.457 183.292 928.457 169.063C928.457 160.446 934.685 151.292 946.236 151.292C952.872 151.292 958.702 154.578 962.563 160.307L980.308 142.823C971.054 130.652 959.074 124.732 943.792 124.732C918.514 124.732 899.461 143.79 899.461 169.063C899.461 199.489 922.887 209.328 932.96 212.145C935.063 212.748 937.144 213.288 939.192 213.819L939.722 213.957C954.575 217.797 969.94 221.772 969.94 241.649C969.94 244.813 969.407 247.686 968.584 250.356C965.398 260.715 956.422 267.099 943.792 267.099C933.597 267.099 923.226 260.962 918.991 250.356H888.833C893.328 277.194 915.034 295.753 943.792 295.753C973.919 295.753 995.816 277.493 999.933 250.356C1000.39 247.313 1000.69 244.193 1000.69 240.946C1000.69 217.641 990.433 202.493 969.329 194.63ZM1089.93 190.335C1094.61 191.575 1099.44 192.857 1104.22 194.63C1125.33 202.493 1135.59 217.641 1135.59 240.946C1135.59 244.193 1135.29 247.313 1134.82 250.356C1130.71 277.493 1108.81 295.753 1078.68 295.753C1049.93 295.753 1028.22 277.194 1023.73 250.356H1053.88C1058.11 260.962 1068.49 267.099 1078.68 267.099C1091.31 267.099 1100.29 260.715 1103.48 250.356C1104.3 247.686 1104.83 244.813 1104.83 241.649C1104.83 221.772 1089.47 217.797 1074.62 213.957L1074.08 213.819C1072.04 213.287 1069.96 212.747 1067.85 212.145C1057.78 209.328 1034.35 199.489 1034.35 169.063C1034.35 143.79 1053.41 124.732 1078.68 124.732C1093.97 124.732 1105.95 130.652 1115.21 142.823L1097.46 160.312C1093.6 154.578 1087.77 151.292 1081.13 151.292C1069.58 151.292 1063.35 160.446 1063.35 169.063C1063.35 183.292 1076.21 186.703 1089.84 190.309L1089.93 190.335Z" fill="#2D2D2B"/>
<path d="M551.727 59.7623C546.876 59.7623 543.222 61.9043 540.954 65.6213V60.5183H535.284V104.744H540.954V87.0413C543.222 90.6953 546.876 92.7743 551.727 92.7743C560.358 92.7743 566.217 86.0963 566.217 76.2053C566.217 66.5033 560.295 59.7623 551.727 59.7623ZM550.782 87.9863C544.86 87.9863 540.954 83.1983 540.954 76.2683C540.954 69.3383 544.86 64.5503 550.782 64.5503C556.704 64.5503 560.61 69.3383 560.61 76.2683C560.61 83.1983 556.704 87.9863 550.782 87.9863Z" fill="black"/>
<path d="M587.771 92.7743C596.906 92.7743 603.647 85.8443 603.647 76.2053C603.647 66.5663 596.906 59.7623 587.834 59.7623C578.699 59.7623 571.958 66.6923 571.958 76.3313C571.958 85.9703 578.699 92.7743 587.771 92.7743ZM587.834 87.9863C581.912 87.9863 577.628 83.1983 577.628 76.2683C577.628 69.3383 581.849 64.5503 587.771 64.5503C593.693 64.5503 597.977 69.3383 597.977 76.2683C597.977 83.1983 593.756 87.9863 587.834 87.9863Z" fill="black"/>
<path d="M648.099 60.5183L641.358 85.7183L633.672 60.5183H627.75L620.253 85.6553L613.26 60.5183H607.401L616.788 92.1443H623.025L630.585 67.0703L638.334 92.1443H644.571L653.895 60.5183H648.099Z" fill="black"/>
<path d="M673.065 59.7623C664.119 59.7623 657.63 66.5663 657.63 76.3943C657.63 86.4113 664.686 92.7743 673.443 92.7743C679.554 92.7743 684.216 89.5613 686.736 84.9623L682.893 82.5683C681.003 85.9073 677.727 88.1123 673.569 88.1123C668.214 88.1123 663.552 84.5213 663.174 77.5913H687.114C688.059 67.7003 682.704 59.7623 673.065 59.7623ZM672.939 64.2983C678.042 64.2983 681.381 67.9523 681.822 73.1813H663.363C663.93 67.8893 667.836 64.2983 672.939 64.2983Z" fill="black"/>
<path d="M708.426 59.9513C704.961 59.9513 702.126 61.6523 700.362 65.8733V60.5183H694.692V92.1443H700.362V78.5993C700.362 68.7713 703.134 65.1173 707.796 65.1173C708.93 65.1173 709.875 65.3693 710.631 65.7473L712.584 61.0223C711.513 60.3923 710.064 59.9513 708.426 59.9513Z" fill="black"/>
<path d="M730.251 59.7623C721.305 59.7623 714.816 66.5663 714.816 76.3943C714.816 86.4113 721.872 92.7743 730.629 92.7743C736.74 92.7743 741.402 89.5613 743.922 84.9623L740.079 82.5683C738.189 85.9073 734.913 88.1123 730.755 88.1123C725.4 88.1123 720.738 84.5213 720.36 77.5913H744.3C745.245 67.7003 739.89 59.7623 730.251 59.7623ZM730.125 64.2983C735.228 64.2983 738.567 67.9523 739.008 73.1813H720.549C721.116 67.8893 725.022 64.2983 730.125 64.2983Z" fill="black"/>
<path d="M775.566 48.0443V65.3693C773.361 61.7783 769.77 59.7623 764.982 59.7623C756.036 59.7623 750.177 66.5663 750.177 76.2683C750.177 86.0333 756.036 92.7743 764.982 92.7743C769.77 92.7743 773.361 90.6953 775.566 87.1673V92.1443H781.236V48.0443H775.566ZM765.738 87.9863C759.816 87.9863 755.847 83.1983 755.847 76.2683C755.847 69.3383 759.816 64.5503 765.738 64.5503C771.723 64.5503 775.566 69.3383 775.566 76.2683C775.566 83.1983 771.723 87.9863 765.738 87.9863Z" fill="black"/>
<path d="M820.839 59.7623C815.925 59.7623 812.208 61.9043 809.94 65.6843V48.0443H804.27V92.1443H809.94V86.8523C812.208 90.6323 815.925 92.7743 820.839 92.7743C829.407 92.7743 835.203 86.0333 835.203 76.2683C835.203 66.5663 829.407 59.7623 820.839 59.7623ZM819.768 87.9863C813.846 87.9863 809.94 83.1983 809.94 76.2683C809.94 69.3383 813.846 64.5503 819.768 64.5503C825.627 64.5503 829.533 69.3383 829.533 76.2683C829.533 83.1983 825.627 87.9863 819.768 87.9863Z" fill="black"/>
<path d="M862.082 60.5183L853.136 85.4663L843.56 60.5183H837.638L850.301 92.2073L845.198 104.744H850.931L867.941 60.5183H862.082Z" fill="black"/>
</svg>
