<svg width="26" height="22" viewBox="0 0 26 22" fill="none" xmlns="http://www.w3.org/2000/svg">
<mask id="path-1-inside-1_762_4575" fill="white">
<path fill-rule="evenodd" clip-rule="evenodd" d="M13.0137 2.83774C14.9501 0.27605 17.8749 -0.631636 20.6584 0.477758C23.5227 1.64766 26.1651 4.97585 25.1969 9.7765C23.3815 17.6229 13.8004 21.7983 13.3768 21.9395C13.2961 22 13.1549 22 13.0944 22C13.0137 22 12.8725 22 12.812 21.9395C12.3884 21.7983 2.7266 17.7036 0.991906 9.7765C-0.0368044 4.97585 2.52489 1.58715 5.36897 0.477758C8.15254 -0.651807 11.0773 0.255879 13.0137 2.83774ZM12.2938 7.33464H13.6688V10.3138H16.648V11.6888H13.6688V14.668H12.2938V11.6888H9.31466V10.3138H12.2938V7.33464Z"/>
</mask>
<path fill-rule="evenodd" clip-rule="evenodd" d="M13.0137 2.83774C14.9501 0.27605 17.8749 -0.631636 20.6584 0.477758C23.5227 1.64766 26.1651 4.97585 25.1969 9.7765C23.3815 17.6229 13.8004 21.7983 13.3768 21.9395C13.2961 22 13.1549 22 13.0944 22C13.0137 22 12.8725 22 12.812 21.9395C12.3884 21.7983 2.7266 17.7036 0.991906 9.7765C-0.0368044 4.97585 2.52489 1.58715 5.36897 0.477758C8.15254 -0.651807 11.0773 0.255879 13.0137 2.83774ZM12.2938 7.33464H13.6688V10.3138H16.648V11.6888H13.6688V14.668H12.2938V11.6888H9.31466V10.3138H12.2938V7.33464Z" fill="#161514"/>
<path d="M20.6584 0.477758L21.0366 -0.448031L21.0287 -0.451183L20.6584 0.477758ZM13.0137 2.83774L12.2137 3.43774L13.0106 4.50023L13.8114 3.44075L13.0137 2.83774ZM25.1969 9.7765L26.1711 10.0019L26.1743 9.98809L26.1771 9.9742L25.1969 9.7765ZM13.3768 21.9395L13.0606 20.9908L12.9066 21.0421L12.7768 21.1395L13.3768 21.9395ZM12.812 21.9395L13.5191 21.2324L13.3522 21.0655L13.1282 20.9908L12.812 21.9395ZM0.991906 9.7765L0.0140947 9.98603L0.0150226 9.99027L0.991906 9.7765ZM5.36897 0.477758L5.73241 1.40948L5.74499 1.40437L5.36897 0.477758ZM13.6688 7.33464H14.6688V6.33464H13.6688V7.33464ZM12.2938 7.33464V6.33464H11.2938V7.33464H12.2938ZM13.6688 10.3138H12.6688V11.3138H13.6688V10.3138ZM16.648 10.3138H17.648V9.3138H16.648V10.3138ZM16.648 11.6888V12.6888H17.648V11.6888H16.648ZM13.6688 11.6888V10.6888H12.6688V11.6888H13.6688ZM13.6688 14.668V15.668H14.6688V14.668H13.6688ZM12.2938 14.668H11.2938V15.668H12.2938V14.668ZM12.2938 11.6888H13.2938V10.6888H12.2938V11.6888ZM9.31466 11.6888H8.31466V12.6888H9.31466V11.6888ZM9.31466 10.3138V9.3138H8.31466V10.3138H9.31466ZM12.2938 10.3138V11.3138H13.2938V10.3138H12.2938ZM21.0287 -0.451183C17.7844 -1.74417 14.3954 -0.648454 12.216 2.23473L13.8114 3.44075C15.5048 1.20055 17.9653 0.4809 20.2882 1.4067L21.0287 -0.451183ZM26.1771 9.9742C27.2487 4.66121 24.3043 0.886733 21.0366 -0.447997L20.2803 1.40351C22.741 2.40859 25.0815 5.29048 24.2166 9.5788L26.1771 9.9742ZM13.693 22.8882C14.0211 22.7788 16.6191 21.6437 19.3717 19.5423C22.1233 17.4417 25.1868 14.2566 26.1711 10.0019L24.2226 9.55109C23.3916 13.1429 20.7568 15.9687 18.1581 17.9526C16.8707 18.9354 15.6224 19.6884 14.671 20.2035C14.1959 20.4607 13.7974 20.6572 13.5085 20.7922C13.1994 20.9366 13.0518 20.9937 13.0606 20.9908L13.693 22.8882ZM13.0944 23C13.1236 23 13.2384 23.0011 13.3694 22.9824C13.4788 22.9668 13.7347 22.921 13.9768 22.7395L12.7768 21.1395C12.8657 21.0728 12.9461 21.0407 12.9909 21.0258C13.0374 21.0103 13.0719 21.0046 13.0866 21.0025C13.1117 20.9989 13.1256 21 13.0944 21V23ZM12.1049 22.6466C12.3788 22.9205 12.7139 22.9695 12.8042 22.9824C12.9382 23.0015 13.0629 23 13.0944 23V21C13.0452 21 13.059 20.9985 13.0871 21.0025C13.104 21.0049 13.1525 21.0126 13.2172 21.0366C13.2789 21.0594 13.3999 21.1132 13.5191 21.2324L12.1049 22.6466ZM0.0150226 9.99027C0.95667 14.2934 4.02535 17.4827 6.79015 19.5751C9.5581 21.6699 12.1758 22.7815 12.4958 22.8882L13.1282 20.9908C13.1316 20.9919 12.9779 20.9331 12.6697 20.7921C12.3787 20.659 11.9776 20.4652 11.4997 20.2112C10.5427 19.7024 9.28809 18.9574 7.99708 17.9803C5.3914 16.0083 2.76183 13.1867 1.96879 9.56273L0.0150226 9.99027ZM5.00557 -0.453875C1.71529 0.829565 -1.11978 4.69459 0.0141039 9.98603L1.96971 9.56697C1.04617 5.2571 3.33448 2.34474 5.73237 1.40939L5.00557 -0.453875ZM13.8137 2.23774C11.6347 -0.667643 8.2415 -1.76711 4.99295 -0.448855L5.74499 1.40437C8.06358 0.463491 10.5199 1.1794 12.2137 3.43774L13.8137 2.23774ZM13.6688 6.33464H12.2938V8.33464H13.6688V6.33464ZM14.6688 10.3138V7.33464H12.6688V10.3138H14.6688ZM16.648 9.3138H13.6688V11.3138H16.648V9.3138ZM17.648 11.6888V10.3138H15.648V11.6888H17.648ZM13.6688 12.6888H16.648V10.6888H13.6688V12.6888ZM14.6688 14.668V11.6888H12.6688V14.668H14.6688ZM12.2938 15.668H13.6688V13.668H12.2938V15.668ZM11.2938 11.6888V14.668H13.2938V11.6888H11.2938ZM9.31466 12.6888H12.2938V10.6888H9.31466V12.6888ZM8.31466 10.3138V11.6888H10.3147V10.3138H8.31466ZM12.2938 9.3138H9.31466V11.3138H12.2938V9.3138ZM11.2938 7.33464V10.3138H13.2938V7.33464H11.2938Z" fill="white" mask="url(#path-1-inside-1_762_4575)"/>
</svg>
