<svg width="47" height="71" viewBox="0 0 47 71" fill="none" xmlns="http://www.w3.org/2000/svg">
<circle r="13.0141" transform="matrix(-1 8.74228e-08 8.74228e-08 1 18.0141 13.0141)" fill="white" fill-opacity="0.3"/>
<path d="M26.429 69.7418L26.4841 69.75H26.5398H32.1528C35.7834 69.75 39.2107 68.3518 41.7964 65.7662C42.5105 65.052 43.0969 63.9959 43.5751 62.8266C44.0586 61.6442 44.4557 60.2851 44.7632 58.9115C45.3718 56.1937 45.6506 53.3241 45.516 51.5373V37.7642C45.516 35.8311 43.9916 34.3066 42.0585 34.3066C40.1254 34.3066 38.6009 35.8311 38.6009 37.7642V37.7645V37.7649V37.7653V37.7657V37.7661V37.7665V37.7669V37.7672V37.7676V37.768V37.7684V37.7688V37.7692V37.7696V37.77V37.7703V37.7707V37.7711V37.7715V37.7719V37.7723V37.7727V37.7731V37.7734V37.7738V37.7742V37.7746V37.775V37.7754V37.7758V37.7761V37.7765V37.7769V37.7773V37.7777V37.7781V37.7785V37.7789V37.7792V37.7796V37.78V37.7804V37.7808V37.7812V37.7816V37.7819V37.7823V37.7827V37.7831V37.7835V37.7839V37.7843V37.7847V37.785V37.7854V37.7858V37.7862V37.7866V37.787V37.7874V37.7878V37.7881V37.7885V37.7889V37.7893V37.7897V37.7901V37.7905V37.7908V37.7912V37.7916V37.792V37.7924V37.7928V37.7932V37.7936V37.7939V37.7943V37.7947V37.7951V37.7955V37.7959V37.7963V37.7967V37.797V37.7974V37.7978V37.7982V37.7986V37.799V37.7994V37.7997V37.8001V37.8005V37.8009V37.8013V37.8017V37.8021V37.8025V37.8028V37.8032V37.8036V37.804V37.8044V37.8048V37.8052V37.8056V37.8059V37.8063V37.8067V37.8071V37.8075V37.8079V37.8083V37.8086V37.809V37.8094V37.8098V37.8102V37.8106V37.811V37.8114V37.8117V37.8121V37.8125V37.8129V37.8133V37.8137V37.8141V37.8145V37.8148V37.8152V37.8156V37.816V37.8164V37.8168V37.8172V37.8175V37.8179V37.8183V37.8187V37.8191V37.8195V37.8199V37.8203V37.8206V37.821V37.8214V37.8218V37.8222V37.8226V37.823V37.8234V37.8237V37.8241V37.8245V37.8249V37.8253V37.8257V37.8261V37.8264V37.8268V37.8272V37.8276V37.828V37.8284V37.8288V37.8292V37.8295V37.8299V37.8303V37.8307V37.8311V37.8315V37.8319V37.8323V37.8326V37.833V37.8334V37.8338V37.8342V37.8346V37.835V37.8353V37.8357V37.8361V37.8365V37.8369V37.8373V37.8377V37.8381V37.8384V37.8388V37.8392V37.8396V37.84V37.8404V37.8408V37.8412V37.8415V37.8419V37.8423V37.8427V37.8431V37.8435V37.8439V37.8442V37.8446V37.845V37.8454V37.8458V37.8462V37.8466V37.847V37.8473V37.8477V37.8481V37.8485V37.8489V37.8493V37.8497V37.8501V37.8504V37.8508V37.8512V37.8516V37.852V37.8524V37.8528V37.8531V37.8535V37.8539V37.8543V37.8547V37.8551V37.8555V37.8559V37.8562V37.8566V37.857V37.8574V37.8578V37.8582V37.8586V37.859V37.8593V37.8597V37.8601V37.8605V37.8609V37.8613V37.8617V37.862V37.8624V37.8628V37.8632V37.8636V37.864V37.8644V37.8648V37.8651V37.8655V37.8659V37.8663V37.8667V37.8671V37.8675V37.8679V37.8682V37.8686V37.869V37.8694V37.8698V37.8702V37.8706V37.8709V37.8713V37.8717V37.8721V37.8725V37.8729V37.8733V37.8737V37.874V37.8744V37.8748V37.8752V37.8756V37.876V37.8764V37.8768V37.8771V37.8775V37.8779V37.8783V37.8787V37.8791V37.8795V37.8798V37.8802V37.8806V37.881V37.8814V37.8818V37.8822V37.8826V37.8829V37.8833V37.8837V37.8841V37.8845V37.8849V37.8853V37.8857V37.886V37.8864V37.8868V37.8872V37.8876V37.888V37.8884V37.8887V37.8891V37.8895V37.8899V37.8903V37.8907V37.8911V37.8915V37.8918V37.8922V37.8926V37.893V37.8934V37.8938V37.8942V37.8946V37.8949V37.8953V37.8957V37.8961V37.8965V37.8969V37.8973V37.8976V37.898V37.8984V37.8988V37.8992V37.8996V37.9V37.9004V37.9007V37.9011V37.9015V37.9019V37.9023V37.9027V37.9031V37.9035V37.9038V37.9042V37.9046V37.905V37.9054V37.9058V37.9062V37.9065V37.9069V37.9073V37.9077V37.9081V37.9085V37.9089V37.9093V37.9096V37.91V37.9104V37.9108V37.9112V37.9116V37.912V37.9123V37.9127V37.9131V37.9135V37.9139V37.9143V37.9147V37.9151V37.9154V37.9158V37.9162V37.9166V37.917V37.9174V37.9178V37.9182V37.9185V37.9189V37.9193V37.9197V37.9201V37.9205V37.9209V37.9212V37.9216V37.922V37.9224V37.9228V37.9232V37.9236V37.924V37.9243V37.9247V37.9251V37.9255V37.9259V37.9263V37.9267V37.9271V37.9274V37.9278V37.9282V37.9286V37.929V37.9294V37.9298V37.9301V37.9305V37.9309V37.9313V37.9317V37.9321V37.9325V37.9329V37.9332V37.9336V37.934V37.9344V37.9348V37.9352V37.9356V37.936V37.9363V37.9367V37.9371V37.9375V37.9379V37.9383V37.9387V37.939V37.9394V37.9398V37.9402V37.9406V37.941V37.9414V37.9418V37.9421V37.9425V37.9429V37.9433V37.9437V37.9441V37.9445V37.9449V37.9452V37.9456V37.946V37.9464V37.9468V37.9472V37.9476V37.9479V37.9483V37.9487V37.9491V37.9495V37.9499V37.9503V37.9507V37.951V37.9514V37.9518V37.9522V37.9526V37.953V37.9534V37.9538V37.9541V37.9545V37.9549V37.9553V37.9557V37.9561V37.9565V37.9568V37.9572V37.9576V37.958V37.9584V37.9588V37.9592V37.9596V37.9599V37.9603V37.9607V37.9611V37.9615V37.9619V37.9623V40.4717C38.6009 40.7839 38.3424 41.0425 38.0302 41.0425C37.718 41.0425 37.4594 40.7839 37.4594 40.4717V35.3208C37.4594 33.3877 35.935 31.8632 34.0019 31.8632C32.0688 31.8632 30.5443 33.3877 30.5443 35.3208V38.0283C30.5443 38.3405 30.2858 38.5991 29.9736 38.5991C29.6614 38.5991 29.4028 38.3405 29.4028 38.0283V32.8774C29.4028 30.9443 27.8784 29.4198 25.9453 29.4198C24.0122 29.4198 22.4877 30.9443 22.4877 32.8774V35.5849C22.4877 35.8971 22.2292 36.1557 21.917 36.1557C21.6048 36.1557 21.3462 35.8971 21.3462 35.5849V15.7075C21.3462 14.7859 21.0056 13.9337 20.3341 13.2621L19.8066 13.7897L20.3341 13.2621C19.6626 12.5906 18.8103 12.25 17.8887 12.25C15.9556 12.25 14.4311 13.7745 14.4311 15.7075V44.5C14.4311 45.1506 14.0614 45.7069 13.5251 45.9132L13.5023 45.922L13.48 45.9322C12.9178 46.1917 12.2621 46.0675 11.8153 45.6206L11.8113 45.6167L7.32467 41.1961C7.32396 41.1954 7.32325 41.1947 7.32254 41.194C6.6384 40.5111 5.71471 40.184 4.81321 40.184C4.10353 40.184 3.41298 40.3437 2.79526 40.7839C1.96206 41.3683 1.46284 42.2099 1.29983 43.188C1.13685 44.1659 1.37229 45.1762 2.04083 45.9516L13.1106 62.0291L13.1293 62.0563L13.1503 62.0817C14.6396 63.8827 16.8111 65.62 19.1621 66.99C21.5117 68.3591 24.0956 69.3935 26.429 69.7418Z" fill="white" stroke="white" stroke-width="1.5"/>
</svg>
