<?xml version="1.0" encoding="UTF-8" standalone="no"?>
<!DOCTYPE svg PUBLIC "-//W3C//DTD SVG 1.1//EN" "http://www.w3.org/Graphics/SVG/1.1/DTD/svg11.dtd">
<svg xmlns="http://www.w3.org/2000/svg" xmlns:xlink="http://www.w3.org/1999/xlink" version="1.1" width="27.35962pt" height="30.200196pt" viewBox="0 0 27.35962 30.200196">
<g enable-background="new">
<path transform="matrix(1,0,0,-1,11.609741,12.439941)" d="M 8.639583 .325653 L 8.639585 .425653 L 8.639422 .425653 L 8.639583 .325653 Z M 7.137623 .445812 L 7.153679 .544516 L 7.153518 .544541 L 7.137623 .445812 Z M .043374 5.727702 L -.046837 5.684551 L -.046651 5.684166 L .043374 5.727702 Z M .125971 6.228355 L .197539 6.158511 L .197921 6.158906 L .125971 6.228355 Z M 15.606193 3.745116 L 15.696386 3.788303 L 15.696255 3.788577 L 15.606193 3.745116 Z M 15.526071 3.244463 L 15.597934 3.174922 L 15.598287 3.175291 L 15.526071 3.244463 Z M 14.662456 3.639979 L 14.731885 3.56801 L 14.785972 3.620188 L 14.750896 3.686653 L 14.662456 3.639979 Z M 8.639422 .425653 C 8.141768 .424856 7.644877 .46461 7.153679 .544515 L 7.121566 .34711 C 7.623487 .265461 8.131225 .224839 8.639743 .225653 L 8.639422 .425653 Z M 7.153518 .544541 C 5.649215 .786732 4.225563 1.388324 3.003423 2.298244 L 2.883985 2.137824 C 4.131936 1.208686 5.585655 .59439 7.121727 .347084 L 7.153518 .544541 Z M 3.003423 2.298244 C 1.781283 3.208165 .796752 4.399544 .1334 5.771239 L -.046651 5.684166 C .630711 4.283503 1.636034 3.066962 2.883985 2.137824 L 3.003423 2.298244 Z M .133586 5.770853 C .103264 5.834244 .093138 5.905417 .104577 5.974748 L -.092755 6.007307 C -.110864 5.897558 -.094833 5.784894 -.046837 5.684552 L .133586 5.770853 Z M .104577 5.974748 C .116018 6.044084 .148464 6.108227 .197538 6.158512 L .054404 6.2982 C -.023288 6.21859 -.074647 6.11705 -.092755 6.007307 L .104577 5.974748 Z M .197921 6.158906 C 1.255995 7.255075 2.563318 8.079329 4.00853 8.561483 L 3.945235 8.751204 C 2.469454 8.25885 1.134477 7.417162 .054021 6.297805 L .197921 6.158906 Z M 4.00853 8.561483 C 5.453741 9.043638 6.994049 9.169416 8.498336 8.928107 L 8.530013 9.125583 C 6.993907 9.371996 5.421016 9.243558 3.945235 8.751204 L 4.00853 8.561483 Z M 8.498336 8.928107 C 10.002623 8.686799 11.42632 8.085551 12.648211 7.175556 L 12.76767 7.33596 C 11.519933 8.265204 10.06612 8.879169 8.530013 9.125583 L 8.498336 8.928107 Z M 12.648211 7.175556 C 13.870101 6.265561 14.854003 5.07377 15.51613 3.701656 L 15.696255 3.788577 C 15.020122 5.189715 14.015408 6.406716 12.76767 7.33596 L 12.648211 7.175556 Z M 15.515999 3.701929 C 15.546341 3.63856 15.556652 3.567451 15.545553 3.498083 L 15.743041 3.466485 C 15.760566 3.576009 15.744284 3.688271 15.696385 3.788303 L 15.515999 3.701929 Z M 15.545553 3.498083 C 15.534456 3.428727 15.502462 3.364382 15.453855 3.313635 L 15.598287 3.175291 C 15.674996 3.255376 15.725515 3.356948 15.743041 3.466485 L 15.545553 3.498083 Z M 15.454208 3.314003 C 14.569993 2.400265 13.511063 1.67369 12.340363 1.177493 L 12.41841 .993351 C 13.613804 1.500013 14.695069 2.241914 15.597933 3.174922 L 15.454208 3.314003 Z M 12.340363 1.177493 C 11.169662 .681296 9.911101 .425613 8.639585 .425653 L 8.639579 .225653 C 9.937913 .225613 11.223018 .486689 12.41841 .993351 L 12.340363 1.177493 Z M .888648 5.786166 C 1.523345 4.583501 2.42908 3.544937 3.53423 2.752548 L 3.65077 2.915086 C 2.570824 3.689404 1.685748 4.70428 1.065528 5.879513 L .888648 5.786166 Z M 3.53423 2.752548 C 4.639381 1.960157 5.913667 1.43566 7.256407 1.220508 L 7.28805 1.417988 C 5.975935 1.628234 4.730714 2.140768 3.65077 2.915086 L 3.53423 2.752548 Z M 7.256407 1.220508 C 8.599146 1.005355 9.973528 1.105442 11.270929 1.512862 L 11.211008 1.703674 C 9.943198 1.305548 8.600164 1.207743 7.28805 1.417988 L 7.256407 1.220508 Z M 11.270929 1.512862 C 12.56833 1.920281 13.753196 2.623866 14.731885 3.56801 L 14.593027 3.711949 C 13.63666 2.789339 12.478819 2.101801 11.211008 1.703674 L 11.270929 1.512862 Z M 14.750896 3.686653 C 14.116199 4.889317 13.210495 5.92788 12.105344 6.720271 L 11.988805 6.557733 C 13.068748 5.783416 13.953795 4.76854 14.574017 3.593306 L 14.750896 3.686653 Z M 12.105344 6.720271 C 11.000193 7.512661 9.725877 8.037158 8.383137 8.252311 L 8.351494 8.054831 C 9.663609 7.844584 10.90886 7.33205 11.988805 6.557733 L 12.105344 6.720271 Z M 8.383137 8.252311 C 7.040397 8.467463 5.666016 8.367376 4.368615 7.959957 L 4.428535 7.769144 C 5.696345 8.167271 7.03938 8.265076 8.351494 8.054831 L 8.383137 8.252311 Z M 4.368615 7.959957 C 3.071213 7.552538 1.886348 6.848953 .907659 5.904809 L 1.046517 5.76087 C 2.002884 6.68348 3.160725 7.371017 4.428535 7.769144 L 4.368615 7.959957 Z "/>
<path transform="matrix(1,0,0,-1,11.609741,12.439941)" d="M 8.639583 .325653 C 8.136497 .324848 7.634182 .365036 7.137623 .445812 C 5.617435 .690561 4.17875 1.298505 2.943704 2.218034 C 1.708659 3.137564 .713732 4.341523 .043374 5.727702 C .004215 5.809569 -.008863 5.901488 .005911 5.991027 C .020685 6.080567 .062588 6.163408 .125971 6.228355 C 1.195236 7.336119 2.516386 8.169089 3.976882 8.656343 C 5.437378 9.143598 6.993978 9.270706 8.514174 9.026845 C 10.034371 8.782985 11.473126 8.175378 12.70794 7.255758 C 13.942755 6.336139 14.937062 5.131742 15.606193 3.745116 C 15.645312 3.663415 15.658608 3.57173 15.644298 3.482284 C 15.629986 3.392838 15.58873 3.309879 15.526071 3.244463 C 14.632531 2.32109 13.562433 1.586852 12.379387 1.085422 C 11.19634 .583992 9.924507 .325613 8.639583 .325653 Z M .977088 5.832839 C 1.604547 4.64389 2.499952 3.61717 3.5925 2.833817 C 4.685048 2.050463 5.944801 1.531947 7.272228 1.319248 C 8.599655 1.106549 9.958364 1.205495 11.240969 1.608268 C 12.523575 2.011041 13.694928 2.706602 14.662456 3.639979 C 14.034997 4.828928 13.139622 5.855648 12.047074 6.639002 C 10.954527 7.422356 9.694742 7.940871 8.367315 8.15357 C 7.039888 8.36627 5.68118 8.267323 4.398575 7.864551 C 3.115969 7.461778 1.944616 6.766216 .977088 5.832839 Z " fill="#161514"/>
<path transform="matrix(1,0,0,-1,11.605835,7.267578)" d="M .027155 .900604 L .121029 .866141 L .121054 .866209 L .027155 .900604 Z M 15.189427 4.888306 L 15.124595 4.81216 L 15.125537 4.811378 L 15.189427 4.888306 Z M 15.319602 4.387652 L 15.226319 4.423724 L 15.225739 4.422145 L 15.319602 4.387652 Z M 13.224369 1.043288 L 13.152382 1.112701 L 13.152027 1.112329 L 13.224369 1.043288 Z M 12.618567 1.01325 L 12.683726 1.089109 L 12.683387 1.089398 L 12.618567 1.01325 Z M .750603 .429989 L .819978 .357876 L .822511 .360497 L .750603 .429989 Z M 12.85389 1.966994 L 12.7925 1.888057 L 12.867032 1.830091 L 12.929176 1.901176 L 12.85389 1.966994 Z M 14.355851 4.410185 L 14.448568 4.372723 L 14.476603 4.442106 L 14.417943 4.488572 L 14.355851 4.410185 Z M 1.77443 2.4301 L 1.691262 2.485626 L 1.828904 2.34624 L 1.77443 2.4301 Z M .442764 .404825 C .387564 .404874 .33321 .418244 .284266 .443807 L .191675 .266531 C .269131 .226076 .355185 .204903 .442587 .204825 L .442764 .404825 Z M .284266 .443807 C .235313 .469375 .193245 .506372 .161673 .551638 L -.002368 .437223 C .047639 .365527 .114229 .30698 .191675 .266531 L .284266 .443807 Z M .161673 .551638 C .130094 .596913 .109911 .649146 .10283 .703907 L -.095518 .678259 C -.084312 .591596 -.052368 .50891 -.002368 .437223 L .161673 .551638 Z M .10283 .703907 C .095752 .758647 .101998 .814303 .121029 .866141 L -.066719 .935067 C -.096833 .85304 -.106727 .764943 -.095518 .678259 L .10283 .703907 Z M .121054 .866209 C .645128 2.296932 1.507287 3.579759 2.634097 4.60539 L 2.499472 4.753296 C 1.34882 3.705964 .468419 2.395993 -.066744 .934999 L .121054 .866209 Z M 2.634097 4.60539 C 3.760908 5.631021 5.118952 6.369055 6.592526 6.756607 L 6.541656 6.950029 C 5.036902 6.554277 3.650125 5.800627 2.499472 4.753296 L 2.634097 4.60539 Z M 6.592526 6.756607 C 8.066102 7.144159 9.611542 7.169741 11.097138 6.831177 L 11.141578 7.026177 C 9.62455 7.371904 8.046411 7.345782 6.541656 6.950029 L 6.592526 6.756607 Z M 11.097138 6.831177 C 12.582734 6.492613 13.964458 5.799936 15.124599 4.812165 L 15.254255 4.964447 C 14.069567 5.973117 12.658607 6.680449 11.141578 7.026177 L 11.097138 6.831177 Z M 15.125537 4.811378 C 15.180821 4.765462 15.220288 4.703344 15.238374 4.633786 L 15.431938 4.684113 C 15.403312 4.794214 15.340837 4.892547 15.253319 4.965234 L 15.125537 4.811378 Z M 15.238374 4.633786 C 15.25646 4.564223 15.252251 4.490743 15.226333 4.423719 L 15.412872 4.351586 C 15.453905 4.457701 15.460564 4.574017 15.431938 4.684113 L 15.238374 4.633786 Z M 15.225739 4.422145 C 14.771859 3.187024 14.065753 2.059951 13.152383 1.1127 L 13.296356 .973877 C 14.229001 1.941118 14.950007 3.091975 15.413465 4.35316 L 15.225739 4.422145 Z M 13.152027 1.112329 C 13.091797 1.049217 13.009651 1.011628 12.922521 1.007307 L 12.932425 .807552 C 13.070725 .81441 13.201113 .874076 13.296712 .974248 L 13.152027 1.112329 Z M 12.922521 1.007307 C 12.835384 1.002986 12.7499 1.032269 12.683725 1.089109 L 12.553411 .937392 C 12.658454 .847166 12.79413 .800695 12.932425 .807552 L 12.922521 1.007307 Z M 12.683387 1.089398 C 11.4578 2.13264 9.968321 2.817803 8.378657 3.069575 L 8.347371 2.872038 C 9.900715 2.626018 11.356164 1.956509 12.553749 .937102 L 12.683387 1.089398 Z M 8.378768 3.069558 C 6.983206 3.292189 5.554554 3.174809 4.214043 2.727384 L 4.277363 2.537672 C 5.587352 2.974909 6.983475 3.089618 8.347261 2.872056 L 8.378768 3.069558 Z M 4.214043 2.727384 C 2.873532 2.279959 1.660764 1.515699 .678694 .499481 L .822511 .360497 C 1.78222 1.353576 2.967374 2.100435 4.277363 2.537672 L 4.214043 2.727384 Z M .681273 .502054 C .616961 .440183 .531312 .405372 .44206 .404823 L .44329 .204827 C .583807 .205691 .718658 .260493 .819932 .357924 L .681273 .502054 Z M 7.003867 3.874615 C 7.501545 3.875161 7.99845 3.835409 8.489712 3.755749 L 8.521725 3.95317 C 8.019806 4.034559 7.512122 4.075172 7.003648 4.074615 L 7.003867 3.874615 Z M 8.489977 3.755706 C 10.05862 3.50567 11.538623 2.863225 12.7925 1.888057 L 12.915282 2.045932 C 11.634798 3.041793 10.123389 3.697871 8.521459 3.953213 L 8.489977 3.755706 Z M 12.929176 1.901176 C 13.570157 2.634358 14.083734 3.469779 14.448568 4.372723 L 14.263133 4.447648 C 13.90667 3.565423 13.404878 2.749171 12.778605 2.032813 L 12.929176 1.901176 Z M 14.417943 4.488572 C 13.469086 5.240185 12.374765 5.787019 11.204019 6.094592 L 11.1532 5.901156 C 12.297222 5.600604 13.366562 5.066253 14.293758 4.331798 L 14.417943 4.488572 Z M 11.204019 6.094592 C 10.033271 6.402164 8.811496 6.4638 7.615738 6.27561 L 7.646832 6.078042 C 8.815292 6.261936 10.009178 6.201708 11.1532 5.901156 L 11.204019 6.094592 Z M 7.615738 6.27561 C 6.419982 6.08742 5.276185 5.65349 4.256505 5.001184 L 4.364281 4.832708 C 5.360684 5.470123 6.478371 5.894147 7.646832 6.078042 L 7.615738 6.27561 Z M 4.256505 5.001184 C 3.236824 4.348878 2.363389 3.492351 1.691262 2.485626 L 1.857598 2.374574 C 2.514382 3.358319 3.367879 4.195293 4.364281 4.832708 L 4.256505 5.001184 Z M 1.828904 2.34624 C 3.369097 3.346708 5.166982 3.877724 7.003588 3.874615 L 7.003927 4.074615 C 5.128532 4.077789 3.292677 3.535559 1.719956 2.513961 L 1.828904 2.34624 Z "/>
<path transform="matrix(1,0,0,-1,11.605835,7.267578)" d="M .442675 .304825 C .371374 .304888 .30117 .32216 .237971 .355169 C .174771 .388178 .120442 .43595 .079653 .494431 C .038863 .552912 .0128 .620371 .003656 .691083 C -.005487 .761795 .002582 .833672 .027155 .900604 C .556774 2.346462 1.428053 3.642862 2.566785 4.679343 C 3.705516 5.715824 5.077927 6.461666 6.567091 6.853318 C 8.056256 7.244971 9.618046 7.270823 11.119358 6.928677 C 12.62067 6.586531 14.017012 5.886527 15.189427 4.888306 C 15.260829 4.829004 15.3118 4.748779 15.335156 4.658949 C 15.358512 4.569119 15.353078 4.474222 15.319602 4.387652 C 14.860933 3.139499 14.147377 2.000535 13.224369 1.043288 C 13.146455 .961647 13.040189 .913019 12.927473 .90743 C 12.814757 .901841 12.704177 .939717 12.618567 1.01325 C 11.406982 2.044575 9.934518 2.72191 8.363014 2.970807 C 6.98334 3.190903 5.570953 3.074859 4.245703 2.632528 C 2.920453 2.190197 1.721492 1.434638 .750603 .429989 C .667809 .350338 .557559 .305532 .442675 .304825 Z M 7.003757 3.974615 C 7.506833 3.975167 8.009129 3.934984 8.505718 3.85446 C 10.091005 3.601771 11.586711 2.952509 12.85389 1.966994 C 13.487517 2.691765 13.995201 3.517601 14.355851 4.410185 C 13.417824 5.153218 12.335994 5.693811 11.178609 5.997874 C 10.021224 6.301936 8.813395 6.362868 7.631285 6.176826 C 6.449177 5.990784 5.318434 5.561807 4.310393 4.916946 C 3.302351 4.272085 2.438885 3.425335 1.77443 2.4301 C 3.330887 3.441133 5.147757 3.977757 7.003757 3.974615 Z " fill="#161514"/>
<path transform="matrix(1,0,0,-1,.099976,30.30127)" d="M 11.948087 .205866 L 12.048087 .205866 L 12.048087 .305866 L 11.948087 .305866 L 11.948087 .205866 Z M 11.998171 24.10205 L 12.000239 24.202052 L 11.998171 24.202052 L 11.998171 24.10205 Z M 12.40871 23.851725 L 12.498192 23.896485 L 12.496642 23.899348 L 12.40871 23.851725 Z M 21.337843 19.148089 L 21.32534 19.24731 L 21.324156 19.247147 L 21.337843 19.148089 Z M 21.76091 18.962845 L 21.843039 19.01991 L 21.842297 19.020949 L 21.76091 18.962845 Z M 11.948087 .200863 L 11.848086 .200863 L 11.848086 .100887 L 11.948062 .100863 L 11.948087 .200863 Z M 21.18264 18.241904 L 21.266123 18.296956 L 21.232502 18.347939 L 21.171792 18.341313 L 21.18264 18.241904 Z M 18.64185 18.30699 L 18.625876 18.208275 L 18.625926 18.208268 L 18.64185 18.30699 Z M 11.948087 .305866 C 8.805778 .305866 5.792191 1.554144 3.570242 3.776093 L 3.428821 3.63467 C 5.688276 1.375216 8.752734 .105865 11.948087 .105865 L 11.948087 .305866 Z M 3.570242 3.776093 C 1.348293 5.998041 .1 9.011651 .1 12.15396 L -.1 12.15396 C -.1 8.958608 1.169365 5.894127 3.428821 3.63467 L 3.570242 3.776093 Z M .1 12.15396 C .1 15.296269 1.348293 18.309876 3.570242 20.531825 L 3.428821 20.673245 C 1.169365 18.41379 -.1 15.349313 -.1 12.15396 L .1 12.15396 Z M 3.570242 20.531825 C 5.792191 22.753773 8.805778 24.00205 11.948087 24.00205 L 11.948087 24.202052 C 8.752734 24.202052 5.688276 22.932702 3.428821 20.673245 L 3.570242 20.531825 Z M 11.948087 24.00205 L 11.998171 24.00205 L 11.998171 24.202052 L 11.948087 24.202052 L 11.948087 24.00205 Z M 11.996102 24.002072 C 12.062881 24.00069 12.1281 23.981646 12.18513 23.94687 L 12.289251 24.11763 C 12.202059 24.170796 12.102343 24.199917 12.000238 24.20203 L 11.996102 24.002072 Z M 12.18513 23.94687 C 12.242164 23.912095 12.28897 23.862832 12.320778 23.804102 L 12.496642 23.899348 C 12.448006 23.989151 12.376441 24.064465 12.289251 24.11763 L 12.18513 23.94687 Z M 12.319275 23.806988 C 13.138491 22.169262 14.450409 20.829485 16.070557 19.976035 L 16.163769 20.152985 C 14.580616 20.986948 13.298655 22.296133 12.498145 23.896462 L 12.319275 23.806988 Z M 16.070557 19.976035 C 17.690705 19.122586 19.537573 18.79839 21.35153 19.049029 L 21.324156 19.247147 C 19.55162 19.00223 17.746922 19.319024 16.163769 20.152985 L 16.070557 19.976035 Z M 21.350344 19.048872 C 21.413109 19.056782 21.476847 19.047558 21.534798 19.022185 L 21.615017 19.20539 C 21.52401 19.24524 21.423913 19.259724 21.32534 19.247303 L 21.350344 19.048872 Z M 21.534798 19.022185 C 21.592755 18.996808 21.642769 18.95622 21.679524 18.90474 L 21.842297 19.020949 C 21.784567 19.101815 21.706019 19.165543 21.615017 19.20539 L 21.534798 19.022185 Z M 21.67879 18.905783 C 22.913416 17.128958 23.637789 15.047919 23.773329 12.888512 L 23.972937 12.90104 C 23.835108 15.096906 23.098504 17.213082 21.84303 19.019907 L 21.67879 18.905783 Z M 23.773329 12.888512 C 23.90887 10.729104 23.45039 8.573818 22.447632 6.656557 L 22.624857 6.563866 C 23.644545 8.513498 24.110768 10.705174 23.972937 12.90104 L 23.773329 12.888512 Z M 22.447632 6.656557 C 21.444876 4.739296 19.936148 3.133301 18.085196 2.012859 L 18.188765 1.841764 C 20.070967 2.981123 21.60517 4.614235 22.624857 6.563866 L 22.447632 6.656557 Z M 18.085196 2.012859 C 16.234244 .89242 14.111768 .300333 11.948112 .300861 L 11.948062 .100863 C 14.14825 .100325 16.30656 .702408 18.188765 1.841764 L 18.085196 2.012859 Z M 12.048087 .200863 L 12.048087 .205866 L 11.848086 .205866 L 11.848086 .200863 L 12.048087 .200863 Z M 11.743526 23.313374 C 9.266535 23.268494 6.87481 22.40102 4.944988 20.847544 L 5.0704 20.69175 C 6.965651 22.217398 9.31453 23.06933 11.747149 23.113408 L 11.743526 23.313374 Z M 4.944988 20.847544 C 3.015167 19.294066 1.656878 17.142834 1.08397 14.732591 L 1.278549 14.686339 C 1.841194 17.053408 3.17515 19.1661 5.0704 20.69175 L 4.944988 20.847544 Z M 1.08397 14.732591 C .511062 12.322346 .756108 9.790003 1.780502 7.534317 L 1.962603 7.617016 C .95656 9.832294 .715904 12.319272 1.278549 14.686339 L 1.08397 14.732591 Z M 1.780502 7.534317 C 2.804896 5.278631 4.550446 3.427744 6.742311 2.27309 L 6.835526 2.450039 C 4.682926 3.584009 2.968646 5.401739 1.962603 7.617016 L 1.780502 7.534317 Z M 6.742311 2.27309 C 8.934177 1.118435 11.447838 .725609 13.887482 1.156473 L 13.852697 1.353426 C 11.456758 .930279 8.988128 1.316069 6.835526 2.450039 L 6.742311 2.27309 Z M 13.887482 1.156473 C 16.327126 1.587337 18.554144 2.817411 20.217904 4.653008 L 20.069716 4.787321 C 18.43576 2.98461 16.248637 1.776571 13.852697 1.353426 L 13.887482 1.156473 Z M 20.217904 4.653008 C 21.881663 6.488602 22.887644 8.825442 23.077414 11.295562 L 22.878003 11.310882 C 22.691632 8.885013 21.70367 6.590034 20.069716 4.787321 L 20.217904 4.653008 Z M 23.077414 11.295562 C 23.267186 13.765681 22.629967 16.22876 21.266123 18.296956 L 21.09916 18.186852 C 22.43857 16.155705 23.064373 13.736751 22.878003 11.310882 L 23.077414 11.295562 Z M 21.171792 18.341313 C 20.33468 18.249953 19.489109 18.271616 18.657774 18.405714 L 18.625926 18.208268 C 19.474968 18.071312 20.338549 18.049187 21.193491 18.142493 L 21.171792 18.341313 Z M 18.657826 18.405707 C 17.224238 18.6377 15.863162 19.196209 14.679833 20.038067 L 14.563894 19.875102 C 15.772207 19.015467 17.16202 18.445166 18.625876 18.208275 L 18.657826 18.405707 Z M 14.679833 20.038067 C 13.496506 20.879927 12.522598 21.982594 11.833358 23.26085 L 11.657318 23.16593 C 12.361111 21.860684 13.35558 20.734738 14.563894 19.875102 L 14.679833 20.038067 Z "/>
<path transform="matrix(1,0,0,-1,.099976,30.30127)" d="M 11.948087 .205866 C 8.779256 .205866 5.740233 1.46468 3.499531 3.705381 C 1.258829 5.946083 0 8.985129 0 12.15396 C 0 15.322791 1.258829 18.361832 3.499531 20.602536 C 5.740233 22.843237 8.779256 24.10205 11.948087 24.10205 L 11.998171 24.10205 C 12.082612 24.100304 12.165079 24.07622 12.237191 24.03225 C 12.309302 23.98828 12.368488 23.925992 12.40871 23.851725 C 13.218573 22.232699 14.515512 20.908217 16.117163 20.06451 C 17.718813 19.220803 19.544596 18.900309 21.337843 19.148089 C 21.41851 19.158253 21.500428 19.146399 21.574908 19.113787 C 21.649386 19.081175 21.713667 19.029019 21.76091 18.962845 C 23.005959 17.17102 23.736449 15.072412 23.873133 12.894776 C 24.009819 10.717139 23.547467 8.543658 22.536246 6.610212 C 21.525023 4.676765 20.003558 3.057211 18.13698 1.927313 C 16.270403 .797413 14.130009 .200329 11.948087 .200863 L 11.948087 .205866 Z M 11.745338 23.21339 C 9.290533 23.168913 6.92023 22.309208 5.007694 20.769646 C 3.095159 19.230084 1.749036 17.098122 1.18126 14.709465 C .613483 12.320809 .856334 9.811149 1.871552 7.575666 C 2.886771 5.340185 4.616685 3.505877 6.788919 2.361565 C 8.961152 1.217253 11.452298 .827944 13.87009 1.25495 C 16.28788 1.681953 18.494954 2.901011 20.14381 4.720165 C 21.792668 6.539318 22.789637 8.855227 22.977709 11.303222 C 23.16578 13.751216 22.53427 16.192233 21.18264 18.241904 C 20.336615 18.14957 19.482039 18.171463 18.64185 18.30699 C 17.193129 18.541432 15.817685 19.105837 14.621864 19.956585 C 13.426044 20.807332 12.441854 21.921639 11.745338 23.21339 Z " fill="#161514"/>
<path transform="matrix(1,0,0,-1,24.068848,2.2368165)" d="M .365467 .000004 C .567314 .000004 .730934 .163635 .730934 .365482 C .730934 .56733 .567314 .730957 .365467 .730957 C .16362 .730957 0 .56733 0 .365482 C 0 .163635 .16362 .000004 .365467 .000004 Z " fill="#161514"/>
<path transform="matrix(1,0,0,-1,21.314942,2.2368165)" d="M .365467 .000004 C .567314 .000004 .730934 .163635 .730934 .365482 C .730934 .56733 .567314 .730957 .365467 .730957 C .16362 .730957 0 .56733 0 .365482 C 0 .163635 .16362 .000004 .365467 .000004 Z " fill="#161514"/>
<path transform="matrix(1,0,0,-1,19.938965,1.3178711)" d="M .365467 .000004 C .567314 .000004 .730934 .163635 .730934 .365482 C .730934 .56733 .567314 .730957 .365467 .730957 C .16362 .730957 0 .56733 0 .365482 C 0 .163635 .16362 .000004 .365467 .000004 Z " fill="#161514"/>
<path transform="matrix(1,0,0,-1,18.562012,2.2363282)" d="M .365467 .000004 C .567314 .000004 .730934 .163635 .730934 .365482 C .730934 .56733 .567314 .730957 .365467 .730957 C .16362 .730957 0 .56733 0 .365482 C 0 .163635 .16362 .000004 .365467 .000004 Z " fill="#161514"/>
<path transform="matrix(1,0,0,-1,25.442872,3.1533204)" d="M .365467 -0 C .567314 -0 .730934 .163631 .730934 .365478 C .730934 .567326 .567314 .730957 .365467 .730957 C .16362 .730957 0 .567326 0 .365478 C 0 .163631 .16362 -0 .365467 -0 Z " fill="#161514"/>
<path transform="matrix(1,0,0,-1,24.068848,4.071289)" d="M .365467 .000004 C .567314 .000004 .730934 .163635 .730934 .365482 C .730934 .56733 .567314 .730957 .365467 .730957 C .16362 .730957 0 .56733 0 .365482 C 0 .163635 .16362 .000004 .365467 .000004 Z " fill="#161514"/>
<path transform="matrix(1,0,0,-1,22.691895,3.1533204)" d="M .365467 -0 C .567314 -0 .730934 .163631 .730934 .365478 C .730934 .567326 .567314 .730957 .365467 .730957 C .16362 .730957 0 .567326 0 .365478 C 0 .163631 .16362 -0 .365467 -0 Z " fill="#161514"/>
<path transform="matrix(1,0,0,-1,21.314942,4.071289)" d="M .365467 .000004 C .567314 .000004 .730934 .163635 .730934 .365482 C .730934 .56733 .567314 .730957 .365467 .730957 C .16362 .730957 0 .56733 0 .365482 C 0 .163635 .16362 .000004 .365467 .000004 Z " fill="#161514"/>
<path transform="matrix(1,0,0,-1,19.938965,3.1533204)" d="M .365467 -0 C .567314 -0 .730934 .163631 .730934 .365478 C .730934 .567326 .567314 .730957 .365467 .730957 C .16362 .730957 0 .567326 0 .365478 C 0 .163631 .16362 -0 .365467 -0 Z " fill="#161514"/>
<path transform="matrix(1,0,0,-1,17.185059,3.1533204)" d="M .365467 -0 C .567314 -0 .730934 .163631 .730934 .365478 C .730934 .567326 .567314 .730957 .365467 .730957 C .16362 .730957 0 .567326 0 .365478 C 0 .163631 .16362 -0 .365467 -0 Z " fill="#161514"/>
<path transform="matrix(1,0,0,-1,22.691895,4.9907228)" d="M .365467 .000004 C .567314 .000004 .730934 .163635 .730934 .365482 C .730934 .56733 .567314 .730957 .365467 .730957 C .16362 .730957 0 .56733 0 .365482 C 0 .163635 .16362 .000004 .365467 .000004 Z " fill="#161514"/>
<path transform="matrix(1,0,0,-1,15.808105,3.1533204)" d="M .365467 -0 C .567314 -0 .730934 .163631 .730934 .365478 C .730934 .567326 .567314 .730957 .365467 .730957 C .16362 .730957 0 .567326 0 .365478 C 0 .163631 .16362 -0 .365467 -0 Z " fill="#161514"/>
<path transform="matrix(1,0,0,-1,14.431152,4.071289)" d="M .365467 .000004 C .567314 .000004 .730934 .163635 .730934 .365482 C .730934 .56733 .567314 .730957 .365467 .730957 C .16362 .730957 0 .56733 0 .365482 C 0 .163635 .16362 .000004 .365467 .000004 Z " fill="#161514"/>
<path transform="matrix(1,0,0,-1,24.068848,9.579102)" d="M .365467 .000004 C .567314 .000004 .730934 .163635 .730934 .365482 C .730934 .56733 .567314 .730957 .365467 .730957 C .16362 .730957 0 .56733 0 .365482 C 0 .163635 .16362 .000004 .365467 .000004 Z " fill="#161514"/>
<path transform="matrix(1,0,0,-1,21.314942,9.57959)" d="M .365467 .000004 C .567314 .000004 .730934 .163635 .730934 .365482 C .730934 .56733 .567314 .730957 .365467 .730957 C .16362 .730957 0 .56733 0 .365482 C 0 .163635 .16362 .000004 .365467 .000004 Z " fill="#161514"/>
<path transform="matrix(1,0,0,-1,18.562012,9.579102)" d="M .365467 .000004 C .567314 .000004 .730934 .163635 .730934 .365482 C .730934 .56733 .567314 .730957 .365467 .730957 C .16362 .730957 0 .56733 0 .365482 C 0 .163635 .16362 .000004 .365467 .000004 Z " fill="#161514"/>
<path transform="matrix(1,0,0,-1,22.691895,10.495117)" d="M .365467 .000004 C .567314 .000004 .730934 .163631 .730934 .365478 C .730934 .567326 .567314 .730957 .365467 .730957 C .16362 .730957 0 .567326 0 .365478 C 0 .163631 .16362 .000004 .365467 .000004 Z " fill="#161514"/>
<path transform="matrix(1,0,0,-1,21.314942,11.414551)" d="M .365467 -0 C .567314 -0 .730934 .163631 .730934 .365478 C .730934 .567326 .567314 .730957 .365467 .730957 C .16362 .730957 0 .567326 0 .365478 C 0 .163631 .16362 -0 .365467 -0 Z " fill="#161514"/>
<path transform="matrix(1,0,0,-1,19.937989,10.495117)" d="M .365467 .000004 C .567314 .000004 .730934 .163631 .730934 .365478 C .730934 .567326 .567314 .730957 .365467 .730957 C .16362 .730957 0 .567326 0 .365478 C 0 .163631 .16362 .000004 .365467 .000004 Z " fill="#161514"/>
<path transform="matrix(1,0,0,-1,18.562012,11.4140629)" d="M .365467 -0 C .567314 -0 .730934 .163631 .730934 .365478 C .730934 .567326 .567314 .730957 .365467 .730957 C .16362 .730957 0 .567326 0 .365478 C 0 .163631 .16362 -0 .365467 -0 Z " fill="#161514"/>
<path transform="matrix(1,0,0,-1,17.185059,10.495117)" d="M .365467 .000004 C .567314 .000004 .730934 .163631 .730934 .365478 C .730934 .567326 .567314 .730957 .365467 .730957 C .16362 .730957 0 .567326 0 .365478 C 0 .163631 .16362 .000004 .365467 .000004 Z " fill="#161514"/>
<path transform="matrix(1,0,0,-1,14.431152,9.57959)" d="M .365467 .000004 C .567314 .000004 .730934 .163635 .730934 .365482 C .730934 .56733 .567314 .730957 .365467 .730957 C .16362 .730957 0 .56733 0 .365482 C 0 .163635 .16362 .000004 .365467 .000004 Z " fill="#161514"/>
<path transform="matrix(1,0,0,-1,15.808105,10.495117)" d="M .365467 .000004 C .567314 .000004 .730934 .163631 .730934 .365478 C .730934 .567326 .567314 .730957 .365467 .730957 C .16362 .730957 0 .567326 0 .365478 C 0 .163631 .16362 .000004 .365467 .000004 Z " fill="#161514"/>
<path transform="matrix(1,0,0,-1,21.314942,5.9067385)" d="M .365467 -0 C .567314 -0 .730934 .163631 .730934 .365478 C .730934 .567326 .567314 .730957 .365467 .730957 C .16362 .730957 0 .567326 0 .365478 C 0 .163631 .16362 -0 .365467 -0 Z " fill="#161514"/>
<path transform="matrix(1,0,0,-1,19.937989,4.9907228)" d="M .365467 .000004 C .567314 .000004 .730934 .163635 .730934 .365482 C .730934 .56733 .567314 .730957 .365467 .730957 C .16362 .730957 0 .56733 0 .365482 C 0 .163635 .16362 .000004 .365467 .000004 Z " fill="#161514"/>
<path transform="matrix(1,0,0,-1,18.562012,5.90625)" d="M .365467 -0 C .567314 -0 .730934 .163631 .730934 .365478 C .730934 .567326 .567314 .730957 .365467 .730957 C .16362 .730957 0 .567326 0 .365478 C 0 .163631 .16362 -0 .365467 -0 Z " fill="#161514"/>
<path transform="matrix(1,0,0,-1,17.185059,4.9907228)" d="M .365467 .000004 C .567314 .000004 .730934 .163635 .730934 .365482 C .730934 .56733 .567314 .730957 .365467 .730957 C .16362 .730957 0 .56733 0 .365482 C 0 .163635 .16362 .000004 .365467 .000004 Z " fill="#161514"/>
<path transform="matrix(1,0,0,-1,25.442872,8.660645)" d="M .365467 -0 C .567314 -0 .730934 .163631 .730934 .365478 C .730934 .567326 .567314 .730957 .365467 .730957 C .16362 .730957 0 .567326 0 .365478 C 0 .163631 .16362 -0 .365467 -0 Z " fill="#161514"/>
<path transform="matrix(1,0,0,-1,22.691895,8.660645)" d="M .365467 -0 C .567314 -0 .730934 .163631 .730934 .365478 C .730934 .567326 .567314 .730957 .365467 .730957 C .16362 .730957 0 .567326 0 .365478 C 0 .163631 .16362 -0 .365467 -0 Z " fill="#161514"/>
<path transform="matrix(1,0,0,-1,19.937989,8.660645)" d="M .365467 -0 C .567314 -0 .730934 .163631 .730934 .365478 C .730934 .567326 .567314 .730957 .365467 .730957 C .16362 .730957 0 .567326 0 .365478 C 0 .163631 .16362 -0 .365467 -0 Z " fill="#161514"/>
<path transform="matrix(1,0,0,-1,17.185059,8.660156)" d="M .365467 -0 C .567314 -0 .730934 .163631 .730934 .365478 C .730934 .567326 .567314 .730957 .365467 .730957 C .16362 .730957 0 .567326 0 .365478 C 0 .163631 .16362 -0 .365467 -0 Z " fill="#161514"/>
<path transform="matrix(1,0,0,-1,24.068848,7.7441408)" d="M .365467 .000004 C .567314 .000004 .730934 .163635 .730934 .365482 C .730934 .56733 .567314 .730957 .365467 .730957 C .16362 .730957 0 .56733 0 .365482 C 0 .163635 .16362 .000004 .365467 .000004 Z " fill="#161514"/>
<path transform="matrix(1,0,0,-1,22.691895,6.826172)" d="M .365467 .000004 C .567314 .000004 .730934 .163635 .730934 .365482 C .730934 .56733 .567314 .730957 .365467 .730957 C .16362 .730957 0 .56733 0 .365482 C 0 .163635 .16362 .000004 .365467 .000004 Z " fill="#161514"/>
<path transform="matrix(1,0,0,-1,21.314942,7.7441408)" d="M .365467 .000004 C .567314 .000004 .730934 .163635 .730934 .365482 C .730934 .56733 .567314 .730957 .365467 .730957 C .16362 .730957 0 .56733 0 .365482 C 0 .163635 .16362 .000004 .365467 .000004 Z " fill="#161514"/>
<path transform="matrix(1,0,0,-1,19.937989,6.826172)" d="M .365467 .000004 C .567314 .000004 .730934 .163635 .730934 .365482 C .730934 .56733 .567314 .730957 .365467 .730957 C .16362 .730957 0 .56733 0 .365482 C 0 .163635 .16362 .000004 .365467 .000004 Z " fill="#161514"/>
<path transform="matrix(1,0,0,-1,18.562012,7.7441408)" d="M .365467 .000004 C .567314 .000004 .730934 .163635 .730934 .365482 C .730934 .56733 .567314 .730957 .365467 .730957 C .16362 .730957 0 .56733 0 .365482 C 0 .163635 .16362 .000004 .365467 .000004 Z " fill="#161514"/>
<path transform="matrix(1,0,0,-1,17.185059,6.826172)" d="M .365467 .000004 C .567314 .000004 .730934 .163635 .730934 .365482 C .730934 .56733 .567314 .730957 .365467 .730957 C .16362 .730957 0 .56733 0 .365482 C 0 .163635 .16362 .000004 .365467 .000004 Z " fill="#161514"/>
<path transform="matrix(1,0,0,-1,15.808105,4.9907228)" d="M .365467 .000004 C .567314 .000004 .730934 .163635 .730934 .365482 C .730934 .56733 .567314 .730957 .365467 .730957 C .16362 .730957 0 .56733 0 .365482 C 0 .163635 .16362 .000004 .365467 .000004 Z " fill="#161514"/>
<path transform="matrix(1,0,0,-1,14.431152,5.9067385)" d="M .365467 -0 C .567314 -0 .730934 .163631 .730934 .365478 C .730934 .567326 .567314 .730957 .365467 .730957 C .16362 .730957 0 .567326 0 .365478 C 0 .163631 .16362 -0 .365467 -0 Z " fill="#161514"/>
<path transform="matrix(1,0,0,-1,15.808105,8.660156)" d="M .365467 -0 C .567314 -0 .730934 .163631 .730934 .365478 C .730934 .567326 .567314 .730957 .365467 .730957 C .16362 .730957 0 .567326 0 .365478 C 0 .163631 .16362 -0 .365467 -0 Z " fill="#161514"/>
<path transform="matrix(1,0,0,-1,13.054199,8.660645)" d="M .365467 -0 C .567314 -0 .730934 .163631 .730934 .365478 C .730934 .567326 .567314 .730957 .365467 .730957 C .16362 .730957 0 .567326 0 .365478 C 0 .163631 .16362 -0 .365467 -0 Z " fill="#161514"/>
<path transform="matrix(1,0,0,-1,15.808105,6.826172)" d="M .365467 .000004 C .567314 .000004 .730934 .163635 .730934 .365482 C .730934 .56733 .567314 .730957 .365467 .730957 C .16362 .730957 0 .56733 0 .365482 C 0 .163635 .16362 .000004 .365467 .000004 Z " fill="#161514"/>
<path transform="matrix(1,0,0,-1,14.431152,7.7441408)" d="M .365467 .000004 C .567314 .000004 .730934 .163635 .730934 .365482 C .730934 .56733 .567314 .730957 .365467 .730957 C .16362 .730957 0 .56733 0 .365482 C 0 .163635 .16362 .000004 .365467 .000004 Z " fill="#161514"/>
<path transform="matrix(1,0,0,-1,13.054199,6.826172)" d="M .365467 .000004 C .567314 .000004 .730934 .163635 .730934 .365482 C .730934 .56733 .567314 .730957 .365467 .730957 C .16362 .730957 0 .56733 0 .365482 C 0 .163635 .16362 .000004 .365467 .000004 Z " fill="#161514"/>
</g>
</svg>
