<svg width="24" height="26" viewBox="0 0 24 26" fill="none" xmlns="http://www.w3.org/2000/svg">
<rect x="9.3999" y="21.4" width="6" height="3.6" rx="1" stroke="white"/>
<path d="M15.3999 23.2H16.5999C18.2568 23.2 19.5999 21.8569 19.5999 20.2V18.4" stroke="white"/>
<path d="M1 11.4C1 10.2955 1.89543 9.40002 3 9.40002H5.8V17.8H3C1.89543 17.8 1 16.9046 1 15.8V11.4Z" stroke="white"/>
<path d="M22.6001 11.4C22.6001 10.2955 21.7047 9.40002 20.6001 9.40002H17.8001V17.8H20.6001C21.7047 17.8 22.6001 16.9046 22.6001 15.8V11.4Z" stroke="white"/>
<path d="M20.1999 9.4C20.1999 4.76081 16.4391 1 11.7999 1C7.16071 1 3.3999 4.76081 3.3999 9.4" stroke="white"/>
</svg>
