<svg width="92" height="27" viewBox="0 0 92 27" fill="none" xmlns="http://www.w3.org/2000/svg">
<path fill-rule="evenodd" clip-rule="evenodd" d="M10.5189 0.22907C9.94652 0.334034 9.36552 0.601252 8.35058 1.22632C8.08183 1.39185 7.52858 1.70144 7.12112 1.91434C4.82666 3.11318 2.73913 3.99957 1.4517 4.3217C0.974856 4.44099 0.784668 4.50993 0.784668 4.56356C0.784668 4.65017 1.16558 4.68023 2.26633 4.6805L3.38545 4.68076L4.69372 4.04751C6.69349 3.07954 9.30316 1.84982 9.35439 1.85129C9.3658 1.85162 8.33246 2.3979 7.05807 3.06521C3.63869 4.85577 3.36748 5.0035 3.18284 5.1758C2.88465 5.45401 2.89792 5.51461 3.2766 5.60449C3.46994 5.65039 3.68185 5.66041 4.47305 5.66096L5.43455 5.66168L6.10574 5.35788C7.05782 4.92694 8.08789 4.44086 8.721 4.12378C9.0201 3.97399 9.2648 3.85666 9.2648 3.86304C9.2648 3.91601 6.69948 5.31427 6.08081 5.5985C5.5011 5.86484 5.08835 6.20237 5.10953 6.39276C5.11678 6.45768 5.15206 6.4975 5.24541 6.54592C5.35672 6.6037 5.43244 6.61116 5.89166 6.60959C6.43502 6.60773 6.91107 6.54968 7.36358 6.43009C7.5526 6.38013 7.70855 6.30282 8.03534 6.09701C8.42826 5.84959 9.35404 5.2484 9.5564 5.10928C9.60406 5.0765 9.64309 5.05749 9.64309 5.06704C9.64309 5.09008 8.55329 5.92815 8.11415 6.24281C7.84086 6.43867 7.7425 6.53071 7.65001 6.67726C7.25223 7.30743 7.70959 7.51474 8.72308 7.16366C9.47828 6.90207 9.84365 6.67451 10.391 6.12492C10.7446 5.76975 10.6317 5.95553 10.232 6.38635C9.82663 6.82338 9.65709 7.06171 9.54887 7.34659C9.45943 7.58217 9.46523 7.74174 9.56683 7.84082C9.74129 8.01083 10.2957 7.91499 10.8492 7.61915C11.1478 7.45948 11.2703 7.33832 11.5448 6.93112C11.6324 6.80103 11.7094 6.70013 11.7159 6.70687C11.7344 6.72601 11.4743 7.24922 11.3649 7.41298C11.2831 7.53555 11.2666 7.5913 11.2666 7.7457C11.2666 7.89644 11.2808 7.94686 11.3422 8.01469C11.6614 8.3674 12.3909 8.07398 12.795 7.43029C12.8694 7.31172 12.936 7.22062 12.943 7.22786C12.9499 7.23512 12.8966 7.3747 12.8245 7.5381C12.6738 7.87946 12.6728 8.01387 12.8199 8.13395C12.8893 8.19065 12.931 8.19965 13.0473 8.18309C13.4041 8.13225 13.9167 7.75303 14.1784 7.34627L14.3042 7.15083L14.2899 6.04675C14.282 5.43952 14.2675 4.74999 14.2576 4.51445L14.2398 4.08625L13.8478 4.05019C13.38 4.00713 13.243 3.94474 13.0875 3.70389C12.9371 3.47093 12.8605 3.17165 12.8088 2.61388C12.734 1.80899 12.6059 1.41004 12.3165 1.08111C12.0261 0.751107 11.6359 0.607894 11.0302 0.609007C10.3185 0.610283 9.92663 0.730559 8.87402 1.27059C8.09971 1.66784 7.39274 2.0143 7.35642 2.0143C7.34514 2.0143 7.9011 1.72009 8.59194 1.36054C9.93101 0.66355 10.149 0.574913 10.6925 0.506334C11.6369 0.387137 12.339 0.707165 12.654 1.40029C12.7956 1.71188 12.852 1.94916 12.8932 2.40693C12.9558 3.1028 13.0576 3.4708 13.254 3.71197C13.371 3.85554 13.4953 3.90701 13.7787 3.92929C13.9055 3.93924 14.0625 3.95432 14.1275 3.9628L14.2457 3.97824V3.81916V3.66005L13.9617 3.63914C13.6306 3.61476 13.5017 3.56696 13.3876 3.4262C13.2249 3.22544 13.1325 2.8846 13.0804 2.29241C13.0614 2.07647 13.0183 1.77866 12.9845 1.6306C12.8249 0.930244 12.4195 0.455226 11.8183 0.263982C11.5823 0.188924 10.8457 0.169129 10.5189 0.22907ZM18.3439 0.201553C17.81 0.26601 17.4935 0.411513 17.2149 0.720612C16.8878 1.08347 16.7343 1.50345 16.6703 2.21062C16.6066 2.91359 16.4948 3.30419 16.3023 3.49553C16.206 3.59134 15.9864 3.65026 15.7256 3.65026C15.4986 3.65026 15.4752 3.66783 15.4752 3.8382V3.98642L15.7755 3.96355C16.309 3.92288 16.4587 3.84134 16.6209 3.50303C16.7343 3.26647 16.7909 3.0038 16.8324 2.52145C16.8965 1.77545 17.0412 1.35281 17.3519 1.00455C17.6699 0.648041 18.0382 0.510522 18.677 0.509704C19.4301 0.508755 19.6507 0.5863 21.205 1.39852C21.8875 1.7552 22.4393 2.04702 22.4311 2.04702C22.3918 2.04702 21.634 1.67703 20.9949 1.34591C19.876 0.766059 19.5316 0.649382 18.8483 0.61843C18.1868 0.588492 17.7526 0.730428 17.4332 1.08098C17.1538 1.38759 17.0109 1.78765 16.9536 2.42329C16.8978 3.04155 16.8412 3.32072 16.7197 3.57615C16.5403 3.95328 16.3927 4.0319 15.7915 4.07061L15.4594 4.09197L15.4257 5.5807L15.392 7.06943L15.5032 7.26574C15.7597 7.71838 16.3227 8.15276 16.7018 8.19059C16.8378 8.20413 16.8678 8.19543 16.9387 8.12188C17.0546 8.0016 17.046 7.84092 16.9072 7.52907C16.8452 7.38988 16.8008 7.26957 16.8083 7.26172C16.8159 7.25387 16.883 7.34443 16.9574 7.46301C17.2217 7.88411 17.6373 8.16552 17.9947 8.16552C18.3278 8.16552 18.47 8.04132 18.47 7.75028C18.47 7.6022 18.4504 7.54716 18.3273 7.34967C18.2063 7.15555 17.9971 6.72512 17.9971 6.67032C17.9971 6.66109 18.0769 6.76923 18.1745 6.91058C18.5267 7.42096 18.5745 7.46667 18.9551 7.65785C19.5535 7.95841 20.031 8.02113 20.1969 7.82096C20.3017 7.69456 20.2765 7.52132 20.1029 7.17515C19.9995 6.96882 19.8834 6.81517 19.5793 6.48254C19.1357 5.99732 18.9529 5.75352 19.2612 6.0585C19.8554 6.6463 20.1442 6.84013 20.8104 7.09845C21.9759 7.55034 22.5321 7.36407 22.082 6.67261C21.9976 6.54307 21.8664 6.42767 21.506 6.16634C20.9815 5.78602 20.0462 5.06563 20.0462 5.04204C20.0462 5.03357 20.2058 5.13418 20.4009 5.26565C20.8215 5.54913 21.9549 6.27451 22.0838 6.3427C22.3722 6.49534 23.3472 6.63917 23.971 6.62111C24.5346 6.60482 24.6958 6.53103 24.6199 6.32405C24.5536 6.14315 24.148 5.83261 23.7346 5.6463C23.1482 5.38203 20.5955 3.99578 20.4721 3.87455C20.4549 3.85767 20.7173 3.9824 21.0553 4.15172C21.7713 4.51045 22.3053 4.76285 23.4314 5.27481L24.2474 5.64575L24.7712 5.6767C25.536 5.72189 26.5011 5.65527 26.7058 5.54317C26.8236 5.47868 26.7473 5.33534 26.4773 5.11373C26.3992 5.0497 25.0019 4.2969 23.3721 3.44079C21.7423 2.58469 20.4183 1.88408 20.4299 1.88385C20.4765 1.88293 22.8717 3.00991 25.2951 4.17299L26.3984 4.70255L27.5649 4.68838C28.3792 4.6785 28.7691 4.66181 28.8566 4.63312L28.9819 4.59199L28.9136 4.53463C28.8761 4.50309 28.6282 4.42277 28.3627 4.35612C27.2839 4.08523 25.752 3.47358 23.8951 2.57229C22.9914 2.13369 21.9169 1.56176 21.3746 1.23074C20.3512 0.606029 19.9207 0.39993 19.3865 0.279C19.1174 0.218044 18.5538 0.176196 18.3439 0.201553ZM14.5294 0.740833C13.9839 0.996796 13.8525 1.73975 14.2769 2.16821C14.4514 2.34434 14.5762 2.39057 14.8769 2.39057C15.1269 2.39057 15.1569 2.38308 15.3069 2.28315C15.8762 1.9039 15.8109 1.03151 15.1914 0.740833C15.0994 0.69761 14.9831 0.674249 14.8604 0.674249C14.7377 0.674249 14.6215 0.69761 14.5294 0.740833ZM7.2157 2.07974C7.18969 2.09718 7.15422 2.11144 7.13688 2.11144C7.11954 2.11144 7.12664 2.09718 7.15265 2.07974C7.17865 2.0623 7.21412 2.04803 7.23146 2.04803C7.2488 2.04803 7.2417 2.0623 7.2157 2.07974ZM14.0757 2.22966C14.0168 2.38887 14.0783 2.50509 14.2214 2.50509C14.2706 2.50509 14.3172 2.52351 14.325 2.54599C14.339 2.58591 14.4664 10.2961 14.4664 11.1006V11.5058L14.8841 11.7138C15.7125 12.1265 16.0525 12.2882 16.0919 12.2882C16.18 12.2882 17.0098 11.9196 17.2513 11.7733C17.7762 11.4552 18.2379 10.8717 18.297 10.4516C18.3452 10.1101 18.1587 9.62258 17.8457 9.27144C17.7446 9.15806 17.643 9.01632 17.6198 8.95648C17.491 8.62379 16.9943 8.38991 16.4051 8.38451C16.1724 8.38239 16.0979 8.39462 15.9905 8.45273C15.7693 8.57232 15.5663 8.8879 15.6683 8.95337C15.6995 8.9734 15.6995 8.98861 15.668 9.028C15.639 9.06416 15.6374 9.09488 15.6617 9.14213C15.7287 9.27206 16.034 9.51228 16.3189 9.65919C16.5545 9.78071 16.6491 9.81183 16.8075 9.82001C16.9812 9.82897 17.0142 9.8419 17.0908 9.93086C17.2488 10.1144 17.1852 10.3742 16.9331 10.5751C16.4464 10.9628 15.2584 11.6814 15.2015 11.6224C15.1798 11.5999 15.3768 2.57066 15.3998 2.53195C15.4086 2.51719 15.4547 2.50509 15.5022 2.50509C15.616 2.50509 15.6643 2.45012 15.6643 2.32052C15.6643 2.17528 15.6178 2.15764 15.5018 2.25891C15.3689 2.37496 15.2077 2.45565 15.0145 2.50283C14.8823 2.53509 14.8213 2.53352 14.6756 2.49403C14.4903 2.44381 14.2541 2.3164 14.1842 2.22887C14.1323 2.16406 14.0999 2.16428 14.0757 2.22966ZM13.0635 8.38134C12.5034 8.4579 12.1328 8.66541 12.0002 8.97657C11.9673 9.05372 11.881 9.17387 11.8084 9.24356C11.5313 9.50957 11.3399 9.95615 11.3399 10.3366C11.3399 10.5293 11.3562 10.5967 11.4511 10.7955C11.6481 11.2079 12.0152 11.5688 12.5199 11.8461C12.8317 12.0175 13.177 12.1613 14.2615 12.5715C15.5314 13.0519 16.0056 13.3221 16.2554 13.7079C16.38 13.9004 16.39 14.0616 16.2869 14.2191C16.247 14.28 15.9193 14.5473 15.5382 14.8297C14.1095 15.8883 13.9117 16.0421 13.6544 16.2942C13.3506 16.5918 13.1342 16.8903 13.0282 17.1577C12.9311 17.4029 12.9269 17.7424 13.018 17.9951C13.1662 18.4063 13.5952 18.9656 14.1247 19.4383C14.5537 19.8212 15.2949 20.5754 15.4315 20.768C15.5691 20.962 15.6643 21.2478 15.6643 21.4666C15.6643 21.7042 15.5153 21.9959 15.155 22.4638C14.6054 23.1777 14.365 23.6298 14.2641 24.1393C14.1752 24.5882 14.213 24.9622 14.3807 25.2941C14.4819 25.4943 14.4875 25.4416 14.3994 25.1162C14.2528 24.5745 14.4197 23.9172 14.8401 23.3805C14.9033 23.2998 15.1656 23.0073 15.4229 22.7306C15.6803 22.4539 15.9316 22.1607 15.9814 22.0793C16.1197 21.8529 16.2123 21.532 16.2102 21.286C16.2062 20.8142 16.0365 20.5619 14.9559 19.421C14.075 18.4908 13.8978 18.2794 13.7595 17.9929C13.5454 17.5494 13.7392 17.115 14.3843 16.5926C14.6406 16.3851 15.3242 15.9145 16.1201 15.3978C17.0388 14.8013 17.3643 14.3755 17.3297 13.8158C17.2937 13.2342 16.8852 12.872 15.456 12.1537C15.0937 11.9717 14.5418 11.6945 14.2295 11.5377C13.8643 11.3543 13.4929 11.1354 13.1892 10.9245C12.5482 10.4796 12.4008 10.3019 12.4687 10.0562C12.5099 9.90704 12.6319 9.82822 12.8361 9.8188C13.2128 9.80142 13.9935 9.29526 13.9935 9.06845C13.9935 9.03972 13.9776 9.01623 13.9581 9.01623C13.9335 9.01623 13.9346 9.00137 13.9616 8.96757C14.0472 8.86058 13.8734 8.58001 13.6474 8.46036C13.5295 8.39796 13.2343 8.35801 13.0635 8.38134ZM13.3912 8.68622C13.4687 8.73713 13.4054 8.81991 13.289 8.81991C13.155 8.81991 13.08 8.74351 13.1642 8.69267C13.2342 8.65046 13.3325 8.64764 13.3912 8.68622ZM16.467 8.70042C16.5513 8.76442 16.4993 8.81991 16.355 8.81991C16.2693 8.81991 16.2237 8.80339 16.2104 8.76753C16.1728 8.66593 16.3578 8.61757 16.467 8.70042ZM13.2393 12.6569C12.8331 12.9088 12.5265 13.2115 12.4022 13.4832C12.227 13.866 12.2939 14.2659 12.5998 14.6651C12.7646 14.8802 12.9842 15.0545 13.5804 15.4434L14.0601 15.7564L14.5774 15.3742C15.1875 14.9235 15.1202 15.1004 15.1388 13.8982L15.1517 13.0707L15.0376 13.0211C14.9503 12.9831 14.1785 12.6847 13.6152 12.4711C13.589 12.4611 13.4213 12.5441 13.2393 12.6569ZM14.5256 14.5885L14.5294 15.1384L14.4427 15.0852C14.3951 15.0559 14.1375 14.8667 13.8704 14.6648C13.3364 14.2609 13.2541 14.1605 13.2799 13.944C13.312 13.6755 13.6769 13.3224 14.1984 13.0554L14.4821 12.9101L14.5019 13.4744C14.5128 13.7847 14.5235 14.2861 14.5256 14.5885ZM15.1573 16.1925C14.942 16.3405 14.7198 16.4971 14.6634 16.5405L14.5609 16.6194L14.561 17.0795C14.5611 17.3326 14.5704 17.8373 14.5817 18.2012L14.6024 18.8629L14.9495 19.2237C15.1405 19.4222 15.3121 19.5846 15.3311 19.5846C15.3916 19.5846 15.971 19.0008 16.1857 18.7236C16.2997 18.5763 16.4594 18.3176 16.5406 18.1488C16.6779 17.863 16.688 17.8246 16.688 17.5893C16.688 17.3581 16.6768 17.3132 16.5559 17.0618C16.4833 16.9107 16.3432 16.6914 16.2445 16.5744C16.0715 16.3691 15.7014 16.0129 15.5986 15.9527C15.5615 15.931 15.4484 15.9925 15.1573 16.1925ZM15.2709 16.6076C15.4997 16.7908 15.7702 17.0921 15.848 17.2504C15.9687 17.4959 15.9926 17.6619 15.9338 17.8457C15.8633 18.0658 15.6268 18.4077 15.3036 18.7563L15.0362 19.0447L15.035 18.6983C15.033 18.1179 15.0745 16.4762 15.0912 16.4762C15.0998 16.4762 15.1806 16.5353 15.2709 16.6076ZM14.0863 20.0344C13.8426 20.3083 13.6342 20.5972 13.5256 20.8115C13.4532 20.9545 13.4427 21.0142 13.4423 21.286C13.4415 21.8089 13.5569 22.0332 14.1605 22.6813C14.5406 23.0894 14.5438 23.0919 14.5913 23.0177C14.6177 22.9766 14.7074 22.8482 14.7908 22.7324L14.9424 22.5219L14.9671 21.4868L14.9918 20.4516L14.6739 20.1336C14.4991 19.9587 14.3395 19.8152 14.3194 19.8146C14.2993 19.814 14.1944 19.913 14.0863 20.0344ZM14.64 22.6539C14.635 22.6593 14.5243 22.5237 14.3939 22.3524C13.9762 21.8034 13.8881 21.5071 14.026 21.1143C14.1081 20.8805 14.1871 20.7593 14.4335 20.4891L14.6082 20.2975L14.6287 21.4707C14.6399 22.1159 14.645 22.6483 14.64 22.6539ZM14.9308 23.4863C14.8719 23.5628 14.7901 23.6834 14.7491 23.7543L14.6745 23.8832L14.6829 24.8995C14.6907 25.8284 14.7182 26.1938 14.7803 26.1938C14.8471 26.1938 14.8742 25.8534 14.8948 24.7573C14.9194 23.4484 14.9131 23.4771 15.0906 23.8708C15.1922 24.0961 15.2118 24.3254 15.1494 24.5579C15.1228 24.6569 15.0919 24.7746 15.0808 24.8196L15.0605 24.9014L15.1242 24.8265C15.3479 24.5631 15.3782 24.0092 15.1922 23.5845C15.1352 23.454 15.0771 23.3473 15.0632 23.3473C15.0494 23.3473 14.9898 23.4099 14.9308 23.4863Z" fill="white"/>
<path fill-rule="evenodd" clip-rule="evenodd" d="M49.9891 6.09931C49.4845 7.18058 48.7253 8.80652 48.3018 9.71251L47.532 11.3597H48.3008H49.0695L49.3923 10.6512L49.715 9.94277H51.4447H53.1743L53.497 10.6512L53.8198 11.3597H54.5873H55.3549L54.2192 8.93319C53.5946 7.59865 52.8347 5.97263 52.5307 5.31999L51.9779 4.1333H51.4423H50.9066L49.9891 6.09931ZM57.9031 6.09931C57.3985 7.18058 56.6392 8.80652 56.2158 9.71251L55.446 11.3597H56.2147H56.9835L57.3062 10.6512L57.629 9.94277H59.3586H61.0883L61.411 10.6512L61.7337 11.3597H62.5013H63.2689L62.1332 8.93319C61.5086 7.59865 60.7487 5.97263 60.4447 5.31999L59.8919 4.1333H59.3562H58.8206L57.9031 6.09931ZM33.7258 7.78193V11.3597H34.4261H35.1265V9.76565V8.17159H36.5272H37.9279V9.76565V11.3597H38.6282H39.3286V7.78193V4.20415H38.6282H37.9279V5.62109V7.03803H36.5272H35.1265V5.62109V4.20415H34.4261H33.7258V7.78193ZM40.6592 7.78193V11.3597H41.3596H42.0599V7.78193V4.20415H41.3596H40.6592V7.78193ZM43.3906 7.78193V11.3597H44.091H44.7913V10.1991V9.03847L45.6902 9.01021C46.5354 8.98357 46.6169 8.96805 47.053 8.75083C47.5576 8.49954 47.9144 8.13531 48.1702 7.61019C48.3024 7.33878 48.3279 7.17059 48.3273 6.57753C48.3267 5.9433 48.3064 5.8303 48.1347 5.49944C47.8754 4.99976 47.5173 4.65417 47.0048 4.4089L46.5772 4.20429L44.9839 4.20422L43.3906 4.20415V7.78193ZM46.3304 5.41613C46.6415 5.59296 46.9148 5.98822 46.9948 6.37675C47.0695 6.73955 46.9108 7.17973 46.5874 7.5069C46.2482 7.85001 45.9316 7.95812 45.264 7.95862L44.7913 7.95905V6.56768V5.17638L45.4131 5.21223C45.8921 5.23986 46.1027 5.28669 46.3304 5.41613ZM52.03 7.46822C52.3317 8.1334 52.5642 8.6921 52.5467 8.70981C52.5293 8.72752 52.0124 8.73319 51.3981 8.72242L50.2812 8.70294L50.8454 7.48111C51.1558 6.80913 51.4258 6.25921 51.4456 6.259C51.4653 6.25886 51.7283 6.80296 52.03 7.46822ZM59.944 7.46822C60.2457 8.1334 60.4782 8.6921 60.4607 8.70981C60.4433 8.72752 59.9263 8.73319 59.3121 8.72242L58.1952 8.70294L58.7594 7.48111C59.0697 6.80913 59.3398 6.25921 59.3595 6.259C59.3793 6.25886 59.6423 6.80296 59.944 7.46822ZM36.1069 15.0354C34.3091 15.6223 33.2309 17.3482 33.5125 19.1883C33.8884 21.6447 36.6933 23.0661 38.9505 21.9441C39.4339 21.7038 40.2661 21.0358 40.2246 20.9212C40.2132 20.89 40.0034 20.6536 39.7581 20.3958L39.3122 19.9272L38.9352 20.2879C38.3899 20.8097 38.028 20.9579 37.2975 20.9588C36.7998 20.9593 36.6377 20.9289 36.3086 20.7728C35.7557 20.5105 35.3753 20.1354 35.1106 19.5914C34.9137 19.187 34.8835 19.0524 34.8857 18.5895C34.891 17.4753 35.5711 16.6081 36.6962 16.281C37.4649 16.0574 38.3065 16.2924 38.9631 16.9136L39.3025 17.2347L39.7735 16.7546L40.2446 16.2744L40.0994 16.0877C39.8619 15.7822 38.9357 15.1997 38.4427 15.0457C37.838 14.8567 36.67 14.8516 36.1069 15.0354ZM43.0404 15.0633C42.191 15.3573 41.5505 15.8363 41.1111 16.5059C39.5073 18.9501 41.1016 22.135 44.0209 22.3186C46.2061 22.4561 48.0182 20.7624 48.0112 18.5889C48.0091 17.9198 47.9238 17.5411 47.6436 16.9566C47.2135 16.0595 46.155 15.1988 45.2115 14.9789C44.6361 14.8449 43.5494 14.8871 43.0404 15.0633ZM49.0635 18.5838V22.1993H49.7288H50.3941V19.8118C50.3941 18.2904 50.4184 17.4488 50.4612 17.4921C50.4981 17.5294 50.9727 18.3567 51.5159 19.3306C52.0591 20.3044 52.5256 21.1239 52.5526 21.1515C52.5796 21.1792 53.0899 20.3666 53.6865 19.3457L54.7713 17.4897L54.7897 19.8445L54.8082 22.1993H55.4726H56.137V18.5837V14.9681L55.3969 14.9882L54.6569 15.0083L53.6581 16.7335C53.1088 17.6824 52.635 18.4573 52.6051 18.4557C52.5752 18.454 52.1207 17.6776 51.595 16.7305L50.6392 15.0083L49.8514 14.9883L49.0635 14.9682V18.5838ZM73.5209 16.9389C73.0163 18.0203 72.2571 19.6461 71.8336 20.5521L71.0638 22.1993H71.8326H72.6014L72.9241 21.4908L73.2468 20.7824H74.9765H76.7061L77.0289 21.4908L77.3516 22.1993H78.1192H78.8867L77.7511 19.7728C77.1264 18.4383 76.3665 16.8122 76.0625 16.1596L75.5097 14.9729H74.9741H74.4385L73.5209 16.9389ZM79.5988 18.5838V22.1993H80.2641H80.9295V19.7155C80.9295 18.2984 80.956 17.2482 80.9912 17.2703C81.0253 17.2915 81.7527 18.4093 82.6077 19.7541L84.1623 22.1993H84.857H85.5518V18.5861V14.9729H84.8524H84.153L84.1346 17.2842L84.1161 19.5955L82.6446 17.3019L81.1732 15.0083L80.386 14.9883L79.5988 14.9682V18.5838ZM57.5377 18.6215V22.1993H58.2381H58.9384V21.0387V19.8781L59.8373 19.8498C60.6825 19.8232 60.764 19.8077 61.2001 19.5904C61.7047 19.3391 62.0615 18.9749 62.3173 18.4498C62.4495 18.1784 62.4751 18.0102 62.4744 17.4171C62.4738 16.7829 62.4536 16.6699 62.2818 16.3391C62.0225 15.8394 61.6644 15.4938 61.1519 15.2485L60.7243 15.0439L59.131 15.0438L57.5377 15.0438V18.6215ZM63.3506 18.6215V22.1993H65.7668H68.1831V21.5263V20.8532H66.4672H64.7513V17.9485V15.0438H64.051H63.3506V18.6215ZM69.0235 18.6215V22.1993H69.7238H70.4242V18.6215V15.0438H69.7238H69.0235V18.6215ZM86.4622 15.646V16.2482H87.4427H88.4232V19.2237V22.1993H89.1236H89.8239V19.2237V16.2482H90.8044H91.7849V15.646V15.0438H89.1236H86.4622V15.646ZM60.4775 16.2557C60.7886 16.4326 61.062 16.8278 61.1419 17.2164C61.2166 17.5792 61.0579 18.0193 60.7345 18.3465C60.3953 18.6896 60.0787 18.7977 59.4112 18.7982L58.9384 18.7987V17.4073V16.016L59.5602 16.0518C60.0392 16.0795 60.2498 16.1263 60.4775 16.2557ZM44.8594 16.2895C46.5733 16.8045 47.1698 18.8339 46.01 20.2045C45.8654 20.3754 45.5748 20.5881 45.2972 20.7263C44.8772 20.9352 44.7663 20.9594 44.2321 20.9581C43.5133 20.9564 43.1439 20.8105 42.6316 20.3258C41.2713 19.0387 41.8507 16.7693 43.6658 16.2742C44.1069 16.1539 44.4212 16.1579 44.8594 16.2895ZM75.5618 18.3078C75.8635 18.973 76.0961 19.5317 76.0785 19.5494C76.0611 19.5671 75.5442 19.5728 74.9299 19.562L73.813 19.5425L74.3773 18.3207C74.6876 17.6487 74.9576 17.0988 74.9774 17.0986C74.9971 17.0985 75.2601 17.6426 75.5618 18.3078Z" fill="white"/>
</svg>
