<svg width="19" height="19" viewBox="0 0 19 19" fill="none" xmlns="http://www.w3.org/2000/svg">
<path opacity="0.5" fill-rule="evenodd" clip-rule="evenodd" d="M9.5 19C4.25329 19 0 14.7467 0 9.5C0 4.25329 4.25329 0 9.5 0C14.7467 0 19 4.25329 19 9.5C19 14.7467 14.7467 19 9.5 19ZM9.49887 17.9958C14.1933 17.9958 17.9989 14.1902 17.9989 9.49576C17.9989 4.80134 14.1933 0.995766 9.49887 0.995766C4.80445 0.995766 0.998871 4.80134 0.998871 9.49576C0.998871 14.1902 4.80445 17.9958 9.49887 17.9958ZM8.94149 6.55238V5.5848H9.90906V6.55238H8.94149ZM8.94149 12.8538V7.51986H9.90906V12.8538H8.94149Z" fill="#161514"/>
</svg>
