<svg width="19" height="18" viewBox="0 0 19 18" fill="none" xmlns="http://www.w3.org/2000/svg">
<path fill-rule="evenodd" clip-rule="evenodd" d="M18.6797 15.3253C18.6797 16.4299 17.7843 17.3253 16.6797 17.3253H15.6797C14.5751 17.3253 13.6797 16.4299 13.6797 15.3253V2C13.6797 0.895429 14.5751 0 15.6797 0H16.6797C17.7843 0 18.6797 0.895431 18.6797 2V15.3253ZM11.8398 15.3253C11.8398 16.4299 10.9444 17.3253 9.83984 17.3253H8.83984C7.73527 17.3253 6.83984 16.4298 6.83984 15.3253V9.53271C6.83984 8.42814 7.73527 7.53271 8.83984 7.53271H9.83984C10.9444 7.53271 11.8398 8.42815 11.8398 9.53271V15.3253ZM3 17.3253C4.10457 17.3253 5 16.4299 5 15.3253V11.7926C5 10.688 4.10457 9.79257 3 9.79257H2C0.895431 9.79257 0 10.688 0 11.7926V15.3253C0 16.4299 0.89543 17.3253 2 17.3253H3Z" fill="#FFFFFF"/>
</svg>
