<svg width="28" height="16" viewBox="0 0 28 16" fill="none" xmlns="http://www.w3.org/2000/svg">
<g filter="url(#filter0_b_736_4687)">
<path fill-rule="evenodd" clip-rule="evenodd" d="M0 7.90355C0 12.1494 3.4419 15.5913 7.6877 15.5913C11.9335 15.5913 15.3754 12.1494 15.3754 7.90355C15.3754 3.65775 11.9335 0.215851 7.6877 0.215851C3.4419 0.215851 0 3.65775 0 7.90355ZM5.33748 7.43419C5.89128 7.43419 6.34023 6.98525 6.34023 6.43145C6.34023 5.87765 5.89128 5.42871 5.33748 5.42871C4.78368 5.42871 4.33474 5.87765 4.33474 6.43145C4.33474 6.98525 4.78368 7.43419 5.33748 7.43419ZM11.0165 6.43145C11.0165 6.98525 10.5676 7.43419 10.0138 7.43419C9.45995 7.43419 9.01101 6.98525 9.01101 6.43145C9.01101 5.87765 9.45995 5.42871 10.0138 5.42871C10.5676 5.42871 11.0165 5.87765 11.0165 6.43145ZM4.96584 9.83109L4.13508 10.7106C5.37098 11.6428 6.58387 12.115 7.77089 12.115C8.96294 12.115 10.1206 11.6388 11.2366 10.6994L10.622 9.83109C9.62017 10.6744 8.79489 10.9623 7.77089 10.9623C6.74186 10.9623 6.09326 10.6815 4.96584 9.83109Z" fill="#ffffff"/>
</g>
<g filter="url(#filter1_b_736_4687)">
<path fill-rule="evenodd" clip-rule="evenodd" d="M16.5353 8C16.5353 10.0298 15.8633 11.9027 14.7297 13.4084C16.091 14.6313 17.8913 15.3754 19.8654 15.3754C24.1112 15.3754 27.5531 11.9335 27.5531 7.6877C27.5531 3.4419 24.1112 0 19.8654 0C17.7512 0 15.8363 0.853449 14.4465 2.23463C15.7505 3.79618 16.5353 5.80644 16.5353 8ZM18.5179 6.21626C18.5179 6.77006 18.069 7.219 17.5152 7.219C16.9614 7.219 16.5124 6.77006 16.5124 6.21626C16.5124 5.66246 16.9614 5.21351 17.5152 5.21351C18.069 5.21351 18.5179 5.66246 18.5179 6.21626ZM22.1914 7.219C22.7452 7.219 23.1942 6.77006 23.1942 6.21626C23.1942 5.66246 22.7452 5.21351 22.1914 5.21351C21.6376 5.21351 21.1887 5.66246 21.1887 6.21626C21.1887 6.77006 21.6376 7.219 22.1914 7.219ZM17.1435 9.61524L16.3128 10.4947C17.5487 11.427 18.7616 11.8991 19.9486 11.8991C21.1406 11.8991 22.2983 11.4229 23.4143 10.4836L22.7997 9.61524C21.7979 10.4585 20.9726 10.7465 19.9486 10.7465C18.9196 10.7465 18.271 10.4657 17.1435 9.61524Z" fill="#ffffff"/>
</g>
<defs>
<filter id="filter0_b_736_4687" x="-3" y="-2.78415" width="21.3754" height="21.3754" filterUnits="userSpaceOnUse" color-interpolation-filters="sRGB">
<feFlood flood-opacity="0" result="BackgroundImageFix"/>
<feGaussianBlur in="BackgroundImage" stdDeviation="1.5"/>
<feComposite in2="SourceAlpha" operator="in" result="effect1_backgroundBlur_736_4687"/>
<feBlend mode="normal" in="SourceGraphic" in2="effect1_backgroundBlur_736_4687" result="shape"/>
</filter>
<filter id="filter1_b_736_4687" x="11.4465" y="-3" width="19.1066" height="21.3754" filterUnits="userSpaceOnUse" color-interpolation-filters="sRGB">
<feFlood flood-opacity="0" result="BackgroundImageFix"/>
<feGaussianBlur in="BackgroundImage" stdDeviation="1.5"/>
<feComposite in2="SourceAlpha" operator="in" result="effect1_backgroundBlur_736_4687"/>
<feBlend mode="normal" in="SourceGraphic" in2="effect1_backgroundBlur_736_4687" result="shape"/>
</filter>
</defs>
</svg>
