<svg width="48" height="48" viewBox="0 0 48 48" fill="none" xmlns="http://www.w3.org/2000/svg">
<g filter="url(#filter0_b_2485_5597)">
<rect x="2" y="2" width="44" height="44" rx="20" stroke="#161514" stroke-width="4"/>
</g>
<path fill-rule="evenodd" clip-rule="evenodd" d="M19.4971 16.5C19.4971 14.0147 21.5118 12 23.9971 12C26.4824 12 28.4971 14.0147 28.4971 16.5V19.6736H19.4971V16.5ZM18.4971 19.6736V16.5C18.4971 13.4624 20.9595 11 23.9971 11C27.0346 11 29.4971 13.4624 29.4971 16.5V19.6736H31C32.1046 19.6736 33 20.569 33 21.6736V33C33 34.1046 32.1046 35 31 35H17C15.8954 35 15 34.1046 15 33V21.6736C15 20.569 15.8954 19.6736 17 19.6736H18.4971ZM31 20.6736H17C16.4477 20.6736 16 21.1213 16 21.6736V33C16 33.5523 16.4477 34 17 34H31C31.5523 34 32 33.5523 32 33V21.6736C32 21.1213 31.5523 20.6736 31 20.6736ZM23.2539 27.7004C22.5195 27.3977 22 26.6619 22 25.8043C22 24.6773 22.897 23.7607 24 23.7607C25.103 23.7607 26 24.6773 26 25.8043C26 26.6589 25.4842 27.3925 24.7539 27.6971V30.1465C24.7539 30.5695 24.4179 30.9128 24.0039 30.9128C23.5899 30.9128 23.2539 30.5695 23.2539 30.1465V27.7004ZM23.5 25.8043C23.5 25.5223 23.725 25.2934 24 25.2934C24.275 25.2934 24.5 25.5223 24.5 25.8043C24.5 26.0863 24.275 26.3151 24 26.3151C23.725 26.3151 23.5 26.0863 23.5 25.8043Z" fill="#161514"/>
<ellipse cx="16.3506" cy="22.395" rx="0.467812" ry="0.474106" fill="#161514"/>
<ellipse cx="16.3506" cy="24.9223" rx="0.467812" ry="0.474106" fill="#161514"/>
<ellipse cx="24.8116" cy="21.1255" rx="0.467812" ry="0.474106" fill="#161514"/>
<ellipse cx="26.4756" cy="22.395" rx="0.467812" ry="0.474106" fill="#161514"/>
<ellipse cx="18.0616" cy="23.6577" rx="0.467812" ry="0.474106" fill="#161514"/>
<ellipse cx="18.0577" cy="21.1255" rx="0.467812" ry="0.474106" fill="#161514"/>
<ellipse cx="18.0577" cy="26.1841" rx="0.467812" ry="0.474106" fill="#161514"/>
<ellipse cx="19.7178" cy="22.395" rx="0.467812" ry="0.474106" fill="#161514"/>
<ellipse cx="19.7178" cy="24.9223" rx="0.467812" ry="0.474106" fill="#161514"/>
<ellipse cx="21.4483" cy="23.6577" rx="0.467812" ry="0.474106" fill="#161514"/>
<ellipse cx="21.4483" cy="21.1255" rx="0.467812" ry="0.474106" fill="#161514"/>
<ellipse cx="23.1084" cy="22.395" rx="0.467812" ry="0.474106" fill="#161514"/>
<ellipse cx="23.1084" cy="24.9223" rx="0.467812" ry="0.474106" fill="#161514"/>
<ellipse cx="28.1827" cy="23.6577" rx="0.467812" ry="0.474106" fill="#161514"/>
<ellipse cx="28.1827" cy="21.1255" rx="0.467812" ry="0.474106" fill="#161514"/>
<ellipse cx="28.1827" cy="26.1841" rx="0.467812" ry="0.474106" fill="#161514"/>
<ellipse cx="29.8428" cy="22.395" rx="0.467812" ry="0.474106" fill="#161514"/>
<ellipse cx="29.8428" cy="24.9223" rx="0.467812" ry="0.474106" fill="#161514"/>
<ellipse cx="31.5694" cy="23.6577" rx="0.467812" ry="0.474106" fill="#161514"/>
<ellipse cx="31.5694" cy="21.1255" rx="0.467812" ry="0.474106" fill="#161514"/>
<ellipse cx="31.5694" cy="26.1841" rx="0.467812" ry="0.474106" fill="#161514"/>
<ellipse cx="16.3506" cy="27.9653" rx="0.467812" ry="0.474106" fill="#161514"/>
<ellipse cx="16.3506" cy="30.4936" rx="0.467812" ry="0.474106" fill="#161514"/>
<ellipse cx="16.3506" cy="32.8813" rx="0.467812" ry="0.474106" fill="#161514"/>
<ellipse cx="24.8116" cy="26.6968" rx="0.467812" ry="0.474106" fill="#161514"/>
<ellipse cx="24.8116" cy="31.7554" rx="0.467812" ry="0.474106" fill="#161514"/>
<ellipse cx="24.8116" cy="34.1431" rx="0.467812" ry="0.474106" fill="#161514"/>
<ellipse cx="26.4756" cy="27.9653" rx="0.467812" ry="0.474106" fill="#161514"/>
<ellipse cx="18.0616" cy="29.229" rx="0.467812" ry="0.474106" fill="#161514"/>
<ellipse cx="18.0577" cy="31.7554" rx="0.467812" ry="0.474106" fill="#161514"/>
<ellipse cx="18.0577" cy="34.1431" rx="0.467812" ry="0.474106" fill="#161514"/>
<ellipse cx="19.7178" cy="27.9653" rx="0.467812" ry="0.474106" fill="#161514"/>
<ellipse cx="19.7178" cy="30.4936" rx="0.467812" ry="0.474106" fill="#161514"/>
<ellipse cx="19.7178" cy="32.8813" rx="0.467812" ry="0.474106" fill="#161514"/>
<ellipse cx="26.4756" cy="30.4946" rx="0.467812" ry="0.474106" fill="#161514"/>
<ellipse cx="26.4756" cy="32.8823" rx="0.467812" ry="0.474106" fill="#161514"/>
<ellipse cx="21.4483" cy="29.229" rx="0.467812" ry="0.474106" fill="#161514"/>
<ellipse cx="21.4483" cy="31.7554" rx="0.467812" ry="0.474106" fill="#161514"/>
<ellipse cx="21.4483" cy="34.1431" rx="0.467812" ry="0.474106" fill="#161514"/>
<ellipse cx="23.1084" cy="32.8813" rx="0.467812" ry="0.474106" fill="#161514"/>
<ellipse cx="28.1827" cy="29.229" rx="0.467812" ry="0.474106" fill="#161514"/>
<ellipse cx="28.1827" cy="31.7554" rx="0.467812" ry="0.474106" fill="#161514"/>
<ellipse cx="28.1827" cy="34.1431" rx="0.467812" ry="0.474106" fill="#161514"/>
<ellipse cx="29.8428" cy="27.9653" rx="0.467812" ry="0.474106" fill="#161514"/>
<ellipse cx="29.8428" cy="30.4936" rx="0.467812" ry="0.474106" fill="#161514"/>
<ellipse cx="29.8428" cy="32.8813" rx="0.467812" ry="0.474106" fill="#161514"/>
<ellipse cx="31.5694" cy="29.229" rx="0.467812" ry="0.474106" fill="#161514"/>
<ellipse cx="31.5694" cy="31.7554" rx="0.467812" ry="0.474106" fill="#161514"/>
<ellipse cx="31.5694" cy="34.1431" rx="0.467812" ry="0.474106" fill="#161514"/>
<defs>
<filter id="filter0_b_2485_5597" x="-5.43656" y="-5.43659" width="58.8731" height="58.8732" filterUnits="userSpaceOnUse" color-interpolation-filters="sRGB">
<feFlood flood-opacity="0" result="BackgroundImageFix"/>
<feGaussianBlur in="BackgroundImage" stdDeviation="2.71828"/>
<feComposite in2="SourceAlpha" operator="in" result="effect1_backgroundBlur_2485_5597"/>
<feBlend mode="normal" in="SourceGraphic" in2="effect1_backgroundBlur_2485_5597" result="shape"/>
</filter>
</defs>
</svg>
