<svg width="31" height="45" viewBox="0 0 31 45" fill="none" xmlns="http://www.w3.org/2000/svg">
<path fill-rule="evenodd" clip-rule="evenodd" d="M15.0203 5.99292C13.4846 5.99292 0 5.91058 0 2.99474C0 0.0823231 13.4846 0 15.0203 0C16.5595 0 30.0407 0.0823231 30.0407 2.99474C30.0407 5.91058 16.5595 5.99292 15.0203 5.99292ZM1.25743 2.99474C1.91019 3.63966 6.45546 4.77855 15.0203 4.77855C23.5852 4.77855 28.1305 3.63966 28.7833 2.99474C28.1305 2.35325 23.5852 1.21093 15.0203 1.21093C6.45546 1.21093 1.91019 2.35325 1.25743 2.99474ZM28.8417 3.06678H28.8451H28.8417Z" fill="#161514"/>
<path d="M15.0201 44.9999C11.4917 44.9999 4.81641 44.3721 4.81641 42.0017C4.81641 41.669 5.08782 41.3979 5.42107 41.3979C5.75776 41.3979 6.02915 41.669 6.02915 42.0017C6.02915 42.5197 9.17959 43.7855 15.0201 43.7855C20.8605 43.7855 24.011 42.5197 24.011 42.0017C24.011 41.669 24.2824 41.3979 24.6191 41.3979C24.9523 41.3979 25.2272 41.669 25.2272 42.0017C25.2272 44.3721 18.5518 44.9999 15.0201 44.9999Z" fill="#161514"/>
<path d="M5.42108 42.6092C5.11875 42.6092 4.85765 42.3862 4.81986 42.0775L0.00661241 3.07033C-0.0346145 2.73758 0.202429 2.43571 0.532245 2.39454C0.868931 2.35338 1.17128 2.59008 1.2125 2.92283L6.02573 41.93C6.06695 42.2627 5.82991 42.5646 5.49666 42.6058C5.47261 42.6092 5.44857 42.6092 5.42108 42.6092Z" fill="#161514"/>
<path d="M24.6191 42.6092C24.595 42.6092 24.571 42.6092 24.5435 42.6058C24.2102 42.5646 23.9732 42.2627 24.0144 41.93L28.8311 2.92283C28.8689 2.59008 29.1712 2.35338 29.5079 2.39454C29.8412 2.43571 30.0782 2.73758 30.037 3.07033L25.2203 42.0775C25.1825 42.3862 24.9214 42.6092 24.6191 42.6092Z" fill="#161514"/>
<g filter="url(#filter0_b_1587_11003)">
<path fill-rule="evenodd" clip-rule="evenodd" d="M7 24.9625C7 20.5508 10.5817 16.9745 15 16.9745C19.4183 16.9745 23 20.5508 23 24.9625C23 29.3741 19.4183 32.9504 15 32.9504C10.5817 32.9504 7 29.3741 7 24.9625Z" fill="white"/>
</g>
<path fill-rule="evenodd" clip-rule="evenodd" d="M14.0628 27.9561L11 25.0758L11.8576 24.2693L14.0628 26.3431L18.7183 21.9651L19.5759 22.7716L14.0628 27.9561Z" fill="#161514"/>
<defs>
<filter id="filter0_b_1587_11003" x="1.31385" y="11.2885" width="27.3723" height="27.3481" filterUnits="userSpaceOnUse" color-interpolation-filters="sRGB">
<feFlood flood-opacity="0" result="BackgroundImageFix"/>
<feGaussianBlur in="BackgroundImageFix" stdDeviation="2.84308"/>
<feComposite in2="SourceAlpha" operator="in" result="effect1_backgroundBlur_1587_11003"/>
<feBlend mode="normal" in="SourceGraphic" in2="effect1_backgroundBlur_1587_11003" result="shape"/>
</filter>
</defs>
</svg>
